{"header":{"formatType":1,"trackCount":12,"ticksPerBeat":192},"tracks":[[{"deltaTime":0,"type":"meta","subtype":"trackName","text":"TETRIS2"},{"deltaTime":0,"type":"meta","subtype":"text","text":"By NoteWorthy Composer"},{"deltaTime":0,"type":"meta","subtype":"copyrightNotice","text":"Copyright © 2003 NoteWorthy Software, Inc."},{"deltaTime":0,"type":"meta","subtype":"copyrightNotice","text":"All Rights Reserved"},{"deltaTime":0,"type":"meta","subtype":"text","text":"Generated by NoteWorthy Composer"},{"deltaTime":0,"type":"meta","subtype":"setTempo","microsecondsPerBeat":400000},{"deltaTime":0,"type":"meta","subtype":"timeSignature","numerator":4,"denominator":4,"metronome":24,"thirtyseconds":8},{"deltaTime":0,"type":"meta","subtype":"endOfTrack"}],[{"deltaTime":0,"type":"meta","subtype":"unknown","data":"\u0000"},{"deltaTime":0,"type":"meta","subtype":"trackName","text":"Staff"},{"deltaTime":0,"channel":0,"type":"channel","subtype":"programChange","programNumber":80},{"deltaTime":0,"channel":0,"type":"channel","subtype":"controller","controllerType":7,"value":127},{"deltaTime":0,"channel":0,"type":"channel","subtype":"controller","controllerType":10,"value":64},{"deltaTime":0,"channel":0,"type":"channel","subtype":"programChange","programNumber":80},{"deltaTime":0,"channel":0,"type":"channel","subtype":"controller","controllerType":7,"value":127},{"deltaTime":0,"channel":0,"type":"channel","subtype":"controller","controllerType":10,"value":64},{"deltaTime":0,"channel":0,"type":"channel","noteNumber":71,"velocity":110,"subtype":"noteOn"},{"deltaTime":160,"channel":0,"type":"channel","noteNumber":71,"velocity":0,"subtype":"noteOff"},{"deltaTime":32,"channel":0,"type":"channel","noteNumber":66,"velocity":110,"subtype":"noteOn"},{"deltaTime":94,"channel":0,"type":"channel","noteNumber":66,"velocity":0,"subtype":"noteOff"},{"deltaTime":2,"channel":0,"type":"channel","noteNumber":67,"velocity":110,"subtype":"noteOn"},{"deltaTime":94,"channel":0,"type":"channel","noteNumber":67,"velocity":0,"subtype":"noteOff"},{"deltaTime":2,"channel":0,"type":"channel","noteNumber":69,"velocity":110,"subtype":"noteOn"},{"deltaTime":94,"channel":0,"type":"channel","noteNumber":69,"velocity":0,"subtype":"noteOff"},{"deltaTime":2,"channel":0,"type":"channel","noteNumber":71,"velocity":110,"subtype":"noteOn"},{"deltaTime":46,"channel":0,"type":"channel","noteNumber":71,"velocity":0,"subtype":"noteOff"},{"deltaTime":2,"channel":0,"type":"channel","noteNumber":69,"velocity":110,"subtype":"noteOn"},{"deltaTime":46,"channel":0,"type":"channel","noteNumber":69,"velocity":0,"subtype":"noteOff"},{"deltaTime":2,"channel":0,"type":"channel","noteNumber":67,"velocity":110,"subtype":"noteOn"},{"deltaTime":94,"channel":0,"type":"channel","noteNumber":67,"velocity":0,"subtype":"noteOff"},{"deltaTime":2,"channel":0,"type":"channel","noteNumber":66,"velocity":110,"subtype":"noteOn"},{"deltaTime":94,"channel":0,"type":"channel","noteNumber":66,"velocity":0,"subtype":"noteOff"},{"deltaTime":2,"channel":0,"type":"channel","noteNumber":64,"velocity":110,"subtype":"noteOn"},{"deltaTime":94,"channel":0,"type":"channel","noteNumber":64,"velocity":0,"subtype":"noteOff"},{"deltaTime":2,"channel":0,"type":"channel","noteNumber":52,"velocity":110,"subtype":"noteOn"},{"deltaTime":94,"channel":0,"type":"channel","noteNumber":52,"velocity":0,"subtype":"noteOff"},{"deltaTime":2,"channel":0,"type":"channel","noteNumber":64,"velocity":110,"subtype":"noteOn"},{"deltaTime":94,"channel":0,"type":"channel","noteNumber":64,"velocity":0,"subtype":"noteOff"},{"deltaTime":2,"channel":0,"type":"channel","noteNumber":67,"velocity":110,"subtype":"noteOn"},{"deltaTime":94,"channel":0,"type":"channel","noteNumber":67,"velocity":0,"subtype":"noteOff"},{"deltaTime":2,"channel":0,"type":"channel","noteNumber":71,"velocity":110,"subtype":"noteOn"},{"deltaTime":160,"channel":0,"type":"channel","noteNumber":71,"velocity":0,"subtype":"noteOff"},{"deltaTime":32,"channel":0,"type":"channel","noteNumber":69,"velocity":110,"subtype":"noteOn"},{"deltaTime":94,"channel":0,"type":"channel","noteNumber":69,"velocity":0,"subtype":"noteOff"},{"deltaTime":2,"channel":0,"type":"channel","noteNumber":67,"velocity":110,"subtype":"noteOn"},{"deltaTime":94,"channel":0,"type":"channel","noteNumber":67,"velocity":0,"subtype":"noteOff"},{"deltaTime":2,"channel":0,"type":"channel","noteNumber":66,"velocity":110,"subtype":"noteOn"},{"deltaTime":94,"channel":0,"type":"channel","noteNumber":66,"velocity":0,"subtype":"noteOff"},{"deltaTime":2,"channel":0,"type":"channel","noteNumber":54,"velocity":110,"subtype":"noteOn"},{"deltaTime":94,"channel":0,"type":"channel","noteNumber":54,"velocity":0,"subtype":"noteOff"},{"deltaTime":2,"channel":0,"type":"channel","noteNumber":66,"velocity":110,"subtype":"noteOn"},{"deltaTime":94,"channel":0,"type":"channel","noteNumber":66,"velocity":0,"subtype":"noteOff"},{"deltaTime":2,"channel":0,"type":"channel","noteNumber":67,"velocity":110,"subtype":"noteOn"},{"deltaTime":94,"channel":0,"type":"channel","noteNumber":67,"velocity":0,"subtype":"noteOff"},{"deltaTime":2,"channel":0,"type":"channel","noteNumber":69,"velocity":110,"subtype":"noteOn"},{"deltaTime":160,"channel":0,"type":"channel","noteNumber":69,"velocity":0,"subtype":"noteOff"},{"deltaTime":32,"channel":0,"type":"channel","noteNumber":71,"velocity":110,"subtype":"noteOn"},{"deltaTime":160,"channel":0,"type":"channel","noteNumber":71,"velocity":0,"subtype":"noteOff"},{"deltaTime":32,"channel":0,"type":"channel","noteNumber":67,"velocity":110,"subtype":"noteOn"},{"deltaTime":160,"channel":0,"type":"channel","noteNumber":67,"velocity":0,"subtype":"noteOff"},{"deltaTime":32,"channel":0,"type":"channel","noteNumber":64,"velocity":110,"subtype":"noteOn"},{"deltaTime":160,"channel":0,"type":"channel","noteNumber":64,"velocity":0,"subtype":"noteOff"},{"deltaTime":32,"channel":0,"type":"channel","noteNumber":64,"velocity":110,"subtype":"noteOn"},{"deltaTime":160,"channel":0,"type":"channel","noteNumber":64,"velocity":0,"subtype":"noteOff"},{"deltaTime":320,"channel":0,"type":"channel","noteNumber":69,"velocity":110,"subtype":"noteOn"},{"deltaTime":190,"channel":0,"type":"channel","noteNumber":69,"velocity":0,"subtype":"noteOff"},{"deltaTime":2,"channel":0,"type":"channel","noteNumber":72,"velocity":110,"subtype":"noteOn"},{"deltaTime":94,"channel":0,"type":"channel","noteNumber":72,"velocity":0,"subtype":"noteOff"},{"deltaTime":2,"channel":0,"type":"channel","noteNumber":76,"velocity":110,"subtype":"noteOn"},{"deltaTime":94,"channel":0,"type":"channel","noteNumber":76,"velocity":0,"subtype":"noteOff"},{"deltaTime":2,"channel":0,"type":"channel","noteNumber":76,"velocity":110,"subtype":"noteOn"},{"deltaTime":46,"channel":0,"type":"channel","noteNumber":76,"velocity":0,"subtype":"noteOff"},{"deltaTime":2,"channel":0,"type":"channel","noteNumber":76,"velocity":110,"subtype":"noteOn"},{"deltaTime":46,"channel":0,"type":"channel","noteNumber":76,"velocity":0,"subtype":"noteOff"},{"deltaTime":2,"channel":0,"type":"channel","noteNumber":74,"velocity":110,"subtype":"noteOn"},{"deltaTime":94,"channel":0,"type":"channel","noteNumber":74,"velocity":0,"subtype":"noteOff"},{"deltaTime":2,"channel":0,"type":"channel","noteNumber":72,"velocity":110,"subtype":"noteOn"},{"deltaTime":94,"channel":0,"type":"channel","noteNumber":72,"velocity":0,"subtype":"noteOff"},{"deltaTime":2,"channel":0,"type":"channel","noteNumber":71,"velocity":110,"subtype":"noteOn"},{"deltaTime":160,"channel":0,"type":"channel","noteNumber":71,"velocity":0,"subtype":"noteOff"},{"deltaTime":128,"channel":0,"type":"channel","noteNumber":67,"velocity":110,"subtype":"noteOn"},{"deltaTime":94,"channel":0,"type":"channel","noteNumber":67,"velocity":0,"subtype":"noteOff"},{"deltaTime":2,"channel":0,"type":"channel","noteNumber":71,"velocity":110,"subtype":"noteOn"},{"deltaTime":94,"channel":0,"type":"channel","noteNumber":71,"velocity":0,"subtype":"noteOff"},{"deltaTime":2,"channel":0,"type":"channel","noteNumber":72,"velocity":110,"subtype":"noteOn"},{"deltaTime":46,"channel":0,"type":"channel","noteNumber":72,"velocity":0,"subtype":"noteOff"},{"deltaTime":2,"channel":0,"type":"channel","noteNumber":71,"velocity":110,"subtype":"noteOn"},{"deltaTime":46,"channel":0,"type":"channel","noteNumber":71,"velocity":0,"subtype":"noteOff"},{"deltaTime":2,"channel":0,"type":"channel","noteNumber":69,"velocity":110,"subtype":"noteOn"},{"deltaTime":94,"channel":0,"type":"channel","noteNumber":69,"velocity":0,"subtype":"noteOff"},{"deltaTime":2,"channel":0,"type":"channel","noteNumber":67,"velocity":110,"subtype":"noteOn"},{"deltaTime":94,"channel":0,"type":"channel","noteNumber":67,"velocity":0,"subtype":"noteOff"},{"deltaTime":2,"channel":0,"type":"channel","noteNumber":69,"velocity":110,"subtype":"noteOn"},{"deltaTime":94,"channel":0,"type":"channel","noteNumber":69,"velocity":0,"subtype":"noteOff"},{"deltaTime":2,"channel":0,"type":"channel","noteNumber":57,"velocity":110,"subtype":"noteOn"},{"deltaTime":94,"channel":0,"type":"channel","noteNumber":57,"velocity":0,"subtype":"noteOff"},{"deltaTime":2,"channel":0,"type":"channel","noteNumber":63,"velocity":110,"subtype":"noteOn"},{"deltaTime":94,"channel":0,"type":"channel","noteNumber":63,"velocity":0,"subtype":"noteOff"},{"deltaTime":2,"channel":0,"type":"channel","noteNumber":66,"velocity":110,"subtype":"noteOn"},{"deltaTime":94,"channel":0,"type":"channel","noteNumber":66,"velocity":0,"subtype":"noteOff"},{"deltaTime":2,"channel":0,"type":"channel","noteNumber":69,"velocity":110,"subtype":"noteOn"},{"deltaTime":160,"channel":0,"type":"channel","noteNumber":69,"velocity":0,"subtype":"noteOff"},{"deltaTime":32,"channel":0,"type":"channel","noteNumber":71,"velocity":110,"subtype":"noteOn"},{"deltaTime":160,"channel":0,"type":"channel","noteNumber":71,"velocity":0,"subtype":"noteOff"},{"deltaTime":32,"channel":0,"type":"channel","noteNumber":67,"velocity":110,"subtype":"noteOn"},{"deltaTime":160,"channel":0,"type":"channel","noteNumber":67,"velocity":0,"subtype":"noteOff"},{"deltaTime":32,"channel":0,"type":"channel","noteNumber":64,"velocity":110,"subtype":"noteOn"},{"deltaTime":160,"channel":0,"type":"channel","noteNumber":64,"velocity":0,"subtype":"noteOff"},{"deltaTime":32,"channel":0,"type":"channel","noteNumber":64,"velocity":110,"subtype":"noteOn"},{"deltaTime":160,"channel":0,"type":"channel","noteNumber":64,"velocity":0,"subtype":"noteOff"},{"deltaTime":224,"channel":0,"type":"channel","noteNumber":71,"velocity":110,"subtype":"noteOn"},{"deltaTime":160,"channel":0,"type":"channel","noteNumber":71,"velocity":0,"subtype":"noteOff"},{"deltaTime":32,"channel":0,"type":"channel","noteNumber":66,"velocity":110,"subtype":"noteOn"},{"deltaTime":94,"channel":0,"type":"channel","noteNumber":66,"velocity":0,"subtype":"noteOff"},{"deltaTime":2,"channel":0,"type":"channel","noteNumber":67,"velocity":110,"subtype":"noteOn"},{"deltaTime":94,"channel":0,"type":"channel","noteNumber":67,"velocity":0,"subtype":"noteOff"},{"deltaTime":2,"channel":0,"type":"channel","noteNumber":69,"velocity":110,"subtype":"noteOn"},{"deltaTime":94,"channel":0,"type":"channel","noteNumber":69,"velocity":0,"subtype":"noteOff"},{"deltaTime":2,"channel":0,"type":"channel","noteNumber":71,"velocity":110,"subtype":"noteOn"},{"deltaTime":46,"channel":0,"type":"channel","noteNumber":71,"velocity":0,"subtype":"noteOff"},{"deltaTime":2,"channel":0,"type":"channel","noteNumber":69,"velocity":110,"subtype":"noteOn"},{"deltaTime":46,"channel":0,"type":"channel","noteNumber":69,"velocity":0,"subtype":"noteOff"},{"deltaTime":2,"channel":0,"type":"channel","noteNumber":67,"velocity":110,"subtype":"noteOn"},{"deltaTime":94,"channel":0,"type":"channel","noteNumber":67,"velocity":0,"subtype":"noteOff"},{"deltaTime":2,"channel":0,"type":"channel","noteNumber":66,"velocity":110,"subtype":"noteOn"},{"deltaTime":94,"channel":0,"type":"channel","noteNumber":66,"velocity":0,"subtype":"noteOff"},{"deltaTime":2,"channel":0,"type":"channel","noteNumber":64,"velocity":110,"subtype":"noteOn"},{"deltaTime":94,"channel":0,"type":"channel","noteNumber":64,"velocity":0,"subtype":"noteOff"},{"deltaTime":2,"channel":0,"type":"channel","noteNumber":52,"velocity":110,"subtype":"noteOn"},{"deltaTime":94,"channel":0,"type":"channel","noteNumber":52,"velocity":0,"subtype":"noteOff"},{"deltaTime":2,"channel":0,"type":"channel","noteNumber":64,"velocity":110,"subtype":"noteOn"},{"deltaTime":94,"channel":0,"type":"channel","noteNumber":64,"velocity":0,"subtype":"noteOff"},{"deltaTime":2,"channel":0,"type":"channel","noteNumber":67,"velocity":110,"subtype":"noteOn"},{"deltaTime":94,"channel":0,"type":"channel","noteNumber":67,"velocity":0,"subtype":"noteOff"},{"deltaTime":2,"channel":0,"type":"channel","noteNumber":71,"velocity":110,"subtype":"noteOn"},{"deltaTime":160,"channel":0,"type":"channel","noteNumber":71,"velocity":0,"subtype":"noteOff"},{"deltaTime":32,"channel":0,"type":"channel","noteNumber":69,"velocity":110,"subtype":"noteOn"},{"deltaTime":94,"channel":0,"type":"channel","noteNumber":69,"velocity":0,"subtype":"noteOff"},{"deltaTime":2,"channel":0,"type":"channel","noteNumber":67,"velocity":110,"subtype":"noteOn"},{"deltaTime":94,"channel":0,"type":"channel","noteNumber":67,"velocity":0,"subtype":"noteOff"},{"deltaTime":2,"channel":0,"type":"channel","noteNumber":66,"velocity":110,"subtype":"noteOn"},{"deltaTime":94,"channel":0,"type":"channel","noteNumber":66,"velocity":0,"subtype":"noteOff"},{"deltaTime":2,"channel":0,"type":"channel","noteNumber":54,"velocity":110,"subtype":"noteOn"},{"deltaTime":94,"channel":0,"type":"channel","noteNumber":54,"velocity":0,"subtype":"noteOff"},{"deltaTime":2,"channel":0,"type":"channel","noteNumber":66,"velocity":110,"subtype":"noteOn"},{"deltaTime":94,"channel":0,"type":"channel","noteNumber":66,"velocity":0,"subtype":"noteOff"},{"deltaTime":2,"channel":0,"type":"channel","noteNumber":67,"velocity":110,"subtype":"noteOn"},{"deltaTime":94,"channel":0,"type":"channel","noteNumber":67,"velocity":0,"subtype":"noteOff"},{"deltaTime":2,"channel":0,"type":"channel","noteNumber":69,"velocity":110,"subtype":"noteOn"},{"deltaTime":160,"channel":0,"type":"channel","noteNumber":69,"velocity":0,"subtype":"noteOff"},{"deltaTime":32,"channel":0,"type":"channel","noteNumber":71,"velocity":110,"subtype":"noteOn"},{"deltaTime":160,"channel":0,"type":"channel","noteNumber":71,"velocity":0,"subtype":"noteOff"},{"deltaTime":32,"channel":0,"type":"channel","noteNumber":67,"velocity":110,"subtype":"noteOn"},{"deltaTime":160,"channel":0,"type":"channel","noteNumber":67,"velocity":0,"subtype":"noteOff"},{"deltaTime":32,"channel":0,"type":"channel","noteNumber":64,"velocity":110,"subtype":"noteOn"},{"deltaTime":160,"channel":0,"type":"channel","noteNumber":64,"velocity":0,"subtype":"noteOff"},{"deltaTime":32,"channel":0,"type":"channel","noteNumber":64,"velocity":110,"subtype":"noteOn"},{"deltaTime":160,"channel":0,"type":"channel","noteNumber":64,"velocity":0,"subtype":"noteOff"},{"deltaTime":320,"channel":0,"type":"channel","noteNumber":69,"velocity":110,"subtype":"noteOn"},{"deltaTime":190,"channel":0,"type":"channel","noteNumber":69,"velocity":0,"subtype":"noteOff"},{"deltaTime":2,"channel":0,"type":"channel","noteNumber":72,"velocity":110,"subtype":"noteOn"},{"deltaTime":94,"channel":0,"type":"channel","noteNumber":72,"velocity":0,"subtype":"noteOff"},{"deltaTime":2,"channel":0,"type":"channel","noteNumber":76,"velocity":110,"subtype":"noteOn"},{"deltaTime":94,"channel":0,"type":"channel","noteNumber":76,"velocity":0,"subtype":"noteOff"},{"deltaTime":2,"channel":0,"type":"channel","noteNumber":76,"velocity":110,"subtype":"noteOn"},{"deltaTime":46,"channel":0,"type":"channel","noteNumber":76,"velocity":0,"subtype":"noteOff"},{"deltaTime":2,"channel":0,"type":"channel","noteNumber":76,"velocity":110,"subtype":"noteOn"},{"deltaTime":46,"channel":0,"type":"channel","noteNumber":76,"velocity":0,"subtype":"noteOff"},{"deltaTime":2,"channel":0,"type":"channel","noteNumber":74,"velocity":110,"subtype":"noteOn"},{"deltaTime":94,"channel":0,"type":"channel","noteNumber":74,"velocity":0,"subtype":"noteOff"},{"deltaTime":2,"channel":0,"type":"channel","noteNumber":72,"velocity":110,"subtype":"noteOn"},{"deltaTime":94,"channel":0,"type":"channel","noteNumber":72,"velocity":0,"subtype":"noteOff"},{"deltaTime":2,"channel":0,"type":"channel","noteNumber":71,"velocity":110,"subtype":"noteOn"},{"deltaTime":160,"channel":0,"type":"channel","noteNumber":71,"velocity":0,"subtype":"noteOff"},{"deltaTime":128,"channel":0,"type":"channel","noteNumber":67,"velocity":110,"subtype":"noteOn"},{"deltaTime":94,"channel":0,"type":"channel","noteNumber":67,"velocity":0,"subtype":"noteOff"},{"deltaTime":2,"channel":0,"type":"channel","noteNumber":71,"velocity":110,"subtype":"noteOn"},{"deltaTime":94,"channel":0,"type":"channel","noteNumber":71,"velocity":0,"subtype":"noteOff"},{"deltaTime":2,"channel":0,"type":"channel","noteNumber":72,"velocity":110,"subtype":"noteOn"},{"deltaTime":46,"channel":0,"type":"channel","noteNumber":72,"velocity":0,"subtype":"noteOff"},{"deltaTime":2,"channel":0,"type":"channel","noteNumber":71,"velocity":110,"subtype":"noteOn"},{"deltaTime":46,"channel":0,"type":"channel","noteNumber":71,"velocity":0,"subtype":"noteOff"},{"deltaTime":2,"channel":0,"type":"channel","noteNumber":69,"velocity":110,"subtype":"noteOn"},{"deltaTime":94,"channel":0,"type":"channel","noteNumber":69,"velocity":0,"subtype":"noteOff"},{"deltaTime":2,"channel":0,"type":"channel","noteNumber":67,"velocity":110,"subtype":"noteOn"},{"deltaTime":94,"channel":0,"type":"channel","noteNumber":67,"velocity":0,"subtype":"noteOff"},{"deltaTime":2,"channel":0,"type":"channel","noteNumber":69,"velocity":110,"subtype":"noteOn"},{"deltaTime":94,"channel":0,"type":"channel","noteNumber":69,"velocity":0,"subtype":"noteOff"},{"deltaTime":2,"channel":0,"type":"channel","noteNumber":57,"velocity":110,"subtype":"noteOn"},{"deltaTime":94,"channel":0,"type":"channel","noteNumber":57,"velocity":0,"subtype":"noteOff"},{"deltaTime":2,"channel":0,"type":"channel","noteNumber":63,"velocity":110,"subtype":"noteOn"},{"deltaTime":94,"channel":0,"type":"channel","noteNumber":63,"velocity":0,"subtype":"noteOff"},{"deltaTime":2,"channel":0,"type":"channel","noteNumber":66,"velocity":110,"subtype":"noteOn"},{"deltaTime":94,"channel":0,"type":"channel","noteNumber":66,"velocity":0,"subtype":"noteOff"},{"deltaTime":2,"channel":0,"type":"channel","noteNumber":69,"velocity":110,"subtype":"noteOn"},{"deltaTime":160,"channel":0,"type":"channel","noteNumber":69,"velocity":0,"subtype":"noteOff"},{"deltaTime":32,"channel":0,"type":"channel","noteNumber":71,"velocity":110,"subtype":"noteOn"},{"deltaTime":160,"channel":0,"type":"channel","noteNumber":71,"velocity":0,"subtype":"noteOff"},{"deltaTime":32,"channel":0,"type":"channel","noteNumber":67,"velocity":110,"subtype":"noteOn"},{"deltaTime":160,"channel":0,"type":"channel","noteNumber":67,"velocity":0,"subtype":"noteOff"},{"deltaTime":32,"channel":0,"type":"channel","noteNumber":64,"velocity":110,"subtype":"noteOn"},{"deltaTime":160,"channel":0,"type":"channel","noteNumber":64,"velocity":0,"subtype":"noteOff"},{"deltaTime":32,"channel":0,"type":"channel","noteNumber":64,"velocity":110,"subtype":"noteOn"},{"deltaTime":160,"channel":0,"type":"channel","noteNumber":64,"velocity":0,"subtype":"noteOff"},{"deltaTime":224,"channel":0,"type":"channel","noteNumber":71,"velocity":110,"subtype":"noteOn"},{"deltaTime":160,"channel":0,"type":"channel","noteNumber":71,"velocity":0,"subtype":"noteOff"},{"deltaTime":32,"channel":0,"type":"channel","noteNumber":66,"velocity":110,"subtype":"noteOn"},{"deltaTime":94,"channel":0,"type":"channel","noteNumber":66,"velocity":0,"subtype":"noteOff"},{"deltaTime":2,"channel":0,"type":"channel","noteNumber":67,"velocity":110,"subtype":"noteOn"},{"deltaTime":94,"channel":0,"type":"channel","noteNumber":67,"velocity":0,"subtype":"noteOff"},{"deltaTime":2,"channel":0,"type":"channel","noteNumber":69,"velocity":110,"subtype":"noteOn"},{"deltaTime":94,"channel":0,"type":"channel","noteNumber":69,"velocity":0,"subtype":"noteOff"},{"deltaTime":2,"channel":0,"type":"channel","noteNumber":71,"velocity":110,"subtype":"noteOn"},{"deltaTime":46,"channel":0,"type":"channel","noteNumber":71,"velocity":0,"subtype":"noteOff"},{"deltaTime":2,"channel":0,"type":"channel","noteNumber":69,"velocity":110,"subtype":"noteOn"},{"deltaTime":46,"channel":0,"type":"channel","noteNumber":69,"velocity":0,"subtype":"noteOff"},{"deltaTime":2,"channel":0,"type":"channel","noteNumber":67,"velocity":110,"subtype":"noteOn"},{"deltaTime":94,"channel":0,"type":"channel","noteNumber":67,"velocity":0,"subtype":"noteOff"},{"deltaTime":2,"channel":0,"type":"channel","noteNumber":66,"velocity":110,"subtype":"noteOn"},{"deltaTime":94,"channel":0,"type":"channel","noteNumber":66,"velocity":0,"subtype":"noteOff"},{"deltaTime":2,"channel":0,"type":"channel","noteNumber":64,"velocity":110,"subtype":"noteOn"},{"deltaTime":94,"channel":0,"type":"channel","noteNumber":64,"velocity":0,"subtype":"noteOff"},{"deltaTime":2,"channel":0,"type":"channel","noteNumber":52,"velocity":110,"subtype":"noteOn"},{"deltaTime":94,"channel":0,"type":"channel","noteNumber":52,"velocity":0,"subtype":"noteOff"},{"deltaTime":2,"channel":0,"type":"channel","noteNumber":64,"velocity":110,"subtype":"noteOn"},{"deltaTime":94,"channel":0,"type":"channel","noteNumber":64,"velocity":0,"subtype":"noteOff"},{"deltaTime":2,"channel":0,"type":"channel","noteNumber":67,"velocity":110,"subtype":"noteOn"},{"deltaTime":94,"channel":0,"type":"channel","noteNumber":67,"velocity":0,"subtype":"noteOff"},{"deltaTime":2,"channel":0,"type":"channel","noteNumber":71,"velocity":110,"subtype":"noteOn"},{"deltaTime":160,"channel":0,"type":"channel","noteNumber":71,"velocity":0,"subtype":"noteOff"},{"deltaTime":32,"channel":0,"type":"channel","noteNumber":69,"velocity":110,"subtype":"noteOn"},{"deltaTime":94,"channel":0,"type":"channel","noteNumber":69,"velocity":0,"subtype":"noteOff"},{"deltaTime":2,"channel":0,"type":"channel","noteNumber":67,"velocity":110,"subtype":"noteOn"},{"deltaTime":94,"channel":0,"type":"channel","noteNumber":67,"velocity":0,"subtype":"noteOff"},{"deltaTime":2,"channel":0,"type":"channel","noteNumber":66,"velocity":110,"subtype":"noteOn"},{"deltaTime":94,"channel":0,"type":"channel","noteNumber":66,"velocity":0,"subtype":"noteOff"},{"deltaTime":2,"channel":0,"type":"channel","noteNumber":54,"velocity":110,"subtype":"noteOn"},{"deltaTime":94,"channel":0,"type":"channel","noteNumber":54,"velocity":0,"subtype":"noteOff"},{"deltaTime":2,"channel":0,"type":"channel","noteNumber":66,"velocity":110,"subtype":"noteOn"},{"deltaTime":94,"channel":0,"type":"channel","noteNumber":66,"velocity":0,"subtype":"noteOff"},{"deltaTime":2,"channel":0,"type":"channel","noteNumber":67,"velocity":110,"subtype":"noteOn"},{"deltaTime":94,"channel":0,"type":"channel","noteNumber":67,"velocity":0,"subtype":"noteOff"},{"deltaTime":2,"channel":0,"type":"channel","noteNumber":69,"velocity":110,"subtype":"noteOn"},{"deltaTime":160,"channel":0,"type":"channel","noteNumber":69,"velocity":0,"subtype":"noteOff"},{"deltaTime":32,"channel":0,"type":"channel","noteNumber":71,"velocity":110,"subtype":"noteOn"},{"deltaTime":160,"channel":0,"type":"channel","noteNumber":71,"velocity":0,"subtype":"noteOff"},{"deltaTime":32,"channel":0,"type":"channel","noteNumber":67,"velocity":110,"subtype":"noteOn"},{"deltaTime":160,"channel":0,"type":"channel","noteNumber":67,"velocity":0,"subtype":"noteOff"},{"deltaTime":32,"channel":0,"type":"channel","noteNumber":64,"velocity":110,"subtype":"noteOn"},{"deltaTime":160,"channel":0,"type":"channel","noteNumber":64,"velocity":0,"subtype":"noteOff"},{"deltaTime":32,"channel":0,"type":"channel","noteNumber":64,"velocity":110,"subtype":"noteOn"},{"deltaTime":160,"channel":0,"type":"channel","noteNumber":64,"velocity":0,"subtype":"noteOff"},{"deltaTime":320,"channel":0,"type":"channel","noteNumber":69,"velocity":110,"subtype":"noteOn"},{"deltaTime":190,"channel":0,"type":"channel","noteNumber":69,"velocity":0,"subtype":"noteOff"},{"deltaTime":2,"channel":0,"type":"channel","noteNumber":72,"velocity":110,"subtype":"noteOn"},{"deltaTime":94,"channel":0,"type":"channel","noteNumber":72,"velocity":0,"subtype":"noteOff"},{"deltaTime":2,"channel":0,"type":"channel","noteNumber":76,"velocity":110,"subtype":"noteOn"},{"deltaTime":94,"channel":0,"type":"channel","noteNumber":76,"velocity":0,"subtype":"noteOff"},{"deltaTime":2,"channel":0,"type":"channel","noteNumber":76,"velocity":110,"subtype":"noteOn"},{"deltaTime":46,"channel":0,"type":"channel","noteNumber":76,"velocity":0,"subtype":"noteOff"},{"deltaTime":2,"channel":0,"type":"channel","noteNumber":76,"velocity":110,"subtype":"noteOn"},{"deltaTime":46,"channel":0,"type":"channel","noteNumber":76,"velocity":0,"subtype":"noteOff"},{"deltaTime":2,"channel":0,"type":"channel","noteNumber":74,"velocity":110,"subtype":"noteOn"},{"deltaTime":94,"channel":0,"type":"channel","noteNumber":74,"velocity":0,"subtype":"noteOff"},{"deltaTime":2,"channel":0,"type":"channel","noteNumber":72,"velocity":110,"subtype":"noteOn"},{"deltaTime":94,"channel":0,"type":"channel","noteNumber":72,"velocity":0,"subtype":"noteOff"},{"deltaTime":2,"channel":0,"type":"channel","noteNumber":71,"velocity":110,"subtype":"noteOn"},{"deltaTime":160,"channel":0,"type":"channel","noteNumber":71,"velocity":0,"subtype":"noteOff"},{"deltaTime":128,"channel":0,"type":"channel","noteNumber":67,"velocity":110,"subtype":"noteOn"},{"deltaTime":94,"channel":0,"type":"channel","noteNumber":67,"velocity":0,"subtype":"noteOff"},{"deltaTime":2,"channel":0,"type":"channel","noteNumber":71,"velocity":110,"subtype":"noteOn"},{"deltaTime":94,"channel":0,"type":"channel","noteNumber":71,"velocity":0,"subtype":"noteOff"},{"deltaTime":2,"channel":0,"type":"channel","noteNumber":72,"velocity":110,"subtype":"noteOn"},{"deltaTime":46,"channel":0,"type":"channel","noteNumber":72,"velocity":0,"subtype":"noteOff"},{"deltaTime":2,"channel":0,"type":"channel","noteNumber":71,"velocity":110,"subtype":"noteOn"},{"deltaTime":46,"channel":0,"type":"channel","noteNumber":71,"velocity":0,"subtype":"noteOff"},{"deltaTime":2,"channel":0,"type":"channel","noteNumber":69,"velocity":110,"subtype":"noteOn"},{"deltaTime":94,"channel":0,"type":"channel","noteNumber":69,"velocity":0,"subtype":"noteOff"},{"deltaTime":2,"channel":0,"type":"channel","noteNumber":67,"velocity":110,"subtype":"noteOn"},{"deltaTime":94,"channel":0,"type":"channel","noteNumber":67,"velocity":0,"subtype":"noteOff"},{"deltaTime":2,"channel":0,"type":"channel","noteNumber":69,"velocity":110,"subtype":"noteOn"},{"deltaTime":94,"channel":0,"type":"channel","noteNumber":69,"velocity":0,"subtype":"noteOff"},{"deltaTime":2,"channel":0,"type":"channel","noteNumber":57,"velocity":110,"subtype":"noteOn"},{"deltaTime":94,"channel":0,"type":"channel","noteNumber":57,"velocity":0,"subtype":"noteOff"},{"deltaTime":2,"channel":0,"type":"channel","noteNumber":63,"velocity":110,"subtype":"noteOn"},{"deltaTime":94,"channel":0,"type":"channel","noteNumber":63,"velocity":0,"subtype":"noteOff"},{"deltaTime":2,"channel":0,"type":"channel","noteNumber":66,"velocity":110,"subtype":"noteOn"},{"deltaTime":94,"channel":0,"type":"channel","noteNumber":66,"velocity":0,"subtype":"noteOff"},{"deltaTime":2,"channel":0,"type":"channel","noteNumber":69,"velocity":110,"subtype":"noteOn"},{"deltaTime":160,"channel":0,"type":"channel","noteNumber":69,"velocity":0,"subtype":"noteOff"},{"deltaTime":32,"channel":0,"type":"channel","noteNumber":71,"velocity":110,"subtype":"noteOn"},{"deltaTime":160,"channel":0,"type":"channel","noteNumber":71,"velocity":0,"subtype":"noteOff"},{"deltaTime":32,"channel":0,"type":"channel","noteNumber":67,"velocity":110,"subtype":"noteOn"},{"deltaTime":160,"channel":0,"type":"channel","noteNumber":67,"velocity":0,"subtype":"noteOff"},{"deltaTime":32,"channel":0,"type":"channel","noteNumber":64,"velocity":110,"subtype":"noteOn"},{"deltaTime":160,"channel":0,"type":"channel","noteNumber":64,"velocity":0,"subtype":"noteOff"},{"deltaTime":32,"channel":0,"type":"channel","noteNumber":64,"velocity":110,"subtype":"noteOn"},{"deltaTime":160,"channel":0,"type":"channel","noteNumber":64,"velocity":0,"subtype":"noteOff"},{"deltaTime":224,"channel":0,"type":"channel","noteNumber":71,"velocity":110,"subtype":"noteOn"},{"deltaTime":160,"channel":0,"type":"channel","noteNumber":71,"velocity":0,"subtype":"noteOff"},{"deltaTime":32,"channel":0,"type":"channel","noteNumber":66,"velocity":110,"subtype":"noteOn"},{"deltaTime":94,"channel":0,"type":"channel","noteNumber":66,"velocity":0,"subtype":"noteOff"},{"deltaTime":2,"channel":0,"type":"channel","noteNumber":67,"velocity":110,"subtype":"noteOn"},{"deltaTime":94,"channel":0,"type":"channel","noteNumber":67,"velocity":0,"subtype":"noteOff"},{"deltaTime":2,"channel":0,"type":"channel","noteNumber":69,"velocity":110,"subtype":"noteOn"},{"deltaTime":94,"channel":0,"type":"channel","noteNumber":69,"velocity":0,"subtype":"noteOff"},{"deltaTime":2,"channel":0,"type":"channel","noteNumber":71,"velocity":110,"subtype":"noteOn"},{"deltaTime":46,"channel":0,"type":"channel","noteNumber":71,"velocity":0,"subtype":"noteOff"},{"deltaTime":2,"channel":0,"type":"channel","noteNumber":69,"velocity":110,"subtype":"noteOn"},{"deltaTime":46,"channel":0,"type":"channel","noteNumber":69,"velocity":0,"subtype":"noteOff"},{"deltaTime":2,"channel":0,"type":"channel","noteNumber":67,"velocity":110,"subtype":"noteOn"},{"deltaTime":94,"channel":0,"type":"channel","noteNumber":67,"velocity":0,"subtype":"noteOff"},{"deltaTime":2,"channel":0,"type":"channel","noteNumber":66,"velocity":110,"subtype":"noteOn"},{"deltaTime":94,"channel":0,"type":"channel","noteNumber":66,"velocity":0,"subtype":"noteOff"},{"deltaTime":2,"channel":0,"type":"channel","noteNumber":64,"velocity":110,"subtype":"noteOn"},{"deltaTime":94,"channel":0,"type":"channel","noteNumber":64,"velocity":0,"subtype":"noteOff"},{"deltaTime":2,"channel":0,"type":"channel","noteNumber":52,"velocity":110,"subtype":"noteOn"},{"deltaTime":94,"channel":0,"type":"channel","noteNumber":52,"velocity":0,"subtype":"noteOff"},{"deltaTime":2,"channel":0,"type":"channel","noteNumber":64,"velocity":110,"subtype":"noteOn"},{"deltaTime":94,"channel":0,"type":"channel","noteNumber":64,"velocity":0,"subtype":"noteOff"},{"deltaTime":2,"channel":0,"type":"channel","noteNumber":67,"velocity":110,"subtype":"noteOn"},{"deltaTime":94,"channel":0,"type":"channel","noteNumber":67,"velocity":0,"subtype":"noteOff"},{"deltaTime":2,"channel":0,"type":"channel","noteNumber":71,"velocity":110,"subtype":"noteOn"},{"deltaTime":160,"channel":0,"type":"channel","noteNumber":71,"velocity":0,"subtype":"noteOff"},{"deltaTime":32,"channel":0,"type":"channel","noteNumber":69,"velocity":110,"subtype":"noteOn"},{"deltaTime":94,"channel":0,"type":"channel","noteNumber":69,"velocity":0,"subtype":"noteOff"},{"deltaTime":2,"channel":0,"type":"channel","noteNumber":67,"velocity":110,"subtype":"noteOn"},{"deltaTime":94,"channel":0,"type":"channel","noteNumber":67,"velocity":0,"subtype":"noteOff"},{"deltaTime":2,"channel":0,"type":"channel","noteNumber":66,"velocity":110,"subtype":"noteOn"},{"deltaTime":94,"channel":0,"type":"channel","noteNumber":66,"velocity":0,"subtype":"noteOff"},{"deltaTime":2,"channel":0,"type":"channel","noteNumber":54,"velocity":110,"subtype":"noteOn"},{"deltaTime":94,"channel":0,"type":"channel","noteNumber":54,"velocity":0,"subtype":"noteOff"},{"deltaTime":2,"channel":0,"type":"channel","noteNumber":66,"velocity":110,"subtype":"noteOn"},{"deltaTime":94,"channel":0,"type":"channel","noteNumber":66,"velocity":0,"subtype":"noteOff"},{"deltaTime":2,"channel":0,"type":"channel","noteNumber":67,"velocity":110,"subtype":"noteOn"},{"deltaTime":94,"channel":0,"type":"channel","noteNumber":67,"velocity":0,"subtype":"noteOff"},{"deltaTime":2,"channel":0,"type":"channel","noteNumber":69,"velocity":110,"subtype":"noteOn"},{"deltaTime":160,"channel":0,"type":"channel","noteNumber":69,"velocity":0,"subtype":"noteOff"},{"deltaTime":32,"channel":0,"type":"channel","noteNumber":71,"velocity":110,"subtype":"noteOn"},{"deltaTime":160,"channel":0,"type":"channel","noteNumber":71,"velocity":0,"subtype":"noteOff"},{"deltaTime":32,"channel":0,"type":"channel","noteNumber":67,"velocity":110,"subtype":"noteOn"},{"deltaTime":160,"channel":0,"type":"channel","noteNumber":67,"velocity":0,"subtype":"noteOff"},{"deltaTime":32,"channel":0,"type":"channel","noteNumber":64,"velocity":110,"subtype":"noteOn"},{"deltaTime":160,"channel":0,"type":"channel","noteNumber":64,"velocity":0,"subtype":"noteOff"},{"deltaTime":32,"channel":0,"type":"channel","noteNumber":64,"velocity":110,"subtype":"noteOn"},{"deltaTime":160,"channel":0,"type":"channel","noteNumber":64,"velocity":0,"subtype":"noteOff"},{"deltaTime":320,"channel":0,"type":"channel","noteNumber":69,"velocity":110,"subtype":"noteOn"},{"deltaTime":190,"channel":0,"type":"channel","noteNumber":69,"velocity":0,"subtype":"noteOff"},{"deltaTime":2,"channel":0,"type":"channel","noteNumber":72,"velocity":110,"subtype":"noteOn"},{"deltaTime":94,"channel":0,"type":"channel","noteNumber":72,"velocity":0,"subtype":"noteOff"},{"deltaTime":2,"channel":0,"type":"channel","noteNumber":76,"velocity":110,"subtype":"noteOn"},{"deltaTime":94,"channel":0,"type":"channel","noteNumber":76,"velocity":0,"subtype":"noteOff"},{"deltaTime":2,"channel":0,"type":"channel","noteNumber":76,"velocity":110,"subtype":"noteOn"},{"deltaTime":46,"channel":0,"type":"channel","noteNumber":76,"velocity":0,"subtype":"noteOff"},{"deltaTime":2,"channel":0,"type":"channel","noteNumber":76,"velocity":110,"subtype":"noteOn"},{"deltaTime":46,"channel":0,"type":"channel","noteNumber":76,"velocity":0,"subtype":"noteOff"},{"deltaTime":2,"channel":0,"type":"channel","noteNumber":74,"velocity":110,"subtype":"noteOn"},{"deltaTime":94,"channel":0,"type":"channel","noteNumber":74,"velocity":0,"subtype":"noteOff"},{"deltaTime":2,"channel":0,"type":"channel","noteNumber":72,"velocity":110,"subtype":"noteOn"},{"deltaTime":94,"channel":0,"type":"channel","noteNumber":72,"velocity":0,"subtype":"noteOff"},{"deltaTime":2,"channel":0,"type":"channel","noteNumber":71,"velocity":110,"subtype":"noteOn"},{"deltaTime":160,"channel":0,"type":"channel","noteNumber":71,"velocity":0,"subtype":"noteOff"},{"deltaTime":128,"channel":0,"type":"channel","noteNumber":67,"velocity":110,"subtype":"noteOn"},{"deltaTime":94,"channel":0,"type":"channel","noteNumber":67,"velocity":0,"subtype":"noteOff"},{"deltaTime":2,"channel":0,"type":"channel","noteNumber":71,"velocity":110,"subtype":"noteOn"},{"deltaTime":94,"channel":0,"type":"channel","noteNumber":71,"velocity":0,"subtype":"noteOff"},{"deltaTime":2,"channel":0,"type":"channel","noteNumber":72,"velocity":110,"subtype":"noteOn"},{"deltaTime":46,"channel":0,"type":"channel","noteNumber":72,"velocity":0,"subtype":"noteOff"},{"deltaTime":2,"channel":0,"type":"channel","noteNumber":71,"velocity":110,"subtype":"noteOn"},{"deltaTime":46,"channel":0,"type":"channel","noteNumber":71,"velocity":0,"subtype":"noteOff"},{"deltaTime":2,"channel":0,"type":"channel","noteNumber":69,"velocity":110,"subtype":"noteOn"},{"deltaTime":94,"channel":0,"type":"channel","noteNumber":69,"velocity":0,"subtype":"noteOff"},{"deltaTime":2,"channel":0,"type":"channel","noteNumber":67,"velocity":110,"subtype":"noteOn"},{"deltaTime":94,"channel":0,"type":"channel","noteNumber":67,"velocity":0,"subtype":"noteOff"},{"deltaTime":2,"channel":0,"type":"channel","noteNumber":69,"velocity":110,"subtype":"noteOn"},{"deltaTime":94,"channel":0,"type":"channel","noteNumber":69,"velocity":0,"subtype":"noteOff"},{"deltaTime":2,"channel":0,"type":"channel","noteNumber":57,"velocity":110,"subtype":"noteOn"},{"deltaTime":94,"channel":0,"type":"channel","noteNumber":57,"velocity":0,"subtype":"noteOff"},{"deltaTime":2,"channel":0,"type":"channel","noteNumber":63,"velocity":110,"subtype":"noteOn"},{"deltaTime":94,"channel":0,"type":"channel","noteNumber":63,"velocity":0,"subtype":"noteOff"},{"deltaTime":2,"channel":0,"type":"channel","noteNumber":66,"velocity":110,"subtype":"noteOn"},{"deltaTime":94,"channel":0,"type":"channel","noteNumber":66,"velocity":0,"subtype":"noteOff"},{"deltaTime":2,"channel":0,"type":"channel","noteNumber":69,"velocity":110,"subtype":"noteOn"},{"deltaTime":160,"channel":0,"type":"channel","noteNumber":69,"velocity":0,"subtype":"noteOff"},{"deltaTime":32,"channel":0,"type":"channel","noteNumber":71,"velocity":110,"subtype":"noteOn"},{"deltaTime":160,"channel":0,"type":"channel","noteNumber":71,"velocity":0,"subtype":"noteOff"},{"deltaTime":32,"channel":0,"type":"channel","noteNumber":67,"velocity":110,"subtype":"noteOn"},{"deltaTime":160,"channel":0,"type":"channel","noteNumber":67,"velocity":0,"subtype":"noteOff"},{"deltaTime":32,"channel":0,"type":"channel","noteNumber":64,"velocity":110,"subtype":"noteOn"},{"deltaTime":160,"channel":0,"type":"channel","noteNumber":64,"velocity":0,"subtype":"noteOff"},{"deltaTime":32,"channel":0,"type":"channel","noteNumber":64,"velocity":110,"subtype":"noteOn"},{"deltaTime":160,"channel":0,"type":"channel","noteNumber":64,"velocity":0,"subtype":"noteOff"},{"deltaTime":224,"channel":0,"type":"channel","noteNumber":71,"velocity":110,"subtype":"noteOn"},{"deltaTime":160,"channel":0,"type":"channel","noteNumber":71,"velocity":0,"subtype":"noteOff"},{"deltaTime":32,"channel":0,"type":"channel","noteNumber":66,"velocity":110,"subtype":"noteOn"},{"deltaTime":94,"channel":0,"type":"channel","noteNumber":66,"velocity":0,"subtype":"noteOff"},{"deltaTime":2,"channel":0,"type":"channel","noteNumber":67,"velocity":110,"subtype":"noteOn"},{"deltaTime":94,"channel":0,"type":"channel","noteNumber":67,"velocity":0,"subtype":"noteOff"},{"deltaTime":2,"channel":0,"type":"channel","noteNumber":69,"velocity":110,"subtype":"noteOn"},{"deltaTime":94,"channel":0,"type":"channel","noteNumber":69,"velocity":0,"subtype":"noteOff"},{"deltaTime":2,"channel":0,"type":"channel","noteNumber":71,"velocity":110,"subtype":"noteOn"},{"deltaTime":46,"channel":0,"type":"channel","noteNumber":71,"velocity":0,"subtype":"noteOff"},{"deltaTime":2,"channel":0,"type":"channel","noteNumber":69,"velocity":110,"subtype":"noteOn"},{"deltaTime":46,"channel":0,"type":"channel","noteNumber":69,"velocity":0,"subtype":"noteOff"},{"deltaTime":2,"channel":0,"type":"channel","noteNumber":67,"velocity":110,"subtype":"noteOn"},{"deltaTime":94,"channel":0,"type":"channel","noteNumber":67,"velocity":0,"subtype":"noteOff"},{"deltaTime":2,"channel":0,"type":"channel","noteNumber":66,"velocity":110,"subtype":"noteOn"},{"deltaTime":94,"channel":0,"type":"channel","noteNumber":66,"velocity":0,"subtype":"noteOff"},{"deltaTime":2,"channel":0,"type":"channel","noteNumber":64,"velocity":110,"subtype":"noteOn"},{"deltaTime":94,"channel":0,"type":"channel","noteNumber":64,"velocity":0,"subtype":"noteOff"},{"deltaTime":2,"channel":0,"type":"channel","noteNumber":52,"velocity":110,"subtype":"noteOn"},{"deltaTime":94,"channel":0,"type":"channel","noteNumber":52,"velocity":0,"subtype":"noteOff"},{"deltaTime":2,"channel":0,"type":"channel","noteNumber":64,"velocity":110,"subtype":"noteOn"},{"deltaTime":94,"channel":0,"type":"channel","noteNumber":64,"velocity":0,"subtype":"noteOff"},{"deltaTime":2,"channel":0,"type":"channel","noteNumber":67,"velocity":110,"subtype":"noteOn"},{"deltaTime":94,"channel":0,"type":"channel","noteNumber":67,"velocity":0,"subtype":"noteOff"},{"deltaTime":2,"channel":0,"type":"channel","noteNumber":71,"velocity":110,"subtype":"noteOn"},{"deltaTime":160,"channel":0,"type":"channel","noteNumber":71,"velocity":0,"subtype":"noteOff"},{"deltaTime":32,"channel":0,"type":"channel","noteNumber":69,"velocity":110,"subtype":"noteOn"},{"deltaTime":94,"channel":0,"type":"channel","noteNumber":69,"velocity":0,"subtype":"noteOff"},{"deltaTime":2,"channel":0,"type":"channel","noteNumber":67,"velocity":110,"subtype":"noteOn"},{"deltaTime":94,"channel":0,"type":"channel","noteNumber":67,"velocity":0,"subtype":"noteOff"},{"deltaTime":2,"channel":0,"type":"channel","noteNumber":66,"velocity":110,"subtype":"noteOn"},{"deltaTime":94,"channel":0,"type":"channel","noteNumber":66,"velocity":0,"subtype":"noteOff"},{"deltaTime":2,"channel":0,"type":"channel","noteNumber":54,"velocity":110,"subtype":"noteOn"},{"deltaTime":94,"channel":0,"type":"channel","noteNumber":54,"velocity":0,"subtype":"noteOff"},{"deltaTime":2,"channel":0,"type":"channel","noteNumber":66,"velocity":110,"subtype":"noteOn"},{"deltaTime":94,"channel":0,"type":"channel","noteNumber":66,"velocity":0,"subtype":"noteOff"},{"deltaTime":2,"channel":0,"type":"channel","noteNumber":67,"velocity":110,"subtype":"noteOn"},{"deltaTime":94,"channel":0,"type":"channel","noteNumber":67,"velocity":0,"subtype":"noteOff"},{"deltaTime":2,"channel":0,"type":"channel","noteNumber":69,"velocity":110,"subtype":"noteOn"},{"deltaTime":160,"channel":0,"type":"channel","noteNumber":69,"velocity":0,"subtype":"noteOff"},{"deltaTime":32,"channel":0,"type":"channel","noteNumber":71,"velocity":110,"subtype":"noteOn"},{"deltaTime":160,"channel":0,"type":"channel","noteNumber":71,"velocity":0,"subtype":"noteOff"},{"deltaTime":32,"channel":0,"type":"channel","noteNumber":67,"velocity":110,"subtype":"noteOn"},{"deltaTime":160,"channel":0,"type":"channel","noteNumber":67,"velocity":0,"subtype":"noteOff"},{"deltaTime":32,"channel":0,"type":"channel","noteNumber":64,"velocity":110,"subtype":"noteOn"},{"deltaTime":160,"channel":0,"type":"channel","noteNumber":64,"velocity":0,"subtype":"noteOff"},{"deltaTime":32,"channel":0,"type":"channel","noteNumber":64,"velocity":110,"subtype":"noteOn"},{"deltaTime":160,"channel":0,"type":"channel","noteNumber":64,"velocity":0,"subtype":"noteOff"},{"deltaTime":320,"channel":0,"type":"channel","noteNumber":69,"velocity":110,"subtype":"noteOn"},{"deltaTime":190,"channel":0,"type":"channel","noteNumber":69,"velocity":0,"subtype":"noteOff"},{"deltaTime":2,"channel":0,"type":"channel","noteNumber":72,"velocity":110,"subtype":"noteOn"},{"deltaTime":94,"channel":0,"type":"channel","noteNumber":72,"velocity":0,"subtype":"noteOff"},{"deltaTime":2,"channel":0,"type":"channel","noteNumber":76,"velocity":110,"subtype":"noteOn"},{"deltaTime":94,"channel":0,"type":"channel","noteNumber":76,"velocity":0,"subtype":"noteOff"},{"deltaTime":2,"channel":0,"type":"channel","noteNumber":76,"velocity":110,"subtype":"noteOn"},{"deltaTime":46,"channel":0,"type":"channel","noteNumber":76,"velocity":0,"subtype":"noteOff"},{"deltaTime":2,"channel":0,"type":"channel","noteNumber":76,"velocity":110,"subtype":"noteOn"},{"deltaTime":46,"channel":0,"type":"channel","noteNumber":76,"velocity":0,"subtype":"noteOff"},{"deltaTime":2,"channel":0,"type":"channel","noteNumber":74,"velocity":110,"subtype":"noteOn"},{"deltaTime":94,"channel":0,"type":"channel","noteNumber":74,"velocity":0,"subtype":"noteOff"},{"deltaTime":2,"channel":0,"type":"channel","noteNumber":72,"velocity":110,"subtype":"noteOn"},{"deltaTime":94,"channel":0,"type":"channel","noteNumber":72,"velocity":0,"subtype":"noteOff"},{"deltaTime":2,"channel":0,"type":"channel","noteNumber":71,"velocity":110,"subtype":"noteOn"},{"deltaTime":160,"channel":0,"type":"channel","noteNumber":71,"velocity":0,"subtype":"noteOff"},{"deltaTime":128,"channel":0,"type":"channel","noteNumber":67,"velocity":110,"subtype":"noteOn"},{"deltaTime":94,"channel":0,"type":"channel","noteNumber":67,"velocity":0,"subtype":"noteOff"},{"deltaTime":2,"channel":0,"type":"channel","noteNumber":71,"velocity":110,"subtype":"noteOn"},{"deltaTime":94,"channel":0,"type":"channel","noteNumber":71,"velocity":0,"subtype":"noteOff"},{"deltaTime":2,"channel":0,"type":"channel","noteNumber":72,"velocity":110,"subtype":"noteOn"},{"deltaTime":46,"channel":0,"type":"channel","noteNumber":72,"velocity":0,"subtype":"noteOff"},{"deltaTime":2,"channel":0,"type":"channel","noteNumber":71,"velocity":110,"subtype":"noteOn"},{"deltaTime":46,"channel":0,"type":"channel","noteNumber":71,"velocity":0,"subtype":"noteOff"},{"deltaTime":2,"channel":0,"type":"channel","noteNumber":69,"velocity":110,"subtype":"noteOn"},{"deltaTime":94,"channel":0,"type":"channel","noteNumber":69,"velocity":0,"subtype":"noteOff"},{"deltaTime":2,"channel":0,"type":"channel","noteNumber":67,"velocity":110,"subtype":"noteOn"},{"deltaTime":94,"channel":0,"type":"channel","noteNumber":67,"velocity":0,"subtype":"noteOff"},{"deltaTime":2,"channel":0,"type":"channel","noteNumber":69,"velocity":110,"subtype":"noteOn"},{"deltaTime":94,"channel":0,"type":"channel","noteNumber":69,"velocity":0,"subtype":"noteOff"},{"deltaTime":2,"channel":0,"type":"channel","noteNumber":57,"velocity":110,"subtype":"noteOn"},{"deltaTime":94,"channel":0,"type":"channel","noteNumber":57,"velocity":0,"subtype":"noteOff"},{"deltaTime":2,"channel":0,"type":"channel","noteNumber":63,"velocity":110,"subtype":"noteOn"},{"deltaTime":94,"channel":0,"type":"channel","noteNumber":63,"velocity":0,"subtype":"noteOff"},{"deltaTime":2,"channel":0,"type":"channel","noteNumber":66,"velocity":110,"subtype":"noteOn"},{"deltaTime":94,"channel":0,"type":"channel","noteNumber":66,"velocity":0,"subtype":"noteOff"},{"deltaTime":2,"channel":0,"type":"channel","noteNumber":69,"velocity":110,"subtype":"noteOn"},{"deltaTime":160,"channel":0,"type":"channel","noteNumber":69,"velocity":0,"subtype":"noteOff"},{"deltaTime":32,"channel":0,"type":"channel","noteNumber":71,"velocity":110,"subtype":"noteOn"},{"deltaTime":160,"channel":0,"type":"channel","noteNumber":71,"velocity":0,"subtype":"noteOff"},{"deltaTime":32,"channel":0,"type":"channel","noteNumber":67,"velocity":110,"subtype":"noteOn"},{"deltaTime":160,"channel":0,"type":"channel","noteNumber":67,"velocity":0,"subtype":"noteOff"},{"deltaTime":32,"channel":0,"type":"channel","noteNumber":64,"velocity":110,"subtype":"noteOn"},{"deltaTime":160,"channel":0,"type":"channel","noteNumber":64,"velocity":0,"subtype":"noteOff"},{"deltaTime":32,"channel":0,"type":"channel","noteNumber":64,"velocity":110,"subtype":"noteOn"},{"deltaTime":160,"channel":0,"type":"channel","noteNumber":64,"velocity":0,"subtype":"noteOff"},{"deltaTime":224,"channel":0,"type":"channel","noteNumber":71,"velocity":110,"subtype":"noteOn"},{"deltaTime":160,"channel":0,"type":"channel","noteNumber":71,"velocity":0,"subtype":"noteOff"},{"deltaTime":32,"channel":0,"type":"channel","noteNumber":66,"velocity":110,"subtype":"noteOn"},{"deltaTime":94,"channel":0,"type":"channel","noteNumber":66,"velocity":0,"subtype":"noteOff"},{"deltaTime":2,"channel":0,"type":"channel","noteNumber":67,"velocity":110,"subtype":"noteOn"},{"deltaTime":94,"channel":0,"type":"channel","noteNumber":67,"velocity":0,"subtype":"noteOff"},{"deltaTime":2,"channel":0,"type":"channel","noteNumber":69,"velocity":110,"subtype":"noteOn"},{"deltaTime":94,"channel":0,"type":"channel","noteNumber":69,"velocity":0,"subtype":"noteOff"},{"deltaTime":2,"channel":0,"type":"channel","noteNumber":71,"velocity":110,"subtype":"noteOn"},{"deltaTime":46,"channel":0,"type":"channel","noteNumber":71,"velocity":0,"subtype":"noteOff"},{"deltaTime":2,"channel":0,"type":"channel","noteNumber":69,"velocity":110,"subtype":"noteOn"},{"deltaTime":46,"channel":0,"type":"channel","noteNumber":69,"velocity":0,"subtype":"noteOff"},{"deltaTime":2,"channel":0,"type":"channel","noteNumber":67,"velocity":110,"subtype":"noteOn"},{"deltaTime":94,"channel":0,"type":"channel","noteNumber":67,"velocity":0,"subtype":"noteOff"},{"deltaTime":2,"channel":0,"type":"channel","noteNumber":66,"velocity":110,"subtype":"noteOn"},{"deltaTime":94,"channel":0,"type":"channel","noteNumber":66,"velocity":0,"subtype":"noteOff"},{"deltaTime":2,"channel":0,"type":"channel","noteNumber":64,"velocity":110,"subtype":"noteOn"},{"deltaTime":94,"channel":0,"type":"channel","noteNumber":64,"velocity":0,"subtype":"noteOff"},{"deltaTime":2,"channel":0,"type":"channel","noteNumber":52,"velocity":110,"subtype":"noteOn"},{"deltaTime":94,"channel":0,"type":"channel","noteNumber":52,"velocity":0,"subtype":"noteOff"},{"deltaTime":2,"channel":0,"type":"channel","noteNumber":64,"velocity":110,"subtype":"noteOn"},{"deltaTime":94,"channel":0,"type":"channel","noteNumber":64,"velocity":0,"subtype":"noteOff"},{"deltaTime":2,"channel":0,"type":"channel","noteNumber":67,"velocity":110,"subtype":"noteOn"},{"deltaTime":94,"channel":0,"type":"channel","noteNumber":67,"velocity":0,"subtype":"noteOff"},{"deltaTime":2,"channel":0,"type":"channel","noteNumber":71,"velocity":110,"subtype":"noteOn"},{"deltaTime":160,"channel":0,"type":"channel","noteNumber":71,"velocity":0,"subtype":"noteOff"},{"deltaTime":32,"channel":0,"type":"channel","noteNumber":69,"velocity":110,"subtype":"noteOn"},{"deltaTime":94,"channel":0,"type":"channel","noteNumber":69,"velocity":0,"subtype":"noteOff"},{"deltaTime":2,"channel":0,"type":"channel","noteNumber":67,"velocity":110,"subtype":"noteOn"},{"deltaTime":94,"channel":0,"type":"channel","noteNumber":67,"velocity":0,"subtype":"noteOff"},{"deltaTime":2,"channel":0,"type":"channel","noteNumber":66,"velocity":110,"subtype":"noteOn"},{"deltaTime":94,"channel":0,"type":"channel","noteNumber":66,"velocity":0,"subtype":"noteOff"},{"deltaTime":2,"channel":0,"type":"channel","noteNumber":54,"velocity":110,"subtype":"noteOn"},{"deltaTime":94,"channel":0,"type":"channel","noteNumber":54,"velocity":0,"subtype":"noteOff"},{"deltaTime":2,"channel":0,"type":"channel","noteNumber":66,"velocity":110,"subtype":"noteOn"},{"deltaTime":94,"channel":0,"type":"channel","noteNumber":66,"velocity":0,"subtype":"noteOff"},{"deltaTime":2,"channel":0,"type":"channel","noteNumber":67,"velocity":110,"subtype":"noteOn"},{"deltaTime":94,"channel":0,"type":"channel","noteNumber":67,"velocity":0,"subtype":"noteOff"},{"deltaTime":2,"channel":0,"type":"channel","noteNumber":69,"velocity":110,"subtype":"noteOn"},{"deltaTime":160,"channel":0,"type":"channel","noteNumber":69,"velocity":0,"subtype":"noteOff"},{"deltaTime":32,"channel":0,"type":"channel","noteNumber":71,"velocity":110,"subtype":"noteOn"},{"deltaTime":160,"channel":0,"type":"channel","noteNumber":71,"velocity":0,"subtype":"noteOff"},{"deltaTime":32,"channel":0,"type":"channel","noteNumber":67,"velocity":110,"subtype":"noteOn"},{"deltaTime":160,"channel":0,"type":"channel","noteNumber":67,"velocity":0,"subtype":"noteOff"},{"deltaTime":32,"channel":0,"type":"channel","noteNumber":64,"velocity":110,"subtype":"noteOn"},{"deltaTime":160,"channel":0,"type":"channel","noteNumber":64,"velocity":0,"subtype":"noteOff"},{"deltaTime":32,"channel":0,"type":"channel","noteNumber":64,"velocity":110,"subtype":"noteOn"},{"deltaTime":160,"channel":0,"type":"channel","noteNumber":64,"velocity":0,"subtype":"noteOff"},{"deltaTime":320,"channel":0,"type":"channel","noteNumber":69,"velocity":110,"subtype":"noteOn"},{"deltaTime":190,"channel":0,"type":"channel","noteNumber":69,"velocity":0,"subtype":"noteOff"},{"deltaTime":2,"channel":0,"type":"channel","noteNumber":72,"velocity":110,"subtype":"noteOn"},{"deltaTime":94,"channel":0,"type":"channel","noteNumber":72,"velocity":0,"subtype":"noteOff"},{"deltaTime":2,"channel":0,"type":"channel","noteNumber":76,"velocity":110,"subtype":"noteOn"},{"deltaTime":94,"channel":0,"type":"channel","noteNumber":76,"velocity":0,"subtype":"noteOff"},{"deltaTime":2,"channel":0,"type":"channel","noteNumber":76,"velocity":110,"subtype":"noteOn"},{"deltaTime":46,"channel":0,"type":"channel","noteNumber":76,"velocity":0,"subtype":"noteOff"},{"deltaTime":2,"channel":0,"type":"channel","noteNumber":76,"velocity":110,"subtype":"noteOn"},{"deltaTime":46,"channel":0,"type":"channel","noteNumber":76,"velocity":0,"subtype":"noteOff"},{"deltaTime":2,"channel":0,"type":"channel","noteNumber":74,"velocity":110,"subtype":"noteOn"},{"deltaTime":94,"channel":0,"type":"channel","noteNumber":74,"velocity":0,"subtype":"noteOff"},{"deltaTime":2,"channel":0,"type":"channel","noteNumber":72,"velocity":110,"subtype":"noteOn"},{"deltaTime":94,"channel":0,"type":"channel","noteNumber":72,"velocity":0,"subtype":"noteOff"},{"deltaTime":2,"channel":0,"type":"channel","noteNumber":71,"velocity":110,"subtype":"noteOn"},{"deltaTime":160,"channel":0,"type":"channel","noteNumber":71,"velocity":0,"subtype":"noteOff"},{"deltaTime":128,"channel":0,"type":"channel","noteNumber":67,"velocity":110,"subtype":"noteOn"},{"deltaTime":94,"channel":0,"type":"channel","noteNumber":67,"velocity":0,"subtype":"noteOff"},{"deltaTime":2,"channel":0,"type":"channel","noteNumber":71,"velocity":110,"subtype":"noteOn"},{"deltaTime":94,"channel":0,"type":"channel","noteNumber":71,"velocity":0,"subtype":"noteOff"},{"deltaTime":2,"channel":0,"type":"channel","noteNumber":72,"velocity":110,"subtype":"noteOn"},{"deltaTime":46,"channel":0,"type":"channel","noteNumber":72,"velocity":0,"subtype":"noteOff"},{"deltaTime":2,"channel":0,"type":"channel","noteNumber":71,"velocity":110,"subtype":"noteOn"},{"deltaTime":46,"channel":0,"type":"channel","noteNumber":71,"velocity":0,"subtype":"noteOff"},{"deltaTime":2,"channel":0,"type":"channel","noteNumber":69,"velocity":110,"subtype":"noteOn"},{"deltaTime":94,"channel":0,"type":"channel","noteNumber":69,"velocity":0,"subtype":"noteOff"},{"deltaTime":2,"channel":0,"type":"channel","noteNumber":67,"velocity":110,"subtype":"noteOn"},{"deltaTime":94,"channel":0,"type":"channel","noteNumber":67,"velocity":0,"subtype":"noteOff"},{"deltaTime":2,"channel":0,"type":"channel","noteNumber":69,"velocity":110,"subtype":"noteOn"},{"deltaTime":94,"channel":0,"type":"channel","noteNumber":69,"velocity":0,"subtype":"noteOff"},{"deltaTime":2,"channel":0,"type":"channel","noteNumber":57,"velocity":110,"subtype":"noteOn"},{"deltaTime":94,"channel":0,"type":"channel","noteNumber":57,"velocity":0,"subtype":"noteOff"},{"deltaTime":2,"channel":0,"type":"channel","noteNumber":63,"velocity":110,"subtype":"noteOn"},{"deltaTime":94,"channel":0,"type":"channel","noteNumber":63,"velocity":0,"subtype":"noteOff"},{"deltaTime":2,"channel":0,"type":"channel","noteNumber":66,"velocity":110,"subtype":"noteOn"},{"deltaTime":94,"channel":0,"type":"channel","noteNumber":66,"velocity":0,"subtype":"noteOff"},{"deltaTime":2,"channel":0,"type":"channel","noteNumber":69,"velocity":110,"subtype":"noteOn"},{"deltaTime":160,"channel":0,"type":"channel","noteNumber":69,"velocity":0,"subtype":"noteOff"},{"deltaTime":32,"channel":0,"type":"channel","noteNumber":71,"velocity":110,"subtype":"noteOn"},{"deltaTime":160,"channel":0,"type":"channel","noteNumber":71,"velocity":0,"subtype":"noteOff"},{"deltaTime":32,"channel":0,"type":"channel","noteNumber":67,"velocity":110,"subtype":"noteOn"},{"deltaTime":160,"channel":0,"type":"channel","noteNumber":67,"velocity":0,"subtype":"noteOff"},{"deltaTime":32,"channel":0,"type":"channel","noteNumber":64,"velocity":110,"subtype":"noteOn"},{"deltaTime":160,"channel":0,"type":"channel","noteNumber":64,"velocity":0,"subtype":"noteOff"},{"deltaTime":32,"channel":0,"type":"channel","noteNumber":64,"velocity":110,"subtype":"noteOn"},{"deltaTime":160,"channel":0,"type":"channel","noteNumber":64,"velocity":0,"subtype":"noteOff"},{"deltaTime":224,"channel":0,"type":"channel","noteNumber":71,"velocity":110,"subtype":"noteOn"},{"deltaTime":160,"channel":0,"type":"channel","noteNumber":71,"velocity":0,"subtype":"noteOff"},{"deltaTime":32,"channel":0,"type":"channel","noteNumber":66,"velocity":110,"subtype":"noteOn"},{"deltaTime":94,"channel":0,"type":"channel","noteNumber":66,"velocity":0,"subtype":"noteOff"},{"deltaTime":2,"channel":0,"type":"channel","noteNumber":67,"velocity":110,"subtype":"noteOn"},{"deltaTime":94,"channel":0,"type":"channel","noteNumber":67,"velocity":0,"subtype":"noteOff"},{"deltaTime":2,"channel":0,"type":"channel","noteNumber":69,"velocity":110,"subtype":"noteOn"},{"deltaTime":94,"channel":0,"type":"channel","noteNumber":69,"velocity":0,"subtype":"noteOff"},{"deltaTime":2,"channel":0,"type":"channel","noteNumber":71,"velocity":110,"subtype":"noteOn"},{"deltaTime":46,"channel":0,"type":"channel","noteNumber":71,"velocity":0,"subtype":"noteOff"},{"deltaTime":2,"channel":0,"type":"channel","noteNumber":69,"velocity":110,"subtype":"noteOn"},{"deltaTime":46,"channel":0,"type":"channel","noteNumber":69,"velocity":0,"subtype":"noteOff"},{"deltaTime":2,"channel":0,"type":"channel","noteNumber":67,"velocity":110,"subtype":"noteOn"},{"deltaTime":94,"channel":0,"type":"channel","noteNumber":67,"velocity":0,"subtype":"noteOff"},{"deltaTime":2,"channel":0,"type":"channel","noteNumber":66,"velocity":110,"subtype":"noteOn"},{"deltaTime":94,"channel":0,"type":"channel","noteNumber":66,"velocity":0,"subtype":"noteOff"},{"deltaTime":2,"channel":0,"type":"channel","noteNumber":64,"velocity":110,"subtype":"noteOn"},{"deltaTime":94,"channel":0,"type":"channel","noteNumber":64,"velocity":0,"subtype":"noteOff"},{"deltaTime":2,"channel":0,"type":"channel","noteNumber":52,"velocity":110,"subtype":"noteOn"},{"deltaTime":94,"channel":0,"type":"channel","noteNumber":52,"velocity":0,"subtype":"noteOff"},{"deltaTime":2,"channel":0,"type":"channel","noteNumber":64,"velocity":110,"subtype":"noteOn"},{"deltaTime":94,"channel":0,"type":"channel","noteNumber":64,"velocity":0,"subtype":"noteOff"},{"deltaTime":2,"channel":0,"type":"channel","noteNumber":67,"velocity":110,"subtype":"noteOn"},{"deltaTime":94,"channel":0,"type":"channel","noteNumber":67,"velocity":0,"subtype":"noteOff"},{"deltaTime":2,"channel":0,"type":"channel","noteNumber":71,"velocity":110,"subtype":"noteOn"},{"deltaTime":160,"channel":0,"type":"channel","noteNumber":71,"velocity":0,"subtype":"noteOff"},{"deltaTime":32,"channel":0,"type":"channel","noteNumber":69,"velocity":110,"subtype":"noteOn"},{"deltaTime":94,"channel":0,"type":"channel","noteNumber":69,"velocity":0,"subtype":"noteOff"},{"deltaTime":2,"channel":0,"type":"channel","noteNumber":67,"velocity":110,"subtype":"noteOn"},{"deltaTime":94,"channel":0,"type":"channel","noteNumber":67,"velocity":0,"subtype":"noteOff"},{"deltaTime":2,"channel":0,"type":"channel","noteNumber":66,"velocity":110,"subtype":"noteOn"},{"deltaTime":94,"channel":0,"type":"channel","noteNumber":66,"velocity":0,"subtype":"noteOff"},{"deltaTime":2,"channel":0,"type":"channel","noteNumber":54,"velocity":110,"subtype":"noteOn"},{"deltaTime":94,"channel":0,"type":"channel","noteNumber":54,"velocity":0,"subtype":"noteOff"},{"deltaTime":2,"channel":0,"type":"channel","noteNumber":66,"velocity":110,"subtype":"noteOn"},{"deltaTime":94,"channel":0,"type":"channel","noteNumber":66,"velocity":0,"subtype":"noteOff"},{"deltaTime":2,"channel":0,"type":"channel","noteNumber":67,"velocity":110,"subtype":"noteOn"},{"deltaTime":94,"channel":0,"type":"channel","noteNumber":67,"velocity":0,"subtype":"noteOff"},{"deltaTime":2,"channel":0,"type":"channel","noteNumber":69,"velocity":110,"subtype":"noteOn"},{"deltaTime":160,"channel":0,"type":"channel","noteNumber":69,"velocity":0,"subtype":"noteOff"},{"deltaTime":32,"channel":0,"type":"channel","noteNumber":71,"velocity":110,"subtype":"noteOn"},{"deltaTime":160,"channel":0,"type":"channel","noteNumber":71,"velocity":0,"subtype":"noteOff"},{"deltaTime":32,"channel":0,"type":"channel","noteNumber":67,"velocity":110,"subtype":"noteOn"},{"deltaTime":160,"channel":0,"type":"channel","noteNumber":67,"velocity":0,"subtype":"noteOff"},{"deltaTime":32,"channel":0,"type":"channel","noteNumber":64,"velocity":110,"subtype":"noteOn"},{"deltaTime":160,"channel":0,"type":"channel","noteNumber":64,"velocity":0,"subtype":"noteOff"},{"deltaTime":32,"channel":0,"type":"channel","noteNumber":64,"velocity":110,"subtype":"noteOn"},{"deltaTime":160,"channel":0,"type":"channel","noteNumber":64,"velocity":0,"subtype":"noteOff"},{"deltaTime":320,"channel":0,"type":"channel","noteNumber":69,"velocity":110,"subtype":"noteOn"},{"deltaTime":190,"channel":0,"type":"channel","noteNumber":69,"velocity":0,"subtype":"noteOff"},{"deltaTime":2,"channel":0,"type":"channel","noteNumber":72,"velocity":110,"subtype":"noteOn"},{"deltaTime":94,"channel":0,"type":"channel","noteNumber":72,"velocity":0,"subtype":"noteOff"},{"deltaTime":2,"channel":0,"type":"channel","noteNumber":76,"velocity":110,"subtype":"noteOn"},{"deltaTime":94,"channel":0,"type":"channel","noteNumber":76,"velocity":0,"subtype":"noteOff"},{"deltaTime":2,"channel":0,"type":"channel","noteNumber":76,"velocity":110,"subtype":"noteOn"},{"deltaTime":46,"channel":0,"type":"channel","noteNumber":76,"velocity":0,"subtype":"noteOff"},{"deltaTime":2,"channel":0,"type":"channel","noteNumber":76,"velocity":110,"subtype":"noteOn"},{"deltaTime":46,"channel":0,"type":"channel","noteNumber":76,"velocity":0,"subtype":"noteOff"},{"deltaTime":2,"channel":0,"type":"channel","noteNumber":74,"velocity":110,"subtype":"noteOn"},{"deltaTime":94,"channel":0,"type":"channel","noteNumber":74,"velocity":0,"subtype":"noteOff"},{"deltaTime":2,"channel":0,"type":"channel","noteNumber":72,"velocity":110,"subtype":"noteOn"},{"deltaTime":94,"channel":0,"type":"channel","noteNumber":72,"velocity":0,"subtype":"noteOff"},{"deltaTime":2,"channel":0,"type":"channel","noteNumber":71,"velocity":110,"subtype":"noteOn"},{"deltaTime":160,"channel":0,"type":"channel","noteNumber":71,"velocity":0,"subtype":"noteOff"},{"deltaTime":128,"channel":0,"type":"channel","noteNumber":67,"velocity":110,"subtype":"noteOn"},{"deltaTime":94,"channel":0,"type":"channel","noteNumber":67,"velocity":0,"subtype":"noteOff"},{"deltaTime":2,"channel":0,"type":"channel","noteNumber":71,"velocity":110,"subtype":"noteOn"},{"deltaTime":94,"channel":0,"type":"channel","noteNumber":71,"velocity":0,"subtype":"noteOff"},{"deltaTime":2,"channel":0,"type":"channel","noteNumber":72,"velocity":110,"subtype":"noteOn"},{"deltaTime":46,"channel":0,"type":"channel","noteNumber":72,"velocity":0,"subtype":"noteOff"},{"deltaTime":2,"channel":0,"type":"channel","noteNumber":71,"velocity":110,"subtype":"noteOn"},{"deltaTime":46,"channel":0,"type":"channel","noteNumber":71,"velocity":0,"subtype":"noteOff"},{"deltaTime":2,"channel":0,"type":"channel","noteNumber":69,"velocity":110,"subtype":"noteOn"},{"deltaTime":94,"channel":0,"type":"channel","noteNumber":69,"velocity":0,"subtype":"noteOff"},{"deltaTime":2,"channel":0,"type":"channel","noteNumber":67,"velocity":110,"subtype":"noteOn"},{"deltaTime":94,"channel":0,"type":"channel","noteNumber":67,"velocity":0,"subtype":"noteOff"},{"deltaTime":2,"channel":0,"type":"channel","noteNumber":69,"velocity":110,"subtype":"noteOn"},{"deltaTime":94,"channel":0,"type":"channel","noteNumber":69,"velocity":0,"subtype":"noteOff"},{"deltaTime":2,"channel":0,"type":"channel","noteNumber":57,"velocity":110,"subtype":"noteOn"},{"deltaTime":94,"channel":0,"type":"channel","noteNumber":57,"velocity":0,"subtype":"noteOff"},{"deltaTime":2,"channel":0,"type":"channel","noteNumber":63,"velocity":110,"subtype":"noteOn"},{"deltaTime":94,"channel":0,"type":"channel","noteNumber":63,"velocity":0,"subtype":"noteOff"},{"deltaTime":2,"channel":0,"type":"channel","noteNumber":66,"velocity":110,"subtype":"noteOn"},{"deltaTime":94,"channel":0,"type":"channel","noteNumber":66,"velocity":0,"subtype":"noteOff"},{"deltaTime":2,"channel":0,"type":"channel","noteNumber":69,"velocity":110,"subtype":"noteOn"},{"deltaTime":160,"channel":0,"type":"channel","noteNumber":69,"velocity":0,"subtype":"noteOff"},{"deltaTime":32,"channel":0,"type":"channel","noteNumber":71,"velocity":110,"subtype":"noteOn"},{"deltaTime":160,"channel":0,"type":"channel","noteNumber":71,"velocity":0,"subtype":"noteOff"},{"deltaTime":32,"channel":0,"type":"channel","noteNumber":67,"velocity":110,"subtype":"noteOn"},{"deltaTime":160,"channel":0,"type":"channel","noteNumber":67,"velocity":0,"subtype":"noteOff"},{"deltaTime":32,"channel":0,"type":"channel","noteNumber":64,"velocity":110,"subtype":"noteOn"},{"deltaTime":160,"channel":0,"type":"channel","noteNumber":64,"velocity":0,"subtype":"noteOff"},{"deltaTime":32,"channel":0,"type":"channel","noteNumber":64,"velocity":110,"subtype":"noteOn"},{"deltaTime":160,"channel":0,"type":"channel","noteNumber":64,"velocity":0,"subtype":"noteOff"},{"deltaTime":224,"channel":0,"type":"channel","noteNumber":71,"velocity":110,"subtype":"noteOn"},{"deltaTime":160,"channel":0,"type":"channel","noteNumber":71,"velocity":0,"subtype":"noteOff"},{"deltaTime":32,"channel":0,"type":"channel","noteNumber":66,"velocity":110,"subtype":"noteOn"},{"deltaTime":94,"channel":0,"type":"channel","noteNumber":66,"velocity":0,"subtype":"noteOff"},{"deltaTime":2,"channel":0,"type":"channel","noteNumber":67,"velocity":110,"subtype":"noteOn"},{"deltaTime":94,"channel":0,"type":"channel","noteNumber":67,"velocity":0,"subtype":"noteOff"},{"deltaTime":2,"channel":0,"type":"channel","noteNumber":69,"velocity":110,"subtype":"noteOn"},{"deltaTime":94,"channel":0,"type":"channel","noteNumber":69,"velocity":0,"subtype":"noteOff"},{"deltaTime":2,"channel":0,"type":"channel","noteNumber":71,"velocity":110,"subtype":"noteOn"},{"deltaTime":46,"channel":0,"type":"channel","noteNumber":71,"velocity":0,"subtype":"noteOff"},{"deltaTime":2,"channel":0,"type":"channel","noteNumber":69,"velocity":110,"subtype":"noteOn"},{"deltaTime":46,"channel":0,"type":"channel","noteNumber":69,"velocity":0,"subtype":"noteOff"},{"deltaTime":2,"channel":0,"type":"channel","noteNumber":67,"velocity":110,"subtype":"noteOn"},{"deltaTime":94,"channel":0,"type":"channel","noteNumber":67,"velocity":0,"subtype":"noteOff"},{"deltaTime":2,"channel":0,"type":"channel","noteNumber":66,"velocity":110,"subtype":"noteOn"},{"deltaTime":94,"channel":0,"type":"channel","noteNumber":66,"velocity":0,"subtype":"noteOff"},{"deltaTime":2,"channel":0,"type":"channel","noteNumber":64,"velocity":110,"subtype":"noteOn"},{"deltaTime":94,"channel":0,"type":"channel","noteNumber":64,"velocity":0,"subtype":"noteOff"},{"deltaTime":2,"channel":0,"type":"channel","noteNumber":52,"velocity":110,"subtype":"noteOn"},{"deltaTime":94,"channel":0,"type":"channel","noteNumber":52,"velocity":0,"subtype":"noteOff"},{"deltaTime":2,"channel":0,"type":"channel","noteNumber":64,"velocity":110,"subtype":"noteOn"},{"deltaTime":94,"channel":0,"type":"channel","noteNumber":64,"velocity":0,"subtype":"noteOff"},{"deltaTime":2,"channel":0,"type":"channel","noteNumber":67,"velocity":110,"subtype":"noteOn"},{"deltaTime":94,"channel":0,"type":"channel","noteNumber":67,"velocity":0,"subtype":"noteOff"},{"deltaTime":2,"channel":0,"type":"channel","noteNumber":71,"velocity":110,"subtype":"noteOn"},{"deltaTime":160,"channel":0,"type":"channel","noteNumber":71,"velocity":0,"subtype":"noteOff"},{"deltaTime":32,"channel":0,"type":"channel","noteNumber":69,"velocity":110,"subtype":"noteOn"},{"deltaTime":94,"channel":0,"type":"channel","noteNumber":69,"velocity":0,"subtype":"noteOff"},{"deltaTime":2,"channel":0,"type":"channel","noteNumber":67,"velocity":110,"subtype":"noteOn"},{"deltaTime":94,"channel":0,"type":"channel","noteNumber":67,"velocity":0,"subtype":"noteOff"},{"deltaTime":2,"channel":0,"type":"channel","noteNumber":66,"velocity":110,"subtype":"noteOn"},{"deltaTime":94,"channel":0,"type":"channel","noteNumber":66,"velocity":0,"subtype":"noteOff"},{"deltaTime":2,"channel":0,"type":"channel","noteNumber":54,"velocity":110,"subtype":"noteOn"},{"deltaTime":94,"channel":0,"type":"channel","noteNumber":54,"velocity":0,"subtype":"noteOff"},{"deltaTime":2,"channel":0,"type":"channel","noteNumber":66,"velocity":110,"subtype":"noteOn"},{"deltaTime":94,"channel":0,"type":"channel","noteNumber":66,"velocity":0,"subtype":"noteOff"},{"deltaTime":2,"channel":0,"type":"channel","noteNumber":67,"velocity":110,"subtype":"noteOn"},{"deltaTime":94,"channel":0,"type":"channel","noteNumber":67,"velocity":0,"subtype":"noteOff"},{"deltaTime":2,"channel":0,"type":"channel","noteNumber":69,"velocity":110,"subtype":"noteOn"},{"deltaTime":160,"channel":0,"type":"channel","noteNumber":69,"velocity":0,"subtype":"noteOff"},{"deltaTime":32,"channel":0,"type":"channel","noteNumber":71,"velocity":110,"subtype":"noteOn"},{"deltaTime":160,"channel":0,"type":"channel","noteNumber":71,"velocity":0,"subtype":"noteOff"},{"deltaTime":32,"channel":0,"type":"channel","noteNumber":67,"velocity":110,"subtype":"noteOn"},{"deltaTime":160,"channel":0,"type":"channel","noteNumber":67,"velocity":0,"subtype":"noteOff"},{"deltaTime":32,"channel":0,"type":"channel","noteNumber":64,"velocity":110,"subtype":"noteOn"},{"deltaTime":160,"channel":0,"type":"channel","noteNumber":64,"velocity":0,"subtype":"noteOff"},{"deltaTime":32,"channel":0,"type":"channel","noteNumber":64,"velocity":110,"subtype":"noteOn"},{"deltaTime":160,"channel":0,"type":"channel","noteNumber":64,"velocity":0,"subtype":"noteOff"},{"deltaTime":320,"channel":0,"type":"channel","noteNumber":69,"velocity":110,"subtype":"noteOn"},{"deltaTime":190,"channel":0,"type":"channel","noteNumber":69,"velocity":0,"subtype":"noteOff"},{"deltaTime":2,"channel":0,"type":"channel","noteNumber":72,"velocity":110,"subtype":"noteOn"},{"deltaTime":94,"channel":0,"type":"channel","noteNumber":72,"velocity":0,"subtype":"noteOff"},{"deltaTime":2,"channel":0,"type":"channel","noteNumber":76,"velocity":110,"subtype":"noteOn"},{"deltaTime":94,"channel":0,"type":"channel","noteNumber":76,"velocity":0,"subtype":"noteOff"},{"deltaTime":2,"channel":0,"type":"channel","noteNumber":76,"velocity":110,"subtype":"noteOn"},{"deltaTime":46,"channel":0,"type":"channel","noteNumber":76,"velocity":0,"subtype":"noteOff"},{"deltaTime":2,"channel":0,"type":"channel","noteNumber":76,"velocity":110,"subtype":"noteOn"},{"deltaTime":46,"channel":0,"type":"channel","noteNumber":76,"velocity":0,"subtype":"noteOff"},{"deltaTime":2,"channel":0,"type":"channel","noteNumber":74,"velocity":110,"subtype":"noteOn"},{"deltaTime":94,"channel":0,"type":"channel","noteNumber":74,"velocity":0,"subtype":"noteOff"},{"deltaTime":2,"channel":0,"type":"channel","noteNumber":72,"velocity":110,"subtype":"noteOn"},{"deltaTime":94,"channel":0,"type":"channel","noteNumber":72,"velocity":0,"subtype":"noteOff"},{"deltaTime":2,"channel":0,"type":"channel","noteNumber":71,"velocity":110,"subtype":"noteOn"},{"deltaTime":160,"channel":0,"type":"channel","noteNumber":71,"velocity":0,"subtype":"noteOff"},{"deltaTime":128,"channel":0,"type":"channel","noteNumber":67,"velocity":110,"subtype":"noteOn"},{"deltaTime":94,"channel":0,"type":"channel","noteNumber":67,"velocity":0,"subtype":"noteOff"},{"deltaTime":2,"channel":0,"type":"channel","noteNumber":71,"velocity":110,"subtype":"noteOn"},{"deltaTime":94,"channel":0,"type":"channel","noteNumber":71,"velocity":0,"subtype":"noteOff"},{"deltaTime":2,"channel":0,"type":"channel","noteNumber":72,"velocity":110,"subtype":"noteOn"},{"deltaTime":46,"channel":0,"type":"channel","noteNumber":72,"velocity":0,"subtype":"noteOff"},{"deltaTime":2,"channel":0,"type":"channel","noteNumber":71,"velocity":110,"subtype":"noteOn"},{"deltaTime":46,"channel":0,"type":"channel","noteNumber":71,"velocity":0,"subtype":"noteOff"},{"deltaTime":2,"channel":0,"type":"channel","noteNumber":69,"velocity":110,"subtype":"noteOn"},{"deltaTime":94,"channel":0,"type":"channel","noteNumber":69,"velocity":0,"subtype":"noteOff"},{"deltaTime":2,"channel":0,"type":"channel","noteNumber":67,"velocity":110,"subtype":"noteOn"},{"deltaTime":94,"channel":0,"type":"channel","noteNumber":67,"velocity":0,"subtype":"noteOff"},{"deltaTime":2,"channel":0,"type":"channel","noteNumber":69,"velocity":110,"subtype":"noteOn"},{"deltaTime":94,"channel":0,"type":"channel","noteNumber":69,"velocity":0,"subtype":"noteOff"},{"deltaTime":2,"channel":0,"type":"channel","noteNumber":57,"velocity":110,"subtype":"noteOn"},{"deltaTime":94,"channel":0,"type":"channel","noteNumber":57,"velocity":0,"subtype":"noteOff"},{"deltaTime":2,"channel":0,"type":"channel","noteNumber":63,"velocity":110,"subtype":"noteOn"},{"deltaTime":94,"channel":0,"type":"channel","noteNumber":63,"velocity":0,"subtype":"noteOff"},{"deltaTime":2,"channel":0,"type":"channel","noteNumber":66,"velocity":110,"subtype":"noteOn"},{"deltaTime":94,"channel":0,"type":"channel","noteNumber":66,"velocity":0,"subtype":"noteOff"},{"deltaTime":2,"channel":0,"type":"channel","noteNumber":69,"velocity":110,"subtype":"noteOn"},{"deltaTime":160,"channel":0,"type":"channel","noteNumber":69,"velocity":0,"subtype":"noteOff"},{"deltaTime":32,"channel":0,"type":"channel","noteNumber":71,"velocity":110,"subtype":"noteOn"},{"deltaTime":160,"channel":0,"type":"channel","noteNumber":71,"velocity":0,"subtype":"noteOff"},{"deltaTime":32,"channel":0,"type":"channel","noteNumber":67,"velocity":110,"subtype":"noteOn"},{"deltaTime":160,"channel":0,"type":"channel","noteNumber":67,"velocity":0,"subtype":"noteOff"},{"deltaTime":32,"channel":0,"type":"channel","noteNumber":64,"velocity":110,"subtype":"noteOn"},{"deltaTime":160,"channel":0,"type":"channel","noteNumber":64,"velocity":0,"subtype":"noteOff"},{"deltaTime":32,"channel":0,"type":"channel","noteNumber":64,"velocity":110,"subtype":"noteOn"},{"deltaTime":160,"channel":0,"type":"channel","noteNumber":64,"velocity":0,"subtype":"noteOff"},{"deltaTime":224,"channel":0,"type":"channel","noteNumber":71,"velocity":110,"subtype":"noteOn"},{"deltaTime":160,"channel":0,"type":"channel","noteNumber":71,"velocity":0,"subtype":"noteOff"},{"deltaTime":32,"channel":0,"type":"channel","noteNumber":66,"velocity":110,"subtype":"noteOn"},{"deltaTime":94,"channel":0,"type":"channel","noteNumber":66,"velocity":0,"subtype":"noteOff"},{"deltaTime":2,"channel":0,"type":"channel","noteNumber":67,"velocity":110,"subtype":"noteOn"},{"deltaTime":94,"channel":0,"type":"channel","noteNumber":67,"velocity":0,"subtype":"noteOff"},{"deltaTime":2,"channel":0,"type":"channel","noteNumber":69,"velocity":110,"subtype":"noteOn"},{"deltaTime":94,"channel":0,"type":"channel","noteNumber":69,"velocity":0,"subtype":"noteOff"},{"deltaTime":2,"channel":0,"type":"channel","noteNumber":71,"velocity":110,"subtype":"noteOn"},{"deltaTime":46,"channel":0,"type":"channel","noteNumber":71,"velocity":0,"subtype":"noteOff"},{"deltaTime":2,"channel":0,"type":"channel","noteNumber":69,"velocity":110,"subtype":"noteOn"},{"deltaTime":46,"channel":0,"type":"channel","noteNumber":69,"velocity":0,"subtype":"noteOff"},{"deltaTime":2,"channel":0,"type":"channel","noteNumber":67,"velocity":110,"subtype":"noteOn"},{"deltaTime":94,"channel":0,"type":"channel","noteNumber":67,"velocity":0,"subtype":"noteOff"},{"deltaTime":2,"channel":0,"type":"channel","noteNumber":66,"velocity":110,"subtype":"noteOn"},{"deltaTime":94,"channel":0,"type":"channel","noteNumber":66,"velocity":0,"subtype":"noteOff"},{"deltaTime":2,"channel":0,"type":"channel","noteNumber":64,"velocity":110,"subtype":"noteOn"},{"deltaTime":94,"channel":0,"type":"channel","noteNumber":64,"velocity":0,"subtype":"noteOff"},{"deltaTime":2,"channel":0,"type":"channel","noteNumber":52,"velocity":110,"subtype":"noteOn"},{"deltaTime":94,"channel":0,"type":"channel","noteNumber":52,"velocity":0,"subtype":"noteOff"},{"deltaTime":2,"channel":0,"type":"channel","noteNumber":64,"velocity":110,"subtype":"noteOn"},{"deltaTime":94,"channel":0,"type":"channel","noteNumber":64,"velocity":0,"subtype":"noteOff"},{"deltaTime":2,"channel":0,"type":"channel","noteNumber":67,"velocity":110,"subtype":"noteOn"},{"deltaTime":94,"channel":0,"type":"channel","noteNumber":67,"velocity":0,"subtype":"noteOff"},{"deltaTime":2,"channel":0,"type":"channel","noteNumber":71,"velocity":110,"subtype":"noteOn"},{"deltaTime":160,"channel":0,"type":"channel","noteNumber":71,"velocity":0,"subtype":"noteOff"},{"deltaTime":32,"channel":0,"type":"channel","noteNumber":69,"velocity":110,"subtype":"noteOn"},{"deltaTime":94,"channel":0,"type":"channel","noteNumber":69,"velocity":0,"subtype":"noteOff"},{"deltaTime":2,"channel":0,"type":"channel","noteNumber":67,"velocity":110,"subtype":"noteOn"},{"deltaTime":94,"channel":0,"type":"channel","noteNumber":67,"velocity":0,"subtype":"noteOff"},{"deltaTime":2,"channel":0,"type":"channel","noteNumber":66,"velocity":110,"subtype":"noteOn"},{"deltaTime":94,"channel":0,"type":"channel","noteNumber":66,"velocity":0,"subtype":"noteOff"},{"deltaTime":2,"channel":0,"type":"channel","noteNumber":54,"velocity":110,"subtype":"noteOn"},{"deltaTime":94,"channel":0,"type":"channel","noteNumber":54,"velocity":0,"subtype":"noteOff"},{"deltaTime":2,"channel":0,"type":"channel","noteNumber":66,"velocity":110,"subtype":"noteOn"},{"deltaTime":94,"channel":0,"type":"channel","noteNumber":66,"velocity":0,"subtype":"noteOff"},{"deltaTime":2,"channel":0,"type":"channel","noteNumber":67,"velocity":110,"subtype":"noteOn"},{"deltaTime":94,"channel":0,"type":"channel","noteNumber":67,"velocity":0,"subtype":"noteOff"},{"deltaTime":2,"channel":0,"type":"channel","noteNumber":69,"velocity":110,"subtype":"noteOn"},{"deltaTime":160,"channel":0,"type":"channel","noteNumber":69,"velocity":0,"subtype":"noteOff"},{"deltaTime":32,"channel":0,"type":"channel","noteNumber":71,"velocity":110,"subtype":"noteOn"},{"deltaTime":160,"channel":0,"type":"channel","noteNumber":71,"velocity":0,"subtype":"noteOff"},{"deltaTime":32,"channel":0,"type":"channel","noteNumber":67,"velocity":110,"subtype":"noteOn"},{"deltaTime":160,"channel":0,"type":"channel","noteNumber":67,"velocity":0,"subtype":"noteOff"},{"deltaTime":32,"channel":0,"type":"channel","noteNumber":64,"velocity":110,"subtype":"noteOn"},{"deltaTime":160,"channel":0,"type":"channel","noteNumber":64,"velocity":0,"subtype":"noteOff"},{"deltaTime":32,"channel":0,"type":"channel","noteNumber":64,"velocity":110,"subtype":"noteOn"},{"deltaTime":160,"channel":0,"type":"channel","noteNumber":64,"velocity":0,"subtype":"noteOff"},{"deltaTime":320,"channel":0,"type":"channel","noteNumber":69,"velocity":110,"subtype":"noteOn"},{"deltaTime":190,"channel":0,"type":"channel","noteNumber":69,"velocity":0,"subtype":"noteOff"},{"deltaTime":2,"channel":0,"type":"channel","noteNumber":72,"velocity":110,"subtype":"noteOn"},{"deltaTime":94,"channel":0,"type":"channel","noteNumber":72,"velocity":0,"subtype":"noteOff"},{"deltaTime":2,"channel":0,"type":"channel","noteNumber":76,"velocity":110,"subtype":"noteOn"},{"deltaTime":94,"channel":0,"type":"channel","noteNumber":76,"velocity":0,"subtype":"noteOff"},{"deltaTime":2,"channel":0,"type":"channel","noteNumber":76,"velocity":110,"subtype":"noteOn"},{"deltaTime":46,"channel":0,"type":"channel","noteNumber":76,"velocity":0,"subtype":"noteOff"},{"deltaTime":2,"channel":0,"type":"channel","noteNumber":76,"velocity":110,"subtype":"noteOn"},{"deltaTime":46,"channel":0,"type":"channel","noteNumber":76,"velocity":0,"subtype":"noteOff"},{"deltaTime":2,"channel":0,"type":"channel","noteNumber":74,"velocity":110,"subtype":"noteOn"},{"deltaTime":94,"channel":0,"type":"channel","noteNumber":74,"velocity":0,"subtype":"noteOff"},{"deltaTime":2,"channel":0,"type":"channel","noteNumber":72,"velocity":110,"subtype":"noteOn"},{"deltaTime":94,"channel":0,"type":"channel","noteNumber":72,"velocity":0,"subtype":"noteOff"},{"deltaTime":2,"channel":0,"type":"channel","noteNumber":71,"velocity":110,"subtype":"noteOn"},{"deltaTime":160,"channel":0,"type":"channel","noteNumber":71,"velocity":0,"subtype":"noteOff"},{"deltaTime":128,"channel":0,"type":"channel","noteNumber":67,"velocity":110,"subtype":"noteOn"},{"deltaTime":94,"channel":0,"type":"channel","noteNumber":67,"velocity":0,"subtype":"noteOff"},{"deltaTime":2,"channel":0,"type":"channel","noteNumber":71,"velocity":110,"subtype":"noteOn"},{"deltaTime":94,"channel":0,"type":"channel","noteNumber":71,"velocity":0,"subtype":"noteOff"},{"deltaTime":2,"channel":0,"type":"channel","noteNumber":72,"velocity":110,"subtype":"noteOn"},{"deltaTime":46,"channel":0,"type":"channel","noteNumber":72,"velocity":0,"subtype":"noteOff"},{"deltaTime":2,"channel":0,"type":"channel","noteNumber":71,"velocity":110,"subtype":"noteOn"},{"deltaTime":46,"channel":0,"type":"channel","noteNumber":71,"velocity":0,"subtype":"noteOff"},{"deltaTime":2,"channel":0,"type":"channel","noteNumber":69,"velocity":110,"subtype":"noteOn"},{"deltaTime":94,"channel":0,"type":"channel","noteNumber":69,"velocity":0,"subtype":"noteOff"},{"deltaTime":2,"channel":0,"type":"channel","noteNumber":67,"velocity":110,"subtype":"noteOn"},{"deltaTime":94,"channel":0,"type":"channel","noteNumber":67,"velocity":0,"subtype":"noteOff"},{"deltaTime":2,"channel":0,"type":"channel","noteNumber":69,"velocity":110,"subtype":"noteOn"},{"deltaTime":94,"channel":0,"type":"channel","noteNumber":69,"velocity":0,"subtype":"noteOff"},{"deltaTime":2,"channel":0,"type":"channel","noteNumber":57,"velocity":110,"subtype":"noteOn"},{"deltaTime":94,"channel":0,"type":"channel","noteNumber":57,"velocity":0,"subtype":"noteOff"},{"deltaTime":2,"channel":0,"type":"channel","noteNumber":63,"velocity":110,"subtype":"noteOn"},{"deltaTime":94,"channel":0,"type":"channel","noteNumber":63,"velocity":0,"subtype":"noteOff"},{"deltaTime":2,"channel":0,"type":"channel","noteNumber":66,"velocity":110,"subtype":"noteOn"},{"deltaTime":94,"channel":0,"type":"channel","noteNumber":66,"velocity":0,"subtype":"noteOff"},{"deltaTime":2,"channel":0,"type":"channel","noteNumber":69,"velocity":110,"subtype":"noteOn"},{"deltaTime":160,"channel":0,"type":"channel","noteNumber":69,"velocity":0,"subtype":"noteOff"},{"deltaTime":32,"channel":0,"type":"channel","noteNumber":71,"velocity":110,"subtype":"noteOn"},{"deltaTime":160,"channel":0,"type":"channel","noteNumber":71,"velocity":0,"subtype":"noteOff"},{"deltaTime":32,"channel":0,"type":"channel","noteNumber":67,"velocity":110,"subtype":"noteOn"},{"deltaTime":160,"channel":0,"type":"channel","noteNumber":67,"velocity":0,"subtype":"noteOff"},{"deltaTime":32,"channel":0,"type":"channel","noteNumber":64,"velocity":110,"subtype":"noteOn"},{"deltaTime":160,"channel":0,"type":"channel","noteNumber":64,"velocity":0,"subtype":"noteOff"},{"deltaTime":32,"channel":0,"type":"channel","noteNumber":64,"velocity":110,"subtype":"noteOn"},{"deltaTime":160,"channel":0,"type":"channel","noteNumber":64,"velocity":0,"subtype":"noteOff"},{"deltaTime":224,"channel":0,"type":"channel","noteNumber":71,"velocity":110,"subtype":"noteOn"},{"deltaTime":160,"channel":0,"type":"channel","noteNumber":71,"velocity":0,"subtype":"noteOff"},{"deltaTime":32,"channel":0,"type":"channel","noteNumber":66,"velocity":110,"subtype":"noteOn"},{"deltaTime":94,"channel":0,"type":"channel","noteNumber":66,"velocity":0,"subtype":"noteOff"},{"deltaTime":2,"channel":0,"type":"channel","noteNumber":67,"velocity":110,"subtype":"noteOn"},{"deltaTime":94,"channel":0,"type":"channel","noteNumber":67,"velocity":0,"subtype":"noteOff"},{"deltaTime":2,"channel":0,"type":"channel","noteNumber":69,"velocity":110,"subtype":"noteOn"},{"deltaTime":94,"channel":0,"type":"channel","noteNumber":69,"velocity":0,"subtype":"noteOff"},{"deltaTime":2,"channel":0,"type":"channel","noteNumber":71,"velocity":110,"subtype":"noteOn"},{"deltaTime":46,"channel":0,"type":"channel","noteNumber":71,"velocity":0,"subtype":"noteOff"},{"deltaTime":2,"channel":0,"type":"channel","noteNumber":69,"velocity":110,"subtype":"noteOn"},{"deltaTime":46,"channel":0,"type":"channel","noteNumber":69,"velocity":0,"subtype":"noteOff"},{"deltaTime":2,"channel":0,"type":"channel","noteNumber":67,"velocity":110,"subtype":"noteOn"},{"deltaTime":94,"channel":0,"type":"channel","noteNumber":67,"velocity":0,"subtype":"noteOff"},{"deltaTime":2,"channel":0,"type":"channel","noteNumber":66,"velocity":110,"subtype":"noteOn"},{"deltaTime":94,"channel":0,"type":"channel","noteNumber":66,"velocity":0,"subtype":"noteOff"},{"deltaTime":2,"channel":0,"type":"channel","noteNumber":64,"velocity":110,"subtype":"noteOn"},{"deltaTime":94,"channel":0,"type":"channel","noteNumber":64,"velocity":0,"subtype":"noteOff"},{"deltaTime":2,"channel":0,"type":"channel","noteNumber":52,"velocity":110,"subtype":"noteOn"},{"deltaTime":94,"channel":0,"type":"channel","noteNumber":52,"velocity":0,"subtype":"noteOff"},{"deltaTime":2,"channel":0,"type":"channel","noteNumber":64,"velocity":110,"subtype":"noteOn"},{"deltaTime":94,"channel":0,"type":"channel","noteNumber":64,"velocity":0,"subtype":"noteOff"},{"deltaTime":2,"channel":0,"type":"channel","noteNumber":67,"velocity":110,"subtype":"noteOn"},{"deltaTime":94,"channel":0,"type":"channel","noteNumber":67,"velocity":0,"subtype":"noteOff"},{"deltaTime":2,"channel":0,"type":"channel","noteNumber":71,"velocity":110,"subtype":"noteOn"},{"deltaTime":160,"channel":0,"type":"channel","noteNumber":71,"velocity":0,"subtype":"noteOff"},{"deltaTime":32,"channel":0,"type":"channel","noteNumber":69,"velocity":110,"subtype":"noteOn"},{"deltaTime":94,"channel":0,"type":"channel","noteNumber":69,"velocity":0,"subtype":"noteOff"},{"deltaTime":2,"channel":0,"type":"channel","noteNumber":67,"velocity":110,"subtype":"noteOn"},{"deltaTime":94,"channel":0,"type":"channel","noteNumber":67,"velocity":0,"subtype":"noteOff"},{"deltaTime":2,"channel":0,"type":"channel","noteNumber":66,"velocity":110,"subtype":"noteOn"},{"deltaTime":94,"channel":0,"type":"channel","noteNumber":66,"velocity":0,"subtype":"noteOff"},{"deltaTime":2,"channel":0,"type":"channel","noteNumber":54,"velocity":110,"subtype":"noteOn"},{"deltaTime":94,"channel":0,"type":"channel","noteNumber":54,"velocity":0,"subtype":"noteOff"},{"deltaTime":2,"channel":0,"type":"channel","noteNumber":66,"velocity":110,"subtype":"noteOn"},{"deltaTime":94,"channel":0,"type":"channel","noteNumber":66,"velocity":0,"subtype":"noteOff"},{"deltaTime":2,"channel":0,"type":"channel","noteNumber":67,"velocity":110,"subtype":"noteOn"},{"deltaTime":94,"channel":0,"type":"channel","noteNumber":67,"velocity":0,"subtype":"noteOff"},{"deltaTime":2,"channel":0,"type":"channel","noteNumber":69,"velocity":110,"subtype":"noteOn"},{"deltaTime":160,"channel":0,"type":"channel","noteNumber":69,"velocity":0,"subtype":"noteOff"},{"deltaTime":32,"channel":0,"type":"channel","noteNumber":71,"velocity":110,"subtype":"noteOn"},{"deltaTime":160,"channel":0,"type":"channel","noteNumber":71,"velocity":0,"subtype":"noteOff"},{"deltaTime":32,"channel":0,"type":"channel","noteNumber":67,"velocity":110,"subtype":"noteOn"},{"deltaTime":160,"channel":0,"type":"channel","noteNumber":67,"velocity":0,"subtype":"noteOff"},{"deltaTime":32,"channel":0,"type":"channel","noteNumber":64,"velocity":110,"subtype":"noteOn"},{"deltaTime":160,"channel":0,"type":"channel","noteNumber":64,"velocity":0,"subtype":"noteOff"},{"deltaTime":32,"channel":0,"type":"channel","noteNumber":64,"velocity":110,"subtype":"noteOn"},{"deltaTime":160,"channel":0,"type":"channel","noteNumber":64,"velocity":0,"subtype":"noteOff"},{"deltaTime":320,"channel":0,"type":"channel","noteNumber":69,"velocity":110,"subtype":"noteOn"},{"deltaTime":190,"channel":0,"type":"channel","noteNumber":69,"velocity":0,"subtype":"noteOff"},{"deltaTime":2,"channel":0,"type":"channel","noteNumber":72,"velocity":110,"subtype":"noteOn"},{"deltaTime":94,"channel":0,"type":"channel","noteNumber":72,"velocity":0,"subtype":"noteOff"},{"deltaTime":2,"channel":0,"type":"channel","noteNumber":76,"velocity":110,"subtype":"noteOn"},{"deltaTime":94,"channel":0,"type":"channel","noteNumber":76,"velocity":0,"subtype":"noteOff"},{"deltaTime":2,"channel":0,"type":"channel","noteNumber":76,"velocity":110,"subtype":"noteOn"},{"deltaTime":46,"channel":0,"type":"channel","noteNumber":76,"velocity":0,"subtype":"noteOff"},{"deltaTime":2,"channel":0,"type":"channel","noteNumber":76,"velocity":110,"subtype":"noteOn"},{"deltaTime":46,"channel":0,"type":"channel","noteNumber":76,"velocity":0,"subtype":"noteOff"},{"deltaTime":2,"channel":0,"type":"channel","noteNumber":74,"velocity":110,"subtype":"noteOn"},{"deltaTime":94,"channel":0,"type":"channel","noteNumber":74,"velocity":0,"subtype":"noteOff"},{"deltaTime":2,"channel":0,"type":"channel","noteNumber":72,"velocity":110,"subtype":"noteOn"},{"deltaTime":94,"channel":0,"type":"channel","noteNumber":72,"velocity":0,"subtype":"noteOff"},{"deltaTime":2,"channel":0,"type":"channel","noteNumber":71,"velocity":110,"subtype":"noteOn"},{"deltaTime":160,"channel":0,"type":"channel","noteNumber":71,"velocity":0,"subtype":"noteOff"},{"deltaTime":128,"channel":0,"type":"channel","noteNumber":67,"velocity":110,"subtype":"noteOn"},{"deltaTime":94,"channel":0,"type":"channel","noteNumber":67,"velocity":0,"subtype":"noteOff"},{"deltaTime":2,"channel":0,"type":"channel","noteNumber":71,"velocity":110,"subtype":"noteOn"},{"deltaTime":94,"channel":0,"type":"channel","noteNumber":71,"velocity":0,"subtype":"noteOff"},{"deltaTime":2,"channel":0,"type":"channel","noteNumber":72,"velocity":110,"subtype":"noteOn"},{"deltaTime":46,"channel":0,"type":"channel","noteNumber":72,"velocity":0,"subtype":"noteOff"},{"deltaTime":2,"channel":0,"type":"channel","noteNumber":71,"velocity":110,"subtype":"noteOn"},{"deltaTime":46,"channel":0,"type":"channel","noteNumber":71,"velocity":0,"subtype":"noteOff"},{"deltaTime":2,"channel":0,"type":"channel","noteNumber":69,"velocity":110,"subtype":"noteOn"},{"deltaTime":94,"channel":0,"type":"channel","noteNumber":69,"velocity":0,"subtype":"noteOff"},{"deltaTime":2,"channel":0,"type":"channel","noteNumber":67,"velocity":110,"subtype":"noteOn"},{"deltaTime":94,"channel":0,"type":"channel","noteNumber":67,"velocity":0,"subtype":"noteOff"},{"deltaTime":2,"channel":0,"type":"channel","noteNumber":69,"velocity":110,"subtype":"noteOn"},{"deltaTime":94,"channel":0,"type":"channel","noteNumber":69,"velocity":0,"subtype":"noteOff"},{"deltaTime":2,"channel":0,"type":"channel","noteNumber":57,"velocity":110,"subtype":"noteOn"},{"deltaTime":94,"channel":0,"type":"channel","noteNumber":57,"velocity":0,"subtype":"noteOff"},{"deltaTime":2,"channel":0,"type":"channel","noteNumber":63,"velocity":110,"subtype":"noteOn"},{"deltaTime":94,"channel":0,"type":"channel","noteNumber":63,"velocity":0,"subtype":"noteOff"},{"deltaTime":2,"channel":0,"type":"channel","noteNumber":66,"velocity":110,"subtype":"noteOn"},{"deltaTime":94,"channel":0,"type":"channel","noteNumber":66,"velocity":0,"subtype":"noteOff"},{"deltaTime":2,"channel":0,"type":"channel","noteNumber":69,"velocity":110,"subtype":"noteOn"},{"deltaTime":160,"channel":0,"type":"channel","noteNumber":69,"velocity":0,"subtype":"noteOff"},{"deltaTime":32,"channel":0,"type":"channel","noteNumber":71,"velocity":110,"subtype":"noteOn"},{"deltaTime":160,"channel":0,"type":"channel","noteNumber":71,"velocity":0,"subtype":"noteOff"},{"deltaTime":32,"channel":0,"type":"channel","noteNumber":67,"velocity":110,"subtype":"noteOn"},{"deltaTime":160,"channel":0,"type":"channel","noteNumber":67,"velocity":0,"subtype":"noteOff"},{"deltaTime":32,"channel":0,"type":"channel","noteNumber":64,"velocity":110,"subtype":"noteOn"},{"deltaTime":160,"channel":0,"type":"channel","noteNumber":64,"velocity":0,"subtype":"noteOff"},{"deltaTime":32,"channel":0,"type":"channel","noteNumber":64,"velocity":110,"subtype":"noteOn"},{"deltaTime":160,"channel":0,"type":"channel","noteNumber":64,"velocity":0,"subtype":"noteOff"},{"deltaTime":224,"channel":0,"type":"channel","noteNumber":76,"velocity":110,"subtype":"noteOn"},{"deltaTime":160,"channel":0,"type":"channel","noteNumber":76,"velocity":0,"subtype":"noteOff"},{"deltaTime":32,"channel":0,"type":"channel","noteNumber":71,"velocity":110,"subtype":"noteOn"},{"deltaTime":94,"channel":0,"type":"channel","noteNumber":71,"velocity":0,"subtype":"noteOff"},{"deltaTime":2,"channel":0,"type":"channel","noteNumber":72,"velocity":110,"subtype":"noteOn"},{"deltaTime":94,"channel":0,"type":"channel","noteNumber":72,"velocity":0,"subtype":"noteOff"},{"deltaTime":2,"channel":0,"type":"channel","noteNumber":74,"velocity":110,"subtype":"noteOn"},{"deltaTime":94,"channel":0,"type":"channel","noteNumber":74,"velocity":0,"subtype":"noteOff"},{"deltaTime":2,"channel":0,"type":"channel","noteNumber":76,"velocity":110,"subtype":"noteOn"},{"deltaTime":46,"channel":0,"type":"channel","noteNumber":76,"velocity":0,"subtype":"noteOff"},{"deltaTime":2,"channel":0,"type":"channel","noteNumber":74,"velocity":110,"subtype":"noteOn"},{"deltaTime":46,"channel":0,"type":"channel","noteNumber":74,"velocity":0,"subtype":"noteOff"},{"deltaTime":2,"channel":0,"type":"channel","noteNumber":72,"velocity":110,"subtype":"noteOn"},{"deltaTime":94,"channel":0,"type":"channel","noteNumber":72,"velocity":0,"subtype":"noteOff"},{"deltaTime":2,"channel":0,"type":"channel","noteNumber":71,"velocity":110,"subtype":"noteOn"},{"deltaTime":94,"channel":0,"type":"channel","noteNumber":71,"velocity":0,"subtype":"noteOff"},{"deltaTime":2,"channel":0,"type":"channel","noteNumber":69,"velocity":110,"subtype":"noteOn"},{"deltaTime":160,"channel":0,"type":"channel","noteNumber":69,"velocity":0,"subtype":"noteOff"},{"deltaTime":32,"channel":0,"type":"channel","noteNumber":69,"velocity":110,"subtype":"noteOn"},{"deltaTime":94,"channel":0,"type":"channel","noteNumber":69,"velocity":0,"subtype":"noteOff"},{"deltaTime":2,"channel":0,"type":"channel","noteNumber":72,"velocity":110,"subtype":"noteOn"},{"deltaTime":94,"channel":0,"type":"channel","noteNumber":72,"velocity":0,"subtype":"noteOff"},{"deltaTime":2,"channel":0,"type":"channel","noteNumber":76,"velocity":110,"subtype":"noteOn"},{"deltaTime":160,"channel":0,"type":"channel","noteNumber":76,"velocity":0,"subtype":"noteOff"},{"deltaTime":32,"channel":0,"type":"channel","noteNumber":74,"velocity":110,"subtype":"noteOn"},{"deltaTime":94,"channel":0,"type":"channel","noteNumber":74,"velocity":0,"subtype":"noteOff"},{"deltaTime":2,"channel":0,"type":"channel","noteNumber":72,"velocity":110,"subtype":"noteOn"},{"deltaTime":94,"channel":0,"type":"channel","noteNumber":72,"velocity":0,"subtype":"noteOff"},{"deltaTime":2,"channel":0,"type":"channel","noteNumber":71,"velocity":110,"subtype":"noteOn"},{"deltaTime":256,"channel":0,"type":"channel","noteNumber":71,"velocity":0,"subtype":"noteOff"},{"deltaTime":32,"channel":0,"type":"channel","noteNumber":72,"velocity":110,"subtype":"noteOn"},{"deltaTime":94,"channel":0,"type":"channel","noteNumber":72,"velocity":0,"subtype":"noteOff"},{"deltaTime":2,"channel":0,"type":"channel","noteNumber":74,"velocity":110,"subtype":"noteOn"},{"deltaTime":160,"channel":0,"type":"channel","noteNumber":74,"velocity":0,"subtype":"noteOff"},{"deltaTime":32,"channel":0,"type":"channel","noteNumber":76,"velocity":110,"subtype":"noteOn"},{"deltaTime":160,"channel":0,"type":"channel","noteNumber":76,"velocity":0,"subtype":"noteOff"},{"deltaTime":32,"channel":0,"type":"channel","noteNumber":72,"velocity":110,"subtype":"noteOn"},{"deltaTime":160,"channel":0,"type":"channel","noteNumber":72,"velocity":0,"subtype":"noteOff"},{"deltaTime":32,"channel":0,"type":"channel","noteNumber":69,"velocity":110,"subtype":"noteOn"},{"deltaTime":160,"channel":0,"type":"channel","noteNumber":69,"velocity":0,"subtype":"noteOff"},{"deltaTime":32,"channel":0,"type":"channel","noteNumber":69,"velocity":110,"subtype":"noteOn"},{"deltaTime":336,"channel":0,"type":"channel","noteNumber":69,"velocity":0,"subtype":"noteOff"},{"deltaTime":144,"channel":0,"type":"channel","noteNumber":74,"velocity":110,"subtype":"noteOn"},{"deltaTime":190,"channel":0,"type":"channel","noteNumber":74,"velocity":0,"subtype":"noteOff"},{"deltaTime":2,"channel":0,"type":"channel","noteNumber":77,"velocity":110,"subtype":"noteOn"},{"deltaTime":94,"channel":0,"type":"channel","noteNumber":77,"velocity":0,"subtype":"noteOff"},{"deltaTime":2,"channel":0,"type":"channel","noteNumber":81,"velocity":110,"subtype":"noteOn"},{"deltaTime":160,"channel":0,"type":"channel","noteNumber":81,"velocity":0,"subtype":"noteOff"},{"deltaTime":32,"channel":0,"type":"channel","noteNumber":79,"velocity":110,"subtype":"noteOn"},{"deltaTime":94,"channel":0,"type":"channel","noteNumber":79,"velocity":0,"subtype":"noteOff"},{"deltaTime":2,"channel":0,"type":"channel","noteNumber":77,"velocity":110,"subtype":"noteOn"},{"deltaTime":94,"channel":0,"type":"channel","noteNumber":77,"velocity":0,"subtype":"noteOff"},{"deltaTime":2,"channel":0,"type":"channel","noteNumber":76,"velocity":110,"subtype":"noteOn"},{"deltaTime":256,"channel":0,"type":"channel","noteNumber":76,"velocity":0,"subtype":"noteOff"},{"deltaTime":32,"channel":0,"type":"channel","noteNumber":72,"velocity":110,"subtype":"noteOn"},{"deltaTime":94,"channel":0,"type":"channel","noteNumber":72,"velocity":0,"subtype":"noteOff"},{"deltaTime":2,"channel":0,"type":"channel","noteNumber":76,"velocity":110,"subtype":"noteOn"},{"deltaTime":160,"channel":0,"type":"channel","noteNumber":76,"velocity":0,"subtype":"noteOff"},{"deltaTime":32,"channel":0,"type":"channel","noteNumber":74,"velocity":110,"subtype":"noteOn"},{"deltaTime":94,"channel":0,"type":"channel","noteNumber":74,"velocity":0,"subtype":"noteOff"},{"deltaTime":2,"channel":0,"type":"channel","noteNumber":72,"velocity":110,"subtype":"noteOn"},{"deltaTime":94,"channel":0,"type":"channel","noteNumber":72,"velocity":0,"subtype":"noteOff"},{"deltaTime":2,"channel":0,"type":"channel","noteNumber":71,"velocity":110,"subtype":"noteOn"},{"deltaTime":160,"channel":0,"type":"channel","noteNumber":71,"velocity":0,"subtype":"noteOff"},{"deltaTime":32,"channel":0,"type":"channel","noteNumber":71,"velocity":110,"subtype":"noteOn"},{"deltaTime":94,"channel":0,"type":"channel","noteNumber":71,"velocity":0,"subtype":"noteOff"},{"deltaTime":2,"channel":0,"type":"channel","noteNumber":72,"velocity":110,"subtype":"noteOn"},{"deltaTime":94,"channel":0,"type":"channel","noteNumber":72,"velocity":0,"subtype":"noteOff"},{"deltaTime":2,"channel":0,"type":"channel","noteNumber":74,"velocity":110,"subtype":"noteOn"},{"deltaTime":160,"channel":0,"type":"channel","noteNumber":74,"velocity":0,"subtype":"noteOff"},{"deltaTime":32,"channel":0,"type":"channel","noteNumber":76,"velocity":110,"subtype":"noteOn"},{"deltaTime":160,"channel":0,"type":"channel","noteNumber":76,"velocity":0,"subtype":"noteOff"},{"deltaTime":32,"channel":0,"type":"channel","noteNumber":72,"velocity":110,"subtype":"noteOn"},{"deltaTime":160,"channel":0,"type":"channel","noteNumber":72,"velocity":0,"subtype":"noteOff"},{"deltaTime":32,"channel":0,"type":"channel","noteNumber":69,"velocity":110,"subtype":"noteOn"},{"deltaTime":160,"channel":0,"type":"channel","noteNumber":69,"velocity":0,"subtype":"noteOff"},{"deltaTime":32,"channel":0,"type":"channel","noteNumber":69,"velocity":110,"subtype":"noteOn"},{"deltaTime":160,"channel":0,"type":"channel","noteNumber":69,"velocity":0,"subtype":"noteOff"},{"deltaTime":0,"type":"meta","subtype":"endOfTrack"}],[{"deltaTime":0,"type":"meta","subtype":"unknown","data":"\u0000"},{"deltaTime":0,"type":"meta","subtype":"trackName","text":"Staff-1"},{"deltaTime":0,"channel":9,"type":"channel","subtype":"controller","controllerType":7,"value":127},{"deltaTime":0,"channel":9,"type":"channel","subtype":"controller","controllerType":10,"value":64},{"deltaTime":0,"channel":9,"type":"channel","subtype":"controller","controllerType":7,"value":127},{"deltaTime":0,"channel":9,"type":"channel","subtype":"controller","controllerType":10,"value":64},{"deltaTime":0,"channel":9,"type":"channel","noteNumber":35,"velocity":110,"subtype":"noteOn"},{"deltaTime":160,"channel":9,"type":"channel","noteNumber":35,"velocity":0,"subtype":"noteOff"},{"deltaTime":32,"channel":9,"type":"channel","noteNumber":35,"velocity":110,"subtype":"noteOn"},{"deltaTime":160,"channel":9,"type":"channel","noteNumber":35,"velocity":0,"subtype":"noteOff"},{"deltaTime":32,"channel":9,"type":"channel","noteNumber":35,"velocity":110,"subtype":"noteOn"},{"deltaTime":160,"channel":9,"type":"channel","noteNumber":35,"velocity":0,"subtype":"noteOff"},{"deltaTime":32,"channel":9,"type":"channel","noteNumber":35,"velocity":110,"subtype":"noteOn"},{"deltaTime":160,"channel":9,"type":"channel","noteNumber":35,"velocity":0,"subtype":"noteOff"},{"deltaTime":32,"channel":9,"type":"channel","noteNumber":35,"velocity":110,"subtype":"noteOn"},{"deltaTime":160,"channel":9,"type":"channel","noteNumber":35,"velocity":0,"subtype":"noteOff"},{"deltaTime":32,"channel":9,"type":"channel","noteNumber":35,"velocity":110,"subtype":"noteOn"},{"deltaTime":160,"channel":9,"type":"channel","noteNumber":35,"velocity":0,"subtype":"noteOff"},{"deltaTime":32,"channel":9,"type":"channel","noteNumber":35,"velocity":110,"subtype":"noteOn"},{"deltaTime":160,"channel":9,"type":"channel","noteNumber":35,"velocity":0,"subtype":"noteOff"},{"deltaTime":32,"channel":9,"type":"channel","noteNumber":35,"velocity":110,"subtype":"noteOn"},{"deltaTime":160,"channel":9,"type":"channel","noteNumber":35,"velocity":0,"subtype":"noteOff"},{"deltaTime":32,"channel":9,"type":"channel","noteNumber":35,"velocity":110,"subtype":"noteOn"},{"deltaTime":160,"channel":9,"type":"channel","noteNumber":35,"velocity":0,"subtype":"noteOff"},{"deltaTime":32,"channel":9,"type":"channel","noteNumber":35,"velocity":110,"subtype":"noteOn"},{"deltaTime":160,"channel":9,"type":"channel","noteNumber":35,"velocity":0,"subtype":"noteOff"},{"deltaTime":32,"channel":9,"type":"channel","noteNumber":35,"velocity":110,"subtype":"noteOn"},{"deltaTime":160,"channel":9,"type":"channel","noteNumber":35,"velocity":0,"subtype":"noteOff"},{"deltaTime":32,"channel":9,"type":"channel","noteNumber":35,"velocity":110,"subtype":"noteOn"},{"deltaTime":160,"channel":9,"type":"channel","noteNumber":35,"velocity":0,"subtype":"noteOff"},{"deltaTime":32,"channel":9,"type":"channel","noteNumber":35,"velocity":110,"subtype":"noteOn"},{"deltaTime":160,"channel":9,"type":"channel","noteNumber":35,"velocity":0,"subtype":"noteOff"},{"deltaTime":32,"channel":9,"type":"channel","noteNumber":35,"velocity":110,"subtype":"noteOn"},{"deltaTime":160,"channel":9,"type":"channel","noteNumber":35,"velocity":0,"subtype":"noteOff"},{"deltaTime":32,"channel":9,"type":"channel","noteNumber":35,"velocity":110,"subtype":"noteOn"},{"deltaTime":160,"channel":9,"type":"channel","noteNumber":35,"velocity":0,"subtype":"noteOff"},{"deltaTime":32,"channel":9,"type":"channel","noteNumber":35,"velocity":110,"subtype":"noteOn"},{"deltaTime":160,"channel":9,"type":"channel","noteNumber":35,"velocity":0,"subtype":"noteOff"},{"deltaTime":32,"channel":9,"type":"channel","noteNumber":35,"velocity":110,"subtype":"noteOn"},{"deltaTime":160,"channel":9,"type":"channel","noteNumber":35,"velocity":0,"subtype":"noteOff"},{"deltaTime":32,"channel":9,"type":"channel","noteNumber":35,"velocity":110,"subtype":"noteOn"},{"deltaTime":160,"channel":9,"type":"channel","noteNumber":35,"velocity":0,"subtype":"noteOff"},{"deltaTime":32,"channel":9,"type":"channel","noteNumber":35,"velocity":110,"subtype":"noteOn"},{"deltaTime":160,"channel":9,"type":"channel","noteNumber":35,"velocity":0,"subtype":"noteOff"},{"deltaTime":32,"channel":9,"type":"channel","noteNumber":35,"velocity":110,"subtype":"noteOn"},{"deltaTime":160,"channel":9,"type":"channel","noteNumber":35,"velocity":0,"subtype":"noteOff"},{"deltaTime":32,"channel":9,"type":"channel","noteNumber":35,"velocity":110,"subtype":"noteOn"},{"deltaTime":160,"channel":9,"type":"channel","noteNumber":35,"velocity":0,"subtype":"noteOff"},{"deltaTime":32,"channel":9,"type":"channel","noteNumber":35,"velocity":110,"subtype":"noteOn"},{"deltaTime":160,"channel":9,"type":"channel","noteNumber":35,"velocity":0,"subtype":"noteOff"},{"deltaTime":32,"channel":9,"type":"channel","noteNumber":35,"velocity":110,"subtype":"noteOn"},{"deltaTime":160,"channel":9,"type":"channel","noteNumber":35,"velocity":0,"subtype":"noteOff"},{"deltaTime":32,"channel":9,"type":"channel","noteNumber":35,"velocity":110,"subtype":"noteOn"},{"deltaTime":160,"channel":9,"type":"channel","noteNumber":35,"velocity":0,"subtype":"noteOff"},{"deltaTime":32,"channel":9,"type":"channel","noteNumber":35,"velocity":110,"subtype":"noteOn"},{"deltaTime":160,"channel":9,"type":"channel","noteNumber":35,"velocity":0,"subtype":"noteOff"},{"deltaTime":32,"channel":9,"type":"channel","noteNumber":35,"velocity":110,"subtype":"noteOn"},{"deltaTime":160,"channel":9,"type":"channel","noteNumber":35,"velocity":0,"subtype":"noteOff"},{"deltaTime":32,"channel":9,"type":"channel","noteNumber":35,"velocity":110,"subtype":"noteOn"},{"deltaTime":160,"channel":9,"type":"channel","noteNumber":35,"velocity":0,"subtype":"noteOff"},{"deltaTime":32,"channel":9,"type":"channel","noteNumber":35,"velocity":110,"subtype":"noteOn"},{"deltaTime":160,"channel":9,"type":"channel","noteNumber":35,"velocity":0,"subtype":"noteOff"},{"deltaTime":32,"channel":9,"type":"channel","noteNumber":35,"velocity":110,"subtype":"noteOn"},{"deltaTime":160,"channel":9,"type":"channel","noteNumber":35,"velocity":0,"subtype":"noteOff"},{"deltaTime":32,"channel":9,"type":"channel","noteNumber":35,"velocity":110,"subtype":"noteOn"},{"deltaTime":160,"channel":9,"type":"channel","noteNumber":35,"velocity":0,"subtype":"noteOff"},{"deltaTime":32,"channel":9,"type":"channel","noteNumber":35,"velocity":110,"subtype":"noteOn"},{"deltaTime":160,"channel":9,"type":"channel","noteNumber":35,"velocity":0,"subtype":"noteOff"},{"deltaTime":32,"channel":9,"type":"channel","noteNumber":35,"velocity":110,"subtype":"noteOn"},{"deltaTime":94,"channel":9,"type":"channel","noteNumber":35,"velocity":0,"subtype":"noteOff"},{"deltaTime":2,"channel":9,"type":"channel","noteNumber":35,"velocity":110,"subtype":"noteOn"},{"deltaTime":94,"channel":9,"type":"channel","noteNumber":35,"velocity":0,"subtype":"noteOff"},{"deltaTime":2,"channel":9,"type":"channel","noteNumber":35,"velocity":110,"subtype":"noteOn"},{"deltaTime":160,"channel":9,"type":"channel","noteNumber":35,"velocity":0,"subtype":"noteOff"},{"deltaTime":32,"channel":9,"type":"channel","noteNumber":35,"velocity":110,"subtype":"noteOn"},{"deltaTime":160,"channel":9,"type":"channel","noteNumber":35,"velocity":0,"subtype":"noteOff"},{"deltaTime":32,"channel":9,"type":"channel","noteNumber":35,"velocity":110,"subtype":"noteOn"},{"deltaTime":160,"channel":9,"type":"channel","noteNumber":35,"velocity":0,"subtype":"noteOff"},{"deltaTime":32,"channel":9,"type":"channel","noteNumber":35,"velocity":110,"subtype":"noteOn"},{"deltaTime":160,"channel":9,"type":"channel","noteNumber":35,"velocity":0,"subtype":"noteOff"},{"deltaTime":32,"channel":9,"type":"channel","noteNumber":35,"velocity":110,"subtype":"noteOn"},{"deltaTime":160,"channel":9,"type":"channel","noteNumber":35,"velocity":0,"subtype":"noteOff"},{"deltaTime":32,"channel":9,"type":"channel","noteNumber":35,"velocity":110,"subtype":"noteOn"},{"deltaTime":160,"channel":9,"type":"channel","noteNumber":35,"velocity":0,"subtype":"noteOff"},{"deltaTime":32,"channel":9,"type":"channel","noteNumber":35,"velocity":110,"subtype":"noteOn"},{"deltaTime":160,"channel":9,"type":"channel","noteNumber":35,"velocity":0,"subtype":"noteOff"},{"deltaTime":32,"channel":9,"type":"channel","noteNumber":35,"velocity":110,"subtype":"noteOn"},{"deltaTime":160,"channel":9,"type":"channel","noteNumber":35,"velocity":0,"subtype":"noteOff"},{"deltaTime":32,"channel":9,"type":"channel","noteNumber":35,"velocity":110,"subtype":"noteOn"},{"deltaTime":160,"channel":9,"type":"channel","noteNumber":35,"velocity":0,"subtype":"noteOff"},{"deltaTime":32,"channel":9,"type":"channel","noteNumber":35,"velocity":110,"subtype":"noteOn"},{"deltaTime":160,"channel":9,"type":"channel","noteNumber":35,"velocity":0,"subtype":"noteOff"},{"deltaTime":32,"channel":9,"type":"channel","noteNumber":35,"velocity":110,"subtype":"noteOn"},{"deltaTime":160,"channel":9,"type":"channel","noteNumber":35,"velocity":0,"subtype":"noteOff"},{"deltaTime":32,"channel":9,"type":"channel","noteNumber":35,"velocity":110,"subtype":"noteOn"},{"deltaTime":160,"channel":9,"type":"channel","noteNumber":35,"velocity":0,"subtype":"noteOff"},{"deltaTime":32,"channel":9,"type":"channel","noteNumber":35,"velocity":110,"subtype":"noteOn"},{"deltaTime":160,"channel":9,"type":"channel","noteNumber":35,"velocity":0,"subtype":"noteOff"},{"deltaTime":32,"channel":9,"type":"channel","noteNumber":35,"velocity":110,"subtype":"noteOn"},{"deltaTime":160,"channel":9,"type":"channel","noteNumber":35,"velocity":0,"subtype":"noteOff"},{"deltaTime":32,"channel":9,"type":"channel","noteNumber":35,"velocity":110,"subtype":"noteOn"},{"deltaTime":160,"channel":9,"type":"channel","noteNumber":35,"velocity":0,"subtype":"noteOff"},{"deltaTime":32,"channel":9,"type":"channel","noteNumber":35,"velocity":110,"subtype":"noteOn"},{"deltaTime":160,"channel":9,"type":"channel","noteNumber":35,"velocity":0,"subtype":"noteOff"},{"deltaTime":32,"channel":9,"type":"channel","noteNumber":35,"velocity":110,"subtype":"noteOn"},{"deltaTime":160,"channel":9,"type":"channel","noteNumber":35,"velocity":0,"subtype":"noteOff"},{"deltaTime":32,"channel":9,"type":"channel","noteNumber":35,"velocity":110,"subtype":"noteOn"},{"deltaTime":160,"channel":9,"type":"channel","noteNumber":35,"velocity":0,"subtype":"noteOff"},{"deltaTime":32,"channel":9,"type":"channel","noteNumber":35,"velocity":110,"subtype":"noteOn"},{"deltaTime":160,"channel":9,"type":"channel","noteNumber":35,"velocity":0,"subtype":"noteOff"},{"deltaTime":32,"channel":9,"type":"channel","noteNumber":35,"velocity":110,"subtype":"noteOn"},{"deltaTime":160,"channel":9,"type":"channel","noteNumber":35,"velocity":0,"subtype":"noteOff"},{"deltaTime":32,"channel":9,"type":"channel","noteNumber":35,"velocity":110,"subtype":"noteOn"},{"deltaTime":160,"channel":9,"type":"channel","noteNumber":35,"velocity":0,"subtype":"noteOff"},{"deltaTime":32,"channel":9,"type":"channel","noteNumber":35,"velocity":110,"subtype":"noteOn"},{"deltaTime":160,"channel":9,"type":"channel","noteNumber":35,"velocity":0,"subtype":"noteOff"},{"deltaTime":32,"channel":9,"type":"channel","noteNumber":35,"velocity":110,"subtype":"noteOn"},{"deltaTime":160,"channel":9,"type":"channel","noteNumber":35,"velocity":0,"subtype":"noteOff"},{"deltaTime":32,"channel":9,"type":"channel","noteNumber":35,"velocity":110,"subtype":"noteOn"},{"deltaTime":160,"channel":9,"type":"channel","noteNumber":35,"velocity":0,"subtype":"noteOff"},{"deltaTime":32,"channel":9,"type":"channel","noteNumber":35,"velocity":110,"subtype":"noteOn"},{"deltaTime":160,"channel":9,"type":"channel","noteNumber":35,"velocity":0,"subtype":"noteOff"},{"deltaTime":32,"channel":9,"type":"channel","noteNumber":35,"velocity":110,"subtype":"noteOn"},{"deltaTime":160,"channel":9,"type":"channel","noteNumber":35,"velocity":0,"subtype":"noteOff"},{"deltaTime":32,"channel":9,"type":"channel","noteNumber":35,"velocity":110,"subtype":"noteOn"},{"deltaTime":160,"channel":9,"type":"channel","noteNumber":35,"velocity":0,"subtype":"noteOff"},{"deltaTime":32,"channel":9,"type":"channel","noteNumber":35,"velocity":110,"subtype":"noteOn"},{"deltaTime":160,"channel":9,"type":"channel","noteNumber":35,"velocity":0,"subtype":"noteOff"},{"deltaTime":32,"channel":9,"type":"channel","noteNumber":35,"velocity":110,"subtype":"noteOn"},{"deltaTime":160,"channel":9,"type":"channel","noteNumber":35,"velocity":0,"subtype":"noteOff"},{"deltaTime":32,"channel":9,"type":"channel","noteNumber":35,"velocity":110,"subtype":"noteOn"},{"deltaTime":160,"channel":9,"type":"channel","noteNumber":35,"velocity":0,"subtype":"noteOff"},{"deltaTime":32,"channel":9,"type":"channel","noteNumber":35,"velocity":110,"subtype":"noteOn"},{"deltaTime":160,"channel":9,"type":"channel","noteNumber":35,"velocity":0,"subtype":"noteOff"},{"deltaTime":32,"channel":9,"type":"channel","noteNumber":35,"velocity":110,"subtype":"noteOn"},{"deltaTime":94,"channel":9,"type":"channel","noteNumber":35,"velocity":0,"subtype":"noteOff"},{"deltaTime":2,"channel":9,"type":"channel","noteNumber":35,"velocity":110,"subtype":"noteOn"},{"deltaTime":94,"channel":9,"type":"channel","noteNumber":35,"velocity":0,"subtype":"noteOff"},{"deltaTime":2,"channel":9,"type":"channel","noteNumber":35,"velocity":110,"subtype":"noteOn"},{"deltaTime":160,"channel":9,"type":"channel","noteNumber":35,"velocity":0,"subtype":"noteOff"},{"deltaTime":32,"channel":9,"type":"channel","noteNumber":35,"velocity":110,"subtype":"noteOn"},{"deltaTime":160,"channel":9,"type":"channel","noteNumber":35,"velocity":0,"subtype":"noteOff"},{"deltaTime":32,"channel":9,"type":"channel","noteNumber":35,"velocity":110,"subtype":"noteOn"},{"deltaTime":160,"channel":9,"type":"channel","noteNumber":35,"velocity":0,"subtype":"noteOff"},{"deltaTime":32,"channel":9,"type":"channel","noteNumber":35,"velocity":110,"subtype":"noteOn"},{"deltaTime":160,"channel":9,"type":"channel","noteNumber":35,"velocity":0,"subtype":"noteOff"},{"deltaTime":32,"channel":9,"type":"channel","noteNumber":35,"velocity":110,"subtype":"noteOn"},{"deltaTime":160,"channel":9,"type":"channel","noteNumber":35,"velocity":0,"subtype":"noteOff"},{"deltaTime":32,"channel":9,"type":"channel","noteNumber":35,"velocity":110,"subtype":"noteOn"},{"deltaTime":160,"channel":9,"type":"channel","noteNumber":35,"velocity":0,"subtype":"noteOff"},{"deltaTime":32,"channel":9,"type":"channel","noteNumber":35,"velocity":110,"subtype":"noteOn"},{"deltaTime":160,"channel":9,"type":"channel","noteNumber":35,"velocity":0,"subtype":"noteOff"},{"deltaTime":32,"channel":9,"type":"channel","noteNumber":35,"velocity":110,"subtype":"noteOn"},{"deltaTime":160,"channel":9,"type":"channel","noteNumber":35,"velocity":0,"subtype":"noteOff"},{"deltaTime":32,"channel":9,"type":"channel","noteNumber":35,"velocity":110,"subtype":"noteOn"},{"deltaTime":160,"channel":9,"type":"channel","noteNumber":35,"velocity":0,"subtype":"noteOff"},{"deltaTime":32,"channel":9,"type":"channel","noteNumber":35,"velocity":110,"subtype":"noteOn"},{"deltaTime":160,"channel":9,"type":"channel","noteNumber":35,"velocity":0,"subtype":"noteOff"},{"deltaTime":32,"channel":9,"type":"channel","noteNumber":35,"velocity":110,"subtype":"noteOn"},{"deltaTime":160,"channel":9,"type":"channel","noteNumber":35,"velocity":0,"subtype":"noteOff"},{"deltaTime":32,"channel":9,"type":"channel","noteNumber":35,"velocity":110,"subtype":"noteOn"},{"deltaTime":160,"channel":9,"type":"channel","noteNumber":35,"velocity":0,"subtype":"noteOff"},{"deltaTime":32,"channel":9,"type":"channel","noteNumber":35,"velocity":110,"subtype":"noteOn"},{"deltaTime":160,"channel":9,"type":"channel","noteNumber":35,"velocity":0,"subtype":"noteOff"},{"deltaTime":32,"channel":9,"type":"channel","noteNumber":35,"velocity":110,"subtype":"noteOn"},{"deltaTime":160,"channel":9,"type":"channel","noteNumber":35,"velocity":0,"subtype":"noteOff"},{"deltaTime":32,"channel":9,"type":"channel","noteNumber":35,"velocity":110,"subtype":"noteOn"},{"deltaTime":160,"channel":9,"type":"channel","noteNumber":35,"velocity":0,"subtype":"noteOff"},{"deltaTime":32,"channel":9,"type":"channel","noteNumber":35,"velocity":110,"subtype":"noteOn"},{"deltaTime":160,"channel":9,"type":"channel","noteNumber":35,"velocity":0,"subtype":"noteOff"},{"deltaTime":32,"channel":9,"type":"channel","noteNumber":35,"velocity":110,"subtype":"noteOn"},{"deltaTime":160,"channel":9,"type":"channel","noteNumber":35,"velocity":0,"subtype":"noteOff"},{"deltaTime":32,"channel":9,"type":"channel","noteNumber":35,"velocity":110,"subtype":"noteOn"},{"deltaTime":160,"channel":9,"type":"channel","noteNumber":35,"velocity":0,"subtype":"noteOff"},{"deltaTime":32,"channel":9,"type":"channel","noteNumber":35,"velocity":110,"subtype":"noteOn"},{"deltaTime":160,"channel":9,"type":"channel","noteNumber":35,"velocity":0,"subtype":"noteOff"},{"deltaTime":32,"channel":9,"type":"channel","noteNumber":35,"velocity":110,"subtype":"noteOn"},{"deltaTime":160,"channel":9,"type":"channel","noteNumber":35,"velocity":0,"subtype":"noteOff"},{"deltaTime":32,"channel":9,"type":"channel","noteNumber":35,"velocity":110,"subtype":"noteOn"},{"deltaTime":160,"channel":9,"type":"channel","noteNumber":35,"velocity":0,"subtype":"noteOff"},{"deltaTime":32,"channel":9,"type":"channel","noteNumber":35,"velocity":110,"subtype":"noteOn"},{"deltaTime":160,"channel":9,"type":"channel","noteNumber":35,"velocity":0,"subtype":"noteOff"},{"deltaTime":32,"channel":9,"type":"channel","noteNumber":35,"velocity":110,"subtype":"noteOn"},{"deltaTime":160,"channel":9,"type":"channel","noteNumber":35,"velocity":0,"subtype":"noteOff"},{"deltaTime":32,"channel":9,"type":"channel","noteNumber":35,"velocity":110,"subtype":"noteOn"},{"deltaTime":160,"channel":9,"type":"channel","noteNumber":35,"velocity":0,"subtype":"noteOff"},{"deltaTime":32,"channel":9,"type":"channel","noteNumber":35,"velocity":110,"subtype":"noteOn"},{"deltaTime":160,"channel":9,"type":"channel","noteNumber":35,"velocity":0,"subtype":"noteOff"},{"deltaTime":32,"channel":9,"type":"channel","noteNumber":35,"velocity":110,"subtype":"noteOn"},{"deltaTime":160,"channel":9,"type":"channel","noteNumber":35,"velocity":0,"subtype":"noteOff"},{"deltaTime":32,"channel":9,"type":"channel","noteNumber":35,"velocity":110,"subtype":"noteOn"},{"deltaTime":160,"channel":9,"type":"channel","noteNumber":35,"velocity":0,"subtype":"noteOff"},{"deltaTime":32,"channel":9,"type":"channel","noteNumber":35,"velocity":110,"subtype":"noteOn"},{"deltaTime":160,"channel":9,"type":"channel","noteNumber":35,"velocity":0,"subtype":"noteOff"},{"deltaTime":32,"channel":9,"type":"channel","noteNumber":35,"velocity":110,"subtype":"noteOn"},{"deltaTime":160,"channel":9,"type":"channel","noteNumber":35,"velocity":0,"subtype":"noteOff"},{"deltaTime":32,"channel":9,"type":"channel","noteNumber":35,"velocity":110,"subtype":"noteOn"},{"deltaTime":160,"channel":9,"type":"channel","noteNumber":35,"velocity":0,"subtype":"noteOff"},{"deltaTime":32,"channel":9,"type":"channel","noteNumber":35,"velocity":110,"subtype":"noteOn"},{"deltaTime":160,"channel":9,"type":"channel","noteNumber":35,"velocity":0,"subtype":"noteOff"},{"deltaTime":32,"channel":9,"type":"channel","noteNumber":35,"velocity":110,"subtype":"noteOn"},{"deltaTime":94,"channel":9,"type":"channel","noteNumber":35,"velocity":0,"subtype":"noteOff"},{"deltaTime":2,"channel":9,"type":"channel","noteNumber":35,"velocity":110,"subtype":"noteOn"},{"deltaTime":94,"channel":9,"type":"channel","noteNumber":35,"velocity":0,"subtype":"noteOff"},{"deltaTime":2,"channel":9,"type":"channel","noteNumber":35,"velocity":110,"subtype":"noteOn"},{"deltaTime":160,"channel":9,"type":"channel","noteNumber":35,"velocity":0,"subtype":"noteOff"},{"deltaTime":32,"channel":9,"type":"channel","noteNumber":35,"velocity":110,"subtype":"noteOn"},{"deltaTime":160,"channel":9,"type":"channel","noteNumber":35,"velocity":0,"subtype":"noteOff"},{"deltaTime":32,"channel":9,"type":"channel","noteNumber":35,"velocity":110,"subtype":"noteOn"},{"deltaTime":160,"channel":9,"type":"channel","noteNumber":35,"velocity":0,"subtype":"noteOff"},{"deltaTime":32,"channel":9,"type":"channel","noteNumber":35,"velocity":110,"subtype":"noteOn"},{"deltaTime":160,"channel":9,"type":"channel","noteNumber":35,"velocity":0,"subtype":"noteOff"},{"deltaTime":32,"channel":9,"type":"channel","noteNumber":35,"velocity":110,"subtype":"noteOn"},{"deltaTime":160,"channel":9,"type":"channel","noteNumber":35,"velocity":0,"subtype":"noteOff"},{"deltaTime":32,"channel":9,"type":"channel","noteNumber":35,"velocity":110,"subtype":"noteOn"},{"deltaTime":160,"channel":9,"type":"channel","noteNumber":35,"velocity":0,"subtype":"noteOff"},{"deltaTime":32,"channel":9,"type":"channel","noteNumber":35,"velocity":110,"subtype":"noteOn"},{"deltaTime":160,"channel":9,"type":"channel","noteNumber":35,"velocity":0,"subtype":"noteOff"},{"deltaTime":32,"channel":9,"type":"channel","noteNumber":35,"velocity":110,"subtype":"noteOn"},{"deltaTime":160,"channel":9,"type":"channel","noteNumber":35,"velocity":0,"subtype":"noteOff"},{"deltaTime":32,"channel":9,"type":"channel","noteNumber":35,"velocity":110,"subtype":"noteOn"},{"deltaTime":160,"channel":9,"type":"channel","noteNumber":35,"velocity":0,"subtype":"noteOff"},{"deltaTime":32,"channel":9,"type":"channel","noteNumber":35,"velocity":110,"subtype":"noteOn"},{"deltaTime":160,"channel":9,"type":"channel","noteNumber":35,"velocity":0,"subtype":"noteOff"},{"deltaTime":32,"channel":9,"type":"channel","noteNumber":35,"velocity":110,"subtype":"noteOn"},{"deltaTime":160,"channel":9,"type":"channel","noteNumber":35,"velocity":0,"subtype":"noteOff"},{"deltaTime":32,"channel":9,"type":"channel","noteNumber":35,"velocity":110,"subtype":"noteOn"},{"deltaTime":160,"channel":9,"type":"channel","noteNumber":35,"velocity":0,"subtype":"noteOff"},{"deltaTime":32,"channel":9,"type":"channel","noteNumber":35,"velocity":110,"subtype":"noteOn"},{"deltaTime":160,"channel":9,"type":"channel","noteNumber":35,"velocity":0,"subtype":"noteOff"},{"deltaTime":32,"channel":9,"type":"channel","noteNumber":35,"velocity":110,"subtype":"noteOn"},{"deltaTime":160,"channel":9,"type":"channel","noteNumber":35,"velocity":0,"subtype":"noteOff"},{"deltaTime":32,"channel":9,"type":"channel","noteNumber":35,"velocity":110,"subtype":"noteOn"},{"deltaTime":160,"channel":9,"type":"channel","noteNumber":35,"velocity":0,"subtype":"noteOff"},{"deltaTime":32,"channel":9,"type":"channel","noteNumber":35,"velocity":110,"subtype":"noteOn"},{"deltaTime":160,"channel":9,"type":"channel","noteNumber":35,"velocity":0,"subtype":"noteOff"},{"deltaTime":32,"channel":9,"type":"channel","noteNumber":35,"velocity":110,"subtype":"noteOn"},{"deltaTime":160,"channel":9,"type":"channel","noteNumber":35,"velocity":0,"subtype":"noteOff"},{"deltaTime":32,"channel":9,"type":"channel","noteNumber":35,"velocity":110,"subtype":"noteOn"},{"deltaTime":160,"channel":9,"type":"channel","noteNumber":35,"velocity":0,"subtype":"noteOff"},{"deltaTime":32,"channel":9,"type":"channel","noteNumber":35,"velocity":110,"subtype":"noteOn"},{"deltaTime":160,"channel":9,"type":"channel","noteNumber":35,"velocity":0,"subtype":"noteOff"},{"deltaTime":32,"channel":9,"type":"channel","noteNumber":35,"velocity":110,"subtype":"noteOn"},{"deltaTime":160,"channel":9,"type":"channel","noteNumber":35,"velocity":0,"subtype":"noteOff"},{"deltaTime":32,"channel":9,"type":"channel","noteNumber":35,"velocity":110,"subtype":"noteOn"},{"deltaTime":160,"channel":9,"type":"channel","noteNumber":35,"velocity":0,"subtype":"noteOff"},{"deltaTime":32,"channel":9,"type":"channel","noteNumber":35,"velocity":110,"subtype":"noteOn"},{"deltaTime":160,"channel":9,"type":"channel","noteNumber":35,"velocity":0,"subtype":"noteOff"},{"deltaTime":32,"channel":9,"type":"channel","noteNumber":35,"velocity":110,"subtype":"noteOn"},{"deltaTime":160,"channel":9,"type":"channel","noteNumber":35,"velocity":0,"subtype":"noteOff"},{"deltaTime":32,"channel":9,"type":"channel","noteNumber":35,"velocity":110,"subtype":"noteOn"},{"deltaTime":160,"channel":9,"type":"channel","noteNumber":35,"velocity":0,"subtype":"noteOff"},{"deltaTime":32,"channel":9,"type":"channel","noteNumber":35,"velocity":110,"subtype":"noteOn"},{"deltaTime":160,"channel":9,"type":"channel","noteNumber":35,"velocity":0,"subtype":"noteOff"},{"deltaTime":32,"channel":9,"type":"channel","noteNumber":35,"velocity":110,"subtype":"noteOn"},{"deltaTime":160,"channel":9,"type":"channel","noteNumber":35,"velocity":0,"subtype":"noteOff"},{"deltaTime":32,"channel":9,"type":"channel","noteNumber":35,"velocity":110,"subtype":"noteOn"},{"deltaTime":160,"channel":9,"type":"channel","noteNumber":35,"velocity":0,"subtype":"noteOff"},{"deltaTime":32,"channel":9,"type":"channel","noteNumber":35,"velocity":110,"subtype":"noteOn"},{"deltaTime":160,"channel":9,"type":"channel","noteNumber":35,"velocity":0,"subtype":"noteOff"},{"deltaTime":32,"channel":9,"type":"channel","noteNumber":35,"velocity":110,"subtype":"noteOn"},{"deltaTime":160,"channel":9,"type":"channel","noteNumber":35,"velocity":0,"subtype":"noteOff"},{"deltaTime":32,"channel":9,"type":"channel","noteNumber":35,"velocity":110,"subtype":"noteOn"},{"deltaTime":160,"channel":9,"type":"channel","noteNumber":35,"velocity":0,"subtype":"noteOff"},{"deltaTime":32,"channel":9,"type":"channel","noteNumber":35,"velocity":110,"subtype":"noteOn"},{"deltaTime":160,"channel":9,"type":"channel","noteNumber":35,"velocity":0,"subtype":"noteOff"},{"deltaTime":32,"channel":9,"type":"channel","noteNumber":35,"velocity":110,"subtype":"noteOn"},{"deltaTime":94,"channel":9,"type":"channel","noteNumber":35,"velocity":0,"subtype":"noteOff"},{"deltaTime":2,"channel":9,"type":"channel","noteNumber":35,"velocity":110,"subtype":"noteOn"},{"deltaTime":94,"channel":9,"type":"channel","noteNumber":35,"velocity":0,"subtype":"noteOff"},{"deltaTime":2,"channel":9,"type":"channel","noteNumber":35,"velocity":110,"subtype":"noteOn"},{"deltaTime":160,"channel":9,"type":"channel","noteNumber":35,"velocity":0,"subtype":"noteOff"},{"deltaTime":32,"channel":9,"type":"channel","noteNumber":35,"velocity":110,"subtype":"noteOn"},{"deltaTime":160,"channel":9,"type":"channel","noteNumber":35,"velocity":0,"subtype":"noteOff"},{"deltaTime":32,"channel":9,"type":"channel","noteNumber":35,"velocity":110,"subtype":"noteOn"},{"deltaTime":160,"channel":9,"type":"channel","noteNumber":35,"velocity":0,"subtype":"noteOff"},{"deltaTime":32,"channel":9,"type":"channel","noteNumber":35,"velocity":110,"subtype":"noteOn"},{"deltaTime":160,"channel":9,"type":"channel","noteNumber":35,"velocity":0,"subtype":"noteOff"},{"deltaTime":32,"channel":9,"type":"channel","noteNumber":35,"velocity":110,"subtype":"noteOn"},{"deltaTime":160,"channel":9,"type":"channel","noteNumber":35,"velocity":0,"subtype":"noteOff"},{"deltaTime":32,"channel":9,"type":"channel","noteNumber":35,"velocity":110,"subtype":"noteOn"},{"deltaTime":160,"channel":9,"type":"channel","noteNumber":35,"velocity":0,"subtype":"noteOff"},{"deltaTime":32,"channel":9,"type":"channel","noteNumber":35,"velocity":110,"subtype":"noteOn"},{"deltaTime":160,"channel":9,"type":"channel","noteNumber":35,"velocity":0,"subtype":"noteOff"},{"deltaTime":32,"channel":9,"type":"channel","noteNumber":35,"velocity":110,"subtype":"noteOn"},{"deltaTime":160,"channel":9,"type":"channel","noteNumber":35,"velocity":0,"subtype":"noteOff"},{"deltaTime":32,"channel":9,"type":"channel","noteNumber":35,"velocity":110,"subtype":"noteOn"},{"deltaTime":160,"channel":9,"type":"channel","noteNumber":35,"velocity":0,"subtype":"noteOff"},{"deltaTime":32,"channel":9,"type":"channel","noteNumber":35,"velocity":110,"subtype":"noteOn"},{"deltaTime":160,"channel":9,"type":"channel","noteNumber":35,"velocity":0,"subtype":"noteOff"},{"deltaTime":32,"channel":9,"type":"channel","noteNumber":35,"velocity":110,"subtype":"noteOn"},{"deltaTime":160,"channel":9,"type":"channel","noteNumber":35,"velocity":0,"subtype":"noteOff"},{"deltaTime":32,"channel":9,"type":"channel","noteNumber":35,"velocity":110,"subtype":"noteOn"},{"deltaTime":160,"channel":9,"type":"channel","noteNumber":35,"velocity":0,"subtype":"noteOff"},{"deltaTime":32,"channel":9,"type":"channel","noteNumber":35,"velocity":110,"subtype":"noteOn"},{"deltaTime":160,"channel":9,"type":"channel","noteNumber":35,"velocity":0,"subtype":"noteOff"},{"deltaTime":32,"channel":9,"type":"channel","noteNumber":35,"velocity":110,"subtype":"noteOn"},{"deltaTime":160,"channel":9,"type":"channel","noteNumber":35,"velocity":0,"subtype":"noteOff"},{"deltaTime":32,"channel":9,"type":"channel","noteNumber":35,"velocity":110,"subtype":"noteOn"},{"deltaTime":160,"channel":9,"type":"channel","noteNumber":35,"velocity":0,"subtype":"noteOff"},{"deltaTime":32,"channel":9,"type":"channel","noteNumber":35,"velocity":110,"subtype":"noteOn"},{"deltaTime":160,"channel":9,"type":"channel","noteNumber":35,"velocity":0,"subtype":"noteOff"},{"deltaTime":32,"channel":9,"type":"channel","noteNumber":35,"velocity":110,"subtype":"noteOn"},{"deltaTime":160,"channel":9,"type":"channel","noteNumber":35,"velocity":0,"subtype":"noteOff"},{"deltaTime":32,"channel":9,"type":"channel","noteNumber":35,"velocity":110,"subtype":"noteOn"},{"deltaTime":160,"channel":9,"type":"channel","noteNumber":35,"velocity":0,"subtype":"noteOff"},{"deltaTime":32,"channel":9,"type":"channel","noteNumber":35,"velocity":110,"subtype":"noteOn"},{"deltaTime":160,"channel":9,"type":"channel","noteNumber":35,"velocity":0,"subtype":"noteOff"},{"deltaTime":32,"channel":9,"type":"channel","noteNumber":35,"velocity":110,"subtype":"noteOn"},{"deltaTime":160,"channel":9,"type":"channel","noteNumber":35,"velocity":0,"subtype":"noteOff"},{"deltaTime":32,"channel":9,"type":"channel","noteNumber":35,"velocity":110,"subtype":"noteOn"},{"deltaTime":160,"channel":9,"type":"channel","noteNumber":35,"velocity":0,"subtype":"noteOff"},{"deltaTime":32,"channel":9,"type":"channel","noteNumber":35,"velocity":110,"subtype":"noteOn"},{"deltaTime":160,"channel":9,"type":"channel","noteNumber":35,"velocity":0,"subtype":"noteOff"},{"deltaTime":32,"channel":9,"type":"channel","noteNumber":35,"velocity":110,"subtype":"noteOn"},{"deltaTime":160,"channel":9,"type":"channel","noteNumber":35,"velocity":0,"subtype":"noteOff"},{"deltaTime":32,"channel":9,"type":"channel","noteNumber":35,"velocity":110,"subtype":"noteOn"},{"deltaTime":160,"channel":9,"type":"channel","noteNumber":35,"velocity":0,"subtype":"noteOff"},{"deltaTime":32,"channel":9,"type":"channel","noteNumber":35,"velocity":110,"subtype":"noteOn"},{"deltaTime":160,"channel":9,"type":"channel","noteNumber":35,"velocity":0,"subtype":"noteOff"},{"deltaTime":32,"channel":9,"type":"channel","noteNumber":35,"velocity":110,"subtype":"noteOn"},{"deltaTime":160,"channel":9,"type":"channel","noteNumber":35,"velocity":0,"subtype":"noteOff"},{"deltaTime":32,"channel":9,"type":"channel","noteNumber":35,"velocity":110,"subtype":"noteOn"},{"deltaTime":160,"channel":9,"type":"channel","noteNumber":35,"velocity":0,"subtype":"noteOff"},{"deltaTime":32,"channel":9,"type":"channel","noteNumber":35,"velocity":110,"subtype":"noteOn"},{"deltaTime":160,"channel":9,"type":"channel","noteNumber":35,"velocity":0,"subtype":"noteOff"},{"deltaTime":32,"channel":9,"type":"channel","noteNumber":35,"velocity":110,"subtype":"noteOn"},{"deltaTime":160,"channel":9,"type":"channel","noteNumber":35,"velocity":0,"subtype":"noteOff"},{"deltaTime":32,"channel":9,"type":"channel","noteNumber":35,"velocity":110,"subtype":"noteOn"},{"deltaTime":160,"channel":9,"type":"channel","noteNumber":35,"velocity":0,"subtype":"noteOff"},{"deltaTime":32,"channel":9,"type":"channel","noteNumber":35,"velocity":110,"subtype":"noteOn"},{"deltaTime":160,"channel":9,"type":"channel","noteNumber":35,"velocity":0,"subtype":"noteOff"},{"deltaTime":32,"channel":9,"type":"channel","noteNumber":35,"velocity":110,"subtype":"noteOn"},{"deltaTime":94,"channel":9,"type":"channel","noteNumber":35,"velocity":0,"subtype":"noteOff"},{"deltaTime":2,"channel":9,"type":"channel","noteNumber":35,"velocity":110,"subtype":"noteOn"},{"deltaTime":94,"channel":9,"type":"channel","noteNumber":35,"velocity":0,"subtype":"noteOff"},{"deltaTime":2,"channel":9,"type":"channel","noteNumber":35,"velocity":110,"subtype":"noteOn"},{"deltaTime":160,"channel":9,"type":"channel","noteNumber":35,"velocity":0,"subtype":"noteOff"},{"deltaTime":32,"channel":9,"type":"channel","noteNumber":35,"velocity":110,"subtype":"noteOn"},{"deltaTime":160,"channel":9,"type":"channel","noteNumber":35,"velocity":0,"subtype":"noteOff"},{"deltaTime":32,"channel":9,"type":"channel","noteNumber":35,"velocity":110,"subtype":"noteOn"},{"deltaTime":160,"channel":9,"type":"channel","noteNumber":35,"velocity":0,"subtype":"noteOff"},{"deltaTime":32,"channel":9,"type":"channel","noteNumber":35,"velocity":110,"subtype":"noteOn"},{"deltaTime":160,"channel":9,"type":"channel","noteNumber":35,"velocity":0,"subtype":"noteOff"},{"deltaTime":32,"channel":9,"type":"channel","noteNumber":35,"velocity":110,"subtype":"noteOn"},{"deltaTime":160,"channel":9,"type":"channel","noteNumber":35,"velocity":0,"subtype":"noteOff"},{"deltaTime":32,"channel":9,"type":"channel","noteNumber":35,"velocity":110,"subtype":"noteOn"},{"deltaTime":160,"channel":9,"type":"channel","noteNumber":35,"velocity":0,"subtype":"noteOff"},{"deltaTime":32,"channel":9,"type":"channel","noteNumber":35,"velocity":110,"subtype":"noteOn"},{"deltaTime":160,"channel":9,"type":"channel","noteNumber":35,"velocity":0,"subtype":"noteOff"},{"deltaTime":32,"channel":9,"type":"channel","noteNumber":35,"velocity":110,"subtype":"noteOn"},{"deltaTime":160,"channel":9,"type":"channel","noteNumber":35,"velocity":0,"subtype":"noteOff"},{"deltaTime":32,"channel":9,"type":"channel","noteNumber":35,"velocity":110,"subtype":"noteOn"},{"deltaTime":160,"channel":9,"type":"channel","noteNumber":35,"velocity":0,"subtype":"noteOff"},{"deltaTime":32,"channel":9,"type":"channel","noteNumber":35,"velocity":110,"subtype":"noteOn"},{"deltaTime":160,"channel":9,"type":"channel","noteNumber":35,"velocity":0,"subtype":"noteOff"},{"deltaTime":32,"channel":9,"type":"channel","noteNumber":35,"velocity":110,"subtype":"noteOn"},{"deltaTime":160,"channel":9,"type":"channel","noteNumber":35,"velocity":0,"subtype":"noteOff"},{"deltaTime":32,"channel":9,"type":"channel","noteNumber":35,"velocity":110,"subtype":"noteOn"},{"deltaTime":160,"channel":9,"type":"channel","noteNumber":35,"velocity":0,"subtype":"noteOff"},{"deltaTime":32,"channel":9,"type":"channel","noteNumber":35,"velocity":110,"subtype":"noteOn"},{"deltaTime":160,"channel":9,"type":"channel","noteNumber":35,"velocity":0,"subtype":"noteOff"},{"deltaTime":32,"channel":9,"type":"channel","noteNumber":35,"velocity":110,"subtype":"noteOn"},{"deltaTime":160,"channel":9,"type":"channel","noteNumber":35,"velocity":0,"subtype":"noteOff"},{"deltaTime":32,"channel":9,"type":"channel","noteNumber":35,"velocity":110,"subtype":"noteOn"},{"deltaTime":160,"channel":9,"type":"channel","noteNumber":35,"velocity":0,"subtype":"noteOff"},{"deltaTime":32,"channel":9,"type":"channel","noteNumber":35,"velocity":110,"subtype":"noteOn"},{"deltaTime":160,"channel":9,"type":"channel","noteNumber":35,"velocity":0,"subtype":"noteOff"},{"deltaTime":32,"channel":9,"type":"channel","noteNumber":35,"velocity":110,"subtype":"noteOn"},{"deltaTime":160,"channel":9,"type":"channel","noteNumber":35,"velocity":0,"subtype":"noteOff"},{"deltaTime":32,"channel":9,"type":"channel","noteNumber":35,"velocity":110,"subtype":"noteOn"},{"deltaTime":160,"channel":9,"type":"channel","noteNumber":35,"velocity":0,"subtype":"noteOff"},{"deltaTime":32,"channel":9,"type":"channel","noteNumber":35,"velocity":110,"subtype":"noteOn"},{"deltaTime":160,"channel":9,"type":"channel","noteNumber":35,"velocity":0,"subtype":"noteOff"},{"deltaTime":32,"channel":9,"type":"channel","noteNumber":35,"velocity":110,"subtype":"noteOn"},{"deltaTime":160,"channel":9,"type":"channel","noteNumber":35,"velocity":0,"subtype":"noteOff"},{"deltaTime":32,"channel":9,"type":"channel","noteNumber":35,"velocity":110,"subtype":"noteOn"},{"deltaTime":160,"channel":9,"type":"channel","noteNumber":35,"velocity":0,"subtype":"noteOff"},{"deltaTime":32,"channel":9,"type":"channel","noteNumber":35,"velocity":110,"subtype":"noteOn"},{"deltaTime":160,"channel":9,"type":"channel","noteNumber":35,"velocity":0,"subtype":"noteOff"},{"deltaTime":32,"channel":9,"type":"channel","noteNumber":35,"velocity":110,"subtype":"noteOn"},{"deltaTime":160,"channel":9,"type":"channel","noteNumber":35,"velocity":0,"subtype":"noteOff"},{"deltaTime":32,"channel":9,"type":"channel","noteNumber":35,"velocity":110,"subtype":"noteOn"},{"deltaTime":160,"channel":9,"type":"channel","noteNumber":35,"velocity":0,"subtype":"noteOff"},{"deltaTime":32,"channel":9,"type":"channel","noteNumber":35,"velocity":110,"subtype":"noteOn"},{"deltaTime":160,"channel":9,"type":"channel","noteNumber":35,"velocity":0,"subtype":"noteOff"},{"deltaTime":32,"channel":9,"type":"channel","noteNumber":35,"velocity":110,"subtype":"noteOn"},{"deltaTime":160,"channel":9,"type":"channel","noteNumber":35,"velocity":0,"subtype":"noteOff"},{"deltaTime":32,"channel":9,"type":"channel","noteNumber":35,"velocity":110,"subtype":"noteOn"},{"deltaTime":160,"channel":9,"type":"channel","noteNumber":35,"velocity":0,"subtype":"noteOff"},{"deltaTime":32,"channel":9,"type":"channel","noteNumber":35,"velocity":110,"subtype":"noteOn"},{"deltaTime":160,"channel":9,"type":"channel","noteNumber":35,"velocity":0,"subtype":"noteOff"},{"deltaTime":32,"channel":9,"type":"channel","noteNumber":35,"velocity":110,"subtype":"noteOn"},{"deltaTime":160,"channel":9,"type":"channel","noteNumber":35,"velocity":0,"subtype":"noteOff"},{"deltaTime":32,"channel":9,"type":"channel","noteNumber":35,"velocity":110,"subtype":"noteOn"},{"deltaTime":160,"channel":9,"type":"channel","noteNumber":35,"velocity":0,"subtype":"noteOff"},{"deltaTime":32,"channel":9,"type":"channel","noteNumber":35,"velocity":110,"subtype":"noteOn"},{"deltaTime":160,"channel":9,"type":"channel","noteNumber":35,"velocity":0,"subtype":"noteOff"},{"deltaTime":32,"channel":9,"type":"channel","noteNumber":35,"velocity":110,"subtype":"noteOn"},{"deltaTime":94,"channel":9,"type":"channel","noteNumber":35,"velocity":0,"subtype":"noteOff"},{"deltaTime":2,"channel":9,"type":"channel","noteNumber":35,"velocity":110,"subtype":"noteOn"},{"deltaTime":94,"channel":9,"type":"channel","noteNumber":35,"velocity":0,"subtype":"noteOff"},{"deltaTime":2,"channel":9,"type":"channel","noteNumber":35,"velocity":110,"subtype":"noteOn"},{"deltaTime":160,"channel":9,"type":"channel","noteNumber":35,"velocity":0,"subtype":"noteOff"},{"deltaTime":32,"channel":9,"type":"channel","noteNumber":35,"velocity":110,"subtype":"noteOn"},{"deltaTime":160,"channel":9,"type":"channel","noteNumber":35,"velocity":0,"subtype":"noteOff"},{"deltaTime":32,"channel":9,"type":"channel","noteNumber":35,"velocity":110,"subtype":"noteOn"},{"deltaTime":160,"channel":9,"type":"channel","noteNumber":35,"velocity":0,"subtype":"noteOff"},{"deltaTime":32,"channel":9,"type":"channel","noteNumber":35,"velocity":110,"subtype":"noteOn"},{"deltaTime":160,"channel":9,"type":"channel","noteNumber":35,"velocity":0,"subtype":"noteOff"},{"deltaTime":32,"channel":9,"type":"channel","noteNumber":35,"velocity":110,"subtype":"noteOn"},{"deltaTime":160,"channel":9,"type":"channel","noteNumber":35,"velocity":0,"subtype":"noteOff"},{"deltaTime":32,"channel":9,"type":"channel","noteNumber":35,"velocity":110,"subtype":"noteOn"},{"deltaTime":160,"channel":9,"type":"channel","noteNumber":35,"velocity":0,"subtype":"noteOff"},{"deltaTime":32,"channel":9,"type":"channel","noteNumber":35,"velocity":110,"subtype":"noteOn"},{"deltaTime":160,"channel":9,"type":"channel","noteNumber":35,"velocity":0,"subtype":"noteOff"},{"deltaTime":32,"channel":9,"type":"channel","noteNumber":35,"velocity":110,"subtype":"noteOn"},{"deltaTime":160,"channel":9,"type":"channel","noteNumber":35,"velocity":0,"subtype":"noteOff"},{"deltaTime":32,"channel":9,"type":"channel","noteNumber":35,"velocity":110,"subtype":"noteOn"},{"deltaTime":160,"channel":9,"type":"channel","noteNumber":35,"velocity":0,"subtype":"noteOff"},{"deltaTime":32,"channel":9,"type":"channel","noteNumber":35,"velocity":110,"subtype":"noteOn"},{"deltaTime":160,"channel":9,"type":"channel","noteNumber":35,"velocity":0,"subtype":"noteOff"},{"deltaTime":32,"channel":9,"type":"channel","noteNumber":35,"velocity":110,"subtype":"noteOn"},{"deltaTime":160,"channel":9,"type":"channel","noteNumber":35,"velocity":0,"subtype":"noteOff"},{"deltaTime":32,"channel":9,"type":"channel","noteNumber":35,"velocity":110,"subtype":"noteOn"},{"deltaTime":160,"channel":9,"type":"channel","noteNumber":35,"velocity":0,"subtype":"noteOff"},{"deltaTime":32,"channel":9,"type":"channel","noteNumber":35,"velocity":110,"subtype":"noteOn"},{"deltaTime":160,"channel":9,"type":"channel","noteNumber":35,"velocity":0,"subtype":"noteOff"},{"deltaTime":32,"channel":9,"type":"channel","noteNumber":35,"velocity":110,"subtype":"noteOn"},{"deltaTime":160,"channel":9,"type":"channel","noteNumber":35,"velocity":0,"subtype":"noteOff"},{"deltaTime":32,"channel":9,"type":"channel","noteNumber":35,"velocity":110,"subtype":"noteOn"},{"deltaTime":160,"channel":9,"type":"channel","noteNumber":35,"velocity":0,"subtype":"noteOff"},{"deltaTime":32,"channel":9,"type":"channel","noteNumber":35,"velocity":110,"subtype":"noteOn"},{"deltaTime":160,"channel":9,"type":"channel","noteNumber":35,"velocity":0,"subtype":"noteOff"},{"deltaTime":32,"channel":9,"type":"channel","noteNumber":35,"velocity":110,"subtype":"noteOn"},{"deltaTime":160,"channel":9,"type":"channel","noteNumber":35,"velocity":0,"subtype":"noteOff"},{"deltaTime":32,"channel":9,"type":"channel","noteNumber":35,"velocity":110,"subtype":"noteOn"},{"deltaTime":160,"channel":9,"type":"channel","noteNumber":35,"velocity":0,"subtype":"noteOff"},{"deltaTime":32,"channel":9,"type":"channel","noteNumber":35,"velocity":110,"subtype":"noteOn"},{"deltaTime":160,"channel":9,"type":"channel","noteNumber":35,"velocity":0,"subtype":"noteOff"},{"deltaTime":32,"channel":9,"type":"channel","noteNumber":35,"velocity":110,"subtype":"noteOn"},{"deltaTime":160,"channel":9,"type":"channel","noteNumber":35,"velocity":0,"subtype":"noteOff"},{"deltaTime":32,"channel":9,"type":"channel","noteNumber":35,"velocity":110,"subtype":"noteOn"},{"deltaTime":160,"channel":9,"type":"channel","noteNumber":35,"velocity":0,"subtype":"noteOff"},{"deltaTime":32,"channel":9,"type":"channel","noteNumber":35,"velocity":110,"subtype":"noteOn"},{"deltaTime":160,"channel":9,"type":"channel","noteNumber":35,"velocity":0,"subtype":"noteOff"},{"deltaTime":32,"channel":9,"type":"channel","noteNumber":35,"velocity":110,"subtype":"noteOn"},{"deltaTime":160,"channel":9,"type":"channel","noteNumber":35,"velocity":0,"subtype":"noteOff"},{"deltaTime":32,"channel":9,"type":"channel","noteNumber":35,"velocity":110,"subtype":"noteOn"},{"deltaTime":160,"channel":9,"type":"channel","noteNumber":35,"velocity":0,"subtype":"noteOff"},{"deltaTime":32,"channel":9,"type":"channel","noteNumber":35,"velocity":110,"subtype":"noteOn"},{"deltaTime":160,"channel":9,"type":"channel","noteNumber":35,"velocity":0,"subtype":"noteOff"},{"deltaTime":32,"channel":9,"type":"channel","noteNumber":35,"velocity":110,"subtype":"noteOn"},{"deltaTime":160,"channel":9,"type":"channel","noteNumber":35,"velocity":0,"subtype":"noteOff"},{"deltaTime":32,"channel":9,"type":"channel","noteNumber":35,"velocity":110,"subtype":"noteOn"},{"deltaTime":160,"channel":9,"type":"channel","noteNumber":35,"velocity":0,"subtype":"noteOff"},{"deltaTime":32,"channel":9,"type":"channel","noteNumber":35,"velocity":110,"subtype":"noteOn"},{"deltaTime":160,"channel":9,"type":"channel","noteNumber":35,"velocity":0,"subtype":"noteOff"},{"deltaTime":32,"channel":9,"type":"channel","noteNumber":35,"velocity":110,"subtype":"noteOn"},{"deltaTime":160,"channel":9,"type":"channel","noteNumber":35,"velocity":0,"subtype":"noteOff"},{"deltaTime":32,"channel":9,"type":"channel","noteNumber":35,"velocity":110,"subtype":"noteOn"},{"deltaTime":160,"channel":9,"type":"channel","noteNumber":35,"velocity":0,"subtype":"noteOff"},{"deltaTime":32,"channel":9,"type":"channel","noteNumber":35,"velocity":110,"subtype":"noteOn"},{"deltaTime":160,"channel":9,"type":"channel","noteNumber":35,"velocity":0,"subtype":"noteOff"},{"deltaTime":32,"channel":9,"type":"channel","noteNumber":35,"velocity":110,"subtype":"noteOn"},{"deltaTime":94,"channel":9,"type":"channel","noteNumber":35,"velocity":0,"subtype":"noteOff"},{"deltaTime":2,"channel":9,"type":"channel","noteNumber":35,"velocity":110,"subtype":"noteOn"},{"deltaTime":94,"channel":9,"type":"channel","noteNumber":35,"velocity":0,"subtype":"noteOff"},{"deltaTime":2,"channel":9,"type":"channel","noteNumber":35,"velocity":110,"subtype":"noteOn"},{"deltaTime":160,"channel":9,"type":"channel","noteNumber":35,"velocity":0,"subtype":"noteOff"},{"deltaTime":32,"channel":9,"type":"channel","noteNumber":35,"velocity":110,"subtype":"noteOn"},{"deltaTime":160,"channel":9,"type":"channel","noteNumber":35,"velocity":0,"subtype":"noteOff"},{"deltaTime":32,"channel":9,"type":"channel","noteNumber":35,"velocity":110,"subtype":"noteOn"},{"deltaTime":160,"channel":9,"type":"channel","noteNumber":35,"velocity":0,"subtype":"noteOff"},{"deltaTime":32,"channel":9,"type":"channel","noteNumber":35,"velocity":110,"subtype":"noteOn"},{"deltaTime":160,"channel":9,"type":"channel","noteNumber":35,"velocity":0,"subtype":"noteOff"},{"deltaTime":32,"channel":9,"type":"channel","noteNumber":35,"velocity":110,"subtype":"noteOn"},{"deltaTime":160,"channel":9,"type":"channel","noteNumber":35,"velocity":0,"subtype":"noteOff"},{"deltaTime":32,"channel":9,"type":"channel","noteNumber":35,"velocity":110,"subtype":"noteOn"},{"deltaTime":160,"channel":9,"type":"channel","noteNumber":35,"velocity":0,"subtype":"noteOff"},{"deltaTime":32,"channel":9,"type":"channel","noteNumber":35,"velocity":110,"subtype":"noteOn"},{"deltaTime":160,"channel":9,"type":"channel","noteNumber":35,"velocity":0,"subtype":"noteOff"},{"deltaTime":32,"channel":9,"type":"channel","noteNumber":35,"velocity":110,"subtype":"noteOn"},{"deltaTime":160,"channel":9,"type":"channel","noteNumber":35,"velocity":0,"subtype":"noteOff"},{"deltaTime":32,"channel":9,"type":"channel","noteNumber":35,"velocity":110,"subtype":"noteOn"},{"deltaTime":160,"channel":9,"type":"channel","noteNumber":35,"velocity":0,"subtype":"noteOff"},{"deltaTime":32,"channel":9,"type":"channel","noteNumber":35,"velocity":110,"subtype":"noteOn"},{"deltaTime":160,"channel":9,"type":"channel","noteNumber":35,"velocity":0,"subtype":"noteOff"},{"deltaTime":32,"channel":9,"type":"channel","noteNumber":35,"velocity":110,"subtype":"noteOn"},{"deltaTime":160,"channel":9,"type":"channel","noteNumber":35,"velocity":0,"subtype":"noteOff"},{"deltaTime":32,"channel":9,"type":"channel","noteNumber":35,"velocity":110,"subtype":"noteOn"},{"deltaTime":160,"channel":9,"type":"channel","noteNumber":35,"velocity":0,"subtype":"noteOff"},{"deltaTime":32,"channel":9,"type":"channel","noteNumber":35,"velocity":110,"subtype":"noteOn"},{"deltaTime":160,"channel":9,"type":"channel","noteNumber":35,"velocity":0,"subtype":"noteOff"},{"deltaTime":32,"channel":9,"type":"channel","noteNumber":35,"velocity":110,"subtype":"noteOn"},{"deltaTime":160,"channel":9,"type":"channel","noteNumber":35,"velocity":0,"subtype":"noteOff"},{"deltaTime":32,"channel":9,"type":"channel","noteNumber":35,"velocity":110,"subtype":"noteOn"},{"deltaTime":160,"channel":9,"type":"channel","noteNumber":35,"velocity":0,"subtype":"noteOff"},{"deltaTime":32,"channel":9,"type":"channel","noteNumber":35,"velocity":110,"subtype":"noteOn"},{"deltaTime":160,"channel":9,"type":"channel","noteNumber":35,"velocity":0,"subtype":"noteOff"},{"deltaTime":32,"channel":9,"type":"channel","noteNumber":35,"velocity":110,"subtype":"noteOn"},{"deltaTime":160,"channel":9,"type":"channel","noteNumber":35,"velocity":0,"subtype":"noteOff"},{"deltaTime":32,"channel":9,"type":"channel","noteNumber":35,"velocity":110,"subtype":"noteOn"},{"deltaTime":160,"channel":9,"type":"channel","noteNumber":35,"velocity":0,"subtype":"noteOff"},{"deltaTime":32,"channel":9,"type":"channel","noteNumber":35,"velocity":110,"subtype":"noteOn"},{"deltaTime":160,"channel":9,"type":"channel","noteNumber":35,"velocity":0,"subtype":"noteOff"},{"deltaTime":32,"channel":9,"type":"channel","noteNumber":35,"velocity":110,"subtype":"noteOn"},{"deltaTime":160,"channel":9,"type":"channel","noteNumber":35,"velocity":0,"subtype":"noteOff"},{"deltaTime":32,"channel":9,"type":"channel","noteNumber":35,"velocity":110,"subtype":"noteOn"},{"deltaTime":160,"channel":9,"type":"channel","noteNumber":35,"velocity":0,"subtype":"noteOff"},{"deltaTime":32,"channel":9,"type":"channel","noteNumber":35,"velocity":110,"subtype":"noteOn"},{"deltaTime":160,"channel":9,"type":"channel","noteNumber":35,"velocity":0,"subtype":"noteOff"},{"deltaTime":32,"channel":9,"type":"channel","noteNumber":35,"velocity":110,"subtype":"noteOn"},{"deltaTime":160,"channel":9,"type":"channel","noteNumber":35,"velocity":0,"subtype":"noteOff"},{"deltaTime":32,"channel":9,"type":"channel","noteNumber":35,"velocity":110,"subtype":"noteOn"},{"deltaTime":160,"channel":9,"type":"channel","noteNumber":35,"velocity":0,"subtype":"noteOff"},{"deltaTime":32,"channel":9,"type":"channel","noteNumber":35,"velocity":110,"subtype":"noteOn"},{"deltaTime":160,"channel":9,"type":"channel","noteNumber":35,"velocity":0,"subtype":"noteOff"},{"deltaTime":32,"channel":9,"type":"channel","noteNumber":35,"velocity":110,"subtype":"noteOn"},{"deltaTime":160,"channel":9,"type":"channel","noteNumber":35,"velocity":0,"subtype":"noteOff"},{"deltaTime":32,"channel":9,"type":"channel","noteNumber":35,"velocity":110,"subtype":"noteOn"},{"deltaTime":160,"channel":9,"type":"channel","noteNumber":35,"velocity":0,"subtype":"noteOff"},{"deltaTime":32,"channel":9,"type":"channel","noteNumber":35,"velocity":110,"subtype":"noteOn"},{"deltaTime":160,"channel":9,"type":"channel","noteNumber":35,"velocity":0,"subtype":"noteOff"},{"deltaTime":32,"channel":9,"type":"channel","noteNumber":35,"velocity":110,"subtype":"noteOn"},{"deltaTime":160,"channel":9,"type":"channel","noteNumber":35,"velocity":0,"subtype":"noteOff"},{"deltaTime":32,"channel":9,"type":"channel","noteNumber":35,"velocity":110,"subtype":"noteOn"},{"deltaTime":160,"channel":9,"type":"channel","noteNumber":35,"velocity":0,"subtype":"noteOff"},{"deltaTime":32,"channel":9,"type":"channel","noteNumber":35,"velocity":110,"subtype":"noteOn"},{"deltaTime":160,"channel":9,"type":"channel","noteNumber":35,"velocity":0,"subtype":"noteOff"},{"deltaTime":32,"channel":9,"type":"channel","noteNumber":35,"velocity":110,"subtype":"noteOn"},{"deltaTime":94,"channel":9,"type":"channel","noteNumber":35,"velocity":0,"subtype":"noteOff"},{"deltaTime":2,"channel":9,"type":"channel","noteNumber":35,"velocity":110,"subtype":"noteOn"},{"deltaTime":94,"channel":9,"type":"channel","noteNumber":35,"velocity":0,"subtype":"noteOff"},{"deltaTime":2,"channel":9,"type":"channel","noteNumber":35,"velocity":110,"subtype":"noteOn"},{"deltaTime":160,"channel":9,"type":"channel","noteNumber":35,"velocity":0,"subtype":"noteOff"},{"deltaTime":32,"channel":9,"type":"channel","noteNumber":35,"velocity":110,"subtype":"noteOn"},{"deltaTime":160,"channel":9,"type":"channel","noteNumber":35,"velocity":0,"subtype":"noteOff"},{"deltaTime":32,"channel":9,"type":"channel","noteNumber":35,"velocity":110,"subtype":"noteOn"},{"deltaTime":160,"channel":9,"type":"channel","noteNumber":35,"velocity":0,"subtype":"noteOff"},{"deltaTime":32,"channel":9,"type":"channel","noteNumber":35,"velocity":110,"subtype":"noteOn"},{"deltaTime":160,"channel":9,"type":"channel","noteNumber":35,"velocity":0,"subtype":"noteOff"},{"deltaTime":32,"channel":9,"type":"channel","noteNumber":35,"velocity":110,"subtype":"noteOn"},{"deltaTime":160,"channel":9,"type":"channel","noteNumber":35,"velocity":0,"subtype":"noteOff"},{"deltaTime":32,"channel":9,"type":"channel","noteNumber":35,"velocity":110,"subtype":"noteOn"},{"deltaTime":160,"channel":9,"type":"channel","noteNumber":35,"velocity":0,"subtype":"noteOff"},{"deltaTime":32,"channel":9,"type":"channel","noteNumber":35,"velocity":110,"subtype":"noteOn"},{"deltaTime":160,"channel":9,"type":"channel","noteNumber":35,"velocity":0,"subtype":"noteOff"},{"deltaTime":32,"channel":9,"type":"channel","noteNumber":35,"velocity":110,"subtype":"noteOn"},{"deltaTime":160,"channel":9,"type":"channel","noteNumber":35,"velocity":0,"subtype":"noteOff"},{"deltaTime":32,"channel":9,"type":"channel","noteNumber":35,"velocity":110,"subtype":"noteOn"},{"deltaTime":160,"channel":9,"type":"channel","noteNumber":35,"velocity":0,"subtype":"noteOff"},{"deltaTime":32,"channel":9,"type":"channel","noteNumber":35,"velocity":110,"subtype":"noteOn"},{"deltaTime":160,"channel":9,"type":"channel","noteNumber":35,"velocity":0,"subtype":"noteOff"},{"deltaTime":32,"channel":9,"type":"channel","noteNumber":35,"velocity":110,"subtype":"noteOn"},{"deltaTime":160,"channel":9,"type":"channel","noteNumber":35,"velocity":0,"subtype":"noteOff"},{"deltaTime":32,"channel":9,"type":"channel","noteNumber":35,"velocity":110,"subtype":"noteOn"},{"deltaTime":160,"channel":9,"type":"channel","noteNumber":35,"velocity":0,"subtype":"noteOff"},{"deltaTime":32,"channel":9,"type":"channel","noteNumber":35,"velocity":110,"subtype":"noteOn"},{"deltaTime":160,"channel":9,"type":"channel","noteNumber":35,"velocity":0,"subtype":"noteOff"},{"deltaTime":32,"channel":9,"type":"channel","noteNumber":35,"velocity":110,"subtype":"noteOn"},{"deltaTime":160,"channel":9,"type":"channel","noteNumber":35,"velocity":0,"subtype":"noteOff"},{"deltaTime":32,"channel":9,"type":"channel","noteNumber":35,"velocity":110,"subtype":"noteOn"},{"deltaTime":160,"channel":9,"type":"channel","noteNumber":35,"velocity":0,"subtype":"noteOff"},{"deltaTime":32,"channel":9,"type":"channel","noteNumber":35,"velocity":110,"subtype":"noteOn"},{"deltaTime":160,"channel":9,"type":"channel","noteNumber":35,"velocity":0,"subtype":"noteOff"},{"deltaTime":32,"channel":9,"type":"channel","noteNumber":35,"velocity":110,"subtype":"noteOn"},{"deltaTime":160,"channel":9,"type":"channel","noteNumber":35,"velocity":0,"subtype":"noteOff"},{"deltaTime":32,"channel":9,"type":"channel","noteNumber":35,"velocity":110,"subtype":"noteOn"},{"deltaTime":160,"channel":9,"type":"channel","noteNumber":35,"velocity":0,"subtype":"noteOff"},{"deltaTime":32,"channel":9,"type":"channel","noteNumber":35,"velocity":110,"subtype":"noteOn"},{"deltaTime":160,"channel":9,"type":"channel","noteNumber":35,"velocity":0,"subtype":"noteOff"},{"deltaTime":32,"channel":9,"type":"channel","noteNumber":35,"velocity":110,"subtype":"noteOn"},{"deltaTime":160,"channel":9,"type":"channel","noteNumber":35,"velocity":0,"subtype":"noteOff"},{"deltaTime":32,"channel":9,"type":"channel","noteNumber":35,"velocity":110,"subtype":"noteOn"},{"deltaTime":160,"channel":9,"type":"channel","noteNumber":35,"velocity":0,"subtype":"noteOff"},{"deltaTime":32,"channel":9,"type":"channel","noteNumber":35,"velocity":110,"subtype":"noteOn"},{"deltaTime":160,"channel":9,"type":"channel","noteNumber":35,"velocity":0,"subtype":"noteOff"},{"deltaTime":32,"channel":9,"type":"channel","noteNumber":35,"velocity":110,"subtype":"noteOn"},{"deltaTime":160,"channel":9,"type":"channel","noteNumber":35,"velocity":0,"subtype":"noteOff"},{"deltaTime":32,"channel":9,"type":"channel","noteNumber":35,"velocity":110,"subtype":"noteOn"},{"deltaTime":160,"channel":9,"type":"channel","noteNumber":35,"velocity":0,"subtype":"noteOff"},{"deltaTime":32,"channel":9,"type":"channel","noteNumber":35,"velocity":110,"subtype":"noteOn"},{"deltaTime":160,"channel":9,"type":"channel","noteNumber":35,"velocity":0,"subtype":"noteOff"},{"deltaTime":32,"channel":9,"type":"channel","noteNumber":35,"velocity":110,"subtype":"noteOn"},{"deltaTime":160,"channel":9,"type":"channel","noteNumber":35,"velocity":0,"subtype":"noteOff"},{"deltaTime":32,"channel":9,"type":"channel","noteNumber":35,"velocity":110,"subtype":"noteOn"},{"deltaTime":160,"channel":9,"type":"channel","noteNumber":35,"velocity":0,"subtype":"noteOff"},{"deltaTime":32,"channel":9,"type":"channel","noteNumber":35,"velocity":110,"subtype":"noteOn"},{"deltaTime":160,"channel":9,"type":"channel","noteNumber":35,"velocity":0,"subtype":"noteOff"},{"deltaTime":32,"channel":9,"type":"channel","noteNumber":35,"velocity":110,"subtype":"noteOn"},{"deltaTime":160,"channel":9,"type":"channel","noteNumber":35,"velocity":0,"subtype":"noteOff"},{"deltaTime":32,"channel":9,"type":"channel","noteNumber":35,"velocity":110,"subtype":"noteOn"},{"deltaTime":160,"channel":9,"type":"channel","noteNumber":35,"velocity":0,"subtype":"noteOff"},{"deltaTime":32,"channel":9,"type":"channel","noteNumber":35,"velocity":110,"subtype":"noteOn"},{"deltaTime":160,"channel":9,"type":"channel","noteNumber":35,"velocity":0,"subtype":"noteOff"},{"deltaTime":32,"channel":9,"type":"channel","noteNumber":35,"velocity":110,"subtype":"noteOn"},{"deltaTime":94,"channel":9,"type":"channel","noteNumber":35,"velocity":0,"subtype":"noteOff"},{"deltaTime":2,"channel":9,"type":"channel","noteNumber":35,"velocity":110,"subtype":"noteOn"},{"deltaTime":94,"channel":9,"type":"channel","noteNumber":35,"velocity":0,"subtype":"noteOff"},{"deltaTime":2,"channel":9,"type":"channel","noteNumber":35,"velocity":110,"subtype":"noteOn"},{"deltaTime":160,"channel":9,"type":"channel","noteNumber":35,"velocity":0,"subtype":"noteOff"},{"deltaTime":32,"channel":9,"type":"channel","noteNumber":35,"velocity":110,"subtype":"noteOn"},{"deltaTime":160,"channel":9,"type":"channel","noteNumber":35,"velocity":0,"subtype":"noteOff"},{"deltaTime":32,"channel":9,"type":"channel","noteNumber":35,"velocity":110,"subtype":"noteOn"},{"deltaTime":160,"channel":9,"type":"channel","noteNumber":35,"velocity":0,"subtype":"noteOff"},{"deltaTime":32,"channel":9,"type":"channel","noteNumber":35,"velocity":110,"subtype":"noteOn"},{"deltaTime":160,"channel":9,"type":"channel","noteNumber":35,"velocity":0,"subtype":"noteOff"},{"deltaTime":32,"channel":9,"type":"channel","noteNumber":35,"velocity":110,"subtype":"noteOn"},{"deltaTime":160,"channel":9,"type":"channel","noteNumber":35,"velocity":0,"subtype":"noteOff"},{"deltaTime":32,"channel":9,"type":"channel","noteNumber":35,"velocity":110,"subtype":"noteOn"},{"deltaTime":160,"channel":9,"type":"channel","noteNumber":35,"velocity":0,"subtype":"noteOff"},{"deltaTime":32,"channel":9,"type":"channel","noteNumber":35,"velocity":110,"subtype":"noteOn"},{"deltaTime":160,"channel":9,"type":"channel","noteNumber":35,"velocity":0,"subtype":"noteOff"},{"deltaTime":32,"channel":9,"type":"channel","noteNumber":35,"velocity":110,"subtype":"noteOn"},{"deltaTime":160,"channel":9,"type":"channel","noteNumber":35,"velocity":0,"subtype":"noteOff"},{"deltaTime":32,"channel":9,"type":"channel","noteNumber":35,"velocity":110,"subtype":"noteOn"},{"deltaTime":160,"channel":9,"type":"channel","noteNumber":35,"velocity":0,"subtype":"noteOff"},{"deltaTime":32,"channel":9,"type":"channel","noteNumber":35,"velocity":110,"subtype":"noteOn"},{"deltaTime":160,"channel":9,"type":"channel","noteNumber":35,"velocity":0,"subtype":"noteOff"},{"deltaTime":32,"channel":9,"type":"channel","noteNumber":35,"velocity":110,"subtype":"noteOn"},{"deltaTime":160,"channel":9,"type":"channel","noteNumber":35,"velocity":0,"subtype":"noteOff"},{"deltaTime":32,"channel":9,"type":"channel","noteNumber":35,"velocity":110,"subtype":"noteOn"},{"deltaTime":160,"channel":9,"type":"channel","noteNumber":35,"velocity":0,"subtype":"noteOff"},{"deltaTime":32,"channel":9,"type":"channel","noteNumber":35,"velocity":110,"subtype":"noteOn"},{"deltaTime":160,"channel":9,"type":"channel","noteNumber":35,"velocity":0,"subtype":"noteOff"},{"deltaTime":32,"channel":9,"type":"channel","noteNumber":35,"velocity":110,"subtype":"noteOn"},{"deltaTime":160,"channel":9,"type":"channel","noteNumber":35,"velocity":0,"subtype":"noteOff"},{"deltaTime":32,"channel":9,"type":"channel","noteNumber":35,"velocity":110,"subtype":"noteOn"},{"deltaTime":160,"channel":9,"type":"channel","noteNumber":35,"velocity":0,"subtype":"noteOff"},{"deltaTime":32,"channel":9,"type":"channel","noteNumber":35,"velocity":110,"subtype":"noteOn"},{"deltaTime":160,"channel":9,"type":"channel","noteNumber":35,"velocity":0,"subtype":"noteOff"},{"deltaTime":32,"channel":9,"type":"channel","noteNumber":35,"velocity":110,"subtype":"noteOn"},{"deltaTime":160,"channel":9,"type":"channel","noteNumber":35,"velocity":0,"subtype":"noteOff"},{"deltaTime":32,"channel":9,"type":"channel","noteNumber":35,"velocity":110,"subtype":"noteOn"},{"deltaTime":160,"channel":9,"type":"channel","noteNumber":35,"velocity":0,"subtype":"noteOff"},{"deltaTime":32,"channel":9,"type":"channel","noteNumber":35,"velocity":110,"subtype":"noteOn"},{"deltaTime":160,"channel":9,"type":"channel","noteNumber":35,"velocity":0,"subtype":"noteOff"},{"deltaTime":32,"channel":9,"type":"channel","noteNumber":35,"velocity":110,"subtype":"noteOn"},{"deltaTime":160,"channel":9,"type":"channel","noteNumber":35,"velocity":0,"subtype":"noteOff"},{"deltaTime":32,"channel":9,"type":"channel","noteNumber":35,"velocity":110,"subtype":"noteOn"},{"deltaTime":160,"channel":9,"type":"channel","noteNumber":35,"velocity":0,"subtype":"noteOff"},{"deltaTime":32,"channel":9,"type":"channel","noteNumber":35,"velocity":110,"subtype":"noteOn"},{"deltaTime":160,"channel":9,"type":"channel","noteNumber":35,"velocity":0,"subtype":"noteOff"},{"deltaTime":32,"channel":9,"type":"channel","noteNumber":35,"velocity":110,"subtype":"noteOn"},{"deltaTime":160,"channel":9,"type":"channel","noteNumber":35,"velocity":0,"subtype":"noteOff"},{"deltaTime":32,"channel":9,"type":"channel","noteNumber":35,"velocity":110,"subtype":"noteOn"},{"deltaTime":160,"channel":9,"type":"channel","noteNumber":35,"velocity":0,"subtype":"noteOff"},{"deltaTime":32,"channel":9,"type":"channel","noteNumber":35,"velocity":110,"subtype":"noteOn"},{"deltaTime":160,"channel":9,"type":"channel","noteNumber":35,"velocity":0,"subtype":"noteOff"},{"deltaTime":32,"channel":9,"type":"channel","noteNumber":35,"velocity":110,"subtype":"noteOn"},{"deltaTime":160,"channel":9,"type":"channel","noteNumber":35,"velocity":0,"subtype":"noteOff"},{"deltaTime":32,"channel":9,"type":"channel","noteNumber":35,"velocity":110,"subtype":"noteOn"},{"deltaTime":160,"channel":9,"type":"channel","noteNumber":35,"velocity":0,"subtype":"noteOff"},{"deltaTime":32,"channel":9,"type":"channel","noteNumber":35,"velocity":110,"subtype":"noteOn"},{"deltaTime":160,"channel":9,"type":"channel","noteNumber":35,"velocity":0,"subtype":"noteOff"},{"deltaTime":32,"channel":9,"type":"channel","noteNumber":35,"velocity":110,"subtype":"noteOn"},{"deltaTime":160,"channel":9,"type":"channel","noteNumber":35,"velocity":0,"subtype":"noteOff"},{"deltaTime":32,"channel":9,"type":"channel","noteNumber":35,"velocity":110,"subtype":"noteOn"},{"deltaTime":160,"channel":9,"type":"channel","noteNumber":35,"velocity":0,"subtype":"noteOff"},{"deltaTime":32,"channel":9,"type":"channel","noteNumber":35,"velocity":110,"subtype":"noteOn"},{"deltaTime":160,"channel":9,"type":"channel","noteNumber":35,"velocity":0,"subtype":"noteOff"},{"deltaTime":32,"channel":9,"type":"channel","noteNumber":35,"velocity":110,"subtype":"noteOn"},{"deltaTime":94,"channel":9,"type":"channel","noteNumber":35,"velocity":0,"subtype":"noteOff"},{"deltaTime":2,"channel":9,"type":"channel","noteNumber":35,"velocity":110,"subtype":"noteOn"},{"deltaTime":94,"channel":9,"type":"channel","noteNumber":35,"velocity":0,"subtype":"noteOff"},{"deltaTime":0,"type":"meta","subtype":"endOfTrack"}],[{"deltaTime":0,"type":"meta","subtype":"unknown","data":"\u0000"},{"deltaTime":0,"type":"meta","subtype":"trackName","text":"Staff-2"},{"deltaTime":0,"channel":9,"type":"channel","subtype":"controller","controllerType":7,"value":127},{"deltaTime":0,"channel":9,"type":"channel","subtype":"controller","controllerType":10,"value":64},{"deltaTime":0,"channel":9,"type":"channel","subtype":"controller","controllerType":7,"value":127},{"deltaTime":0,"channel":9,"type":"channel","subtype":"controller","controllerType":10,"value":64},{"deltaTime":0,"channel":9,"type":"channel","noteNumber":42,"velocity":110,"subtype":"noteOn"},{"deltaTime":46,"channel":9,"type":"channel","noteNumber":42,"velocity":0,"subtype":"noteOff"},{"deltaTime":2,"channel":9,"type":"channel","noteNumber":42,"velocity":110,"subtype":"noteOn"},{"deltaTime":46,"channel":9,"type":"channel","noteNumber":42,"velocity":0,"subtype":"noteOff"},{"deltaTime":2,"channel":9,"type":"channel","noteNumber":46,"velocity":110,"subtype":"noteOn"},{"deltaTime":94,"channel":9,"type":"channel","noteNumber":46,"velocity":0,"subtype":"noteOff"},{"deltaTime":2,"channel":9,"type":"channel","noteNumber":42,"velocity":110,"subtype":"noteOn"},{"deltaTime":46,"channel":9,"type":"channel","noteNumber":42,"velocity":0,"subtype":"noteOff"},{"deltaTime":2,"channel":9,"type":"channel","noteNumber":42,"velocity":110,"subtype":"noteOn"},{"deltaTime":46,"channel":9,"type":"channel","noteNumber":42,"velocity":0,"subtype":"noteOff"},{"deltaTime":2,"channel":9,"type":"channel","noteNumber":46,"velocity":110,"subtype":"noteOn"},{"deltaTime":94,"channel":9,"type":"channel","noteNumber":46,"velocity":0,"subtype":"noteOff"},{"deltaTime":2,"channel":9,"type":"channel","noteNumber":42,"velocity":110,"subtype":"noteOn"},{"deltaTime":46,"channel":9,"type":"channel","noteNumber":42,"velocity":0,"subtype":"noteOff"},{"deltaTime":2,"channel":9,"type":"channel","noteNumber":42,"velocity":110,"subtype":"noteOn"},{"deltaTime":46,"channel":9,"type":"channel","noteNumber":42,"velocity":0,"subtype":"noteOff"},{"deltaTime":2,"channel":9,"type":"channel","noteNumber":46,"velocity":110,"subtype":"noteOn"},{"deltaTime":94,"channel":9,"type":"channel","noteNumber":46,"velocity":0,"subtype":"noteOff"},{"deltaTime":2,"channel":9,"type":"channel","noteNumber":42,"velocity":110,"subtype":"noteOn"},{"deltaTime":46,"channel":9,"type":"channel","noteNumber":42,"velocity":0,"subtype":"noteOff"},{"deltaTime":2,"channel":9,"type":"channel","noteNumber":42,"velocity":110,"subtype":"noteOn"},{"deltaTime":46,"channel":9,"type":"channel","noteNumber":42,"velocity":0,"subtype":"noteOff"},{"deltaTime":2,"channel":9,"type":"channel","noteNumber":46,"velocity":110,"subtype":"noteOn"},{"deltaTime":94,"channel":9,"type":"channel","noteNumber":46,"velocity":0,"subtype":"noteOff"},{"deltaTime":2,"channel":9,"type":"channel","noteNumber":42,"velocity":110,"subtype":"noteOn"},{"deltaTime":46,"channel":9,"type":"channel","noteNumber":42,"velocity":0,"subtype":"noteOff"},{"deltaTime":2,"channel":9,"type":"channel","noteNumber":42,"velocity":110,"subtype":"noteOn"},{"deltaTime":46,"channel":9,"type":"channel","noteNumber":42,"velocity":0,"subtype":"noteOff"},{"deltaTime":2,"channel":9,"type":"channel","noteNumber":46,"velocity":110,"subtype":"noteOn"},{"deltaTime":94,"channel":9,"type":"channel","noteNumber":46,"velocity":0,"subtype":"noteOff"},{"deltaTime":2,"channel":9,"type":"channel","noteNumber":42,"velocity":110,"subtype":"noteOn"},{"deltaTime":46,"channel":9,"type":"channel","noteNumber":42,"velocity":0,"subtype":"noteOff"},{"deltaTime":2,"channel":9,"type":"channel","noteNumber":42,"velocity":110,"subtype":"noteOn"},{"deltaTime":46,"channel":9,"type":"channel","noteNumber":42,"velocity":0,"subtype":"noteOff"},{"deltaTime":2,"channel":9,"type":"channel","noteNumber":46,"velocity":110,"subtype":"noteOn"},{"deltaTime":94,"channel":9,"type":"channel","noteNumber":46,"velocity":0,"subtype":"noteOff"},{"deltaTime":2,"channel":9,"type":"channel","noteNumber":42,"velocity":110,"subtype":"noteOn"},{"deltaTime":46,"channel":9,"type":"channel","noteNumber":42,"velocity":0,"subtype":"noteOff"},{"deltaTime":2,"channel":9,"type":"channel","noteNumber":42,"velocity":110,"subtype":"noteOn"},{"deltaTime":46,"channel":9,"type":"channel","noteNumber":42,"velocity":0,"subtype":"noteOff"},{"deltaTime":2,"channel":9,"type":"channel","noteNumber":46,"velocity":110,"subtype":"noteOn"},{"deltaTime":94,"channel":9,"type":"channel","noteNumber":46,"velocity":0,"subtype":"noteOff"},{"deltaTime":2,"channel":9,"type":"channel","noteNumber":42,"velocity":110,"subtype":"noteOn"},{"deltaTime":46,"channel":9,"type":"channel","noteNumber":42,"velocity":0,"subtype":"noteOff"},{"deltaTime":2,"channel":9,"type":"channel","noteNumber":42,"velocity":110,"subtype":"noteOn"},{"deltaTime":46,"channel":9,"type":"channel","noteNumber":42,"velocity":0,"subtype":"noteOff"},{"deltaTime":2,"channel":9,"type":"channel","noteNumber":46,"velocity":110,"subtype":"noteOn"},{"deltaTime":94,"channel":9,"type":"channel","noteNumber":46,"velocity":0,"subtype":"noteOff"},{"deltaTime":2,"channel":9,"type":"channel","noteNumber":42,"velocity":110,"subtype":"noteOn"},{"deltaTime":46,"channel":9,"type":"channel","noteNumber":42,"velocity":0,"subtype":"noteOff"},{"deltaTime":2,"channel":9,"type":"channel","noteNumber":42,"velocity":110,"subtype":"noteOn"},{"deltaTime":46,"channel":9,"type":"channel","noteNumber":42,"velocity":0,"subtype":"noteOff"},{"deltaTime":2,"channel":9,"type":"channel","noteNumber":46,"velocity":110,"subtype":"noteOn"},{"deltaTime":94,"channel":9,"type":"channel","noteNumber":46,"velocity":0,"subtype":"noteOff"},{"deltaTime":2,"channel":9,"type":"channel","noteNumber":42,"velocity":110,"subtype":"noteOn"},{"deltaTime":46,"channel":9,"type":"channel","noteNumber":42,"velocity":0,"subtype":"noteOff"},{"deltaTime":2,"channel":9,"type":"channel","noteNumber":42,"velocity":110,"subtype":"noteOn"},{"deltaTime":46,"channel":9,"type":"channel","noteNumber":42,"velocity":0,"subtype":"noteOff"},{"deltaTime":2,"channel":9,"type":"channel","noteNumber":46,"velocity":110,"subtype":"noteOn"},{"deltaTime":94,"channel":9,"type":"channel","noteNumber":46,"velocity":0,"subtype":"noteOff"},{"deltaTime":2,"channel":9,"type":"channel","noteNumber":42,"velocity":110,"subtype":"noteOn"},{"deltaTime":46,"channel":9,"type":"channel","noteNumber":42,"velocity":0,"subtype":"noteOff"},{"deltaTime":2,"channel":9,"type":"channel","noteNumber":42,"velocity":110,"subtype":"noteOn"},{"deltaTime":46,"channel":9,"type":"channel","noteNumber":42,"velocity":0,"subtype":"noteOff"},{"deltaTime":2,"channel":9,"type":"channel","noteNumber":46,"velocity":110,"subtype":"noteOn"},{"deltaTime":94,"channel":9,"type":"channel","noteNumber":46,"velocity":0,"subtype":"noteOff"},{"deltaTime":2,"channel":9,"type":"channel","noteNumber":42,"velocity":110,"subtype":"noteOn"},{"deltaTime":46,"channel":9,"type":"channel","noteNumber":42,"velocity":0,"subtype":"noteOff"},{"deltaTime":2,"channel":9,"type":"channel","noteNumber":42,"velocity":110,"subtype":"noteOn"},{"deltaTime":46,"channel":9,"type":"channel","noteNumber":42,"velocity":0,"subtype":"noteOff"},{"deltaTime":2,"channel":9,"type":"channel","noteNumber":46,"velocity":110,"subtype":"noteOn"},{"deltaTime":94,"channel":9,"type":"channel","noteNumber":46,"velocity":0,"subtype":"noteOff"},{"deltaTime":2,"channel":9,"type":"channel","noteNumber":42,"velocity":110,"subtype":"noteOn"},{"deltaTime":46,"channel":9,"type":"channel","noteNumber":42,"velocity":0,"subtype":"noteOff"},{"deltaTime":2,"channel":9,"type":"channel","noteNumber":42,"velocity":110,"subtype":"noteOn"},{"deltaTime":46,"channel":9,"type":"channel","noteNumber":42,"velocity":0,"subtype":"noteOff"},{"deltaTime":2,"channel":9,"type":"channel","noteNumber":46,"velocity":110,"subtype":"noteOn"},{"deltaTime":94,"channel":9,"type":"channel","noteNumber":46,"velocity":0,"subtype":"noteOff"},{"deltaTime":2,"channel":9,"type":"channel","noteNumber":42,"velocity":110,"subtype":"noteOn"},{"deltaTime":46,"channel":9,"type":"channel","noteNumber":42,"velocity":0,"subtype":"noteOff"},{"deltaTime":2,"channel":9,"type":"channel","noteNumber":42,"velocity":110,"subtype":"noteOn"},{"deltaTime":46,"channel":9,"type":"channel","noteNumber":42,"velocity":0,"subtype":"noteOff"},{"deltaTime":2,"channel":9,"type":"channel","noteNumber":46,"velocity":110,"subtype":"noteOn"},{"deltaTime":94,"channel":9,"type":"channel","noteNumber":46,"velocity":0,"subtype":"noteOff"},{"deltaTime":2,"channel":9,"type":"channel","noteNumber":42,"velocity":110,"subtype":"noteOn"},{"deltaTime":46,"channel":9,"type":"channel","noteNumber":42,"velocity":0,"subtype":"noteOff"},{"deltaTime":2,"channel":9,"type":"channel","noteNumber":42,"velocity":110,"subtype":"noteOn"},{"deltaTime":46,"channel":9,"type":"channel","noteNumber":42,"velocity":0,"subtype":"noteOff"},{"deltaTime":2,"channel":9,"type":"channel","noteNumber":46,"velocity":110,"subtype":"noteOn"},{"deltaTime":94,"channel":9,"type":"channel","noteNumber":46,"velocity":0,"subtype":"noteOff"},{"deltaTime":2,"channel":9,"type":"channel","noteNumber":42,"velocity":110,"subtype":"noteOn"},{"deltaTime":46,"channel":9,"type":"channel","noteNumber":42,"velocity":0,"subtype":"noteOff"},{"deltaTime":2,"channel":9,"type":"channel","noteNumber":42,"velocity":110,"subtype":"noteOn"},{"deltaTime":46,"channel":9,"type":"channel","noteNumber":42,"velocity":0,"subtype":"noteOff"},{"deltaTime":2,"channel":9,"type":"channel","noteNumber":46,"velocity":110,"subtype":"noteOn"},{"deltaTime":94,"channel":9,"type":"channel","noteNumber":46,"velocity":0,"subtype":"noteOff"},{"deltaTime":2,"channel":9,"type":"channel","noteNumber":42,"velocity":110,"subtype":"noteOn"},{"deltaTime":46,"channel":9,"type":"channel","noteNumber":42,"velocity":0,"subtype":"noteOff"},{"deltaTime":2,"channel":9,"type":"channel","noteNumber":42,"velocity":110,"subtype":"noteOn"},{"deltaTime":46,"channel":9,"type":"channel","noteNumber":42,"velocity":0,"subtype":"noteOff"},{"deltaTime":2,"channel":9,"type":"channel","noteNumber":46,"velocity":110,"subtype":"noteOn"},{"deltaTime":94,"channel":9,"type":"channel","noteNumber":46,"velocity":0,"subtype":"noteOff"},{"deltaTime":2,"channel":9,"type":"channel","noteNumber":42,"velocity":110,"subtype":"noteOn"},{"deltaTime":46,"channel":9,"type":"channel","noteNumber":42,"velocity":0,"subtype":"noteOff"},{"deltaTime":2,"channel":9,"type":"channel","noteNumber":42,"velocity":110,"subtype":"noteOn"},{"deltaTime":46,"channel":9,"type":"channel","noteNumber":42,"velocity":0,"subtype":"noteOff"},{"deltaTime":2,"channel":9,"type":"channel","noteNumber":46,"velocity":110,"subtype":"noteOn"},{"deltaTime":94,"channel":9,"type":"channel","noteNumber":46,"velocity":0,"subtype":"noteOff"},{"deltaTime":2,"channel":9,"type":"channel","noteNumber":42,"velocity":110,"subtype":"noteOn"},{"deltaTime":46,"channel":9,"type":"channel","noteNumber":42,"velocity":0,"subtype":"noteOff"},{"deltaTime":2,"channel":9,"type":"channel","noteNumber":42,"velocity":110,"subtype":"noteOn"},{"deltaTime":46,"channel":9,"type":"channel","noteNumber":42,"velocity":0,"subtype":"noteOff"},{"deltaTime":2,"channel":9,"type":"channel","noteNumber":46,"velocity":110,"subtype":"noteOn"},{"deltaTime":94,"channel":9,"type":"channel","noteNumber":46,"velocity":0,"subtype":"noteOff"},{"deltaTime":2,"channel":9,"type":"channel","noteNumber":42,"velocity":110,"subtype":"noteOn"},{"deltaTime":46,"channel":9,"type":"channel","noteNumber":42,"velocity":0,"subtype":"noteOff"},{"deltaTime":2,"channel":9,"type":"channel","noteNumber":42,"velocity":110,"subtype":"noteOn"},{"deltaTime":46,"channel":9,"type":"channel","noteNumber":42,"velocity":0,"subtype":"noteOff"},{"deltaTime":2,"channel":9,"type":"channel","noteNumber":46,"velocity":110,"subtype":"noteOn"},{"deltaTime":94,"channel":9,"type":"channel","noteNumber":46,"velocity":0,"subtype":"noteOff"},{"deltaTime":2,"channel":9,"type":"channel","noteNumber":42,"velocity":110,"subtype":"noteOn"},{"deltaTime":46,"channel":9,"type":"channel","noteNumber":42,"velocity":0,"subtype":"noteOff"},{"deltaTime":2,"channel":9,"type":"channel","noteNumber":42,"velocity":110,"subtype":"noteOn"},{"deltaTime":46,"channel":9,"type":"channel","noteNumber":42,"velocity":0,"subtype":"noteOff"},{"deltaTime":2,"channel":9,"type":"channel","noteNumber":46,"velocity":110,"subtype":"noteOn"},{"deltaTime":94,"channel":9,"type":"channel","noteNumber":46,"velocity":0,"subtype":"noteOff"},{"deltaTime":2,"channel":9,"type":"channel","noteNumber":42,"velocity":110,"subtype":"noteOn"},{"deltaTime":46,"channel":9,"type":"channel","noteNumber":42,"velocity":0,"subtype":"noteOff"},{"deltaTime":2,"channel":9,"type":"channel","noteNumber":42,"velocity":110,"subtype":"noteOn"},{"deltaTime":46,"channel":9,"type":"channel","noteNumber":42,"velocity":0,"subtype":"noteOff"},{"deltaTime":2,"channel":9,"type":"channel","noteNumber":46,"velocity":110,"subtype":"noteOn"},{"deltaTime":94,"channel":9,"type":"channel","noteNumber":46,"velocity":0,"subtype":"noteOff"},{"deltaTime":2,"channel":9,"type":"channel","noteNumber":42,"velocity":110,"subtype":"noteOn"},{"deltaTime":46,"channel":9,"type":"channel","noteNumber":42,"velocity":0,"subtype":"noteOff"},{"deltaTime":2,"channel":9,"type":"channel","noteNumber":42,"velocity":110,"subtype":"noteOn"},{"deltaTime":46,"channel":9,"type":"channel","noteNumber":42,"velocity":0,"subtype":"noteOff"},{"deltaTime":2,"channel":9,"type":"channel","noteNumber":46,"velocity":110,"subtype":"noteOn"},{"deltaTime":94,"channel":9,"type":"channel","noteNumber":46,"velocity":0,"subtype":"noteOff"},{"deltaTime":2,"channel":9,"type":"channel","noteNumber":42,"velocity":110,"subtype":"noteOn"},{"deltaTime":46,"channel":9,"type":"channel","noteNumber":42,"velocity":0,"subtype":"noteOff"},{"deltaTime":2,"channel":9,"type":"channel","noteNumber":42,"velocity":110,"subtype":"noteOn"},{"deltaTime":46,"channel":9,"type":"channel","noteNumber":42,"velocity":0,"subtype":"noteOff"},{"deltaTime":2,"channel":9,"type":"channel","noteNumber":46,"velocity":110,"subtype":"noteOn"},{"deltaTime":94,"channel":9,"type":"channel","noteNumber":46,"velocity":0,"subtype":"noteOff"},{"deltaTime":2,"channel":9,"type":"channel","noteNumber":42,"velocity":110,"subtype":"noteOn"},{"deltaTime":46,"channel":9,"type":"channel","noteNumber":42,"velocity":0,"subtype":"noteOff"},{"deltaTime":2,"channel":9,"type":"channel","noteNumber":42,"velocity":110,"subtype":"noteOn"},{"deltaTime":46,"channel":9,"type":"channel","noteNumber":42,"velocity":0,"subtype":"noteOff"},{"deltaTime":2,"channel":9,"type":"channel","noteNumber":46,"velocity":110,"subtype":"noteOn"},{"deltaTime":94,"channel":9,"type":"channel","noteNumber":46,"velocity":0,"subtype":"noteOff"},{"deltaTime":2,"channel":9,"type":"channel","noteNumber":42,"velocity":110,"subtype":"noteOn"},{"deltaTime":46,"channel":9,"type":"channel","noteNumber":42,"velocity":0,"subtype":"noteOff"},{"deltaTime":2,"channel":9,"type":"channel","noteNumber":42,"velocity":110,"subtype":"noteOn"},{"deltaTime":46,"channel":9,"type":"channel","noteNumber":42,"velocity":0,"subtype":"noteOff"},{"deltaTime":2,"channel":9,"type":"channel","noteNumber":46,"velocity":110,"subtype":"noteOn"},{"deltaTime":94,"channel":9,"type":"channel","noteNumber":46,"velocity":0,"subtype":"noteOff"},{"deltaTime":2,"channel":9,"type":"channel","noteNumber":42,"velocity":110,"subtype":"noteOn"},{"deltaTime":46,"channel":9,"type":"channel","noteNumber":42,"velocity":0,"subtype":"noteOff"},{"deltaTime":2,"channel":9,"type":"channel","noteNumber":42,"velocity":110,"subtype":"noteOn"},{"deltaTime":46,"channel":9,"type":"channel","noteNumber":42,"velocity":0,"subtype":"noteOff"},{"deltaTime":2,"channel":9,"type":"channel","noteNumber":46,"velocity":110,"subtype":"noteOn"},{"deltaTime":94,"channel":9,"type":"channel","noteNumber":46,"velocity":0,"subtype":"noteOff"},{"deltaTime":2,"channel":9,"type":"channel","noteNumber":42,"velocity":110,"subtype":"noteOn"},{"deltaTime":46,"channel":9,"type":"channel","noteNumber":42,"velocity":0,"subtype":"noteOff"},{"deltaTime":2,"channel":9,"type":"channel","noteNumber":42,"velocity":110,"subtype":"noteOn"},{"deltaTime":46,"channel":9,"type":"channel","noteNumber":42,"velocity":0,"subtype":"noteOff"},{"deltaTime":2,"channel":9,"type":"channel","noteNumber":46,"velocity":110,"subtype":"noteOn"},{"deltaTime":94,"channel":9,"type":"channel","noteNumber":46,"velocity":0,"subtype":"noteOff"},{"deltaTime":2,"channel":9,"type":"channel","noteNumber":49,"velocity":110,"subtype":"noteOn"},{"deltaTime":160,"channel":9,"type":"channel","noteNumber":49,"velocity":0,"subtype":"noteOff"},{"deltaTime":608,"channel":9,"type":"channel","noteNumber":42,"velocity":110,"subtype":"noteOn"},{"deltaTime":46,"channel":9,"type":"channel","noteNumber":42,"velocity":0,"subtype":"noteOff"},{"deltaTime":2,"channel":9,"type":"channel","noteNumber":42,"velocity":110,"subtype":"noteOn"},{"deltaTime":46,"channel":9,"type":"channel","noteNumber":42,"velocity":0,"subtype":"noteOff"},{"deltaTime":2,"channel":9,"type":"channel","noteNumber":46,"velocity":110,"subtype":"noteOn"},{"deltaTime":94,"channel":9,"type":"channel","noteNumber":46,"velocity":0,"subtype":"noteOff"},{"deltaTime":2,"channel":9,"type":"channel","noteNumber":42,"velocity":110,"subtype":"noteOn"},{"deltaTime":46,"channel":9,"type":"channel","noteNumber":42,"velocity":0,"subtype":"noteOff"},{"deltaTime":2,"channel":9,"type":"channel","noteNumber":42,"velocity":110,"subtype":"noteOn"},{"deltaTime":46,"channel":9,"type":"channel","noteNumber":42,"velocity":0,"subtype":"noteOff"},{"deltaTime":2,"channel":9,"type":"channel","noteNumber":46,"velocity":110,"subtype":"noteOn"},{"deltaTime":94,"channel":9,"type":"channel","noteNumber":46,"velocity":0,"subtype":"noteOff"},{"deltaTime":2,"channel":9,"type":"channel","noteNumber":42,"velocity":110,"subtype":"noteOn"},{"deltaTime":46,"channel":9,"type":"channel","noteNumber":42,"velocity":0,"subtype":"noteOff"},{"deltaTime":2,"channel":9,"type":"channel","noteNumber":42,"velocity":110,"subtype":"noteOn"},{"deltaTime":46,"channel":9,"type":"channel","noteNumber":42,"velocity":0,"subtype":"noteOff"},{"deltaTime":2,"channel":9,"type":"channel","noteNumber":46,"velocity":110,"subtype":"noteOn"},{"deltaTime":94,"channel":9,"type":"channel","noteNumber":46,"velocity":0,"subtype":"noteOff"},{"deltaTime":2,"channel":9,"type":"channel","noteNumber":42,"velocity":110,"subtype":"noteOn"},{"deltaTime":46,"channel":9,"type":"channel","noteNumber":42,"velocity":0,"subtype":"noteOff"},{"deltaTime":2,"channel":9,"type":"channel","noteNumber":42,"velocity":110,"subtype":"noteOn"},{"deltaTime":46,"channel":9,"type":"channel","noteNumber":42,"velocity":0,"subtype":"noteOff"},{"deltaTime":2,"channel":9,"type":"channel","noteNumber":46,"velocity":110,"subtype":"noteOn"},{"deltaTime":94,"channel":9,"type":"channel","noteNumber":46,"velocity":0,"subtype":"noteOff"},{"deltaTime":2,"channel":9,"type":"channel","noteNumber":42,"velocity":110,"subtype":"noteOn"},{"deltaTime":46,"channel":9,"type":"channel","noteNumber":42,"velocity":0,"subtype":"noteOff"},{"deltaTime":2,"channel":9,"type":"channel","noteNumber":42,"velocity":110,"subtype":"noteOn"},{"deltaTime":46,"channel":9,"type":"channel","noteNumber":42,"velocity":0,"subtype":"noteOff"},{"deltaTime":2,"channel":9,"type":"channel","noteNumber":46,"velocity":110,"subtype":"noteOn"},{"deltaTime":94,"channel":9,"type":"channel","noteNumber":46,"velocity":0,"subtype":"noteOff"},{"deltaTime":2,"channel":9,"type":"channel","noteNumber":42,"velocity":110,"subtype":"noteOn"},{"deltaTime":46,"channel":9,"type":"channel","noteNumber":42,"velocity":0,"subtype":"noteOff"},{"deltaTime":2,"channel":9,"type":"channel","noteNumber":42,"velocity":110,"subtype":"noteOn"},{"deltaTime":46,"channel":9,"type":"channel","noteNumber":42,"velocity":0,"subtype":"noteOff"},{"deltaTime":2,"channel":9,"type":"channel","noteNumber":46,"velocity":110,"subtype":"noteOn"},{"deltaTime":94,"channel":9,"type":"channel","noteNumber":46,"velocity":0,"subtype":"noteOff"},{"deltaTime":2,"channel":9,"type":"channel","noteNumber":42,"velocity":110,"subtype":"noteOn"},{"deltaTime":46,"channel":9,"type":"channel","noteNumber":42,"velocity":0,"subtype":"noteOff"},{"deltaTime":2,"channel":9,"type":"channel","noteNumber":42,"velocity":110,"subtype":"noteOn"},{"deltaTime":46,"channel":9,"type":"channel","noteNumber":42,"velocity":0,"subtype":"noteOff"},{"deltaTime":2,"channel":9,"type":"channel","noteNumber":46,"velocity":110,"subtype":"noteOn"},{"deltaTime":94,"channel":9,"type":"channel","noteNumber":46,"velocity":0,"subtype":"noteOff"},{"deltaTime":2,"channel":9,"type":"channel","noteNumber":42,"velocity":110,"subtype":"noteOn"},{"deltaTime":46,"channel":9,"type":"channel","noteNumber":42,"velocity":0,"subtype":"noteOff"},{"deltaTime":2,"channel":9,"type":"channel","noteNumber":42,"velocity":110,"subtype":"noteOn"},{"deltaTime":46,"channel":9,"type":"channel","noteNumber":42,"velocity":0,"subtype":"noteOff"},{"deltaTime":2,"channel":9,"type":"channel","noteNumber":46,"velocity":110,"subtype":"noteOn"},{"deltaTime":94,"channel":9,"type":"channel","noteNumber":46,"velocity":0,"subtype":"noteOff"},{"deltaTime":2,"channel":9,"type":"channel","noteNumber":42,"velocity":110,"subtype":"noteOn"},{"deltaTime":46,"channel":9,"type":"channel","noteNumber":42,"velocity":0,"subtype":"noteOff"},{"deltaTime":2,"channel":9,"type":"channel","noteNumber":42,"velocity":110,"subtype":"noteOn"},{"deltaTime":46,"channel":9,"type":"channel","noteNumber":42,"velocity":0,"subtype":"noteOff"},{"deltaTime":2,"channel":9,"type":"channel","noteNumber":46,"velocity":110,"subtype":"noteOn"},{"deltaTime":94,"channel":9,"type":"channel","noteNumber":46,"velocity":0,"subtype":"noteOff"},{"deltaTime":2,"channel":9,"type":"channel","noteNumber":42,"velocity":110,"subtype":"noteOn"},{"deltaTime":46,"channel":9,"type":"channel","noteNumber":42,"velocity":0,"subtype":"noteOff"},{"deltaTime":2,"channel":9,"type":"channel","noteNumber":42,"velocity":110,"subtype":"noteOn"},{"deltaTime":46,"channel":9,"type":"channel","noteNumber":42,"velocity":0,"subtype":"noteOff"},{"deltaTime":2,"channel":9,"type":"channel","noteNumber":46,"velocity":110,"subtype":"noteOn"},{"deltaTime":94,"channel":9,"type":"channel","noteNumber":46,"velocity":0,"subtype":"noteOff"},{"deltaTime":2,"channel":9,"type":"channel","noteNumber":42,"velocity":110,"subtype":"noteOn"},{"deltaTime":46,"channel":9,"type":"channel","noteNumber":42,"velocity":0,"subtype":"noteOff"},{"deltaTime":2,"channel":9,"type":"channel","noteNumber":42,"velocity":110,"subtype":"noteOn"},{"deltaTime":46,"channel":9,"type":"channel","noteNumber":42,"velocity":0,"subtype":"noteOff"},{"deltaTime":2,"channel":9,"type":"channel","noteNumber":46,"velocity":110,"subtype":"noteOn"},{"deltaTime":94,"channel":9,"type":"channel","noteNumber":46,"velocity":0,"subtype":"noteOff"},{"deltaTime":2,"channel":9,"type":"channel","noteNumber":42,"velocity":110,"subtype":"noteOn"},{"deltaTime":46,"channel":9,"type":"channel","noteNumber":42,"velocity":0,"subtype":"noteOff"},{"deltaTime":2,"channel":9,"type":"channel","noteNumber":42,"velocity":110,"subtype":"noteOn"},{"deltaTime":46,"channel":9,"type":"channel","noteNumber":42,"velocity":0,"subtype":"noteOff"},{"deltaTime":2,"channel":9,"type":"channel","noteNumber":46,"velocity":110,"subtype":"noteOn"},{"deltaTime":94,"channel":9,"type":"channel","noteNumber":46,"velocity":0,"subtype":"noteOff"},{"deltaTime":2,"channel":9,"type":"channel","noteNumber":42,"velocity":110,"subtype":"noteOn"},{"deltaTime":46,"channel":9,"type":"channel","noteNumber":42,"velocity":0,"subtype":"noteOff"},{"deltaTime":2,"channel":9,"type":"channel","noteNumber":42,"velocity":110,"subtype":"noteOn"},{"deltaTime":46,"channel":9,"type":"channel","noteNumber":42,"velocity":0,"subtype":"noteOff"},{"deltaTime":2,"channel":9,"type":"channel","noteNumber":46,"velocity":110,"subtype":"noteOn"},{"deltaTime":94,"channel":9,"type":"channel","noteNumber":46,"velocity":0,"subtype":"noteOff"},{"deltaTime":2,"channel":9,"type":"channel","noteNumber":42,"velocity":110,"subtype":"noteOn"},{"deltaTime":46,"channel":9,"type":"channel","noteNumber":42,"velocity":0,"subtype":"noteOff"},{"deltaTime":2,"channel":9,"type":"channel","noteNumber":42,"velocity":110,"subtype":"noteOn"},{"deltaTime":46,"channel":9,"type":"channel","noteNumber":42,"velocity":0,"subtype":"noteOff"},{"deltaTime":2,"channel":9,"type":"channel","noteNumber":46,"velocity":110,"subtype":"noteOn"},{"deltaTime":94,"channel":9,"type":"channel","noteNumber":46,"velocity":0,"subtype":"noteOff"},{"deltaTime":2,"channel":9,"type":"channel","noteNumber":42,"velocity":110,"subtype":"noteOn"},{"deltaTime":46,"channel":9,"type":"channel","noteNumber":42,"velocity":0,"subtype":"noteOff"},{"deltaTime":2,"channel":9,"type":"channel","noteNumber":42,"velocity":110,"subtype":"noteOn"},{"deltaTime":46,"channel":9,"type":"channel","noteNumber":42,"velocity":0,"subtype":"noteOff"},{"deltaTime":2,"channel":9,"type":"channel","noteNumber":46,"velocity":110,"subtype":"noteOn"},{"deltaTime":94,"channel":9,"type":"channel","noteNumber":46,"velocity":0,"subtype":"noteOff"},{"deltaTime":2,"channel":9,"type":"channel","noteNumber":42,"velocity":110,"subtype":"noteOn"},{"deltaTime":46,"channel":9,"type":"channel","noteNumber":42,"velocity":0,"subtype":"noteOff"},{"deltaTime":2,"channel":9,"type":"channel","noteNumber":42,"velocity":110,"subtype":"noteOn"},{"deltaTime":46,"channel":9,"type":"channel","noteNumber":42,"velocity":0,"subtype":"noteOff"},{"deltaTime":2,"channel":9,"type":"channel","noteNumber":46,"velocity":110,"subtype":"noteOn"},{"deltaTime":94,"channel":9,"type":"channel","noteNumber":46,"velocity":0,"subtype":"noteOff"},{"deltaTime":2,"channel":9,"type":"channel","noteNumber":42,"velocity":110,"subtype":"noteOn"},{"deltaTime":46,"channel":9,"type":"channel","noteNumber":42,"velocity":0,"subtype":"noteOff"},{"deltaTime":2,"channel":9,"type":"channel","noteNumber":42,"velocity":110,"subtype":"noteOn"},{"deltaTime":46,"channel":9,"type":"channel","noteNumber":42,"velocity":0,"subtype":"noteOff"},{"deltaTime":2,"channel":9,"type":"channel","noteNumber":46,"velocity":110,"subtype":"noteOn"},{"deltaTime":94,"channel":9,"type":"channel","noteNumber":46,"velocity":0,"subtype":"noteOff"},{"deltaTime":2,"channel":9,"type":"channel","noteNumber":42,"velocity":110,"subtype":"noteOn"},{"deltaTime":46,"channel":9,"type":"channel","noteNumber":42,"velocity":0,"subtype":"noteOff"},{"deltaTime":2,"channel":9,"type":"channel","noteNumber":42,"velocity":110,"subtype":"noteOn"},{"deltaTime":46,"channel":9,"type":"channel","noteNumber":42,"velocity":0,"subtype":"noteOff"},{"deltaTime":2,"channel":9,"type":"channel","noteNumber":46,"velocity":110,"subtype":"noteOn"},{"deltaTime":94,"channel":9,"type":"channel","noteNumber":46,"velocity":0,"subtype":"noteOff"},{"deltaTime":2,"channel":9,"type":"channel","noteNumber":42,"velocity":110,"subtype":"noteOn"},{"deltaTime":46,"channel":9,"type":"channel","noteNumber":42,"velocity":0,"subtype":"noteOff"},{"deltaTime":2,"channel":9,"type":"channel","noteNumber":42,"velocity":110,"subtype":"noteOn"},{"deltaTime":46,"channel":9,"type":"channel","noteNumber":42,"velocity":0,"subtype":"noteOff"},{"deltaTime":2,"channel":9,"type":"channel","noteNumber":46,"velocity":110,"subtype":"noteOn"},{"deltaTime":94,"channel":9,"type":"channel","noteNumber":46,"velocity":0,"subtype":"noteOff"},{"deltaTime":2,"channel":9,"type":"channel","noteNumber":42,"velocity":110,"subtype":"noteOn"},{"deltaTime":46,"channel":9,"type":"channel","noteNumber":42,"velocity":0,"subtype":"noteOff"},{"deltaTime":2,"channel":9,"type":"channel","noteNumber":42,"velocity":110,"subtype":"noteOn"},{"deltaTime":46,"channel":9,"type":"channel","noteNumber":42,"velocity":0,"subtype":"noteOff"},{"deltaTime":2,"channel":9,"type":"channel","noteNumber":46,"velocity":110,"subtype":"noteOn"},{"deltaTime":94,"channel":9,"type":"channel","noteNumber":46,"velocity":0,"subtype":"noteOff"},{"deltaTime":2,"channel":9,"type":"channel","noteNumber":42,"velocity":110,"subtype":"noteOn"},{"deltaTime":46,"channel":9,"type":"channel","noteNumber":42,"velocity":0,"subtype":"noteOff"},{"deltaTime":2,"channel":9,"type":"channel","noteNumber":42,"velocity":110,"subtype":"noteOn"},{"deltaTime":46,"channel":9,"type":"channel","noteNumber":42,"velocity":0,"subtype":"noteOff"},{"deltaTime":2,"channel":9,"type":"channel","noteNumber":46,"velocity":110,"subtype":"noteOn"},{"deltaTime":94,"channel":9,"type":"channel","noteNumber":46,"velocity":0,"subtype":"noteOff"},{"deltaTime":2,"channel":9,"type":"channel","noteNumber":42,"velocity":110,"subtype":"noteOn"},{"deltaTime":46,"channel":9,"type":"channel","noteNumber":42,"velocity":0,"subtype":"noteOff"},{"deltaTime":2,"channel":9,"type":"channel","noteNumber":42,"velocity":110,"subtype":"noteOn"},{"deltaTime":46,"channel":9,"type":"channel","noteNumber":42,"velocity":0,"subtype":"noteOff"},{"deltaTime":2,"channel":9,"type":"channel","noteNumber":46,"velocity":110,"subtype":"noteOn"},{"deltaTime":94,"channel":9,"type":"channel","noteNumber":46,"velocity":0,"subtype":"noteOff"},{"deltaTime":2,"channel":9,"type":"channel","noteNumber":42,"velocity":110,"subtype":"noteOn"},{"deltaTime":46,"channel":9,"type":"channel","noteNumber":42,"velocity":0,"subtype":"noteOff"},{"deltaTime":2,"channel":9,"type":"channel","noteNumber":42,"velocity":110,"subtype":"noteOn"},{"deltaTime":46,"channel":9,"type":"channel","noteNumber":42,"velocity":0,"subtype":"noteOff"},{"deltaTime":2,"channel":9,"type":"channel","noteNumber":46,"velocity":110,"subtype":"noteOn"},{"deltaTime":94,"channel":9,"type":"channel","noteNumber":46,"velocity":0,"subtype":"noteOff"},{"deltaTime":2,"channel":9,"type":"channel","noteNumber":42,"velocity":110,"subtype":"noteOn"},{"deltaTime":46,"channel":9,"type":"channel","noteNumber":42,"velocity":0,"subtype":"noteOff"},{"deltaTime":2,"channel":9,"type":"channel","noteNumber":42,"velocity":110,"subtype":"noteOn"},{"deltaTime":46,"channel":9,"type":"channel","noteNumber":42,"velocity":0,"subtype":"noteOff"},{"deltaTime":2,"channel":9,"type":"channel","noteNumber":46,"velocity":110,"subtype":"noteOn"},{"deltaTime":94,"channel":9,"type":"channel","noteNumber":46,"velocity":0,"subtype":"noteOff"},{"deltaTime":2,"channel":9,"type":"channel","noteNumber":42,"velocity":110,"subtype":"noteOn"},{"deltaTime":46,"channel":9,"type":"channel","noteNumber":42,"velocity":0,"subtype":"noteOff"},{"deltaTime":2,"channel":9,"type":"channel","noteNumber":42,"velocity":110,"subtype":"noteOn"},{"deltaTime":46,"channel":9,"type":"channel","noteNumber":42,"velocity":0,"subtype":"noteOff"},{"deltaTime":2,"channel":9,"type":"channel","noteNumber":46,"velocity":110,"subtype":"noteOn"},{"deltaTime":94,"channel":9,"type":"channel","noteNumber":46,"velocity":0,"subtype":"noteOff"},{"deltaTime":2,"channel":9,"type":"channel","noteNumber":42,"velocity":110,"subtype":"noteOn"},{"deltaTime":46,"channel":9,"type":"channel","noteNumber":42,"velocity":0,"subtype":"noteOff"},{"deltaTime":2,"channel":9,"type":"channel","noteNumber":42,"velocity":110,"subtype":"noteOn"},{"deltaTime":46,"channel":9,"type":"channel","noteNumber":42,"velocity":0,"subtype":"noteOff"},{"deltaTime":2,"channel":9,"type":"channel","noteNumber":46,"velocity":110,"subtype":"noteOn"},{"deltaTime":94,"channel":9,"type":"channel","noteNumber":46,"velocity":0,"subtype":"noteOff"},{"deltaTime":2,"channel":9,"type":"channel","noteNumber":42,"velocity":110,"subtype":"noteOn"},{"deltaTime":46,"channel":9,"type":"channel","noteNumber":42,"velocity":0,"subtype":"noteOff"},{"deltaTime":2,"channel":9,"type":"channel","noteNumber":42,"velocity":110,"subtype":"noteOn"},{"deltaTime":46,"channel":9,"type":"channel","noteNumber":42,"velocity":0,"subtype":"noteOff"},{"deltaTime":2,"channel":9,"type":"channel","noteNumber":46,"velocity":110,"subtype":"noteOn"},{"deltaTime":94,"channel":9,"type":"channel","noteNumber":46,"velocity":0,"subtype":"noteOff"},{"deltaTime":2,"channel":9,"type":"channel","noteNumber":42,"velocity":110,"subtype":"noteOn"},{"deltaTime":46,"channel":9,"type":"channel","noteNumber":42,"velocity":0,"subtype":"noteOff"},{"deltaTime":2,"channel":9,"type":"channel","noteNumber":42,"velocity":110,"subtype":"noteOn"},{"deltaTime":46,"channel":9,"type":"channel","noteNumber":42,"velocity":0,"subtype":"noteOff"},{"deltaTime":2,"channel":9,"type":"channel","noteNumber":46,"velocity":110,"subtype":"noteOn"},{"deltaTime":94,"channel":9,"type":"channel","noteNumber":46,"velocity":0,"subtype":"noteOff"},{"deltaTime":2,"channel":9,"type":"channel","noteNumber":49,"velocity":110,"subtype":"noteOn"},{"deltaTime":160,"channel":9,"type":"channel","noteNumber":49,"velocity":0,"subtype":"noteOff"},{"deltaTime":608,"channel":9,"type":"channel","noteNumber":42,"velocity":110,"subtype":"noteOn"},{"deltaTime":46,"channel":9,"type":"channel","noteNumber":42,"velocity":0,"subtype":"noteOff"},{"deltaTime":2,"channel":9,"type":"channel","noteNumber":42,"velocity":110,"subtype":"noteOn"},{"deltaTime":46,"channel":9,"type":"channel","noteNumber":42,"velocity":0,"subtype":"noteOff"},{"deltaTime":2,"channel":9,"type":"channel","noteNumber":46,"velocity":110,"subtype":"noteOn"},{"deltaTime":94,"channel":9,"type":"channel","noteNumber":46,"velocity":0,"subtype":"noteOff"},{"deltaTime":2,"channel":9,"type":"channel","noteNumber":42,"velocity":110,"subtype":"noteOn"},{"deltaTime":46,"channel":9,"type":"channel","noteNumber":42,"velocity":0,"subtype":"noteOff"},{"deltaTime":2,"channel":9,"type":"channel","noteNumber":42,"velocity":110,"subtype":"noteOn"},{"deltaTime":46,"channel":9,"type":"channel","noteNumber":42,"velocity":0,"subtype":"noteOff"},{"deltaTime":2,"channel":9,"type":"channel","noteNumber":46,"velocity":110,"subtype":"noteOn"},{"deltaTime":94,"channel":9,"type":"channel","noteNumber":46,"velocity":0,"subtype":"noteOff"},{"deltaTime":2,"channel":9,"type":"channel","noteNumber":42,"velocity":110,"subtype":"noteOn"},{"deltaTime":46,"channel":9,"type":"channel","noteNumber":42,"velocity":0,"subtype":"noteOff"},{"deltaTime":2,"channel":9,"type":"channel","noteNumber":42,"velocity":110,"subtype":"noteOn"},{"deltaTime":46,"channel":9,"type":"channel","noteNumber":42,"velocity":0,"subtype":"noteOff"},{"deltaTime":2,"channel":9,"type":"channel","noteNumber":46,"velocity":110,"subtype":"noteOn"},{"deltaTime":94,"channel":9,"type":"channel","noteNumber":46,"velocity":0,"subtype":"noteOff"},{"deltaTime":2,"channel":9,"type":"channel","noteNumber":42,"velocity":110,"subtype":"noteOn"},{"deltaTime":46,"channel":9,"type":"channel","noteNumber":42,"velocity":0,"subtype":"noteOff"},{"deltaTime":2,"channel":9,"type":"channel","noteNumber":42,"velocity":110,"subtype":"noteOn"},{"deltaTime":46,"channel":9,"type":"channel","noteNumber":42,"velocity":0,"subtype":"noteOff"},{"deltaTime":2,"channel":9,"type":"channel","noteNumber":46,"velocity":110,"subtype":"noteOn"},{"deltaTime":94,"channel":9,"type":"channel","noteNumber":46,"velocity":0,"subtype":"noteOff"},{"deltaTime":2,"channel":9,"type":"channel","noteNumber":42,"velocity":110,"subtype":"noteOn"},{"deltaTime":46,"channel":9,"type":"channel","noteNumber":42,"velocity":0,"subtype":"noteOff"},{"deltaTime":2,"channel":9,"type":"channel","noteNumber":42,"velocity":110,"subtype":"noteOn"},{"deltaTime":46,"channel":9,"type":"channel","noteNumber":42,"velocity":0,"subtype":"noteOff"},{"deltaTime":2,"channel":9,"type":"channel","noteNumber":46,"velocity":110,"subtype":"noteOn"},{"deltaTime":94,"channel":9,"type":"channel","noteNumber":46,"velocity":0,"subtype":"noteOff"},{"deltaTime":2,"channel":9,"type":"channel","noteNumber":42,"velocity":110,"subtype":"noteOn"},{"deltaTime":46,"channel":9,"type":"channel","noteNumber":42,"velocity":0,"subtype":"noteOff"},{"deltaTime":2,"channel":9,"type":"channel","noteNumber":42,"velocity":110,"subtype":"noteOn"},{"deltaTime":46,"channel":9,"type":"channel","noteNumber":42,"velocity":0,"subtype":"noteOff"},{"deltaTime":2,"channel":9,"type":"channel","noteNumber":46,"velocity":110,"subtype":"noteOn"},{"deltaTime":94,"channel":9,"type":"channel","noteNumber":46,"velocity":0,"subtype":"noteOff"},{"deltaTime":2,"channel":9,"type":"channel","noteNumber":42,"velocity":110,"subtype":"noteOn"},{"deltaTime":46,"channel":9,"type":"channel","noteNumber":42,"velocity":0,"subtype":"noteOff"},{"deltaTime":2,"channel":9,"type":"channel","noteNumber":42,"velocity":110,"subtype":"noteOn"},{"deltaTime":46,"channel":9,"type":"channel","noteNumber":42,"velocity":0,"subtype":"noteOff"},{"deltaTime":2,"channel":9,"type":"channel","noteNumber":46,"velocity":110,"subtype":"noteOn"},{"deltaTime":94,"channel":9,"type":"channel","noteNumber":46,"velocity":0,"subtype":"noteOff"},{"deltaTime":2,"channel":9,"type":"channel","noteNumber":42,"velocity":110,"subtype":"noteOn"},{"deltaTime":46,"channel":9,"type":"channel","noteNumber":42,"velocity":0,"subtype":"noteOff"},{"deltaTime":2,"channel":9,"type":"channel","noteNumber":42,"velocity":110,"subtype":"noteOn"},{"deltaTime":46,"channel":9,"type":"channel","noteNumber":42,"velocity":0,"subtype":"noteOff"},{"deltaTime":2,"channel":9,"type":"channel","noteNumber":46,"velocity":110,"subtype":"noteOn"},{"deltaTime":94,"channel":9,"type":"channel","noteNumber":46,"velocity":0,"subtype":"noteOff"},{"deltaTime":2,"channel":9,"type":"channel","noteNumber":42,"velocity":110,"subtype":"noteOn"},{"deltaTime":46,"channel":9,"type":"channel","noteNumber":42,"velocity":0,"subtype":"noteOff"},{"deltaTime":2,"channel":9,"type":"channel","noteNumber":42,"velocity":110,"subtype":"noteOn"},{"deltaTime":46,"channel":9,"type":"channel","noteNumber":42,"velocity":0,"subtype":"noteOff"},{"deltaTime":2,"channel":9,"type":"channel","noteNumber":46,"velocity":110,"subtype":"noteOn"},{"deltaTime":94,"channel":9,"type":"channel","noteNumber":46,"velocity":0,"subtype":"noteOff"},{"deltaTime":2,"channel":9,"type":"channel","noteNumber":42,"velocity":110,"subtype":"noteOn"},{"deltaTime":46,"channel":9,"type":"channel","noteNumber":42,"velocity":0,"subtype":"noteOff"},{"deltaTime":2,"channel":9,"type":"channel","noteNumber":42,"velocity":110,"subtype":"noteOn"},{"deltaTime":46,"channel":9,"type":"channel","noteNumber":42,"velocity":0,"subtype":"noteOff"},{"deltaTime":2,"channel":9,"type":"channel","noteNumber":46,"velocity":110,"subtype":"noteOn"},{"deltaTime":94,"channel":9,"type":"channel","noteNumber":46,"velocity":0,"subtype":"noteOff"},{"deltaTime":2,"channel":9,"type":"channel","noteNumber":42,"velocity":110,"subtype":"noteOn"},{"deltaTime":46,"channel":9,"type":"channel","noteNumber":42,"velocity":0,"subtype":"noteOff"},{"deltaTime":2,"channel":9,"type":"channel","noteNumber":42,"velocity":110,"subtype":"noteOn"},{"deltaTime":46,"channel":9,"type":"channel","noteNumber":42,"velocity":0,"subtype":"noteOff"},{"deltaTime":2,"channel":9,"type":"channel","noteNumber":46,"velocity":110,"subtype":"noteOn"},{"deltaTime":94,"channel":9,"type":"channel","noteNumber":46,"velocity":0,"subtype":"noteOff"},{"deltaTime":2,"channel":9,"type":"channel","noteNumber":42,"velocity":110,"subtype":"noteOn"},{"deltaTime":46,"channel":9,"type":"channel","noteNumber":42,"velocity":0,"subtype":"noteOff"},{"deltaTime":2,"channel":9,"type":"channel","noteNumber":42,"velocity":110,"subtype":"noteOn"},{"deltaTime":46,"channel":9,"type":"channel","noteNumber":42,"velocity":0,"subtype":"noteOff"},{"deltaTime":2,"channel":9,"type":"channel","noteNumber":46,"velocity":110,"subtype":"noteOn"},{"deltaTime":94,"channel":9,"type":"channel","noteNumber":46,"velocity":0,"subtype":"noteOff"},{"deltaTime":2,"channel":9,"type":"channel","noteNumber":42,"velocity":110,"subtype":"noteOn"},{"deltaTime":46,"channel":9,"type":"channel","noteNumber":42,"velocity":0,"subtype":"noteOff"},{"deltaTime":2,"channel":9,"type":"channel","noteNumber":42,"velocity":110,"subtype":"noteOn"},{"deltaTime":46,"channel":9,"type":"channel","noteNumber":42,"velocity":0,"subtype":"noteOff"},{"deltaTime":2,"channel":9,"type":"channel","noteNumber":46,"velocity":110,"subtype":"noteOn"},{"deltaTime":94,"channel":9,"type":"channel","noteNumber":46,"velocity":0,"subtype":"noteOff"},{"deltaTime":2,"channel":9,"type":"channel","noteNumber":42,"velocity":110,"subtype":"noteOn"},{"deltaTime":46,"channel":9,"type":"channel","noteNumber":42,"velocity":0,"subtype":"noteOff"},{"deltaTime":2,"channel":9,"type":"channel","noteNumber":42,"velocity":110,"subtype":"noteOn"},{"deltaTime":46,"channel":9,"type":"channel","noteNumber":42,"velocity":0,"subtype":"noteOff"},{"deltaTime":2,"channel":9,"type":"channel","noteNumber":46,"velocity":110,"subtype":"noteOn"},{"deltaTime":94,"channel":9,"type":"channel","noteNumber":46,"velocity":0,"subtype":"noteOff"},{"deltaTime":2,"channel":9,"type":"channel","noteNumber":42,"velocity":110,"subtype":"noteOn"},{"deltaTime":46,"channel":9,"type":"channel","noteNumber":42,"velocity":0,"subtype":"noteOff"},{"deltaTime":2,"channel":9,"type":"channel","noteNumber":42,"velocity":110,"subtype":"noteOn"},{"deltaTime":46,"channel":9,"type":"channel","noteNumber":42,"velocity":0,"subtype":"noteOff"},{"deltaTime":2,"channel":9,"type":"channel","noteNumber":46,"velocity":110,"subtype":"noteOn"},{"deltaTime":94,"channel":9,"type":"channel","noteNumber":46,"velocity":0,"subtype":"noteOff"},{"deltaTime":2,"channel":9,"type":"channel","noteNumber":42,"velocity":110,"subtype":"noteOn"},{"deltaTime":46,"channel":9,"type":"channel","noteNumber":42,"velocity":0,"subtype":"noteOff"},{"deltaTime":2,"channel":9,"type":"channel","noteNumber":42,"velocity":110,"subtype":"noteOn"},{"deltaTime":46,"channel":9,"type":"channel","noteNumber":42,"velocity":0,"subtype":"noteOff"},{"deltaTime":2,"channel":9,"type":"channel","noteNumber":46,"velocity":110,"subtype":"noteOn"},{"deltaTime":94,"channel":9,"type":"channel","noteNumber":46,"velocity":0,"subtype":"noteOff"},{"deltaTime":2,"channel":9,"type":"channel","noteNumber":42,"velocity":110,"subtype":"noteOn"},{"deltaTime":46,"channel":9,"type":"channel","noteNumber":42,"velocity":0,"subtype":"noteOff"},{"deltaTime":2,"channel":9,"type":"channel","noteNumber":42,"velocity":110,"subtype":"noteOn"},{"deltaTime":46,"channel":9,"type":"channel","noteNumber":42,"velocity":0,"subtype":"noteOff"},{"deltaTime":2,"channel":9,"type":"channel","noteNumber":46,"velocity":110,"subtype":"noteOn"},{"deltaTime":94,"channel":9,"type":"channel","noteNumber":46,"velocity":0,"subtype":"noteOff"},{"deltaTime":2,"channel":9,"type":"channel","noteNumber":42,"velocity":110,"subtype":"noteOn"},{"deltaTime":46,"channel":9,"type":"channel","noteNumber":42,"velocity":0,"subtype":"noteOff"},{"deltaTime":2,"channel":9,"type":"channel","noteNumber":42,"velocity":110,"subtype":"noteOn"},{"deltaTime":46,"channel":9,"type":"channel","noteNumber":42,"velocity":0,"subtype":"noteOff"},{"deltaTime":2,"channel":9,"type":"channel","noteNumber":46,"velocity":110,"subtype":"noteOn"},{"deltaTime":94,"channel":9,"type":"channel","noteNumber":46,"velocity":0,"subtype":"noteOff"},{"deltaTime":2,"channel":9,"type":"channel","noteNumber":42,"velocity":110,"subtype":"noteOn"},{"deltaTime":46,"channel":9,"type":"channel","noteNumber":42,"velocity":0,"subtype":"noteOff"},{"deltaTime":2,"channel":9,"type":"channel","noteNumber":42,"velocity":110,"subtype":"noteOn"},{"deltaTime":46,"channel":9,"type":"channel","noteNumber":42,"velocity":0,"subtype":"noteOff"},{"deltaTime":2,"channel":9,"type":"channel","noteNumber":46,"velocity":110,"subtype":"noteOn"},{"deltaTime":94,"channel":9,"type":"channel","noteNumber":46,"velocity":0,"subtype":"noteOff"},{"deltaTime":2,"channel":9,"type":"channel","noteNumber":42,"velocity":110,"subtype":"noteOn"},{"deltaTime":46,"channel":9,"type":"channel","noteNumber":42,"velocity":0,"subtype":"noteOff"},{"deltaTime":2,"channel":9,"type":"channel","noteNumber":42,"velocity":110,"subtype":"noteOn"},{"deltaTime":46,"channel":9,"type":"channel","noteNumber":42,"velocity":0,"subtype":"noteOff"},{"deltaTime":2,"channel":9,"type":"channel","noteNumber":46,"velocity":110,"subtype":"noteOn"},{"deltaTime":94,"channel":9,"type":"channel","noteNumber":46,"velocity":0,"subtype":"noteOff"},{"deltaTime":2,"channel":9,"type":"channel","noteNumber":42,"velocity":110,"subtype":"noteOn"},{"deltaTime":46,"channel":9,"type":"channel","noteNumber":42,"velocity":0,"subtype":"noteOff"},{"deltaTime":2,"channel":9,"type":"channel","noteNumber":42,"velocity":110,"subtype":"noteOn"},{"deltaTime":46,"channel":9,"type":"channel","noteNumber":42,"velocity":0,"subtype":"noteOff"},{"deltaTime":2,"channel":9,"type":"channel","noteNumber":46,"velocity":110,"subtype":"noteOn"},{"deltaTime":94,"channel":9,"type":"channel","noteNumber":46,"velocity":0,"subtype":"noteOff"},{"deltaTime":2,"channel":9,"type":"channel","noteNumber":42,"velocity":110,"subtype":"noteOn"},{"deltaTime":46,"channel":9,"type":"channel","noteNumber":42,"velocity":0,"subtype":"noteOff"},{"deltaTime":2,"channel":9,"type":"channel","noteNumber":42,"velocity":110,"subtype":"noteOn"},{"deltaTime":46,"channel":9,"type":"channel","noteNumber":42,"velocity":0,"subtype":"noteOff"},{"deltaTime":2,"channel":9,"type":"channel","noteNumber":46,"velocity":110,"subtype":"noteOn"},{"deltaTime":94,"channel":9,"type":"channel","noteNumber":46,"velocity":0,"subtype":"noteOff"},{"deltaTime":2,"channel":9,"type":"channel","noteNumber":42,"velocity":110,"subtype":"noteOn"},{"deltaTime":46,"channel":9,"type":"channel","noteNumber":42,"velocity":0,"subtype":"noteOff"},{"deltaTime":2,"channel":9,"type":"channel","noteNumber":42,"velocity":110,"subtype":"noteOn"},{"deltaTime":46,"channel":9,"type":"channel","noteNumber":42,"velocity":0,"subtype":"noteOff"},{"deltaTime":2,"channel":9,"type":"channel","noteNumber":46,"velocity":110,"subtype":"noteOn"},{"deltaTime":94,"channel":9,"type":"channel","noteNumber":46,"velocity":0,"subtype":"noteOff"},{"deltaTime":2,"channel":9,"type":"channel","noteNumber":42,"velocity":110,"subtype":"noteOn"},{"deltaTime":46,"channel":9,"type":"channel","noteNumber":42,"velocity":0,"subtype":"noteOff"},{"deltaTime":2,"channel":9,"type":"channel","noteNumber":42,"velocity":110,"subtype":"noteOn"},{"deltaTime":46,"channel":9,"type":"channel","noteNumber":42,"velocity":0,"subtype":"noteOff"},{"deltaTime":2,"channel":9,"type":"channel","noteNumber":46,"velocity":110,"subtype":"noteOn"},{"deltaTime":94,"channel":9,"type":"channel","noteNumber":46,"velocity":0,"subtype":"noteOff"},{"deltaTime":2,"channel":9,"type":"channel","noteNumber":42,"velocity":110,"subtype":"noteOn"},{"deltaTime":46,"channel":9,"type":"channel","noteNumber":42,"velocity":0,"subtype":"noteOff"},{"deltaTime":2,"channel":9,"type":"channel","noteNumber":42,"velocity":110,"subtype":"noteOn"},{"deltaTime":46,"channel":9,"type":"channel","noteNumber":42,"velocity":0,"subtype":"noteOff"},{"deltaTime":2,"channel":9,"type":"channel","noteNumber":46,"velocity":110,"subtype":"noteOn"},{"deltaTime":94,"channel":9,"type":"channel","noteNumber":46,"velocity":0,"subtype":"noteOff"},{"deltaTime":2,"channel":9,"type":"channel","noteNumber":42,"velocity":110,"subtype":"noteOn"},{"deltaTime":46,"channel":9,"type":"channel","noteNumber":42,"velocity":0,"subtype":"noteOff"},{"deltaTime":2,"channel":9,"type":"channel","noteNumber":42,"velocity":110,"subtype":"noteOn"},{"deltaTime":46,"channel":9,"type":"channel","noteNumber":42,"velocity":0,"subtype":"noteOff"},{"deltaTime":2,"channel":9,"type":"channel","noteNumber":46,"velocity":110,"subtype":"noteOn"},{"deltaTime":94,"channel":9,"type":"channel","noteNumber":46,"velocity":0,"subtype":"noteOff"},{"deltaTime":2,"channel":9,"type":"channel","noteNumber":42,"velocity":110,"subtype":"noteOn"},{"deltaTime":46,"channel":9,"type":"channel","noteNumber":42,"velocity":0,"subtype":"noteOff"},{"deltaTime":2,"channel":9,"type":"channel","noteNumber":42,"velocity":110,"subtype":"noteOn"},{"deltaTime":46,"channel":9,"type":"channel","noteNumber":42,"velocity":0,"subtype":"noteOff"},{"deltaTime":2,"channel":9,"type":"channel","noteNumber":46,"velocity":110,"subtype":"noteOn"},{"deltaTime":94,"channel":9,"type":"channel","noteNumber":46,"velocity":0,"subtype":"noteOff"},{"deltaTime":2,"channel":9,"type":"channel","noteNumber":42,"velocity":110,"subtype":"noteOn"},{"deltaTime":46,"channel":9,"type":"channel","noteNumber":42,"velocity":0,"subtype":"noteOff"},{"deltaTime":2,"channel":9,"type":"channel","noteNumber":42,"velocity":110,"subtype":"noteOn"},{"deltaTime":46,"channel":9,"type":"channel","noteNumber":42,"velocity":0,"subtype":"noteOff"},{"deltaTime":2,"channel":9,"type":"channel","noteNumber":46,"velocity":110,"subtype":"noteOn"},{"deltaTime":94,"channel":9,"type":"channel","noteNumber":46,"velocity":0,"subtype":"noteOff"},{"deltaTime":2,"channel":9,"type":"channel","noteNumber":49,"velocity":110,"subtype":"noteOn"},{"deltaTime":160,"channel":9,"type":"channel","noteNumber":49,"velocity":0,"subtype":"noteOff"},{"deltaTime":608,"channel":9,"type":"channel","noteNumber":42,"velocity":110,"subtype":"noteOn"},{"deltaTime":46,"channel":9,"type":"channel","noteNumber":42,"velocity":0,"subtype":"noteOff"},{"deltaTime":2,"channel":9,"type":"channel","noteNumber":42,"velocity":110,"subtype":"noteOn"},{"deltaTime":46,"channel":9,"type":"channel","noteNumber":42,"velocity":0,"subtype":"noteOff"},{"deltaTime":2,"channel":9,"type":"channel","noteNumber":46,"velocity":110,"subtype":"noteOn"},{"deltaTime":94,"channel":9,"type":"channel","noteNumber":46,"velocity":0,"subtype":"noteOff"},{"deltaTime":2,"channel":9,"type":"channel","noteNumber":42,"velocity":110,"subtype":"noteOn"},{"deltaTime":46,"channel":9,"type":"channel","noteNumber":42,"velocity":0,"subtype":"noteOff"},{"deltaTime":2,"channel":9,"type":"channel","noteNumber":42,"velocity":110,"subtype":"noteOn"},{"deltaTime":46,"channel":9,"type":"channel","noteNumber":42,"velocity":0,"subtype":"noteOff"},{"deltaTime":2,"channel":9,"type":"channel","noteNumber":46,"velocity":110,"subtype":"noteOn"},{"deltaTime":94,"channel":9,"type":"channel","noteNumber":46,"velocity":0,"subtype":"noteOff"},{"deltaTime":2,"channel":9,"type":"channel","noteNumber":42,"velocity":110,"subtype":"noteOn"},{"deltaTime":46,"channel":9,"type":"channel","noteNumber":42,"velocity":0,"subtype":"noteOff"},{"deltaTime":2,"channel":9,"type":"channel","noteNumber":42,"velocity":110,"subtype":"noteOn"},{"deltaTime":46,"channel":9,"type":"channel","noteNumber":42,"velocity":0,"subtype":"noteOff"},{"deltaTime":2,"channel":9,"type":"channel","noteNumber":46,"velocity":110,"subtype":"noteOn"},{"deltaTime":94,"channel":9,"type":"channel","noteNumber":46,"velocity":0,"subtype":"noteOff"},{"deltaTime":2,"channel":9,"type":"channel","noteNumber":42,"velocity":110,"subtype":"noteOn"},{"deltaTime":46,"channel":9,"type":"channel","noteNumber":42,"velocity":0,"subtype":"noteOff"},{"deltaTime":2,"channel":9,"type":"channel","noteNumber":42,"velocity":110,"subtype":"noteOn"},{"deltaTime":46,"channel":9,"type":"channel","noteNumber":42,"velocity":0,"subtype":"noteOff"},{"deltaTime":2,"channel":9,"type":"channel","noteNumber":46,"velocity":110,"subtype":"noteOn"},{"deltaTime":94,"channel":9,"type":"channel","noteNumber":46,"velocity":0,"subtype":"noteOff"},{"deltaTime":2,"channel":9,"type":"channel","noteNumber":42,"velocity":110,"subtype":"noteOn"},{"deltaTime":46,"channel":9,"type":"channel","noteNumber":42,"velocity":0,"subtype":"noteOff"},{"deltaTime":2,"channel":9,"type":"channel","noteNumber":42,"velocity":110,"subtype":"noteOn"},{"deltaTime":46,"channel":9,"type":"channel","noteNumber":42,"velocity":0,"subtype":"noteOff"},{"deltaTime":2,"channel":9,"type":"channel","noteNumber":46,"velocity":110,"subtype":"noteOn"},{"deltaTime":94,"channel":9,"type":"channel","noteNumber":46,"velocity":0,"subtype":"noteOff"},{"deltaTime":2,"channel":9,"type":"channel","noteNumber":42,"velocity":110,"subtype":"noteOn"},{"deltaTime":46,"channel":9,"type":"channel","noteNumber":42,"velocity":0,"subtype":"noteOff"},{"deltaTime":2,"channel":9,"type":"channel","noteNumber":42,"velocity":110,"subtype":"noteOn"},{"deltaTime":46,"channel":9,"type":"channel","noteNumber":42,"velocity":0,"subtype":"noteOff"},{"deltaTime":2,"channel":9,"type":"channel","noteNumber":46,"velocity":110,"subtype":"noteOn"},{"deltaTime":94,"channel":9,"type":"channel","noteNumber":46,"velocity":0,"subtype":"noteOff"},{"deltaTime":2,"channel":9,"type":"channel","noteNumber":42,"velocity":110,"subtype":"noteOn"},{"deltaTime":46,"channel":9,"type":"channel","noteNumber":42,"velocity":0,"subtype":"noteOff"},{"deltaTime":2,"channel":9,"type":"channel","noteNumber":42,"velocity":110,"subtype":"noteOn"},{"deltaTime":46,"channel":9,"type":"channel","noteNumber":42,"velocity":0,"subtype":"noteOff"},{"deltaTime":2,"channel":9,"type":"channel","noteNumber":46,"velocity":110,"subtype":"noteOn"},{"deltaTime":94,"channel":9,"type":"channel","noteNumber":46,"velocity":0,"subtype":"noteOff"},{"deltaTime":2,"channel":9,"type":"channel","noteNumber":42,"velocity":110,"subtype":"noteOn"},{"deltaTime":46,"channel":9,"type":"channel","noteNumber":42,"velocity":0,"subtype":"noteOff"},{"deltaTime":2,"channel":9,"type":"channel","noteNumber":42,"velocity":110,"subtype":"noteOn"},{"deltaTime":46,"channel":9,"type":"channel","noteNumber":42,"velocity":0,"subtype":"noteOff"},{"deltaTime":2,"channel":9,"type":"channel","noteNumber":46,"velocity":110,"subtype":"noteOn"},{"deltaTime":94,"channel":9,"type":"channel","noteNumber":46,"velocity":0,"subtype":"noteOff"},{"deltaTime":2,"channel":9,"type":"channel","noteNumber":42,"velocity":110,"subtype":"noteOn"},{"deltaTime":46,"channel":9,"type":"channel","noteNumber":42,"velocity":0,"subtype":"noteOff"},{"deltaTime":2,"channel":9,"type":"channel","noteNumber":42,"velocity":110,"subtype":"noteOn"},{"deltaTime":46,"channel":9,"type":"channel","noteNumber":42,"velocity":0,"subtype":"noteOff"},{"deltaTime":2,"channel":9,"type":"channel","noteNumber":46,"velocity":110,"subtype":"noteOn"},{"deltaTime":94,"channel":9,"type":"channel","noteNumber":46,"velocity":0,"subtype":"noteOff"},{"deltaTime":2,"channel":9,"type":"channel","noteNumber":42,"velocity":110,"subtype":"noteOn"},{"deltaTime":46,"channel":9,"type":"channel","noteNumber":42,"velocity":0,"subtype":"noteOff"},{"deltaTime":2,"channel":9,"type":"channel","noteNumber":42,"velocity":110,"subtype":"noteOn"},{"deltaTime":46,"channel":9,"type":"channel","noteNumber":42,"velocity":0,"subtype":"noteOff"},{"deltaTime":2,"channel":9,"type":"channel","noteNumber":46,"velocity":110,"subtype":"noteOn"},{"deltaTime":94,"channel":9,"type":"channel","noteNumber":46,"velocity":0,"subtype":"noteOff"},{"deltaTime":2,"channel":9,"type":"channel","noteNumber":42,"velocity":110,"subtype":"noteOn"},{"deltaTime":46,"channel":9,"type":"channel","noteNumber":42,"velocity":0,"subtype":"noteOff"},{"deltaTime":2,"channel":9,"type":"channel","noteNumber":42,"velocity":110,"subtype":"noteOn"},{"deltaTime":46,"channel":9,"type":"channel","noteNumber":42,"velocity":0,"subtype":"noteOff"},{"deltaTime":2,"channel":9,"type":"channel","noteNumber":46,"velocity":110,"subtype":"noteOn"},{"deltaTime":94,"channel":9,"type":"channel","noteNumber":46,"velocity":0,"subtype":"noteOff"},{"deltaTime":2,"channel":9,"type":"channel","noteNumber":42,"velocity":110,"subtype":"noteOn"},{"deltaTime":46,"channel":9,"type":"channel","noteNumber":42,"velocity":0,"subtype":"noteOff"},{"deltaTime":2,"channel":9,"type":"channel","noteNumber":42,"velocity":110,"subtype":"noteOn"},{"deltaTime":46,"channel":9,"type":"channel","noteNumber":42,"velocity":0,"subtype":"noteOff"},{"deltaTime":2,"channel":9,"type":"channel","noteNumber":46,"velocity":110,"subtype":"noteOn"},{"deltaTime":94,"channel":9,"type":"channel","noteNumber":46,"velocity":0,"subtype":"noteOff"},{"deltaTime":2,"channel":9,"type":"channel","noteNumber":42,"velocity":110,"subtype":"noteOn"},{"deltaTime":46,"channel":9,"type":"channel","noteNumber":42,"velocity":0,"subtype":"noteOff"},{"deltaTime":2,"channel":9,"type":"channel","noteNumber":42,"velocity":110,"subtype":"noteOn"},{"deltaTime":46,"channel":9,"type":"channel","noteNumber":42,"velocity":0,"subtype":"noteOff"},{"deltaTime":2,"channel":9,"type":"channel","noteNumber":46,"velocity":110,"subtype":"noteOn"},{"deltaTime":94,"channel":9,"type":"channel","noteNumber":46,"velocity":0,"subtype":"noteOff"},{"deltaTime":2,"channel":9,"type":"channel","noteNumber":42,"velocity":110,"subtype":"noteOn"},{"deltaTime":46,"channel":9,"type":"channel","noteNumber":42,"velocity":0,"subtype":"noteOff"},{"deltaTime":2,"channel":9,"type":"channel","noteNumber":42,"velocity":110,"subtype":"noteOn"},{"deltaTime":46,"channel":9,"type":"channel","noteNumber":42,"velocity":0,"subtype":"noteOff"},{"deltaTime":2,"channel":9,"type":"channel","noteNumber":46,"velocity":110,"subtype":"noteOn"},{"deltaTime":94,"channel":9,"type":"channel","noteNumber":46,"velocity":0,"subtype":"noteOff"},{"deltaTime":2,"channel":9,"type":"channel","noteNumber":42,"velocity":110,"subtype":"noteOn"},{"deltaTime":46,"channel":9,"type":"channel","noteNumber":42,"velocity":0,"subtype":"noteOff"},{"deltaTime":2,"channel":9,"type":"channel","noteNumber":42,"velocity":110,"subtype":"noteOn"},{"deltaTime":46,"channel":9,"type":"channel","noteNumber":42,"velocity":0,"subtype":"noteOff"},{"deltaTime":2,"channel":9,"type":"channel","noteNumber":46,"velocity":110,"subtype":"noteOn"},{"deltaTime":94,"channel":9,"type":"channel","noteNumber":46,"velocity":0,"subtype":"noteOff"},{"deltaTime":2,"channel":9,"type":"channel","noteNumber":42,"velocity":110,"subtype":"noteOn"},{"deltaTime":46,"channel":9,"type":"channel","noteNumber":42,"velocity":0,"subtype":"noteOff"},{"deltaTime":2,"channel":9,"type":"channel","noteNumber":42,"velocity":110,"subtype":"noteOn"},{"deltaTime":46,"channel":9,"type":"channel","noteNumber":42,"velocity":0,"subtype":"noteOff"},{"deltaTime":2,"channel":9,"type":"channel","noteNumber":46,"velocity":110,"subtype":"noteOn"},{"deltaTime":94,"channel":9,"type":"channel","noteNumber":46,"velocity":0,"subtype":"noteOff"},{"deltaTime":2,"channel":9,"type":"channel","noteNumber":42,"velocity":110,"subtype":"noteOn"},{"deltaTime":46,"channel":9,"type":"channel","noteNumber":42,"velocity":0,"subtype":"noteOff"},{"deltaTime":2,"channel":9,"type":"channel","noteNumber":42,"velocity":110,"subtype":"noteOn"},{"deltaTime":46,"channel":9,"type":"channel","noteNumber":42,"velocity":0,"subtype":"noteOff"},{"deltaTime":2,"channel":9,"type":"channel","noteNumber":46,"velocity":110,"subtype":"noteOn"},{"deltaTime":94,"channel":9,"type":"channel","noteNumber":46,"velocity":0,"subtype":"noteOff"},{"deltaTime":2,"channel":9,"type":"channel","noteNumber":42,"velocity":110,"subtype":"noteOn"},{"deltaTime":46,"channel":9,"type":"channel","noteNumber":42,"velocity":0,"subtype":"noteOff"},{"deltaTime":2,"channel":9,"type":"channel","noteNumber":42,"velocity":110,"subtype":"noteOn"},{"deltaTime":46,"channel":9,"type":"channel","noteNumber":42,"velocity":0,"subtype":"noteOff"},{"deltaTime":2,"channel":9,"type":"channel","noteNumber":46,"velocity":110,"subtype":"noteOn"},{"deltaTime":94,"channel":9,"type":"channel","noteNumber":46,"velocity":0,"subtype":"noteOff"},{"deltaTime":2,"channel":9,"type":"channel","noteNumber":42,"velocity":110,"subtype":"noteOn"},{"deltaTime":46,"channel":9,"type":"channel","noteNumber":42,"velocity":0,"subtype":"noteOff"},{"deltaTime":2,"channel":9,"type":"channel","noteNumber":42,"velocity":110,"subtype":"noteOn"},{"deltaTime":46,"channel":9,"type":"channel","noteNumber":42,"velocity":0,"subtype":"noteOff"},{"deltaTime":2,"channel":9,"type":"channel","noteNumber":46,"velocity":110,"subtype":"noteOn"},{"deltaTime":94,"channel":9,"type":"channel","noteNumber":46,"velocity":0,"subtype":"noteOff"},{"deltaTime":2,"channel":9,"type":"channel","noteNumber":42,"velocity":110,"subtype":"noteOn"},{"deltaTime":46,"channel":9,"type":"channel","noteNumber":42,"velocity":0,"subtype":"noteOff"},{"deltaTime":2,"channel":9,"type":"channel","noteNumber":42,"velocity":110,"subtype":"noteOn"},{"deltaTime":46,"channel":9,"type":"channel","noteNumber":42,"velocity":0,"subtype":"noteOff"},{"deltaTime":2,"channel":9,"type":"channel","noteNumber":46,"velocity":110,"subtype":"noteOn"},{"deltaTime":94,"channel":9,"type":"channel","noteNumber":46,"velocity":0,"subtype":"noteOff"},{"deltaTime":2,"channel":9,"type":"channel","noteNumber":42,"velocity":110,"subtype":"noteOn"},{"deltaTime":46,"channel":9,"type":"channel","noteNumber":42,"velocity":0,"subtype":"noteOff"},{"deltaTime":2,"channel":9,"type":"channel","noteNumber":42,"velocity":110,"subtype":"noteOn"},{"deltaTime":46,"channel":9,"type":"channel","noteNumber":42,"velocity":0,"subtype":"noteOff"},{"deltaTime":2,"channel":9,"type":"channel","noteNumber":46,"velocity":110,"subtype":"noteOn"},{"deltaTime":94,"channel":9,"type":"channel","noteNumber":46,"velocity":0,"subtype":"noteOff"},{"deltaTime":2,"channel":9,"type":"channel","noteNumber":42,"velocity":110,"subtype":"noteOn"},{"deltaTime":46,"channel":9,"type":"channel","noteNumber":42,"velocity":0,"subtype":"noteOff"},{"deltaTime":2,"channel":9,"type":"channel","noteNumber":42,"velocity":110,"subtype":"noteOn"},{"deltaTime":46,"channel":9,"type":"channel","noteNumber":42,"velocity":0,"subtype":"noteOff"},{"deltaTime":2,"channel":9,"type":"channel","noteNumber":46,"velocity":110,"subtype":"noteOn"},{"deltaTime":94,"channel":9,"type":"channel","noteNumber":46,"velocity":0,"subtype":"noteOff"},{"deltaTime":2,"channel":9,"type":"channel","noteNumber":42,"velocity":110,"subtype":"noteOn"},{"deltaTime":46,"channel":9,"type":"channel","noteNumber":42,"velocity":0,"subtype":"noteOff"},{"deltaTime":2,"channel":9,"type":"channel","noteNumber":42,"velocity":110,"subtype":"noteOn"},{"deltaTime":46,"channel":9,"type":"channel","noteNumber":42,"velocity":0,"subtype":"noteOff"},{"deltaTime":2,"channel":9,"type":"channel","noteNumber":46,"velocity":110,"subtype":"noteOn"},{"deltaTime":94,"channel":9,"type":"channel","noteNumber":46,"velocity":0,"subtype":"noteOff"},{"deltaTime":2,"channel":9,"type":"channel","noteNumber":42,"velocity":110,"subtype":"noteOn"},{"deltaTime":46,"channel":9,"type":"channel","noteNumber":42,"velocity":0,"subtype":"noteOff"},{"deltaTime":2,"channel":9,"type":"channel","noteNumber":42,"velocity":110,"subtype":"noteOn"},{"deltaTime":46,"channel":9,"type":"channel","noteNumber":42,"velocity":0,"subtype":"noteOff"},{"deltaTime":2,"channel":9,"type":"channel","noteNumber":46,"velocity":110,"subtype":"noteOn"},{"deltaTime":94,"channel":9,"type":"channel","noteNumber":46,"velocity":0,"subtype":"noteOff"},{"deltaTime":2,"channel":9,"type":"channel","noteNumber":42,"velocity":110,"subtype":"noteOn"},{"deltaTime":46,"channel":9,"type":"channel","noteNumber":42,"velocity":0,"subtype":"noteOff"},{"deltaTime":2,"channel":9,"type":"channel","noteNumber":42,"velocity":110,"subtype":"noteOn"},{"deltaTime":46,"channel":9,"type":"channel","noteNumber":42,"velocity":0,"subtype":"noteOff"},{"deltaTime":2,"channel":9,"type":"channel","noteNumber":46,"velocity":110,"subtype":"noteOn"},{"deltaTime":94,"channel":9,"type":"channel","noteNumber":46,"velocity":0,"subtype":"noteOff"},{"deltaTime":2,"channel":9,"type":"channel","noteNumber":42,"velocity":110,"subtype":"noteOn"},{"deltaTime":46,"channel":9,"type":"channel","noteNumber":42,"velocity":0,"subtype":"noteOff"},{"deltaTime":2,"channel":9,"type":"channel","noteNumber":42,"velocity":110,"subtype":"noteOn"},{"deltaTime":46,"channel":9,"type":"channel","noteNumber":42,"velocity":0,"subtype":"noteOff"},{"deltaTime":2,"channel":9,"type":"channel","noteNumber":46,"velocity":110,"subtype":"noteOn"},{"deltaTime":94,"channel":9,"type":"channel","noteNumber":46,"velocity":0,"subtype":"noteOff"},{"deltaTime":2,"channel":9,"type":"channel","noteNumber":42,"velocity":110,"subtype":"noteOn"},{"deltaTime":46,"channel":9,"type":"channel","noteNumber":42,"velocity":0,"subtype":"noteOff"},{"deltaTime":2,"channel":9,"type":"channel","noteNumber":42,"velocity":110,"subtype":"noteOn"},{"deltaTime":46,"channel":9,"type":"channel","noteNumber":42,"velocity":0,"subtype":"noteOff"},{"deltaTime":2,"channel":9,"type":"channel","noteNumber":46,"velocity":110,"subtype":"noteOn"},{"deltaTime":94,"channel":9,"type":"channel","noteNumber":46,"velocity":0,"subtype":"noteOff"},{"deltaTime":2,"channel":9,"type":"channel","noteNumber":42,"velocity":110,"subtype":"noteOn"},{"deltaTime":46,"channel":9,"type":"channel","noteNumber":42,"velocity":0,"subtype":"noteOff"},{"deltaTime":2,"channel":9,"type":"channel","noteNumber":42,"velocity":110,"subtype":"noteOn"},{"deltaTime":46,"channel":9,"type":"channel","noteNumber":42,"velocity":0,"subtype":"noteOff"},{"deltaTime":2,"channel":9,"type":"channel","noteNumber":46,"velocity":110,"subtype":"noteOn"},{"deltaTime":94,"channel":9,"type":"channel","noteNumber":46,"velocity":0,"subtype":"noteOff"},{"deltaTime":2,"channel":9,"type":"channel","noteNumber":49,"velocity":110,"subtype":"noteOn"},{"deltaTime":160,"channel":9,"type":"channel","noteNumber":49,"velocity":0,"subtype":"noteOff"},{"deltaTime":608,"channel":9,"type":"channel","noteNumber":42,"velocity":110,"subtype":"noteOn"},{"deltaTime":46,"channel":9,"type":"channel","noteNumber":42,"velocity":0,"subtype":"noteOff"},{"deltaTime":2,"channel":9,"type":"channel","noteNumber":42,"velocity":110,"subtype":"noteOn"},{"deltaTime":46,"channel":9,"type":"channel","noteNumber":42,"velocity":0,"subtype":"noteOff"},{"deltaTime":2,"channel":9,"type":"channel","noteNumber":46,"velocity":110,"subtype":"noteOn"},{"deltaTime":94,"channel":9,"type":"channel","noteNumber":46,"velocity":0,"subtype":"noteOff"},{"deltaTime":2,"channel":9,"type":"channel","noteNumber":42,"velocity":110,"subtype":"noteOn"},{"deltaTime":46,"channel":9,"type":"channel","noteNumber":42,"velocity":0,"subtype":"noteOff"},{"deltaTime":2,"channel":9,"type":"channel","noteNumber":42,"velocity":110,"subtype":"noteOn"},{"deltaTime":46,"channel":9,"type":"channel","noteNumber":42,"velocity":0,"subtype":"noteOff"},{"deltaTime":2,"channel":9,"type":"channel","noteNumber":46,"velocity":110,"subtype":"noteOn"},{"deltaTime":94,"channel":9,"type":"channel","noteNumber":46,"velocity":0,"subtype":"noteOff"},{"deltaTime":2,"channel":9,"type":"channel","noteNumber":42,"velocity":110,"subtype":"noteOn"},{"deltaTime":46,"channel":9,"type":"channel","noteNumber":42,"velocity":0,"subtype":"noteOff"},{"deltaTime":2,"channel":9,"type":"channel","noteNumber":42,"velocity":110,"subtype":"noteOn"},{"deltaTime":46,"channel":9,"type":"channel","noteNumber":42,"velocity":0,"subtype":"noteOff"},{"deltaTime":2,"channel":9,"type":"channel","noteNumber":46,"velocity":110,"subtype":"noteOn"},{"deltaTime":94,"channel":9,"type":"channel","noteNumber":46,"velocity":0,"subtype":"noteOff"},{"deltaTime":2,"channel":9,"type":"channel","noteNumber":42,"velocity":110,"subtype":"noteOn"},{"deltaTime":46,"channel":9,"type":"channel","noteNumber":42,"velocity":0,"subtype":"noteOff"},{"deltaTime":2,"channel":9,"type":"channel","noteNumber":42,"velocity":110,"subtype":"noteOn"},{"deltaTime":46,"channel":9,"type":"channel","noteNumber":42,"velocity":0,"subtype":"noteOff"},{"deltaTime":2,"channel":9,"type":"channel","noteNumber":46,"velocity":110,"subtype":"noteOn"},{"deltaTime":94,"channel":9,"type":"channel","noteNumber":46,"velocity":0,"subtype":"noteOff"},{"deltaTime":2,"channel":9,"type":"channel","noteNumber":42,"velocity":110,"subtype":"noteOn"},{"deltaTime":46,"channel":9,"type":"channel","noteNumber":42,"velocity":0,"subtype":"noteOff"},{"deltaTime":2,"channel":9,"type":"channel","noteNumber":42,"velocity":110,"subtype":"noteOn"},{"deltaTime":46,"channel":9,"type":"channel","noteNumber":42,"velocity":0,"subtype":"noteOff"},{"deltaTime":2,"channel":9,"type":"channel","noteNumber":46,"velocity":110,"subtype":"noteOn"},{"deltaTime":94,"channel":9,"type":"channel","noteNumber":46,"velocity":0,"subtype":"noteOff"},{"deltaTime":2,"channel":9,"type":"channel","noteNumber":42,"velocity":110,"subtype":"noteOn"},{"deltaTime":46,"channel":9,"type":"channel","noteNumber":42,"velocity":0,"subtype":"noteOff"},{"deltaTime":2,"channel":9,"type":"channel","noteNumber":42,"velocity":110,"subtype":"noteOn"},{"deltaTime":46,"channel":9,"type":"channel","noteNumber":42,"velocity":0,"subtype":"noteOff"},{"deltaTime":2,"channel":9,"type":"channel","noteNumber":46,"velocity":110,"subtype":"noteOn"},{"deltaTime":94,"channel":9,"type":"channel","noteNumber":46,"velocity":0,"subtype":"noteOff"},{"deltaTime":2,"channel":9,"type":"channel","noteNumber":42,"velocity":110,"subtype":"noteOn"},{"deltaTime":46,"channel":9,"type":"channel","noteNumber":42,"velocity":0,"subtype":"noteOff"},{"deltaTime":2,"channel":9,"type":"channel","noteNumber":42,"velocity":110,"subtype":"noteOn"},{"deltaTime":46,"channel":9,"type":"channel","noteNumber":42,"velocity":0,"subtype":"noteOff"},{"deltaTime":2,"channel":9,"type":"channel","noteNumber":46,"velocity":110,"subtype":"noteOn"},{"deltaTime":94,"channel":9,"type":"channel","noteNumber":46,"velocity":0,"subtype":"noteOff"},{"deltaTime":2,"channel":9,"type":"channel","noteNumber":42,"velocity":110,"subtype":"noteOn"},{"deltaTime":46,"channel":9,"type":"channel","noteNumber":42,"velocity":0,"subtype":"noteOff"},{"deltaTime":2,"channel":9,"type":"channel","noteNumber":42,"velocity":110,"subtype":"noteOn"},{"deltaTime":46,"channel":9,"type":"channel","noteNumber":42,"velocity":0,"subtype":"noteOff"},{"deltaTime":2,"channel":9,"type":"channel","noteNumber":46,"velocity":110,"subtype":"noteOn"},{"deltaTime":94,"channel":9,"type":"channel","noteNumber":46,"velocity":0,"subtype":"noteOff"},{"deltaTime":2,"channel":9,"type":"channel","noteNumber":42,"velocity":110,"subtype":"noteOn"},{"deltaTime":46,"channel":9,"type":"channel","noteNumber":42,"velocity":0,"subtype":"noteOff"},{"deltaTime":2,"channel":9,"type":"channel","noteNumber":42,"velocity":110,"subtype":"noteOn"},{"deltaTime":46,"channel":9,"type":"channel","noteNumber":42,"velocity":0,"subtype":"noteOff"},{"deltaTime":2,"channel":9,"type":"channel","noteNumber":46,"velocity":110,"subtype":"noteOn"},{"deltaTime":94,"channel":9,"type":"channel","noteNumber":46,"velocity":0,"subtype":"noteOff"},{"deltaTime":2,"channel":9,"type":"channel","noteNumber":42,"velocity":110,"subtype":"noteOn"},{"deltaTime":46,"channel":9,"type":"channel","noteNumber":42,"velocity":0,"subtype":"noteOff"},{"deltaTime":2,"channel":9,"type":"channel","noteNumber":42,"velocity":110,"subtype":"noteOn"},{"deltaTime":46,"channel":9,"type":"channel","noteNumber":42,"velocity":0,"subtype":"noteOff"},{"deltaTime":2,"channel":9,"type":"channel","noteNumber":46,"velocity":110,"subtype":"noteOn"},{"deltaTime":94,"channel":9,"type":"channel","noteNumber":46,"velocity":0,"subtype":"noteOff"},{"deltaTime":2,"channel":9,"type":"channel","noteNumber":42,"velocity":110,"subtype":"noteOn"},{"deltaTime":46,"channel":9,"type":"channel","noteNumber":42,"velocity":0,"subtype":"noteOff"},{"deltaTime":2,"channel":9,"type":"channel","noteNumber":42,"velocity":110,"subtype":"noteOn"},{"deltaTime":46,"channel":9,"type":"channel","noteNumber":42,"velocity":0,"subtype":"noteOff"},{"deltaTime":2,"channel":9,"type":"channel","noteNumber":46,"velocity":110,"subtype":"noteOn"},{"deltaTime":94,"channel":9,"type":"channel","noteNumber":46,"velocity":0,"subtype":"noteOff"},{"deltaTime":2,"channel":9,"type":"channel","noteNumber":42,"velocity":110,"subtype":"noteOn"},{"deltaTime":46,"channel":9,"type":"channel","noteNumber":42,"velocity":0,"subtype":"noteOff"},{"deltaTime":2,"channel":9,"type":"channel","noteNumber":42,"velocity":110,"subtype":"noteOn"},{"deltaTime":46,"channel":9,"type":"channel","noteNumber":42,"velocity":0,"subtype":"noteOff"},{"deltaTime":2,"channel":9,"type":"channel","noteNumber":46,"velocity":110,"subtype":"noteOn"},{"deltaTime":94,"channel":9,"type":"channel","noteNumber":46,"velocity":0,"subtype":"noteOff"},{"deltaTime":2,"channel":9,"type":"channel","noteNumber":42,"velocity":110,"subtype":"noteOn"},{"deltaTime":46,"channel":9,"type":"channel","noteNumber":42,"velocity":0,"subtype":"noteOff"},{"deltaTime":2,"channel":9,"type":"channel","noteNumber":42,"velocity":110,"subtype":"noteOn"},{"deltaTime":46,"channel":9,"type":"channel","noteNumber":42,"velocity":0,"subtype":"noteOff"},{"deltaTime":2,"channel":9,"type":"channel","noteNumber":46,"velocity":110,"subtype":"noteOn"},{"deltaTime":94,"channel":9,"type":"channel","noteNumber":46,"velocity":0,"subtype":"noteOff"},{"deltaTime":2,"channel":9,"type":"channel","noteNumber":42,"velocity":110,"subtype":"noteOn"},{"deltaTime":46,"channel":9,"type":"channel","noteNumber":42,"velocity":0,"subtype":"noteOff"},{"deltaTime":2,"channel":9,"type":"channel","noteNumber":42,"velocity":110,"subtype":"noteOn"},{"deltaTime":46,"channel":9,"type":"channel","noteNumber":42,"velocity":0,"subtype":"noteOff"},{"deltaTime":2,"channel":9,"type":"channel","noteNumber":46,"velocity":110,"subtype":"noteOn"},{"deltaTime":94,"channel":9,"type":"channel","noteNumber":46,"velocity":0,"subtype":"noteOff"},{"deltaTime":2,"channel":9,"type":"channel","noteNumber":42,"velocity":110,"subtype":"noteOn"},{"deltaTime":46,"channel":9,"type":"channel","noteNumber":42,"velocity":0,"subtype":"noteOff"},{"deltaTime":2,"channel":9,"type":"channel","noteNumber":42,"velocity":110,"subtype":"noteOn"},{"deltaTime":46,"channel":9,"type":"channel","noteNumber":42,"velocity":0,"subtype":"noteOff"},{"deltaTime":2,"channel":9,"type":"channel","noteNumber":46,"velocity":110,"subtype":"noteOn"},{"deltaTime":94,"channel":9,"type":"channel","noteNumber":46,"velocity":0,"subtype":"noteOff"},{"deltaTime":2,"channel":9,"type":"channel","noteNumber":42,"velocity":110,"subtype":"noteOn"},{"deltaTime":46,"channel":9,"type":"channel","noteNumber":42,"velocity":0,"subtype":"noteOff"},{"deltaTime":2,"channel":9,"type":"channel","noteNumber":42,"velocity":110,"subtype":"noteOn"},{"deltaTime":46,"channel":9,"type":"channel","noteNumber":42,"velocity":0,"subtype":"noteOff"},{"deltaTime":2,"channel":9,"type":"channel","noteNumber":46,"velocity":110,"subtype":"noteOn"},{"deltaTime":94,"channel":9,"type":"channel","noteNumber":46,"velocity":0,"subtype":"noteOff"},{"deltaTime":2,"channel":9,"type":"channel","noteNumber":42,"velocity":110,"subtype":"noteOn"},{"deltaTime":46,"channel":9,"type":"channel","noteNumber":42,"velocity":0,"subtype":"noteOff"},{"deltaTime":2,"channel":9,"type":"channel","noteNumber":42,"velocity":110,"subtype":"noteOn"},{"deltaTime":46,"channel":9,"type":"channel","noteNumber":42,"velocity":0,"subtype":"noteOff"},{"deltaTime":2,"channel":9,"type":"channel","noteNumber":46,"velocity":110,"subtype":"noteOn"},{"deltaTime":94,"channel":9,"type":"channel","noteNumber":46,"velocity":0,"subtype":"noteOff"},{"deltaTime":2,"channel":9,"type":"channel","noteNumber":42,"velocity":110,"subtype":"noteOn"},{"deltaTime":46,"channel":9,"type":"channel","noteNumber":42,"velocity":0,"subtype":"noteOff"},{"deltaTime":2,"channel":9,"type":"channel","noteNumber":42,"velocity":110,"subtype":"noteOn"},{"deltaTime":46,"channel":9,"type":"channel","noteNumber":42,"velocity":0,"subtype":"noteOff"},{"deltaTime":2,"channel":9,"type":"channel","noteNumber":46,"velocity":110,"subtype":"noteOn"},{"deltaTime":94,"channel":9,"type":"channel","noteNumber":46,"velocity":0,"subtype":"noteOff"},{"deltaTime":2,"channel":9,"type":"channel","noteNumber":42,"velocity":110,"subtype":"noteOn"},{"deltaTime":46,"channel":9,"type":"channel","noteNumber":42,"velocity":0,"subtype":"noteOff"},{"deltaTime":2,"channel":9,"type":"channel","noteNumber":42,"velocity":110,"subtype":"noteOn"},{"deltaTime":46,"channel":9,"type":"channel","noteNumber":42,"velocity":0,"subtype":"noteOff"},{"deltaTime":2,"channel":9,"type":"channel","noteNumber":46,"velocity":110,"subtype":"noteOn"},{"deltaTime":94,"channel":9,"type":"channel","noteNumber":46,"velocity":0,"subtype":"noteOff"},{"deltaTime":2,"channel":9,"type":"channel","noteNumber":42,"velocity":110,"subtype":"noteOn"},{"deltaTime":46,"channel":9,"type":"channel","noteNumber":42,"velocity":0,"subtype":"noteOff"},{"deltaTime":2,"channel":9,"type":"channel","noteNumber":42,"velocity":110,"subtype":"noteOn"},{"deltaTime":46,"channel":9,"type":"channel","noteNumber":42,"velocity":0,"subtype":"noteOff"},{"deltaTime":2,"channel":9,"type":"channel","noteNumber":46,"velocity":110,"subtype":"noteOn"},{"deltaTime":94,"channel":9,"type":"channel","noteNumber":46,"velocity":0,"subtype":"noteOff"},{"deltaTime":2,"channel":9,"type":"channel","noteNumber":42,"velocity":110,"subtype":"noteOn"},{"deltaTime":46,"channel":9,"type":"channel","noteNumber":42,"velocity":0,"subtype":"noteOff"},{"deltaTime":2,"channel":9,"type":"channel","noteNumber":42,"velocity":110,"subtype":"noteOn"},{"deltaTime":46,"channel":9,"type":"channel","noteNumber":42,"velocity":0,"subtype":"noteOff"},{"deltaTime":2,"channel":9,"type":"channel","noteNumber":46,"velocity":110,"subtype":"noteOn"},{"deltaTime":94,"channel":9,"type":"channel","noteNumber":46,"velocity":0,"subtype":"noteOff"},{"deltaTime":2,"channel":9,"type":"channel","noteNumber":42,"velocity":110,"subtype":"noteOn"},{"deltaTime":46,"channel":9,"type":"channel","noteNumber":42,"velocity":0,"subtype":"noteOff"},{"deltaTime":2,"channel":9,"type":"channel","noteNumber":42,"velocity":110,"subtype":"noteOn"},{"deltaTime":46,"channel":9,"type":"channel","noteNumber":42,"velocity":0,"subtype":"noteOff"},{"deltaTime":2,"channel":9,"type":"channel","noteNumber":46,"velocity":110,"subtype":"noteOn"},{"deltaTime":94,"channel":9,"type":"channel","noteNumber":46,"velocity":0,"subtype":"noteOff"},{"deltaTime":2,"channel":9,"type":"channel","noteNumber":42,"velocity":110,"subtype":"noteOn"},{"deltaTime":46,"channel":9,"type":"channel","noteNumber":42,"velocity":0,"subtype":"noteOff"},{"deltaTime":2,"channel":9,"type":"channel","noteNumber":42,"velocity":110,"subtype":"noteOn"},{"deltaTime":46,"channel":9,"type":"channel","noteNumber":42,"velocity":0,"subtype":"noteOff"},{"deltaTime":2,"channel":9,"type":"channel","noteNumber":46,"velocity":110,"subtype":"noteOn"},{"deltaTime":94,"channel":9,"type":"channel","noteNumber":46,"velocity":0,"subtype":"noteOff"},{"deltaTime":2,"channel":9,"type":"channel","noteNumber":42,"velocity":110,"subtype":"noteOn"},{"deltaTime":46,"channel":9,"type":"channel","noteNumber":42,"velocity":0,"subtype":"noteOff"},{"deltaTime":2,"channel":9,"type":"channel","noteNumber":42,"velocity":110,"subtype":"noteOn"},{"deltaTime":46,"channel":9,"type":"channel","noteNumber":42,"velocity":0,"subtype":"noteOff"},{"deltaTime":2,"channel":9,"type":"channel","noteNumber":46,"velocity":110,"subtype":"noteOn"},{"deltaTime":94,"channel":9,"type":"channel","noteNumber":46,"velocity":0,"subtype":"noteOff"},{"deltaTime":2,"channel":9,"type":"channel","noteNumber":42,"velocity":110,"subtype":"noteOn"},{"deltaTime":46,"channel":9,"type":"channel","noteNumber":42,"velocity":0,"subtype":"noteOff"},{"deltaTime":2,"channel":9,"type":"channel","noteNumber":42,"velocity":110,"subtype":"noteOn"},{"deltaTime":46,"channel":9,"type":"channel","noteNumber":42,"velocity":0,"subtype":"noteOff"},{"deltaTime":2,"channel":9,"type":"channel","noteNumber":46,"velocity":110,"subtype":"noteOn"},{"deltaTime":94,"channel":9,"type":"channel","noteNumber":46,"velocity":0,"subtype":"noteOff"},{"deltaTime":2,"channel":9,"type":"channel","noteNumber":42,"velocity":110,"subtype":"noteOn"},{"deltaTime":46,"channel":9,"type":"channel","noteNumber":42,"velocity":0,"subtype":"noteOff"},{"deltaTime":2,"channel":9,"type":"channel","noteNumber":42,"velocity":110,"subtype":"noteOn"},{"deltaTime":46,"channel":9,"type":"channel","noteNumber":42,"velocity":0,"subtype":"noteOff"},{"deltaTime":2,"channel":9,"type":"channel","noteNumber":46,"velocity":110,"subtype":"noteOn"},{"deltaTime":94,"channel":9,"type":"channel","noteNumber":46,"velocity":0,"subtype":"noteOff"},{"deltaTime":2,"channel":9,"type":"channel","noteNumber":42,"velocity":110,"subtype":"noteOn"},{"deltaTime":46,"channel":9,"type":"channel","noteNumber":42,"velocity":0,"subtype":"noteOff"},{"deltaTime":2,"channel":9,"type":"channel","noteNumber":42,"velocity":110,"subtype":"noteOn"},{"deltaTime":46,"channel":9,"type":"channel","noteNumber":42,"velocity":0,"subtype":"noteOff"},{"deltaTime":2,"channel":9,"type":"channel","noteNumber":46,"velocity":110,"subtype":"noteOn"},{"deltaTime":94,"channel":9,"type":"channel","noteNumber":46,"velocity":0,"subtype":"noteOff"},{"deltaTime":2,"channel":9,"type":"channel","noteNumber":42,"velocity":110,"subtype":"noteOn"},{"deltaTime":46,"channel":9,"type":"channel","noteNumber":42,"velocity":0,"subtype":"noteOff"},{"deltaTime":2,"channel":9,"type":"channel","noteNumber":42,"velocity":110,"subtype":"noteOn"},{"deltaTime":46,"channel":9,"type":"channel","noteNumber":42,"velocity":0,"subtype":"noteOff"},{"deltaTime":2,"channel":9,"type":"channel","noteNumber":46,"velocity":110,"subtype":"noteOn"},{"deltaTime":94,"channel":9,"type":"channel","noteNumber":46,"velocity":0,"subtype":"noteOff"},{"deltaTime":2,"channel":9,"type":"channel","noteNumber":49,"velocity":110,"subtype":"noteOn"},{"deltaTime":160,"channel":9,"type":"channel","noteNumber":49,"velocity":0,"subtype":"noteOff"},{"deltaTime":608,"channel":9,"type":"channel","noteNumber":42,"velocity":110,"subtype":"noteOn"},{"deltaTime":46,"channel":9,"type":"channel","noteNumber":42,"velocity":0,"subtype":"noteOff"},{"deltaTime":2,"channel":9,"type":"channel","noteNumber":42,"velocity":110,"subtype":"noteOn"},{"deltaTime":46,"channel":9,"type":"channel","noteNumber":42,"velocity":0,"subtype":"noteOff"},{"deltaTime":2,"channel":9,"type":"channel","noteNumber":46,"velocity":110,"subtype":"noteOn"},{"deltaTime":94,"channel":9,"type":"channel","noteNumber":46,"velocity":0,"subtype":"noteOff"},{"deltaTime":2,"channel":9,"type":"channel","noteNumber":42,"velocity":110,"subtype":"noteOn"},{"deltaTime":46,"channel":9,"type":"channel","noteNumber":42,"velocity":0,"subtype":"noteOff"},{"deltaTime":2,"channel":9,"type":"channel","noteNumber":42,"velocity":110,"subtype":"noteOn"},{"deltaTime":46,"channel":9,"type":"channel","noteNumber":42,"velocity":0,"subtype":"noteOff"},{"deltaTime":2,"channel":9,"type":"channel","noteNumber":46,"velocity":110,"subtype":"noteOn"},{"deltaTime":94,"channel":9,"type":"channel","noteNumber":46,"velocity":0,"subtype":"noteOff"},{"deltaTime":2,"channel":9,"type":"channel","noteNumber":42,"velocity":110,"subtype":"noteOn"},{"deltaTime":46,"channel":9,"type":"channel","noteNumber":42,"velocity":0,"subtype":"noteOff"},{"deltaTime":2,"channel":9,"type":"channel","noteNumber":42,"velocity":110,"subtype":"noteOn"},{"deltaTime":46,"channel":9,"type":"channel","noteNumber":42,"velocity":0,"subtype":"noteOff"},{"deltaTime":2,"channel":9,"type":"channel","noteNumber":46,"velocity":110,"subtype":"noteOn"},{"deltaTime":94,"channel":9,"type":"channel","noteNumber":46,"velocity":0,"subtype":"noteOff"},{"deltaTime":2,"channel":9,"type":"channel","noteNumber":42,"velocity":110,"subtype":"noteOn"},{"deltaTime":46,"channel":9,"type":"channel","noteNumber":42,"velocity":0,"subtype":"noteOff"},{"deltaTime":2,"channel":9,"type":"channel","noteNumber":42,"velocity":110,"subtype":"noteOn"},{"deltaTime":46,"channel":9,"type":"channel","noteNumber":42,"velocity":0,"subtype":"noteOff"},{"deltaTime":2,"channel":9,"type":"channel","noteNumber":46,"velocity":110,"subtype":"noteOn"},{"deltaTime":94,"channel":9,"type":"channel","noteNumber":46,"velocity":0,"subtype":"noteOff"},{"deltaTime":2,"channel":9,"type":"channel","noteNumber":42,"velocity":110,"subtype":"noteOn"},{"deltaTime":46,"channel":9,"type":"channel","noteNumber":42,"velocity":0,"subtype":"noteOff"},{"deltaTime":2,"channel":9,"type":"channel","noteNumber":42,"velocity":110,"subtype":"noteOn"},{"deltaTime":46,"channel":9,"type":"channel","noteNumber":42,"velocity":0,"subtype":"noteOff"},{"deltaTime":2,"channel":9,"type":"channel","noteNumber":46,"velocity":110,"subtype":"noteOn"},{"deltaTime":94,"channel":9,"type":"channel","noteNumber":46,"velocity":0,"subtype":"noteOff"},{"deltaTime":2,"channel":9,"type":"channel","noteNumber":42,"velocity":110,"subtype":"noteOn"},{"deltaTime":46,"channel":9,"type":"channel","noteNumber":42,"velocity":0,"subtype":"noteOff"},{"deltaTime":2,"channel":9,"type":"channel","noteNumber":42,"velocity":110,"subtype":"noteOn"},{"deltaTime":46,"channel":9,"type":"channel","noteNumber":42,"velocity":0,"subtype":"noteOff"},{"deltaTime":2,"channel":9,"type":"channel","noteNumber":46,"velocity":110,"subtype":"noteOn"},{"deltaTime":94,"channel":9,"type":"channel","noteNumber":46,"velocity":0,"subtype":"noteOff"},{"deltaTime":2,"channel":9,"type":"channel","noteNumber":42,"velocity":110,"subtype":"noteOn"},{"deltaTime":46,"channel":9,"type":"channel","noteNumber":42,"velocity":0,"subtype":"noteOff"},{"deltaTime":2,"channel":9,"type":"channel","noteNumber":42,"velocity":110,"subtype":"noteOn"},{"deltaTime":46,"channel":9,"type":"channel","noteNumber":42,"velocity":0,"subtype":"noteOff"},{"deltaTime":2,"channel":9,"type":"channel","noteNumber":46,"velocity":110,"subtype":"noteOn"},{"deltaTime":94,"channel":9,"type":"channel","noteNumber":46,"velocity":0,"subtype":"noteOff"},{"deltaTime":2,"channel":9,"type":"channel","noteNumber":42,"velocity":110,"subtype":"noteOn"},{"deltaTime":46,"channel":9,"type":"channel","noteNumber":42,"velocity":0,"subtype":"noteOff"},{"deltaTime":2,"channel":9,"type":"channel","noteNumber":42,"velocity":110,"subtype":"noteOn"},{"deltaTime":46,"channel":9,"type":"channel","noteNumber":42,"velocity":0,"subtype":"noteOff"},{"deltaTime":2,"channel":9,"type":"channel","noteNumber":46,"velocity":110,"subtype":"noteOn"},{"deltaTime":94,"channel":9,"type":"channel","noteNumber":46,"velocity":0,"subtype":"noteOff"},{"deltaTime":2,"channel":9,"type":"channel","noteNumber":42,"velocity":110,"subtype":"noteOn"},{"deltaTime":46,"channel":9,"type":"channel","noteNumber":42,"velocity":0,"subtype":"noteOff"},{"deltaTime":2,"channel":9,"type":"channel","noteNumber":42,"velocity":110,"subtype":"noteOn"},{"deltaTime":46,"channel":9,"type":"channel","noteNumber":42,"velocity":0,"subtype":"noteOff"},{"deltaTime":2,"channel":9,"type":"channel","noteNumber":46,"velocity":110,"subtype":"noteOn"},{"deltaTime":94,"channel":9,"type":"channel","noteNumber":46,"velocity":0,"subtype":"noteOff"},{"deltaTime":2,"channel":9,"type":"channel","noteNumber":42,"velocity":110,"subtype":"noteOn"},{"deltaTime":46,"channel":9,"type":"channel","noteNumber":42,"velocity":0,"subtype":"noteOff"},{"deltaTime":2,"channel":9,"type":"channel","noteNumber":42,"velocity":110,"subtype":"noteOn"},{"deltaTime":46,"channel":9,"type":"channel","noteNumber":42,"velocity":0,"subtype":"noteOff"},{"deltaTime":2,"channel":9,"type":"channel","noteNumber":46,"velocity":110,"subtype":"noteOn"},{"deltaTime":94,"channel":9,"type":"channel","noteNumber":46,"velocity":0,"subtype":"noteOff"},{"deltaTime":2,"channel":9,"type":"channel","noteNumber":42,"velocity":110,"subtype":"noteOn"},{"deltaTime":46,"channel":9,"type":"channel","noteNumber":42,"velocity":0,"subtype":"noteOff"},{"deltaTime":2,"channel":9,"type":"channel","noteNumber":42,"velocity":110,"subtype":"noteOn"},{"deltaTime":46,"channel":9,"type":"channel","noteNumber":42,"velocity":0,"subtype":"noteOff"},{"deltaTime":2,"channel":9,"type":"channel","noteNumber":46,"velocity":110,"subtype":"noteOn"},{"deltaTime":94,"channel":9,"type":"channel","noteNumber":46,"velocity":0,"subtype":"noteOff"},{"deltaTime":2,"channel":9,"type":"channel","noteNumber":42,"velocity":110,"subtype":"noteOn"},{"deltaTime":46,"channel":9,"type":"channel","noteNumber":42,"velocity":0,"subtype":"noteOff"},{"deltaTime":2,"channel":9,"type":"channel","noteNumber":42,"velocity":110,"subtype":"noteOn"},{"deltaTime":46,"channel":9,"type":"channel","noteNumber":42,"velocity":0,"subtype":"noteOff"},{"deltaTime":2,"channel":9,"type":"channel","noteNumber":46,"velocity":110,"subtype":"noteOn"},{"deltaTime":94,"channel":9,"type":"channel","noteNumber":46,"velocity":0,"subtype":"noteOff"},{"deltaTime":2,"channel":9,"type":"channel","noteNumber":42,"velocity":110,"subtype":"noteOn"},{"deltaTime":46,"channel":9,"type":"channel","noteNumber":42,"velocity":0,"subtype":"noteOff"},{"deltaTime":2,"channel":9,"type":"channel","noteNumber":42,"velocity":110,"subtype":"noteOn"},{"deltaTime":46,"channel":9,"type":"channel","noteNumber":42,"velocity":0,"subtype":"noteOff"},{"deltaTime":2,"channel":9,"type":"channel","noteNumber":46,"velocity":110,"subtype":"noteOn"},{"deltaTime":94,"channel":9,"type":"channel","noteNumber":46,"velocity":0,"subtype":"noteOff"},{"deltaTime":2,"channel":9,"type":"channel","noteNumber":42,"velocity":110,"subtype":"noteOn"},{"deltaTime":46,"channel":9,"type":"channel","noteNumber":42,"velocity":0,"subtype":"noteOff"},{"deltaTime":2,"channel":9,"type":"channel","noteNumber":42,"velocity":110,"subtype":"noteOn"},{"deltaTime":46,"channel":9,"type":"channel","noteNumber":42,"velocity":0,"subtype":"noteOff"},{"deltaTime":2,"channel":9,"type":"channel","noteNumber":46,"velocity":110,"subtype":"noteOn"},{"deltaTime":94,"channel":9,"type":"channel","noteNumber":46,"velocity":0,"subtype":"noteOff"},{"deltaTime":2,"channel":9,"type":"channel","noteNumber":42,"velocity":110,"subtype":"noteOn"},{"deltaTime":46,"channel":9,"type":"channel","noteNumber":42,"velocity":0,"subtype":"noteOff"},{"deltaTime":2,"channel":9,"type":"channel","noteNumber":42,"velocity":110,"subtype":"noteOn"},{"deltaTime":46,"channel":9,"type":"channel","noteNumber":42,"velocity":0,"subtype":"noteOff"},{"deltaTime":2,"channel":9,"type":"channel","noteNumber":46,"velocity":110,"subtype":"noteOn"},{"deltaTime":94,"channel":9,"type":"channel","noteNumber":46,"velocity":0,"subtype":"noteOff"},{"deltaTime":2,"channel":9,"type":"channel","noteNumber":42,"velocity":110,"subtype":"noteOn"},{"deltaTime":46,"channel":9,"type":"channel","noteNumber":42,"velocity":0,"subtype":"noteOff"},{"deltaTime":2,"channel":9,"type":"channel","noteNumber":42,"velocity":110,"subtype":"noteOn"},{"deltaTime":46,"channel":9,"type":"channel","noteNumber":42,"velocity":0,"subtype":"noteOff"},{"deltaTime":2,"channel":9,"type":"channel","noteNumber":46,"velocity":110,"subtype":"noteOn"},{"deltaTime":94,"channel":9,"type":"channel","noteNumber":46,"velocity":0,"subtype":"noteOff"},{"deltaTime":2,"channel":9,"type":"channel","noteNumber":42,"velocity":110,"subtype":"noteOn"},{"deltaTime":46,"channel":9,"type":"channel","noteNumber":42,"velocity":0,"subtype":"noteOff"},{"deltaTime":2,"channel":9,"type":"channel","noteNumber":42,"velocity":110,"subtype":"noteOn"},{"deltaTime":46,"channel":9,"type":"channel","noteNumber":42,"velocity":0,"subtype":"noteOff"},{"deltaTime":2,"channel":9,"type":"channel","noteNumber":46,"velocity":110,"subtype":"noteOn"},{"deltaTime":94,"channel":9,"type":"channel","noteNumber":46,"velocity":0,"subtype":"noteOff"},{"deltaTime":2,"channel":9,"type":"channel","noteNumber":42,"velocity":110,"subtype":"noteOn"},{"deltaTime":46,"channel":9,"type":"channel","noteNumber":42,"velocity":0,"subtype":"noteOff"},{"deltaTime":2,"channel":9,"type":"channel","noteNumber":42,"velocity":110,"subtype":"noteOn"},{"deltaTime":46,"channel":9,"type":"channel","noteNumber":42,"velocity":0,"subtype":"noteOff"},{"deltaTime":2,"channel":9,"type":"channel","noteNumber":46,"velocity":110,"subtype":"noteOn"},{"deltaTime":94,"channel":9,"type":"channel","noteNumber":46,"velocity":0,"subtype":"noteOff"},{"deltaTime":2,"channel":9,"type":"channel","noteNumber":42,"velocity":110,"subtype":"noteOn"},{"deltaTime":46,"channel":9,"type":"channel","noteNumber":42,"velocity":0,"subtype":"noteOff"},{"deltaTime":2,"channel":9,"type":"channel","noteNumber":42,"velocity":110,"subtype":"noteOn"},{"deltaTime":46,"channel":9,"type":"channel","noteNumber":42,"velocity":0,"subtype":"noteOff"},{"deltaTime":2,"channel":9,"type":"channel","noteNumber":46,"velocity":110,"subtype":"noteOn"},{"deltaTime":94,"channel":9,"type":"channel","noteNumber":46,"velocity":0,"subtype":"noteOff"},{"deltaTime":2,"channel":9,"type":"channel","noteNumber":42,"velocity":110,"subtype":"noteOn"},{"deltaTime":46,"channel":9,"type":"channel","noteNumber":42,"velocity":0,"subtype":"noteOff"},{"deltaTime":2,"channel":9,"type":"channel","noteNumber":42,"velocity":110,"subtype":"noteOn"},{"deltaTime":46,"channel":9,"type":"channel","noteNumber":42,"velocity":0,"subtype":"noteOff"},{"deltaTime":2,"channel":9,"type":"channel","noteNumber":46,"velocity":110,"subtype":"noteOn"},{"deltaTime":94,"channel":9,"type":"channel","noteNumber":46,"velocity":0,"subtype":"noteOff"},{"deltaTime":2,"channel":9,"type":"channel","noteNumber":42,"velocity":110,"subtype":"noteOn"},{"deltaTime":46,"channel":9,"type":"channel","noteNumber":42,"velocity":0,"subtype":"noteOff"},{"deltaTime":2,"channel":9,"type":"channel","noteNumber":42,"velocity":110,"subtype":"noteOn"},{"deltaTime":46,"channel":9,"type":"channel","noteNumber":42,"velocity":0,"subtype":"noteOff"},{"deltaTime":2,"channel":9,"type":"channel","noteNumber":46,"velocity":110,"subtype":"noteOn"},{"deltaTime":94,"channel":9,"type":"channel","noteNumber":46,"velocity":0,"subtype":"noteOff"},{"deltaTime":2,"channel":9,"type":"channel","noteNumber":42,"velocity":110,"subtype":"noteOn"},{"deltaTime":46,"channel":9,"type":"channel","noteNumber":42,"velocity":0,"subtype":"noteOff"},{"deltaTime":2,"channel":9,"type":"channel","noteNumber":42,"velocity":110,"subtype":"noteOn"},{"deltaTime":46,"channel":9,"type":"channel","noteNumber":42,"velocity":0,"subtype":"noteOff"},{"deltaTime":2,"channel":9,"type":"channel","noteNumber":46,"velocity":110,"subtype":"noteOn"},{"deltaTime":94,"channel":9,"type":"channel","noteNumber":46,"velocity":0,"subtype":"noteOff"},{"deltaTime":2,"channel":9,"type":"channel","noteNumber":42,"velocity":110,"subtype":"noteOn"},{"deltaTime":46,"channel":9,"type":"channel","noteNumber":42,"velocity":0,"subtype":"noteOff"},{"deltaTime":2,"channel":9,"type":"channel","noteNumber":42,"velocity":110,"subtype":"noteOn"},{"deltaTime":46,"channel":9,"type":"channel","noteNumber":42,"velocity":0,"subtype":"noteOff"},{"deltaTime":2,"channel":9,"type":"channel","noteNumber":46,"velocity":110,"subtype":"noteOn"},{"deltaTime":94,"channel":9,"type":"channel","noteNumber":46,"velocity":0,"subtype":"noteOff"},{"deltaTime":2,"channel":9,"type":"channel","noteNumber":42,"velocity":110,"subtype":"noteOn"},{"deltaTime":46,"channel":9,"type":"channel","noteNumber":42,"velocity":0,"subtype":"noteOff"},{"deltaTime":2,"channel":9,"type":"channel","noteNumber":42,"velocity":110,"subtype":"noteOn"},{"deltaTime":46,"channel":9,"type":"channel","noteNumber":42,"velocity":0,"subtype":"noteOff"},{"deltaTime":2,"channel":9,"type":"channel","noteNumber":46,"velocity":110,"subtype":"noteOn"},{"deltaTime":94,"channel":9,"type":"channel","noteNumber":46,"velocity":0,"subtype":"noteOff"},{"deltaTime":2,"channel":9,"type":"channel","noteNumber":42,"velocity":110,"subtype":"noteOn"},{"deltaTime":46,"channel":9,"type":"channel","noteNumber":42,"velocity":0,"subtype":"noteOff"},{"deltaTime":2,"channel":9,"type":"channel","noteNumber":42,"velocity":110,"subtype":"noteOn"},{"deltaTime":46,"channel":9,"type":"channel","noteNumber":42,"velocity":0,"subtype":"noteOff"},{"deltaTime":2,"channel":9,"type":"channel","noteNumber":46,"velocity":110,"subtype":"noteOn"},{"deltaTime":94,"channel":9,"type":"channel","noteNumber":46,"velocity":0,"subtype":"noteOff"},{"deltaTime":2,"channel":9,"type":"channel","noteNumber":42,"velocity":110,"subtype":"noteOn"},{"deltaTime":46,"channel":9,"type":"channel","noteNumber":42,"velocity":0,"subtype":"noteOff"},{"deltaTime":2,"channel":9,"type":"channel","noteNumber":42,"velocity":110,"subtype":"noteOn"},{"deltaTime":46,"channel":9,"type":"channel","noteNumber":42,"velocity":0,"subtype":"noteOff"},{"deltaTime":2,"channel":9,"type":"channel","noteNumber":46,"velocity":110,"subtype":"noteOn"},{"deltaTime":94,"channel":9,"type":"channel","noteNumber":46,"velocity":0,"subtype":"noteOff"},{"deltaTime":2,"channel":9,"type":"channel","noteNumber":42,"velocity":110,"subtype":"noteOn"},{"deltaTime":46,"channel":9,"type":"channel","noteNumber":42,"velocity":0,"subtype":"noteOff"},{"deltaTime":2,"channel":9,"type":"channel","noteNumber":42,"velocity":110,"subtype":"noteOn"},{"deltaTime":46,"channel":9,"type":"channel","noteNumber":42,"velocity":0,"subtype":"noteOff"},{"deltaTime":2,"channel":9,"type":"channel","noteNumber":46,"velocity":110,"subtype":"noteOn"},{"deltaTime":94,"channel":9,"type":"channel","noteNumber":46,"velocity":0,"subtype":"noteOff"},{"deltaTime":2,"channel":9,"type":"channel","noteNumber":42,"velocity":110,"subtype":"noteOn"},{"deltaTime":46,"channel":9,"type":"channel","noteNumber":42,"velocity":0,"subtype":"noteOff"},{"deltaTime":2,"channel":9,"type":"channel","noteNumber":42,"velocity":110,"subtype":"noteOn"},{"deltaTime":46,"channel":9,"type":"channel","noteNumber":42,"velocity":0,"subtype":"noteOff"},{"deltaTime":2,"channel":9,"type":"channel","noteNumber":46,"velocity":110,"subtype":"noteOn"},{"deltaTime":94,"channel":9,"type":"channel","noteNumber":46,"velocity":0,"subtype":"noteOff"},{"deltaTime":2,"channel":9,"type":"channel","noteNumber":49,"velocity":110,"subtype":"noteOn"},{"deltaTime":160,"channel":9,"type":"channel","noteNumber":49,"velocity":0,"subtype":"noteOff"},{"deltaTime":608,"channel":9,"type":"channel","noteNumber":42,"velocity":110,"subtype":"noteOn"},{"deltaTime":46,"channel":9,"type":"channel","noteNumber":42,"velocity":0,"subtype":"noteOff"},{"deltaTime":2,"channel":9,"type":"channel","noteNumber":42,"velocity":110,"subtype":"noteOn"},{"deltaTime":46,"channel":9,"type":"channel","noteNumber":42,"velocity":0,"subtype":"noteOff"},{"deltaTime":2,"channel":9,"type":"channel","noteNumber":46,"velocity":110,"subtype":"noteOn"},{"deltaTime":94,"channel":9,"type":"channel","noteNumber":46,"velocity":0,"subtype":"noteOff"},{"deltaTime":2,"channel":9,"type":"channel","noteNumber":42,"velocity":110,"subtype":"noteOn"},{"deltaTime":46,"channel":9,"type":"channel","noteNumber":42,"velocity":0,"subtype":"noteOff"},{"deltaTime":2,"channel":9,"type":"channel","noteNumber":42,"velocity":110,"subtype":"noteOn"},{"deltaTime":46,"channel":9,"type":"channel","noteNumber":42,"velocity":0,"subtype":"noteOff"},{"deltaTime":2,"channel":9,"type":"channel","noteNumber":46,"velocity":110,"subtype":"noteOn"},{"deltaTime":94,"channel":9,"type":"channel","noteNumber":46,"velocity":0,"subtype":"noteOff"},{"deltaTime":2,"channel":9,"type":"channel","noteNumber":42,"velocity":110,"subtype":"noteOn"},{"deltaTime":46,"channel":9,"type":"channel","noteNumber":42,"velocity":0,"subtype":"noteOff"},{"deltaTime":2,"channel":9,"type":"channel","noteNumber":42,"velocity":110,"subtype":"noteOn"},{"deltaTime":46,"channel":9,"type":"channel","noteNumber":42,"velocity":0,"subtype":"noteOff"},{"deltaTime":2,"channel":9,"type":"channel","noteNumber":46,"velocity":110,"subtype":"noteOn"},{"deltaTime":94,"channel":9,"type":"channel","noteNumber":46,"velocity":0,"subtype":"noteOff"},{"deltaTime":2,"channel":9,"type":"channel","noteNumber":42,"velocity":110,"subtype":"noteOn"},{"deltaTime":46,"channel":9,"type":"channel","noteNumber":42,"velocity":0,"subtype":"noteOff"},{"deltaTime":2,"channel":9,"type":"channel","noteNumber":42,"velocity":110,"subtype":"noteOn"},{"deltaTime":46,"channel":9,"type":"channel","noteNumber":42,"velocity":0,"subtype":"noteOff"},{"deltaTime":2,"channel":9,"type":"channel","noteNumber":46,"velocity":110,"subtype":"noteOn"},{"deltaTime":94,"channel":9,"type":"channel","noteNumber":46,"velocity":0,"subtype":"noteOff"},{"deltaTime":2,"channel":9,"type":"channel","noteNumber":42,"velocity":110,"subtype":"noteOn"},{"deltaTime":46,"channel":9,"type":"channel","noteNumber":42,"velocity":0,"subtype":"noteOff"},{"deltaTime":2,"channel":9,"type":"channel","noteNumber":42,"velocity":110,"subtype":"noteOn"},{"deltaTime":46,"channel":9,"type":"channel","noteNumber":42,"velocity":0,"subtype":"noteOff"},{"deltaTime":2,"channel":9,"type":"channel","noteNumber":46,"velocity":110,"subtype":"noteOn"},{"deltaTime":94,"channel":9,"type":"channel","noteNumber":46,"velocity":0,"subtype":"noteOff"},{"deltaTime":2,"channel":9,"type":"channel","noteNumber":42,"velocity":110,"subtype":"noteOn"},{"deltaTime":46,"channel":9,"type":"channel","noteNumber":42,"velocity":0,"subtype":"noteOff"},{"deltaTime":2,"channel":9,"type":"channel","noteNumber":42,"velocity":110,"subtype":"noteOn"},{"deltaTime":46,"channel":9,"type":"channel","noteNumber":42,"velocity":0,"subtype":"noteOff"},{"deltaTime":2,"channel":9,"type":"channel","noteNumber":46,"velocity":110,"subtype":"noteOn"},{"deltaTime":94,"channel":9,"type":"channel","noteNumber":46,"velocity":0,"subtype":"noteOff"},{"deltaTime":2,"channel":9,"type":"channel","noteNumber":42,"velocity":110,"subtype":"noteOn"},{"deltaTime":46,"channel":9,"type":"channel","noteNumber":42,"velocity":0,"subtype":"noteOff"},{"deltaTime":2,"channel":9,"type":"channel","noteNumber":42,"velocity":110,"subtype":"noteOn"},{"deltaTime":46,"channel":9,"type":"channel","noteNumber":42,"velocity":0,"subtype":"noteOff"},{"deltaTime":2,"channel":9,"type":"channel","noteNumber":46,"velocity":110,"subtype":"noteOn"},{"deltaTime":94,"channel":9,"type":"channel","noteNumber":46,"velocity":0,"subtype":"noteOff"},{"deltaTime":2,"channel":9,"type":"channel","noteNumber":42,"velocity":110,"subtype":"noteOn"},{"deltaTime":46,"channel":9,"type":"channel","noteNumber":42,"velocity":0,"subtype":"noteOff"},{"deltaTime":2,"channel":9,"type":"channel","noteNumber":42,"velocity":110,"subtype":"noteOn"},{"deltaTime":46,"channel":9,"type":"channel","noteNumber":42,"velocity":0,"subtype":"noteOff"},{"deltaTime":2,"channel":9,"type":"channel","noteNumber":46,"velocity":110,"subtype":"noteOn"},{"deltaTime":94,"channel":9,"type":"channel","noteNumber":46,"velocity":0,"subtype":"noteOff"},{"deltaTime":2,"channel":9,"type":"channel","noteNumber":42,"velocity":110,"subtype":"noteOn"},{"deltaTime":46,"channel":9,"type":"channel","noteNumber":42,"velocity":0,"subtype":"noteOff"},{"deltaTime":2,"channel":9,"type":"channel","noteNumber":42,"velocity":110,"subtype":"noteOn"},{"deltaTime":46,"channel":9,"type":"channel","noteNumber":42,"velocity":0,"subtype":"noteOff"},{"deltaTime":2,"channel":9,"type":"channel","noteNumber":46,"velocity":110,"subtype":"noteOn"},{"deltaTime":94,"channel":9,"type":"channel","noteNumber":46,"velocity":0,"subtype":"noteOff"},{"deltaTime":2,"channel":9,"type":"channel","noteNumber":42,"velocity":110,"subtype":"noteOn"},{"deltaTime":46,"channel":9,"type":"channel","noteNumber":42,"velocity":0,"subtype":"noteOff"},{"deltaTime":2,"channel":9,"type":"channel","noteNumber":42,"velocity":110,"subtype":"noteOn"},{"deltaTime":46,"channel":9,"type":"channel","noteNumber":42,"velocity":0,"subtype":"noteOff"},{"deltaTime":2,"channel":9,"type":"channel","noteNumber":46,"velocity":110,"subtype":"noteOn"},{"deltaTime":94,"channel":9,"type":"channel","noteNumber":46,"velocity":0,"subtype":"noteOff"},{"deltaTime":2,"channel":9,"type":"channel","noteNumber":42,"velocity":110,"subtype":"noteOn"},{"deltaTime":46,"channel":9,"type":"channel","noteNumber":42,"velocity":0,"subtype":"noteOff"},{"deltaTime":2,"channel":9,"type":"channel","noteNumber":42,"velocity":110,"subtype":"noteOn"},{"deltaTime":46,"channel":9,"type":"channel","noteNumber":42,"velocity":0,"subtype":"noteOff"},{"deltaTime":2,"channel":9,"type":"channel","noteNumber":46,"velocity":110,"subtype":"noteOn"},{"deltaTime":94,"channel":9,"type":"channel","noteNumber":46,"velocity":0,"subtype":"noteOff"},{"deltaTime":2,"channel":9,"type":"channel","noteNumber":42,"velocity":110,"subtype":"noteOn"},{"deltaTime":46,"channel":9,"type":"channel","noteNumber":42,"velocity":0,"subtype":"noteOff"},{"deltaTime":2,"channel":9,"type":"channel","noteNumber":42,"velocity":110,"subtype":"noteOn"},{"deltaTime":46,"channel":9,"type":"channel","noteNumber":42,"velocity":0,"subtype":"noteOff"},{"deltaTime":2,"channel":9,"type":"channel","noteNumber":46,"velocity":110,"subtype":"noteOn"},{"deltaTime":94,"channel":9,"type":"channel","noteNumber":46,"velocity":0,"subtype":"noteOff"},{"deltaTime":2,"channel":9,"type":"channel","noteNumber":42,"velocity":110,"subtype":"noteOn"},{"deltaTime":46,"channel":9,"type":"channel","noteNumber":42,"velocity":0,"subtype":"noteOff"},{"deltaTime":2,"channel":9,"type":"channel","noteNumber":42,"velocity":110,"subtype":"noteOn"},{"deltaTime":46,"channel":9,"type":"channel","noteNumber":42,"velocity":0,"subtype":"noteOff"},{"deltaTime":2,"channel":9,"type":"channel","noteNumber":46,"velocity":110,"subtype":"noteOn"},{"deltaTime":94,"channel":9,"type":"channel","noteNumber":46,"velocity":0,"subtype":"noteOff"},{"deltaTime":2,"channel":9,"type":"channel","noteNumber":42,"velocity":110,"subtype":"noteOn"},{"deltaTime":46,"channel":9,"type":"channel","noteNumber":42,"velocity":0,"subtype":"noteOff"},{"deltaTime":2,"channel":9,"type":"channel","noteNumber":42,"velocity":110,"subtype":"noteOn"},{"deltaTime":46,"channel":9,"type":"channel","noteNumber":42,"velocity":0,"subtype":"noteOff"},{"deltaTime":2,"channel":9,"type":"channel","noteNumber":46,"velocity":110,"subtype":"noteOn"},{"deltaTime":94,"channel":9,"type":"channel","noteNumber":46,"velocity":0,"subtype":"noteOff"},{"deltaTime":2,"channel":9,"type":"channel","noteNumber":42,"velocity":110,"subtype":"noteOn"},{"deltaTime":46,"channel":9,"type":"channel","noteNumber":42,"velocity":0,"subtype":"noteOff"},{"deltaTime":2,"channel":9,"type":"channel","noteNumber":42,"velocity":110,"subtype":"noteOn"},{"deltaTime":46,"channel":9,"type":"channel","noteNumber":42,"velocity":0,"subtype":"noteOff"},{"deltaTime":2,"channel":9,"type":"channel","noteNumber":46,"velocity":110,"subtype":"noteOn"},{"deltaTime":94,"channel":9,"type":"channel","noteNumber":46,"velocity":0,"subtype":"noteOff"},{"deltaTime":2,"channel":9,"type":"channel","noteNumber":42,"velocity":110,"subtype":"noteOn"},{"deltaTime":46,"channel":9,"type":"channel","noteNumber":42,"velocity":0,"subtype":"noteOff"},{"deltaTime":2,"channel":9,"type":"channel","noteNumber":42,"velocity":110,"subtype":"noteOn"},{"deltaTime":46,"channel":9,"type":"channel","noteNumber":42,"velocity":0,"subtype":"noteOff"},{"deltaTime":2,"channel":9,"type":"channel","noteNumber":46,"velocity":110,"subtype":"noteOn"},{"deltaTime":94,"channel":9,"type":"channel","noteNumber":46,"velocity":0,"subtype":"noteOff"},{"deltaTime":2,"channel":9,"type":"channel","noteNumber":42,"velocity":110,"subtype":"noteOn"},{"deltaTime":46,"channel":9,"type":"channel","noteNumber":42,"velocity":0,"subtype":"noteOff"},{"deltaTime":2,"channel":9,"type":"channel","noteNumber":42,"velocity":110,"subtype":"noteOn"},{"deltaTime":46,"channel":9,"type":"channel","noteNumber":42,"velocity":0,"subtype":"noteOff"},{"deltaTime":2,"channel":9,"type":"channel","noteNumber":46,"velocity":110,"subtype":"noteOn"},{"deltaTime":94,"channel":9,"type":"channel","noteNumber":46,"velocity":0,"subtype":"noteOff"},{"deltaTime":2,"channel":9,"type":"channel","noteNumber":42,"velocity":110,"subtype":"noteOn"},{"deltaTime":46,"channel":9,"type":"channel","noteNumber":42,"velocity":0,"subtype":"noteOff"},{"deltaTime":2,"channel":9,"type":"channel","noteNumber":42,"velocity":110,"subtype":"noteOn"},{"deltaTime":46,"channel":9,"type":"channel","noteNumber":42,"velocity":0,"subtype":"noteOff"},{"deltaTime":2,"channel":9,"type":"channel","noteNumber":46,"velocity":110,"subtype":"noteOn"},{"deltaTime":94,"channel":9,"type":"channel","noteNumber":46,"velocity":0,"subtype":"noteOff"},{"deltaTime":2,"channel":9,"type":"channel","noteNumber":42,"velocity":110,"subtype":"noteOn"},{"deltaTime":46,"channel":9,"type":"channel","noteNumber":42,"velocity":0,"subtype":"noteOff"},{"deltaTime":2,"channel":9,"type":"channel","noteNumber":42,"velocity":110,"subtype":"noteOn"},{"deltaTime":46,"channel":9,"type":"channel","noteNumber":42,"velocity":0,"subtype":"noteOff"},{"deltaTime":2,"channel":9,"type":"channel","noteNumber":46,"velocity":110,"subtype":"noteOn"},{"deltaTime":94,"channel":9,"type":"channel","noteNumber":46,"velocity":0,"subtype":"noteOff"},{"deltaTime":2,"channel":9,"type":"channel","noteNumber":42,"velocity":110,"subtype":"noteOn"},{"deltaTime":46,"channel":9,"type":"channel","noteNumber":42,"velocity":0,"subtype":"noteOff"},{"deltaTime":2,"channel":9,"type":"channel","noteNumber":42,"velocity":110,"subtype":"noteOn"},{"deltaTime":46,"channel":9,"type":"channel","noteNumber":42,"velocity":0,"subtype":"noteOff"},{"deltaTime":2,"channel":9,"type":"channel","noteNumber":46,"velocity":110,"subtype":"noteOn"},{"deltaTime":94,"channel":9,"type":"channel","noteNumber":46,"velocity":0,"subtype":"noteOff"},{"deltaTime":2,"channel":9,"type":"channel","noteNumber":42,"velocity":110,"subtype":"noteOn"},{"deltaTime":46,"channel":9,"type":"channel","noteNumber":42,"velocity":0,"subtype":"noteOff"},{"deltaTime":2,"channel":9,"type":"channel","noteNumber":42,"velocity":110,"subtype":"noteOn"},{"deltaTime":46,"channel":9,"type":"channel","noteNumber":42,"velocity":0,"subtype":"noteOff"},{"deltaTime":2,"channel":9,"type":"channel","noteNumber":46,"velocity":110,"subtype":"noteOn"},{"deltaTime":94,"channel":9,"type":"channel","noteNumber":46,"velocity":0,"subtype":"noteOff"},{"deltaTime":2,"channel":9,"type":"channel","noteNumber":42,"velocity":110,"subtype":"noteOn"},{"deltaTime":46,"channel":9,"type":"channel","noteNumber":42,"velocity":0,"subtype":"noteOff"},{"deltaTime":2,"channel":9,"type":"channel","noteNumber":42,"velocity":110,"subtype":"noteOn"},{"deltaTime":46,"channel":9,"type":"channel","noteNumber":42,"velocity":0,"subtype":"noteOff"},{"deltaTime":2,"channel":9,"type":"channel","noteNumber":46,"velocity":110,"subtype":"noteOn"},{"deltaTime":94,"channel":9,"type":"channel","noteNumber":46,"velocity":0,"subtype":"noteOff"},{"deltaTime":2,"channel":9,"type":"channel","noteNumber":42,"velocity":110,"subtype":"noteOn"},{"deltaTime":46,"channel":9,"type":"channel","noteNumber":42,"velocity":0,"subtype":"noteOff"},{"deltaTime":2,"channel":9,"type":"channel","noteNumber":42,"velocity":110,"subtype":"noteOn"},{"deltaTime":46,"channel":9,"type":"channel","noteNumber":42,"velocity":0,"subtype":"noteOff"},{"deltaTime":2,"channel":9,"type":"channel","noteNumber":46,"velocity":110,"subtype":"noteOn"},{"deltaTime":94,"channel":9,"type":"channel","noteNumber":46,"velocity":0,"subtype":"noteOff"},{"deltaTime":2,"channel":9,"type":"channel","noteNumber":42,"velocity":110,"subtype":"noteOn"},{"deltaTime":46,"channel":9,"type":"channel","noteNumber":42,"velocity":0,"subtype":"noteOff"},{"deltaTime":2,"channel":9,"type":"channel","noteNumber":42,"velocity":110,"subtype":"noteOn"},{"deltaTime":46,"channel":9,"type":"channel","noteNumber":42,"velocity":0,"subtype":"noteOff"},{"deltaTime":2,"channel":9,"type":"channel","noteNumber":46,"velocity":110,"subtype":"noteOn"},{"deltaTime":94,"channel":9,"type":"channel","noteNumber":46,"velocity":0,"subtype":"noteOff"},{"deltaTime":2,"channel":9,"type":"channel","noteNumber":42,"velocity":110,"subtype":"noteOn"},{"deltaTime":46,"channel":9,"type":"channel","noteNumber":42,"velocity":0,"subtype":"noteOff"},{"deltaTime":2,"channel":9,"type":"channel","noteNumber":42,"velocity":110,"subtype":"noteOn"},{"deltaTime":46,"channel":9,"type":"channel","noteNumber":42,"velocity":0,"subtype":"noteOff"},{"deltaTime":2,"channel":9,"type":"channel","noteNumber":46,"velocity":110,"subtype":"noteOn"},{"deltaTime":94,"channel":9,"type":"channel","noteNumber":46,"velocity":0,"subtype":"noteOff"},{"deltaTime":2,"channel":9,"type":"channel","noteNumber":42,"velocity":110,"subtype":"noteOn"},{"deltaTime":46,"channel":9,"type":"channel","noteNumber":42,"velocity":0,"subtype":"noteOff"},{"deltaTime":2,"channel":9,"type":"channel","noteNumber":42,"velocity":110,"subtype":"noteOn"},{"deltaTime":46,"channel":9,"type":"channel","noteNumber":42,"velocity":0,"subtype":"noteOff"},{"deltaTime":2,"channel":9,"type":"channel","noteNumber":46,"velocity":110,"subtype":"noteOn"},{"deltaTime":94,"channel":9,"type":"channel","noteNumber":46,"velocity":0,"subtype":"noteOff"},{"deltaTime":2,"channel":9,"type":"channel","noteNumber":42,"velocity":110,"subtype":"noteOn"},{"deltaTime":46,"channel":9,"type":"channel","noteNumber":42,"velocity":0,"subtype":"noteOff"},{"deltaTime":2,"channel":9,"type":"channel","noteNumber":42,"velocity":110,"subtype":"noteOn"},{"deltaTime":46,"channel":9,"type":"channel","noteNumber":42,"velocity":0,"subtype":"noteOff"},{"deltaTime":2,"channel":9,"type":"channel","noteNumber":46,"velocity":110,"subtype":"noteOn"},{"deltaTime":94,"channel":9,"type":"channel","noteNumber":46,"velocity":0,"subtype":"noteOff"},{"deltaTime":2,"channel":9,"type":"channel","noteNumber":42,"velocity":110,"subtype":"noteOn"},{"deltaTime":46,"channel":9,"type":"channel","noteNumber":42,"velocity":0,"subtype":"noteOff"},{"deltaTime":2,"channel":9,"type":"channel","noteNumber":42,"velocity":110,"subtype":"noteOn"},{"deltaTime":46,"channel":9,"type":"channel","noteNumber":42,"velocity":0,"subtype":"noteOff"},{"deltaTime":2,"channel":9,"type":"channel","noteNumber":46,"velocity":110,"subtype":"noteOn"},{"deltaTime":94,"channel":9,"type":"channel","noteNumber":46,"velocity":0,"subtype":"noteOff"},{"deltaTime":2,"channel":9,"type":"channel","noteNumber":49,"velocity":110,"subtype":"noteOn"},{"deltaTime":160,"channel":9,"type":"channel","noteNumber":49,"velocity":0,"subtype":"noteOff"},{"deltaTime":608,"channel":9,"type":"channel","noteNumber":42,"velocity":110,"subtype":"noteOn"},{"deltaTime":46,"channel":9,"type":"channel","noteNumber":42,"velocity":0,"subtype":"noteOff"},{"deltaTime":2,"channel":9,"type":"channel","noteNumber":42,"velocity":110,"subtype":"noteOn"},{"deltaTime":46,"channel":9,"type":"channel","noteNumber":42,"velocity":0,"subtype":"noteOff"},{"deltaTime":2,"channel":9,"type":"channel","noteNumber":46,"velocity":110,"subtype":"noteOn"},{"deltaTime":94,"channel":9,"type":"channel","noteNumber":46,"velocity":0,"subtype":"noteOff"},{"deltaTime":2,"channel":9,"type":"channel","noteNumber":42,"velocity":110,"subtype":"noteOn"},{"deltaTime":46,"channel":9,"type":"channel","noteNumber":42,"velocity":0,"subtype":"noteOff"},{"deltaTime":2,"channel":9,"type":"channel","noteNumber":42,"velocity":110,"subtype":"noteOn"},{"deltaTime":46,"channel":9,"type":"channel","noteNumber":42,"velocity":0,"subtype":"noteOff"},{"deltaTime":2,"channel":9,"type":"channel","noteNumber":46,"velocity":110,"subtype":"noteOn"},{"deltaTime":94,"channel":9,"type":"channel","noteNumber":46,"velocity":0,"subtype":"noteOff"},{"deltaTime":2,"channel":9,"type":"channel","noteNumber":42,"velocity":110,"subtype":"noteOn"},{"deltaTime":46,"channel":9,"type":"channel","noteNumber":42,"velocity":0,"subtype":"noteOff"},{"deltaTime":2,"channel":9,"type":"channel","noteNumber":42,"velocity":110,"subtype":"noteOn"},{"deltaTime":46,"channel":9,"type":"channel","noteNumber":42,"velocity":0,"subtype":"noteOff"},{"deltaTime":2,"channel":9,"type":"channel","noteNumber":46,"velocity":110,"subtype":"noteOn"},{"deltaTime":94,"channel":9,"type":"channel","noteNumber":46,"velocity":0,"subtype":"noteOff"},{"deltaTime":2,"channel":9,"type":"channel","noteNumber":42,"velocity":110,"subtype":"noteOn"},{"deltaTime":46,"channel":9,"type":"channel","noteNumber":42,"velocity":0,"subtype":"noteOff"},{"deltaTime":2,"channel":9,"type":"channel","noteNumber":42,"velocity":110,"subtype":"noteOn"},{"deltaTime":46,"channel":9,"type":"channel","noteNumber":42,"velocity":0,"subtype":"noteOff"},{"deltaTime":2,"channel":9,"type":"channel","noteNumber":46,"velocity":110,"subtype":"noteOn"},{"deltaTime":94,"channel":9,"type":"channel","noteNumber":46,"velocity":0,"subtype":"noteOff"},{"deltaTime":2,"channel":9,"type":"channel","noteNumber":42,"velocity":110,"subtype":"noteOn"},{"deltaTime":46,"channel":9,"type":"channel","noteNumber":42,"velocity":0,"subtype":"noteOff"},{"deltaTime":2,"channel":9,"type":"channel","noteNumber":42,"velocity":110,"subtype":"noteOn"},{"deltaTime":46,"channel":9,"type":"channel","noteNumber":42,"velocity":0,"subtype":"noteOff"},{"deltaTime":2,"channel":9,"type":"channel","noteNumber":46,"velocity":110,"subtype":"noteOn"},{"deltaTime":94,"channel":9,"type":"channel","noteNumber":46,"velocity":0,"subtype":"noteOff"},{"deltaTime":2,"channel":9,"type":"channel","noteNumber":42,"velocity":110,"subtype":"noteOn"},{"deltaTime":46,"channel":9,"type":"channel","noteNumber":42,"velocity":0,"subtype":"noteOff"},{"deltaTime":2,"channel":9,"type":"channel","noteNumber":42,"velocity":110,"subtype":"noteOn"},{"deltaTime":46,"channel":9,"type":"channel","noteNumber":42,"velocity":0,"subtype":"noteOff"},{"deltaTime":2,"channel":9,"type":"channel","noteNumber":46,"velocity":110,"subtype":"noteOn"},{"deltaTime":94,"channel":9,"type":"channel","noteNumber":46,"velocity":0,"subtype":"noteOff"},{"deltaTime":2,"channel":9,"type":"channel","noteNumber":42,"velocity":110,"subtype":"noteOn"},{"deltaTime":46,"channel":9,"type":"channel","noteNumber":42,"velocity":0,"subtype":"noteOff"},{"deltaTime":2,"channel":9,"type":"channel","noteNumber":42,"velocity":110,"subtype":"noteOn"},{"deltaTime":46,"channel":9,"type":"channel","noteNumber":42,"velocity":0,"subtype":"noteOff"},{"deltaTime":2,"channel":9,"type":"channel","noteNumber":46,"velocity":110,"subtype":"noteOn"},{"deltaTime":94,"channel":9,"type":"channel","noteNumber":46,"velocity":0,"subtype":"noteOff"},{"deltaTime":2,"channel":9,"type":"channel","noteNumber":42,"velocity":110,"subtype":"noteOn"},{"deltaTime":46,"channel":9,"type":"channel","noteNumber":42,"velocity":0,"subtype":"noteOff"},{"deltaTime":2,"channel":9,"type":"channel","noteNumber":42,"velocity":110,"subtype":"noteOn"},{"deltaTime":46,"channel":9,"type":"channel","noteNumber":42,"velocity":0,"subtype":"noteOff"},{"deltaTime":2,"channel":9,"type":"channel","noteNumber":46,"velocity":110,"subtype":"noteOn"},{"deltaTime":94,"channel":9,"type":"channel","noteNumber":46,"velocity":0,"subtype":"noteOff"},{"deltaTime":2,"channel":9,"type":"channel","noteNumber":42,"velocity":110,"subtype":"noteOn"},{"deltaTime":46,"channel":9,"type":"channel","noteNumber":42,"velocity":0,"subtype":"noteOff"},{"deltaTime":2,"channel":9,"type":"channel","noteNumber":42,"velocity":110,"subtype":"noteOn"},{"deltaTime":46,"channel":9,"type":"channel","noteNumber":42,"velocity":0,"subtype":"noteOff"},{"deltaTime":2,"channel":9,"type":"channel","noteNumber":46,"velocity":110,"subtype":"noteOn"},{"deltaTime":94,"channel":9,"type":"channel","noteNumber":46,"velocity":0,"subtype":"noteOff"},{"deltaTime":2,"channel":9,"type":"channel","noteNumber":42,"velocity":110,"subtype":"noteOn"},{"deltaTime":46,"channel":9,"type":"channel","noteNumber":42,"velocity":0,"subtype":"noteOff"},{"deltaTime":2,"channel":9,"type":"channel","noteNumber":42,"velocity":110,"subtype":"noteOn"},{"deltaTime":46,"channel":9,"type":"channel","noteNumber":42,"velocity":0,"subtype":"noteOff"},{"deltaTime":2,"channel":9,"type":"channel","noteNumber":46,"velocity":110,"subtype":"noteOn"},{"deltaTime":94,"channel":9,"type":"channel","noteNumber":46,"velocity":0,"subtype":"noteOff"},{"deltaTime":2,"channel":9,"type":"channel","noteNumber":42,"velocity":110,"subtype":"noteOn"},{"deltaTime":46,"channel":9,"type":"channel","noteNumber":42,"velocity":0,"subtype":"noteOff"},{"deltaTime":2,"channel":9,"type":"channel","noteNumber":42,"velocity":110,"subtype":"noteOn"},{"deltaTime":46,"channel":9,"type":"channel","noteNumber":42,"velocity":0,"subtype":"noteOff"},{"deltaTime":2,"channel":9,"type":"channel","noteNumber":46,"velocity":110,"subtype":"noteOn"},{"deltaTime":94,"channel":9,"type":"channel","noteNumber":46,"velocity":0,"subtype":"noteOff"},{"deltaTime":2,"channel":9,"type":"channel","noteNumber":42,"velocity":110,"subtype":"noteOn"},{"deltaTime":46,"channel":9,"type":"channel","noteNumber":42,"velocity":0,"subtype":"noteOff"},{"deltaTime":2,"channel":9,"type":"channel","noteNumber":42,"velocity":110,"subtype":"noteOn"},{"deltaTime":46,"channel":9,"type":"channel","noteNumber":42,"velocity":0,"subtype":"noteOff"},{"deltaTime":2,"channel":9,"type":"channel","noteNumber":46,"velocity":110,"subtype":"noteOn"},{"deltaTime":94,"channel":9,"type":"channel","noteNumber":46,"velocity":0,"subtype":"noteOff"},{"deltaTime":2,"channel":9,"type":"channel","noteNumber":42,"velocity":110,"subtype":"noteOn"},{"deltaTime":46,"channel":9,"type":"channel","noteNumber":42,"velocity":0,"subtype":"noteOff"},{"deltaTime":2,"channel":9,"type":"channel","noteNumber":42,"velocity":110,"subtype":"noteOn"},{"deltaTime":46,"channel":9,"type":"channel","noteNumber":42,"velocity":0,"subtype":"noteOff"},{"deltaTime":2,"channel":9,"type":"channel","noteNumber":46,"velocity":110,"subtype":"noteOn"},{"deltaTime":94,"channel":9,"type":"channel","noteNumber":46,"velocity":0,"subtype":"noteOff"},{"deltaTime":2,"channel":9,"type":"channel","noteNumber":42,"velocity":110,"subtype":"noteOn"},{"deltaTime":46,"channel":9,"type":"channel","noteNumber":42,"velocity":0,"subtype":"noteOff"},{"deltaTime":2,"channel":9,"type":"channel","noteNumber":42,"velocity":110,"subtype":"noteOn"},{"deltaTime":46,"channel":9,"type":"channel","noteNumber":42,"velocity":0,"subtype":"noteOff"},{"deltaTime":2,"channel":9,"type":"channel","noteNumber":46,"velocity":110,"subtype":"noteOn"},{"deltaTime":94,"channel":9,"type":"channel","noteNumber":46,"velocity":0,"subtype":"noteOff"},{"deltaTime":2,"channel":9,"type":"channel","noteNumber":42,"velocity":110,"subtype":"noteOn"},{"deltaTime":46,"channel":9,"type":"channel","noteNumber":42,"velocity":0,"subtype":"noteOff"},{"deltaTime":2,"channel":9,"type":"channel","noteNumber":42,"velocity":110,"subtype":"noteOn"},{"deltaTime":46,"channel":9,"type":"channel","noteNumber":42,"velocity":0,"subtype":"noteOff"},{"deltaTime":2,"channel":9,"type":"channel","noteNumber":46,"velocity":110,"subtype":"noteOn"},{"deltaTime":94,"channel":9,"type":"channel","noteNumber":46,"velocity":0,"subtype":"noteOff"},{"deltaTime":2,"channel":9,"type":"channel","noteNumber":42,"velocity":110,"subtype":"noteOn"},{"deltaTime":46,"channel":9,"type":"channel","noteNumber":42,"velocity":0,"subtype":"noteOff"},{"deltaTime":2,"channel":9,"type":"channel","noteNumber":42,"velocity":110,"subtype":"noteOn"},{"deltaTime":46,"channel":9,"type":"channel","noteNumber":42,"velocity":0,"subtype":"noteOff"},{"deltaTime":2,"channel":9,"type":"channel","noteNumber":46,"velocity":110,"subtype":"noteOn"},{"deltaTime":94,"channel":9,"type":"channel","noteNumber":46,"velocity":0,"subtype":"noteOff"},{"deltaTime":2,"channel":9,"type":"channel","noteNumber":42,"velocity":110,"subtype":"noteOn"},{"deltaTime":46,"channel":9,"type":"channel","noteNumber":42,"velocity":0,"subtype":"noteOff"},{"deltaTime":2,"channel":9,"type":"channel","noteNumber":42,"velocity":110,"subtype":"noteOn"},{"deltaTime":46,"channel":9,"type":"channel","noteNumber":42,"velocity":0,"subtype":"noteOff"},{"deltaTime":2,"channel":9,"type":"channel","noteNumber":46,"velocity":110,"subtype":"noteOn"},{"deltaTime":94,"channel":9,"type":"channel","noteNumber":46,"velocity":0,"subtype":"noteOff"},{"deltaTime":2,"channel":9,"type":"channel","noteNumber":42,"velocity":110,"subtype":"noteOn"},{"deltaTime":46,"channel":9,"type":"channel","noteNumber":42,"velocity":0,"subtype":"noteOff"},{"deltaTime":2,"channel":9,"type":"channel","noteNumber":42,"velocity":110,"subtype":"noteOn"},{"deltaTime":46,"channel":9,"type":"channel","noteNumber":42,"velocity":0,"subtype":"noteOff"},{"deltaTime":2,"channel":9,"type":"channel","noteNumber":46,"velocity":110,"subtype":"noteOn"},{"deltaTime":94,"channel":9,"type":"channel","noteNumber":46,"velocity":0,"subtype":"noteOff"},{"deltaTime":2,"channel":9,"type":"channel","noteNumber":42,"velocity":110,"subtype":"noteOn"},{"deltaTime":46,"channel":9,"type":"channel","noteNumber":42,"velocity":0,"subtype":"noteOff"},{"deltaTime":2,"channel":9,"type":"channel","noteNumber":42,"velocity":110,"subtype":"noteOn"},{"deltaTime":46,"channel":9,"type":"channel","noteNumber":42,"velocity":0,"subtype":"noteOff"},{"deltaTime":2,"channel":9,"type":"channel","noteNumber":46,"velocity":110,"subtype":"noteOn"},{"deltaTime":94,"channel":9,"type":"channel","noteNumber":46,"velocity":0,"subtype":"noteOff"},{"deltaTime":2,"channel":9,"type":"channel","noteNumber":42,"velocity":110,"subtype":"noteOn"},{"deltaTime":46,"channel":9,"type":"channel","noteNumber":42,"velocity":0,"subtype":"noteOff"},{"deltaTime":2,"channel":9,"type":"channel","noteNumber":42,"velocity":110,"subtype":"noteOn"},{"deltaTime":46,"channel":9,"type":"channel","noteNumber":42,"velocity":0,"subtype":"noteOff"},{"deltaTime":2,"channel":9,"type":"channel","noteNumber":46,"velocity":110,"subtype":"noteOn"},{"deltaTime":94,"channel":9,"type":"channel","noteNumber":46,"velocity":0,"subtype":"noteOff"},{"deltaTime":2,"channel":9,"type":"channel","noteNumber":42,"velocity":110,"subtype":"noteOn"},{"deltaTime":46,"channel":9,"type":"channel","noteNumber":42,"velocity":0,"subtype":"noteOff"},{"deltaTime":2,"channel":9,"type":"channel","noteNumber":42,"velocity":110,"subtype":"noteOn"},{"deltaTime":46,"channel":9,"type":"channel","noteNumber":42,"velocity":0,"subtype":"noteOff"},{"deltaTime":2,"channel":9,"type":"channel","noteNumber":46,"velocity":110,"subtype":"noteOn"},{"deltaTime":94,"channel":9,"type":"channel","noteNumber":46,"velocity":0,"subtype":"noteOff"},{"deltaTime":2,"channel":9,"type":"channel","noteNumber":42,"velocity":110,"subtype":"noteOn"},{"deltaTime":46,"channel":9,"type":"channel","noteNumber":42,"velocity":0,"subtype":"noteOff"},{"deltaTime":2,"channel":9,"type":"channel","noteNumber":42,"velocity":110,"subtype":"noteOn"},{"deltaTime":46,"channel":9,"type":"channel","noteNumber":42,"velocity":0,"subtype":"noteOff"},{"deltaTime":2,"channel":9,"type":"channel","noteNumber":46,"velocity":110,"subtype":"noteOn"},{"deltaTime":94,"channel":9,"type":"channel","noteNumber":46,"velocity":0,"subtype":"noteOff"},{"deltaTime":2,"channel":9,"type":"channel","noteNumber":42,"velocity":110,"subtype":"noteOn"},{"deltaTime":46,"channel":9,"type":"channel","noteNumber":42,"velocity":0,"subtype":"noteOff"},{"deltaTime":2,"channel":9,"type":"channel","noteNumber":42,"velocity":110,"subtype":"noteOn"},{"deltaTime":46,"channel":9,"type":"channel","noteNumber":42,"velocity":0,"subtype":"noteOff"},{"deltaTime":2,"channel":9,"type":"channel","noteNumber":46,"velocity":110,"subtype":"noteOn"},{"deltaTime":94,"channel":9,"type":"channel","noteNumber":46,"velocity":0,"subtype":"noteOff"},{"deltaTime":2,"channel":9,"type":"channel","noteNumber":42,"velocity":110,"subtype":"noteOn"},{"deltaTime":46,"channel":9,"type":"channel","noteNumber":42,"velocity":0,"subtype":"noteOff"},{"deltaTime":2,"channel":9,"type":"channel","noteNumber":42,"velocity":110,"subtype":"noteOn"},{"deltaTime":46,"channel":9,"type":"channel","noteNumber":42,"velocity":0,"subtype":"noteOff"},{"deltaTime":2,"channel":9,"type":"channel","noteNumber":46,"velocity":110,"subtype":"noteOn"},{"deltaTime":94,"channel":9,"type":"channel","noteNumber":46,"velocity":0,"subtype":"noteOff"},{"deltaTime":2,"channel":9,"type":"channel","noteNumber":42,"velocity":110,"subtype":"noteOn"},{"deltaTime":46,"channel":9,"type":"channel","noteNumber":42,"velocity":0,"subtype":"noteOff"},{"deltaTime":2,"channel":9,"type":"channel","noteNumber":42,"velocity":110,"subtype":"noteOn"},{"deltaTime":46,"channel":9,"type":"channel","noteNumber":42,"velocity":0,"subtype":"noteOff"},{"deltaTime":2,"channel":9,"type":"channel","noteNumber":46,"velocity":110,"subtype":"noteOn"},{"deltaTime":94,"channel":9,"type":"channel","noteNumber":46,"velocity":0,"subtype":"noteOff"},{"deltaTime":2,"channel":9,"type":"channel","noteNumber":42,"velocity":110,"subtype":"noteOn"},{"deltaTime":46,"channel":9,"type":"channel","noteNumber":42,"velocity":0,"subtype":"noteOff"},{"deltaTime":2,"channel":9,"type":"channel","noteNumber":42,"velocity":110,"subtype":"noteOn"},{"deltaTime":46,"channel":9,"type":"channel","noteNumber":42,"velocity":0,"subtype":"noteOff"},{"deltaTime":2,"channel":9,"type":"channel","noteNumber":46,"velocity":110,"subtype":"noteOn"},{"deltaTime":94,"channel":9,"type":"channel","noteNumber":46,"velocity":0,"subtype":"noteOff"},{"deltaTime":2,"channel":9,"type":"channel","noteNumber":42,"velocity":110,"subtype":"noteOn"},{"deltaTime":46,"channel":9,"type":"channel","noteNumber":42,"velocity":0,"subtype":"noteOff"},{"deltaTime":2,"channel":9,"type":"channel","noteNumber":42,"velocity":110,"subtype":"noteOn"},{"deltaTime":46,"channel":9,"type":"channel","noteNumber":42,"velocity":0,"subtype":"noteOff"},{"deltaTime":2,"channel":9,"type":"channel","noteNumber":46,"velocity":110,"subtype":"noteOn"},{"deltaTime":94,"channel":9,"type":"channel","noteNumber":46,"velocity":0,"subtype":"noteOff"},{"deltaTime":2,"channel":9,"type":"channel","noteNumber":42,"velocity":110,"subtype":"noteOn"},{"deltaTime":46,"channel":9,"type":"channel","noteNumber":42,"velocity":0,"subtype":"noteOff"},{"deltaTime":2,"channel":9,"type":"channel","noteNumber":42,"velocity":110,"subtype":"noteOn"},{"deltaTime":46,"channel":9,"type":"channel","noteNumber":42,"velocity":0,"subtype":"noteOff"},{"deltaTime":2,"channel":9,"type":"channel","noteNumber":46,"velocity":110,"subtype":"noteOn"},{"deltaTime":94,"channel":9,"type":"channel","noteNumber":46,"velocity":0,"subtype":"noteOff"},{"deltaTime":2,"channel":9,"type":"channel","noteNumber":49,"velocity":110,"subtype":"noteOn"},{"deltaTime":160,"channel":9,"type":"channel","noteNumber":49,"velocity":0,"subtype":"noteOff"},{"deltaTime":608,"channel":9,"type":"channel","noteNumber":42,"velocity":110,"subtype":"noteOn"},{"deltaTime":46,"channel":9,"type":"channel","noteNumber":42,"velocity":0,"subtype":"noteOff"},{"deltaTime":2,"channel":9,"type":"channel","noteNumber":42,"velocity":110,"subtype":"noteOn"},{"deltaTime":46,"channel":9,"type":"channel","noteNumber":42,"velocity":0,"subtype":"noteOff"},{"deltaTime":2,"channel":9,"type":"channel","noteNumber":46,"velocity":110,"subtype":"noteOn"},{"deltaTime":94,"channel":9,"type":"channel","noteNumber":46,"velocity":0,"subtype":"noteOff"},{"deltaTime":2,"channel":9,"type":"channel","noteNumber":42,"velocity":110,"subtype":"noteOn"},{"deltaTime":46,"channel":9,"type":"channel","noteNumber":42,"velocity":0,"subtype":"noteOff"},{"deltaTime":2,"channel":9,"type":"channel","noteNumber":42,"velocity":110,"subtype":"noteOn"},{"deltaTime":46,"channel":9,"type":"channel","noteNumber":42,"velocity":0,"subtype":"noteOff"},{"deltaTime":2,"channel":9,"type":"channel","noteNumber":46,"velocity":110,"subtype":"noteOn"},{"deltaTime":94,"channel":9,"type":"channel","noteNumber":46,"velocity":0,"subtype":"noteOff"},{"deltaTime":2,"channel":9,"type":"channel","noteNumber":42,"velocity":110,"subtype":"noteOn"},{"deltaTime":46,"channel":9,"type":"channel","noteNumber":42,"velocity":0,"subtype":"noteOff"},{"deltaTime":2,"channel":9,"type":"channel","noteNumber":42,"velocity":110,"subtype":"noteOn"},{"deltaTime":46,"channel":9,"type":"channel","noteNumber":42,"velocity":0,"subtype":"noteOff"},{"deltaTime":2,"channel":9,"type":"channel","noteNumber":46,"velocity":110,"subtype":"noteOn"},{"deltaTime":94,"channel":9,"type":"channel","noteNumber":46,"velocity":0,"subtype":"noteOff"},{"deltaTime":2,"channel":9,"type":"channel","noteNumber":42,"velocity":110,"subtype":"noteOn"},{"deltaTime":46,"channel":9,"type":"channel","noteNumber":42,"velocity":0,"subtype":"noteOff"},{"deltaTime":2,"channel":9,"type":"channel","noteNumber":42,"velocity":110,"subtype":"noteOn"},{"deltaTime":46,"channel":9,"type":"channel","noteNumber":42,"velocity":0,"subtype":"noteOff"},{"deltaTime":2,"channel":9,"type":"channel","noteNumber":46,"velocity":110,"subtype":"noteOn"},{"deltaTime":94,"channel":9,"type":"channel","noteNumber":46,"velocity":0,"subtype":"noteOff"},{"deltaTime":2,"channel":9,"type":"channel","noteNumber":42,"velocity":110,"subtype":"noteOn"},{"deltaTime":46,"channel":9,"type":"channel","noteNumber":42,"velocity":0,"subtype":"noteOff"},{"deltaTime":2,"channel":9,"type":"channel","noteNumber":42,"velocity":110,"subtype":"noteOn"},{"deltaTime":46,"channel":9,"type":"channel","noteNumber":42,"velocity":0,"subtype":"noteOff"},{"deltaTime":2,"channel":9,"type":"channel","noteNumber":46,"velocity":110,"subtype":"noteOn"},{"deltaTime":94,"channel":9,"type":"channel","noteNumber":46,"velocity":0,"subtype":"noteOff"},{"deltaTime":2,"channel":9,"type":"channel","noteNumber":42,"velocity":110,"subtype":"noteOn"},{"deltaTime":46,"channel":9,"type":"channel","noteNumber":42,"velocity":0,"subtype":"noteOff"},{"deltaTime":2,"channel":9,"type":"channel","noteNumber":42,"velocity":110,"subtype":"noteOn"},{"deltaTime":46,"channel":9,"type":"channel","noteNumber":42,"velocity":0,"subtype":"noteOff"},{"deltaTime":2,"channel":9,"type":"channel","noteNumber":46,"velocity":110,"subtype":"noteOn"},{"deltaTime":94,"channel":9,"type":"channel","noteNumber":46,"velocity":0,"subtype":"noteOff"},{"deltaTime":2,"channel":9,"type":"channel","noteNumber":42,"velocity":110,"subtype":"noteOn"},{"deltaTime":46,"channel":9,"type":"channel","noteNumber":42,"velocity":0,"subtype":"noteOff"},{"deltaTime":2,"channel":9,"type":"channel","noteNumber":42,"velocity":110,"subtype":"noteOn"},{"deltaTime":46,"channel":9,"type":"channel","noteNumber":42,"velocity":0,"subtype":"noteOff"},{"deltaTime":2,"channel":9,"type":"channel","noteNumber":46,"velocity":110,"subtype":"noteOn"},{"deltaTime":94,"channel":9,"type":"channel","noteNumber":46,"velocity":0,"subtype":"noteOff"},{"deltaTime":2,"channel":9,"type":"channel","noteNumber":42,"velocity":110,"subtype":"noteOn"},{"deltaTime":46,"channel":9,"type":"channel","noteNumber":42,"velocity":0,"subtype":"noteOff"},{"deltaTime":2,"channel":9,"type":"channel","noteNumber":42,"velocity":110,"subtype":"noteOn"},{"deltaTime":46,"channel":9,"type":"channel","noteNumber":42,"velocity":0,"subtype":"noteOff"},{"deltaTime":2,"channel":9,"type":"channel","noteNumber":46,"velocity":110,"subtype":"noteOn"},{"deltaTime":94,"channel":9,"type":"channel","noteNumber":46,"velocity":0,"subtype":"noteOff"},{"deltaTime":2,"channel":9,"type":"channel","noteNumber":42,"velocity":110,"subtype":"noteOn"},{"deltaTime":46,"channel":9,"type":"channel","noteNumber":42,"velocity":0,"subtype":"noteOff"},{"deltaTime":2,"channel":9,"type":"channel","noteNumber":42,"velocity":110,"subtype":"noteOn"},{"deltaTime":46,"channel":9,"type":"channel","noteNumber":42,"velocity":0,"subtype":"noteOff"},{"deltaTime":2,"channel":9,"type":"channel","noteNumber":46,"velocity":110,"subtype":"noteOn"},{"deltaTime":94,"channel":9,"type":"channel","noteNumber":46,"velocity":0,"subtype":"noteOff"},{"deltaTime":2,"channel":9,"type":"channel","noteNumber":42,"velocity":110,"subtype":"noteOn"},{"deltaTime":46,"channel":9,"type":"channel","noteNumber":42,"velocity":0,"subtype":"noteOff"},{"deltaTime":2,"channel":9,"type":"channel","noteNumber":42,"velocity":110,"subtype":"noteOn"},{"deltaTime":46,"channel":9,"type":"channel","noteNumber":42,"velocity":0,"subtype":"noteOff"},{"deltaTime":2,"channel":9,"type":"channel","noteNumber":46,"velocity":110,"subtype":"noteOn"},{"deltaTime":94,"channel":9,"type":"channel","noteNumber":46,"velocity":0,"subtype":"noteOff"},{"deltaTime":2,"channel":9,"type":"channel","noteNumber":42,"velocity":110,"subtype":"noteOn"},{"deltaTime":46,"channel":9,"type":"channel","noteNumber":42,"velocity":0,"subtype":"noteOff"},{"deltaTime":2,"channel":9,"type":"channel","noteNumber":42,"velocity":110,"subtype":"noteOn"},{"deltaTime":46,"channel":9,"type":"channel","noteNumber":42,"velocity":0,"subtype":"noteOff"},{"deltaTime":2,"channel":9,"type":"channel","noteNumber":46,"velocity":110,"subtype":"noteOn"},{"deltaTime":94,"channel":9,"type":"channel","noteNumber":46,"velocity":0,"subtype":"noteOff"},{"deltaTime":2,"channel":9,"type":"channel","noteNumber":42,"velocity":110,"subtype":"noteOn"},{"deltaTime":46,"channel":9,"type":"channel","noteNumber":42,"velocity":0,"subtype":"noteOff"},{"deltaTime":2,"channel":9,"type":"channel","noteNumber":42,"velocity":110,"subtype":"noteOn"},{"deltaTime":46,"channel":9,"type":"channel","noteNumber":42,"velocity":0,"subtype":"noteOff"},{"deltaTime":2,"channel":9,"type":"channel","noteNumber":46,"velocity":110,"subtype":"noteOn"},{"deltaTime":94,"channel":9,"type":"channel","noteNumber":46,"velocity":0,"subtype":"noteOff"},{"deltaTime":2,"channel":9,"type":"channel","noteNumber":42,"velocity":110,"subtype":"noteOn"},{"deltaTime":46,"channel":9,"type":"channel","noteNumber":42,"velocity":0,"subtype":"noteOff"},{"deltaTime":2,"channel":9,"type":"channel","noteNumber":42,"velocity":110,"subtype":"noteOn"},{"deltaTime":46,"channel":9,"type":"channel","noteNumber":42,"velocity":0,"subtype":"noteOff"},{"deltaTime":2,"channel":9,"type":"channel","noteNumber":46,"velocity":110,"subtype":"noteOn"},{"deltaTime":94,"channel":9,"type":"channel","noteNumber":46,"velocity":0,"subtype":"noteOff"},{"deltaTime":2,"channel":9,"type":"channel","noteNumber":42,"velocity":110,"subtype":"noteOn"},{"deltaTime":46,"channel":9,"type":"channel","noteNumber":42,"velocity":0,"subtype":"noteOff"},{"deltaTime":2,"channel":9,"type":"channel","noteNumber":42,"velocity":110,"subtype":"noteOn"},{"deltaTime":46,"channel":9,"type":"channel","noteNumber":42,"velocity":0,"subtype":"noteOff"},{"deltaTime":2,"channel":9,"type":"channel","noteNumber":46,"velocity":110,"subtype":"noteOn"},{"deltaTime":94,"channel":9,"type":"channel","noteNumber":46,"velocity":0,"subtype":"noteOff"},{"deltaTime":2,"channel":9,"type":"channel","noteNumber":42,"velocity":110,"subtype":"noteOn"},{"deltaTime":46,"channel":9,"type":"channel","noteNumber":42,"velocity":0,"subtype":"noteOff"},{"deltaTime":2,"channel":9,"type":"channel","noteNumber":42,"velocity":110,"subtype":"noteOn"},{"deltaTime":46,"channel":9,"type":"channel","noteNumber":42,"velocity":0,"subtype":"noteOff"},{"deltaTime":2,"channel":9,"type":"channel","noteNumber":46,"velocity":110,"subtype":"noteOn"},{"deltaTime":94,"channel":9,"type":"channel","noteNumber":46,"velocity":0,"subtype":"noteOff"},{"deltaTime":2,"channel":9,"type":"channel","noteNumber":42,"velocity":110,"subtype":"noteOn"},{"deltaTime":46,"channel":9,"type":"channel","noteNumber":42,"velocity":0,"subtype":"noteOff"},{"deltaTime":2,"channel":9,"type":"channel","noteNumber":42,"velocity":110,"subtype":"noteOn"},{"deltaTime":46,"channel":9,"type":"channel","noteNumber":42,"velocity":0,"subtype":"noteOff"},{"deltaTime":2,"channel":9,"type":"channel","noteNumber":46,"velocity":110,"subtype":"noteOn"},{"deltaTime":94,"channel":9,"type":"channel","noteNumber":46,"velocity":0,"subtype":"noteOff"},{"deltaTime":2,"channel":9,"type":"channel","noteNumber":42,"velocity":110,"subtype":"noteOn"},{"deltaTime":46,"channel":9,"type":"channel","noteNumber":42,"velocity":0,"subtype":"noteOff"},{"deltaTime":2,"channel":9,"type":"channel","noteNumber":42,"velocity":110,"subtype":"noteOn"},{"deltaTime":46,"channel":9,"type":"channel","noteNumber":42,"velocity":0,"subtype":"noteOff"},{"deltaTime":2,"channel":9,"type":"channel","noteNumber":46,"velocity":110,"subtype":"noteOn"},{"deltaTime":94,"channel":9,"type":"channel","noteNumber":46,"velocity":0,"subtype":"noteOff"},{"deltaTime":2,"channel":9,"type":"channel","noteNumber":42,"velocity":110,"subtype":"noteOn"},{"deltaTime":46,"channel":9,"type":"channel","noteNumber":42,"velocity":0,"subtype":"noteOff"},{"deltaTime":2,"channel":9,"type":"channel","noteNumber":42,"velocity":110,"subtype":"noteOn"},{"deltaTime":46,"channel":9,"type":"channel","noteNumber":42,"velocity":0,"subtype":"noteOff"},{"deltaTime":2,"channel":9,"type":"channel","noteNumber":46,"velocity":110,"subtype":"noteOn"},{"deltaTime":94,"channel":9,"type":"channel","noteNumber":46,"velocity":0,"subtype":"noteOff"},{"deltaTime":2,"channel":9,"type":"channel","noteNumber":42,"velocity":110,"subtype":"noteOn"},{"deltaTime":46,"channel":9,"type":"channel","noteNumber":42,"velocity":0,"subtype":"noteOff"},{"deltaTime":2,"channel":9,"type":"channel","noteNumber":42,"velocity":110,"subtype":"noteOn"},{"deltaTime":46,"channel":9,"type":"channel","noteNumber":42,"velocity":0,"subtype":"noteOff"},{"deltaTime":2,"channel":9,"type":"channel","noteNumber":46,"velocity":110,"subtype":"noteOn"},{"deltaTime":94,"channel":9,"type":"channel","noteNumber":46,"velocity":0,"subtype":"noteOff"},{"deltaTime":2,"channel":9,"type":"channel","noteNumber":42,"velocity":110,"subtype":"noteOn"},{"deltaTime":46,"channel":9,"type":"channel","noteNumber":42,"velocity":0,"subtype":"noteOff"},{"deltaTime":2,"channel":9,"type":"channel","noteNumber":42,"velocity":110,"subtype":"noteOn"},{"deltaTime":46,"channel":9,"type":"channel","noteNumber":42,"velocity":0,"subtype":"noteOff"},{"deltaTime":2,"channel":9,"type":"channel","noteNumber":46,"velocity":110,"subtype":"noteOn"},{"deltaTime":94,"channel":9,"type":"channel","noteNumber":46,"velocity":0,"subtype":"noteOff"},{"deltaTime":2,"channel":9,"type":"channel","noteNumber":42,"velocity":110,"subtype":"noteOn"},{"deltaTime":46,"channel":9,"type":"channel","noteNumber":42,"velocity":0,"subtype":"noteOff"},{"deltaTime":2,"channel":9,"type":"channel","noteNumber":42,"velocity":110,"subtype":"noteOn"},{"deltaTime":46,"channel":9,"type":"channel","noteNumber":42,"velocity":0,"subtype":"noteOff"},{"deltaTime":2,"channel":9,"type":"channel","noteNumber":46,"velocity":110,"subtype":"noteOn"},{"deltaTime":94,"channel":9,"type":"channel","noteNumber":46,"velocity":0,"subtype":"noteOff"},{"deltaTime":2,"channel":9,"type":"channel","noteNumber":42,"velocity":110,"subtype":"noteOn"},{"deltaTime":46,"channel":9,"type":"channel","noteNumber":42,"velocity":0,"subtype":"noteOff"},{"deltaTime":2,"channel":9,"type":"channel","noteNumber":42,"velocity":110,"subtype":"noteOn"},{"deltaTime":46,"channel":9,"type":"channel","noteNumber":42,"velocity":0,"subtype":"noteOff"},{"deltaTime":2,"channel":9,"type":"channel","noteNumber":46,"velocity":110,"subtype":"noteOn"},{"deltaTime":94,"channel":9,"type":"channel","noteNumber":46,"velocity":0,"subtype":"noteOff"},{"deltaTime":2,"channel":9,"type":"channel","noteNumber":42,"velocity":110,"subtype":"noteOn"},{"deltaTime":46,"channel":9,"type":"channel","noteNumber":42,"velocity":0,"subtype":"noteOff"},{"deltaTime":2,"channel":9,"type":"channel","noteNumber":42,"velocity":110,"subtype":"noteOn"},{"deltaTime":46,"channel":9,"type":"channel","noteNumber":42,"velocity":0,"subtype":"noteOff"},{"deltaTime":2,"channel":9,"type":"channel","noteNumber":46,"velocity":110,"subtype":"noteOn"},{"deltaTime":94,"channel":9,"type":"channel","noteNumber":46,"velocity":0,"subtype":"noteOff"},{"deltaTime":2,"channel":9,"type":"channel","noteNumber":42,"velocity":110,"subtype":"noteOn"},{"deltaTime":46,"channel":9,"type":"channel","noteNumber":42,"velocity":0,"subtype":"noteOff"},{"deltaTime":2,"channel":9,"type":"channel","noteNumber":42,"velocity":110,"subtype":"noteOn"},{"deltaTime":46,"channel":9,"type":"channel","noteNumber":42,"velocity":0,"subtype":"noteOff"},{"deltaTime":2,"channel":9,"type":"channel","noteNumber":46,"velocity":110,"subtype":"noteOn"},{"deltaTime":94,"channel":9,"type":"channel","noteNumber":46,"velocity":0,"subtype":"noteOff"},{"deltaTime":2,"channel":9,"type":"channel","noteNumber":42,"velocity":110,"subtype":"noteOn"},{"deltaTime":46,"channel":9,"type":"channel","noteNumber":42,"velocity":0,"subtype":"noteOff"},{"deltaTime":2,"channel":9,"type":"channel","noteNumber":42,"velocity":110,"subtype":"noteOn"},{"deltaTime":46,"channel":9,"type":"channel","noteNumber":42,"velocity":0,"subtype":"noteOff"},{"deltaTime":2,"channel":9,"type":"channel","noteNumber":46,"velocity":110,"subtype":"noteOn"},{"deltaTime":94,"channel":9,"type":"channel","noteNumber":46,"velocity":0,"subtype":"noteOff"},{"deltaTime":2,"channel":9,"type":"channel","noteNumber":42,"velocity":110,"subtype":"noteOn"},{"deltaTime":46,"channel":9,"type":"channel","noteNumber":42,"velocity":0,"subtype":"noteOff"},{"deltaTime":2,"channel":9,"type":"channel","noteNumber":42,"velocity":110,"subtype":"noteOn"},{"deltaTime":46,"channel":9,"type":"channel","noteNumber":42,"velocity":0,"subtype":"noteOff"},{"deltaTime":2,"channel":9,"type":"channel","noteNumber":46,"velocity":110,"subtype":"noteOn"},{"deltaTime":94,"channel":9,"type":"channel","noteNumber":46,"velocity":0,"subtype":"noteOff"},{"deltaTime":2,"channel":9,"type":"channel","noteNumber":42,"velocity":110,"subtype":"noteOn"},{"deltaTime":46,"channel":9,"type":"channel","noteNumber":42,"velocity":0,"subtype":"noteOff"},{"deltaTime":2,"channel":9,"type":"channel","noteNumber":42,"velocity":110,"subtype":"noteOn"},{"deltaTime":46,"channel":9,"type":"channel","noteNumber":42,"velocity":0,"subtype":"noteOff"},{"deltaTime":2,"channel":9,"type":"channel","noteNumber":46,"velocity":110,"subtype":"noteOn"},{"deltaTime":94,"channel":9,"type":"channel","noteNumber":46,"velocity":0,"subtype":"noteOff"},{"deltaTime":2,"channel":9,"type":"channel","noteNumber":42,"velocity":110,"subtype":"noteOn"},{"deltaTime":46,"channel":9,"type":"channel","noteNumber":42,"velocity":0,"subtype":"noteOff"},{"deltaTime":2,"channel":9,"type":"channel","noteNumber":42,"velocity":110,"subtype":"noteOn"},{"deltaTime":46,"channel":9,"type":"channel","noteNumber":42,"velocity":0,"subtype":"noteOff"},{"deltaTime":2,"channel":9,"type":"channel","noteNumber":46,"velocity":110,"subtype":"noteOn"},{"deltaTime":94,"channel":9,"type":"channel","noteNumber":46,"velocity":0,"subtype":"noteOff"},{"deltaTime":2,"channel":9,"type":"channel","noteNumber":49,"velocity":110,"subtype":"noteOn"},{"deltaTime":160,"channel":9,"type":"channel","noteNumber":49,"velocity":0,"subtype":"noteOff"},{"deltaTime":608,"channel":9,"type":"channel","noteNumber":42,"velocity":110,"subtype":"noteOn"},{"deltaTime":46,"channel":9,"type":"channel","noteNumber":42,"velocity":0,"subtype":"noteOff"},{"deltaTime":2,"channel":9,"type":"channel","noteNumber":42,"velocity":110,"subtype":"noteOn"},{"deltaTime":46,"channel":9,"type":"channel","noteNumber":42,"velocity":0,"subtype":"noteOff"},{"deltaTime":2,"channel":9,"type":"channel","noteNumber":46,"velocity":110,"subtype":"noteOn"},{"deltaTime":94,"channel":9,"type":"channel","noteNumber":46,"velocity":0,"subtype":"noteOff"},{"deltaTime":2,"channel":9,"type":"channel","noteNumber":42,"velocity":110,"subtype":"noteOn"},{"deltaTime":46,"channel":9,"type":"channel","noteNumber":42,"velocity":0,"subtype":"noteOff"},{"deltaTime":2,"channel":9,"type":"channel","noteNumber":42,"velocity":110,"subtype":"noteOn"},{"deltaTime":46,"channel":9,"type":"channel","noteNumber":42,"velocity":0,"subtype":"noteOff"},{"deltaTime":2,"channel":9,"type":"channel","noteNumber":46,"velocity":110,"subtype":"noteOn"},{"deltaTime":94,"channel":9,"type":"channel","noteNumber":46,"velocity":0,"subtype":"noteOff"},{"deltaTime":2,"channel":9,"type":"channel","noteNumber":42,"velocity":110,"subtype":"noteOn"},{"deltaTime":46,"channel":9,"type":"channel","noteNumber":42,"velocity":0,"subtype":"noteOff"},{"deltaTime":2,"channel":9,"type":"channel","noteNumber":42,"velocity":110,"subtype":"noteOn"},{"deltaTime":46,"channel":9,"type":"channel","noteNumber":42,"velocity":0,"subtype":"noteOff"},{"deltaTime":2,"channel":9,"type":"channel","noteNumber":46,"velocity":110,"subtype":"noteOn"},{"deltaTime":94,"channel":9,"type":"channel","noteNumber":46,"velocity":0,"subtype":"noteOff"},{"deltaTime":2,"channel":9,"type":"channel","noteNumber":42,"velocity":110,"subtype":"noteOn"},{"deltaTime":46,"channel":9,"type":"channel","noteNumber":42,"velocity":0,"subtype":"noteOff"},{"deltaTime":2,"channel":9,"type":"channel","noteNumber":42,"velocity":110,"subtype":"noteOn"},{"deltaTime":46,"channel":9,"type":"channel","noteNumber":42,"velocity":0,"subtype":"noteOff"},{"deltaTime":2,"channel":9,"type":"channel","noteNumber":46,"velocity":110,"subtype":"noteOn"},{"deltaTime":94,"channel":9,"type":"channel","noteNumber":46,"velocity":0,"subtype":"noteOff"},{"deltaTime":2,"channel":9,"type":"channel","noteNumber":42,"velocity":110,"subtype":"noteOn"},{"deltaTime":46,"channel":9,"type":"channel","noteNumber":42,"velocity":0,"subtype":"noteOff"},{"deltaTime":2,"channel":9,"type":"channel","noteNumber":42,"velocity":110,"subtype":"noteOn"},{"deltaTime":46,"channel":9,"type":"channel","noteNumber":42,"velocity":0,"subtype":"noteOff"},{"deltaTime":2,"channel":9,"type":"channel","noteNumber":46,"velocity":110,"subtype":"noteOn"},{"deltaTime":94,"channel":9,"type":"channel","noteNumber":46,"velocity":0,"subtype":"noteOff"},{"deltaTime":2,"channel":9,"type":"channel","noteNumber":42,"velocity":110,"subtype":"noteOn"},{"deltaTime":46,"channel":9,"type":"channel","noteNumber":42,"velocity":0,"subtype":"noteOff"},{"deltaTime":2,"channel":9,"type":"channel","noteNumber":42,"velocity":110,"subtype":"noteOn"},{"deltaTime":46,"channel":9,"type":"channel","noteNumber":42,"velocity":0,"subtype":"noteOff"},{"deltaTime":2,"channel":9,"type":"channel","noteNumber":46,"velocity":110,"subtype":"noteOn"},{"deltaTime":94,"channel":9,"type":"channel","noteNumber":46,"velocity":0,"subtype":"noteOff"},{"deltaTime":2,"channel":9,"type":"channel","noteNumber":42,"velocity":110,"subtype":"noteOn"},{"deltaTime":46,"channel":9,"type":"channel","noteNumber":42,"velocity":0,"subtype":"noteOff"},{"deltaTime":2,"channel":9,"type":"channel","noteNumber":42,"velocity":110,"subtype":"noteOn"},{"deltaTime":46,"channel":9,"type":"channel","noteNumber":42,"velocity":0,"subtype":"noteOff"},{"deltaTime":2,"channel":9,"type":"channel","noteNumber":46,"velocity":110,"subtype":"noteOn"},{"deltaTime":94,"channel":9,"type":"channel","noteNumber":46,"velocity":0,"subtype":"noteOff"},{"deltaTime":2,"channel":9,"type":"channel","noteNumber":42,"velocity":110,"subtype":"noteOn"},{"deltaTime":46,"channel":9,"type":"channel","noteNumber":42,"velocity":0,"subtype":"noteOff"},{"deltaTime":2,"channel":9,"type":"channel","noteNumber":42,"velocity":110,"subtype":"noteOn"},{"deltaTime":46,"channel":9,"type":"channel","noteNumber":42,"velocity":0,"subtype":"noteOff"},{"deltaTime":2,"channel":9,"type":"channel","noteNumber":46,"velocity":110,"subtype":"noteOn"},{"deltaTime":94,"channel":9,"type":"channel","noteNumber":46,"velocity":0,"subtype":"noteOff"},{"deltaTime":2,"channel":9,"type":"channel","noteNumber":42,"velocity":110,"subtype":"noteOn"},{"deltaTime":46,"channel":9,"type":"channel","noteNumber":42,"velocity":0,"subtype":"noteOff"},{"deltaTime":2,"channel":9,"type":"channel","noteNumber":42,"velocity":110,"subtype":"noteOn"},{"deltaTime":46,"channel":9,"type":"channel","noteNumber":42,"velocity":0,"subtype":"noteOff"},{"deltaTime":2,"channel":9,"type":"channel","noteNumber":46,"velocity":110,"subtype":"noteOn"},{"deltaTime":94,"channel":9,"type":"channel","noteNumber":46,"velocity":0,"subtype":"noteOff"},{"deltaTime":2,"channel":9,"type":"channel","noteNumber":42,"velocity":110,"subtype":"noteOn"},{"deltaTime":46,"channel":9,"type":"channel","noteNumber":42,"velocity":0,"subtype":"noteOff"},{"deltaTime":2,"channel":9,"type":"channel","noteNumber":42,"velocity":110,"subtype":"noteOn"},{"deltaTime":46,"channel":9,"type":"channel","noteNumber":42,"velocity":0,"subtype":"noteOff"},{"deltaTime":2,"channel":9,"type":"channel","noteNumber":46,"velocity":110,"subtype":"noteOn"},{"deltaTime":94,"channel":9,"type":"channel","noteNumber":46,"velocity":0,"subtype":"noteOff"},{"deltaTime":2,"channel":9,"type":"channel","noteNumber":42,"velocity":110,"subtype":"noteOn"},{"deltaTime":46,"channel":9,"type":"channel","noteNumber":42,"velocity":0,"subtype":"noteOff"},{"deltaTime":2,"channel":9,"type":"channel","noteNumber":42,"velocity":110,"subtype":"noteOn"},{"deltaTime":46,"channel":9,"type":"channel","noteNumber":42,"velocity":0,"subtype":"noteOff"},{"deltaTime":2,"channel":9,"type":"channel","noteNumber":46,"velocity":110,"subtype":"noteOn"},{"deltaTime":94,"channel":9,"type":"channel","noteNumber":46,"velocity":0,"subtype":"noteOff"},{"deltaTime":2,"channel":9,"type":"channel","noteNumber":42,"velocity":110,"subtype":"noteOn"},{"deltaTime":46,"channel":9,"type":"channel","noteNumber":42,"velocity":0,"subtype":"noteOff"},{"deltaTime":2,"channel":9,"type":"channel","noteNumber":42,"velocity":110,"subtype":"noteOn"},{"deltaTime":46,"channel":9,"type":"channel","noteNumber":42,"velocity":0,"subtype":"noteOff"},{"deltaTime":2,"channel":9,"type":"channel","noteNumber":46,"velocity":110,"subtype":"noteOn"},{"deltaTime":94,"channel":9,"type":"channel","noteNumber":46,"velocity":0,"subtype":"noteOff"},{"deltaTime":2,"channel":9,"type":"channel","noteNumber":42,"velocity":110,"subtype":"noteOn"},{"deltaTime":46,"channel":9,"type":"channel","noteNumber":42,"velocity":0,"subtype":"noteOff"},{"deltaTime":2,"channel":9,"type":"channel","noteNumber":42,"velocity":110,"subtype":"noteOn"},{"deltaTime":46,"channel":9,"type":"channel","noteNumber":42,"velocity":0,"subtype":"noteOff"},{"deltaTime":2,"channel":9,"type":"channel","noteNumber":46,"velocity":110,"subtype":"noteOn"},{"deltaTime":94,"channel":9,"type":"channel","noteNumber":46,"velocity":0,"subtype":"noteOff"},{"deltaTime":2,"channel":9,"type":"channel","noteNumber":42,"velocity":110,"subtype":"noteOn"},{"deltaTime":46,"channel":9,"type":"channel","noteNumber":42,"velocity":0,"subtype":"noteOff"},{"deltaTime":2,"channel":9,"type":"channel","noteNumber":42,"velocity":110,"subtype":"noteOn"},{"deltaTime":46,"channel":9,"type":"channel","noteNumber":42,"velocity":0,"subtype":"noteOff"},{"deltaTime":2,"channel":9,"type":"channel","noteNumber":46,"velocity":110,"subtype":"noteOn"},{"deltaTime":94,"channel":9,"type":"channel","noteNumber":46,"velocity":0,"subtype":"noteOff"},{"deltaTime":2,"channel":9,"type":"channel","noteNumber":42,"velocity":110,"subtype":"noteOn"},{"deltaTime":46,"channel":9,"type":"channel","noteNumber":42,"velocity":0,"subtype":"noteOff"},{"deltaTime":2,"channel":9,"type":"channel","noteNumber":42,"velocity":110,"subtype":"noteOn"},{"deltaTime":46,"channel":9,"type":"channel","noteNumber":42,"velocity":0,"subtype":"noteOff"},{"deltaTime":2,"channel":9,"type":"channel","noteNumber":46,"velocity":110,"subtype":"noteOn"},{"deltaTime":94,"channel":9,"type":"channel","noteNumber":46,"velocity":0,"subtype":"noteOff"},{"deltaTime":2,"channel":9,"type":"channel","noteNumber":42,"velocity":110,"subtype":"noteOn"},{"deltaTime":46,"channel":9,"type":"channel","noteNumber":42,"velocity":0,"subtype":"noteOff"},{"deltaTime":2,"channel":9,"type":"channel","noteNumber":42,"velocity":110,"subtype":"noteOn"},{"deltaTime":46,"channel":9,"type":"channel","noteNumber":42,"velocity":0,"subtype":"noteOff"},{"deltaTime":2,"channel":9,"type":"channel","noteNumber":46,"velocity":110,"subtype":"noteOn"},{"deltaTime":94,"channel":9,"type":"channel","noteNumber":46,"velocity":0,"subtype":"noteOff"},{"deltaTime":2,"channel":9,"type":"channel","noteNumber":42,"velocity":110,"subtype":"noteOn"},{"deltaTime":46,"channel":9,"type":"channel","noteNumber":42,"velocity":0,"subtype":"noteOff"},{"deltaTime":2,"channel":9,"type":"channel","noteNumber":42,"velocity":110,"subtype":"noteOn"},{"deltaTime":46,"channel":9,"type":"channel","noteNumber":42,"velocity":0,"subtype":"noteOff"},{"deltaTime":2,"channel":9,"type":"channel","noteNumber":46,"velocity":110,"subtype":"noteOn"},{"deltaTime":94,"channel":9,"type":"channel","noteNumber":46,"velocity":0,"subtype":"noteOff"},{"deltaTime":2,"channel":9,"type":"channel","noteNumber":42,"velocity":110,"subtype":"noteOn"},{"deltaTime":46,"channel":9,"type":"channel","noteNumber":42,"velocity":0,"subtype":"noteOff"},{"deltaTime":2,"channel":9,"type":"channel","noteNumber":42,"velocity":110,"subtype":"noteOn"},{"deltaTime":46,"channel":9,"type":"channel","noteNumber":42,"velocity":0,"subtype":"noteOff"},{"deltaTime":2,"channel":9,"type":"channel","noteNumber":46,"velocity":110,"subtype":"noteOn"},{"deltaTime":94,"channel":9,"type":"channel","noteNumber":46,"velocity":0,"subtype":"noteOff"},{"deltaTime":2,"channel":9,"type":"channel","noteNumber":42,"velocity":110,"subtype":"noteOn"},{"deltaTime":46,"channel":9,"type":"channel","noteNumber":42,"velocity":0,"subtype":"noteOff"},{"deltaTime":2,"channel":9,"type":"channel","noteNumber":42,"velocity":110,"subtype":"noteOn"},{"deltaTime":46,"channel":9,"type":"channel","noteNumber":42,"velocity":0,"subtype":"noteOff"},{"deltaTime":2,"channel":9,"type":"channel","noteNumber":46,"velocity":110,"subtype":"noteOn"},{"deltaTime":94,"channel":9,"type":"channel","noteNumber":46,"velocity":0,"subtype":"noteOff"},{"deltaTime":2,"channel":9,"type":"channel","noteNumber":42,"velocity":110,"subtype":"noteOn"},{"deltaTime":46,"channel":9,"type":"channel","noteNumber":42,"velocity":0,"subtype":"noteOff"},{"deltaTime":2,"channel":9,"type":"channel","noteNumber":42,"velocity":110,"subtype":"noteOn"},{"deltaTime":46,"channel":9,"type":"channel","noteNumber":42,"velocity":0,"subtype":"noteOff"},{"deltaTime":2,"channel":9,"type":"channel","noteNumber":46,"velocity":110,"subtype":"noteOn"},{"deltaTime":94,"channel":9,"type":"channel","noteNumber":46,"velocity":0,"subtype":"noteOff"},{"deltaTime":2,"channel":9,"type":"channel","noteNumber":42,"velocity":110,"subtype":"noteOn"},{"deltaTime":46,"channel":9,"type":"channel","noteNumber":42,"velocity":0,"subtype":"noteOff"},{"deltaTime":2,"channel":9,"type":"channel","noteNumber":42,"velocity":110,"subtype":"noteOn"},{"deltaTime":46,"channel":9,"type":"channel","noteNumber":42,"velocity":0,"subtype":"noteOff"},{"deltaTime":2,"channel":9,"type":"channel","noteNumber":46,"velocity":110,"subtype":"noteOn"},{"deltaTime":94,"channel":9,"type":"channel","noteNumber":46,"velocity":0,"subtype":"noteOff"},{"deltaTime":2,"channel":9,"type":"channel","noteNumber":42,"velocity":110,"subtype":"noteOn"},{"deltaTime":46,"channel":9,"type":"channel","noteNumber":42,"velocity":0,"subtype":"noteOff"},{"deltaTime":2,"channel":9,"type":"channel","noteNumber":42,"velocity":110,"subtype":"noteOn"},{"deltaTime":46,"channel":9,"type":"channel","noteNumber":42,"velocity":0,"subtype":"noteOff"},{"deltaTime":2,"channel":9,"type":"channel","noteNumber":46,"velocity":110,"subtype":"noteOn"},{"deltaTime":94,"channel":9,"type":"channel","noteNumber":46,"velocity":0,"subtype":"noteOff"},{"deltaTime":2,"channel":9,"type":"channel","noteNumber":42,"velocity":110,"subtype":"noteOn"},{"deltaTime":46,"channel":9,"type":"channel","noteNumber":42,"velocity":0,"subtype":"noteOff"},{"deltaTime":2,"channel":9,"type":"channel","noteNumber":42,"velocity":110,"subtype":"noteOn"},{"deltaTime":46,"channel":9,"type":"channel","noteNumber":42,"velocity":0,"subtype":"noteOff"},{"deltaTime":2,"channel":9,"type":"channel","noteNumber":46,"velocity":110,"subtype":"noteOn"},{"deltaTime":94,"channel":9,"type":"channel","noteNumber":46,"velocity":0,"subtype":"noteOff"},{"deltaTime":2,"channel":9,"type":"channel","noteNumber":42,"velocity":110,"subtype":"noteOn"},{"deltaTime":46,"channel":9,"type":"channel","noteNumber":42,"velocity":0,"subtype":"noteOff"},{"deltaTime":2,"channel":9,"type":"channel","noteNumber":42,"velocity":110,"subtype":"noteOn"},{"deltaTime":46,"channel":9,"type":"channel","noteNumber":42,"velocity":0,"subtype":"noteOff"},{"deltaTime":2,"channel":9,"type":"channel","noteNumber":46,"velocity":110,"subtype":"noteOn"},{"deltaTime":94,"channel":9,"type":"channel","noteNumber":46,"velocity":0,"subtype":"noteOff"},{"deltaTime":2,"channel":9,"type":"channel","noteNumber":42,"velocity":110,"subtype":"noteOn"},{"deltaTime":46,"channel":9,"type":"channel","noteNumber":42,"velocity":0,"subtype":"noteOff"},{"deltaTime":2,"channel":9,"type":"channel","noteNumber":42,"velocity":110,"subtype":"noteOn"},{"deltaTime":46,"channel":9,"type":"channel","noteNumber":42,"velocity":0,"subtype":"noteOff"},{"deltaTime":2,"channel":9,"type":"channel","noteNumber":46,"velocity":110,"subtype":"noteOn"},{"deltaTime":94,"channel":9,"type":"channel","noteNumber":46,"velocity":0,"subtype":"noteOff"},{"deltaTime":2,"channel":9,"type":"channel","noteNumber":42,"velocity":110,"subtype":"noteOn"},{"deltaTime":46,"channel":9,"type":"channel","noteNumber":42,"velocity":0,"subtype":"noteOff"},{"deltaTime":2,"channel":9,"type":"channel","noteNumber":42,"velocity":110,"subtype":"noteOn"},{"deltaTime":46,"channel":9,"type":"channel","noteNumber":42,"velocity":0,"subtype":"noteOff"},{"deltaTime":2,"channel":9,"type":"channel","noteNumber":46,"velocity":110,"subtype":"noteOn"},{"deltaTime":94,"channel":9,"type":"channel","noteNumber":46,"velocity":0,"subtype":"noteOff"},{"deltaTime":2,"channel":9,"type":"channel","noteNumber":42,"velocity":110,"subtype":"noteOn"},{"deltaTime":46,"channel":9,"type":"channel","noteNumber":42,"velocity":0,"subtype":"noteOff"},{"deltaTime":2,"channel":9,"type":"channel","noteNumber":42,"velocity":110,"subtype":"noteOn"},{"deltaTime":46,"channel":9,"type":"channel","noteNumber":42,"velocity":0,"subtype":"noteOff"},{"deltaTime":2,"channel":9,"type":"channel","noteNumber":46,"velocity":110,"subtype":"noteOn"},{"deltaTime":94,"channel":9,"type":"channel","noteNumber":46,"velocity":0,"subtype":"noteOff"},{"deltaTime":2,"channel":9,"type":"channel","noteNumber":42,"velocity":110,"subtype":"noteOn"},{"deltaTime":46,"channel":9,"type":"channel","noteNumber":42,"velocity":0,"subtype":"noteOff"},{"deltaTime":2,"channel":9,"type":"channel","noteNumber":42,"velocity":110,"subtype":"noteOn"},{"deltaTime":46,"channel":9,"type":"channel","noteNumber":42,"velocity":0,"subtype":"noteOff"},{"deltaTime":2,"channel":9,"type":"channel","noteNumber":46,"velocity":110,"subtype":"noteOn"},{"deltaTime":94,"channel":9,"type":"channel","noteNumber":46,"velocity":0,"subtype":"noteOff"},{"deltaTime":2,"channel":9,"type":"channel","noteNumber":49,"velocity":110,"subtype":"noteOn"},{"deltaTime":160,"channel":9,"type":"channel","noteNumber":49,"velocity":0,"subtype":"noteOff"},{"deltaTime":608,"channel":9,"type":"channel","noteNumber":49,"velocity":110,"subtype":"noteOn"},{"deltaTime":160,"channel":9,"type":"channel","noteNumber":49,"velocity":0,"subtype":"noteOff"},{"deltaTime":0,"type":"meta","subtype":"endOfTrack"}],[{"deltaTime":0,"type":"meta","subtype":"unknown","data":"\u0000"},{"deltaTime":0,"type":"meta","subtype":"trackName","text":"Staff-3"},{"deltaTime":0,"channel":10,"type":"channel","subtype":"programChange","programNumber":38},{"deltaTime":0,"channel":10,"type":"channel","subtype":"controller","controllerType":7,"value":127},{"deltaTime":0,"channel":10,"type":"channel","subtype":"controller","controllerType":10,"value":64},{"deltaTime":0,"channel":10,"type":"channel","subtype":"programChange","programNumber":38},{"deltaTime":0,"channel":10,"type":"channel","subtype":"controller","controllerType":7,"value":127},{"deltaTime":0,"channel":10,"type":"channel","subtype":"controller","controllerType":10,"value":64},{"deltaTime":6144,"channel":10,"type":"channel","noteNumber":35,"velocity":110,"subtype":"noteOn"},{"deltaTime":94,"channel":10,"type":"channel","noteNumber":35,"velocity":0,"subtype":"noteOff"},{"deltaTime":2,"channel":10,"type":"channel","noteNumber":47,"velocity":110,"subtype":"noteOn"},{"deltaTime":46,"channel":10,"type":"channel","noteNumber":47,"velocity":0,"subtype":"noteOff"},{"deltaTime":2,"channel":10,"type":"channel","noteNumber":47,"velocity":110,"subtype":"noteOn"},{"deltaTime":46,"channel":10,"type":"channel","noteNumber":47,"velocity":0,"subtype":"noteOff"},{"deltaTime":2,"channel":10,"type":"channel","noteNumber":35,"velocity":110,"subtype":"noteOn"},{"deltaTime":94,"channel":10,"type":"channel","noteNumber":35,"velocity":0,"subtype":"noteOff"},{"deltaTime":2,"channel":10,"type":"channel","noteNumber":47,"velocity":110,"subtype":"noteOn"},{"deltaTime":46,"channel":10,"type":"channel","noteNumber":47,"velocity":0,"subtype":"noteOff"},{"deltaTime":2,"channel":10,"type":"channel","noteNumber":47,"velocity":110,"subtype":"noteOn"},{"deltaTime":46,"channel":10,"type":"channel","noteNumber":47,"velocity":0,"subtype":"noteOff"},{"deltaTime":2,"channel":10,"type":"channel","noteNumber":35,"velocity":110,"subtype":"noteOn"},{"deltaTime":94,"channel":10,"type":"channel","noteNumber":35,"velocity":0,"subtype":"noteOff"},{"deltaTime":2,"channel":10,"type":"channel","noteNumber":47,"velocity":110,"subtype":"noteOn"},{"deltaTime":46,"channel":10,"type":"channel","noteNumber":47,"velocity":0,"subtype":"noteOff"},{"deltaTime":2,"channel":10,"type":"channel","noteNumber":47,"velocity":110,"subtype":"noteOn"},{"deltaTime":46,"channel":10,"type":"channel","noteNumber":47,"velocity":0,"subtype":"noteOff"},{"deltaTime":2,"channel":10,"type":"channel","noteNumber":35,"velocity":110,"subtype":"noteOn"},{"deltaTime":94,"channel":10,"type":"channel","noteNumber":35,"velocity":0,"subtype":"noteOff"},{"deltaTime":2,"channel":10,"type":"channel","noteNumber":47,"velocity":110,"subtype":"noteOn"},{"deltaTime":46,"channel":10,"type":"channel","noteNumber":47,"velocity":0,"subtype":"noteOff"},{"deltaTime":2,"channel":10,"type":"channel","noteNumber":47,"velocity":110,"subtype":"noteOn"},{"deltaTime":46,"channel":10,"type":"channel","noteNumber":47,"velocity":0,"subtype":"noteOff"},{"deltaTime":2,"channel":10,"type":"channel","noteNumber":40,"velocity":110,"subtype":"noteOn"},{"deltaTime":94,"channel":10,"type":"channel","noteNumber":40,"velocity":0,"subtype":"noteOff"},{"deltaTime":2,"channel":10,"type":"channel","noteNumber":52,"velocity":110,"subtype":"noteOn"},{"deltaTime":46,"channel":10,"type":"channel","noteNumber":52,"velocity":0,"subtype":"noteOff"},{"deltaTime":2,"channel":10,"type":"channel","noteNumber":52,"velocity":110,"subtype":"noteOn"},{"deltaTime":46,"channel":10,"type":"channel","noteNumber":52,"velocity":0,"subtype":"noteOff"},{"deltaTime":2,"channel":10,"type":"channel","noteNumber":40,"velocity":110,"subtype":"noteOn"},{"deltaTime":94,"channel":10,"type":"channel","noteNumber":40,"velocity":0,"subtype":"noteOff"},{"deltaTime":2,"channel":10,"type":"channel","noteNumber":52,"velocity":110,"subtype":"noteOn"},{"deltaTime":46,"channel":10,"type":"channel","noteNumber":52,"velocity":0,"subtype":"noteOff"},{"deltaTime":2,"channel":10,"type":"channel","noteNumber":52,"velocity":110,"subtype":"noteOn"},{"deltaTime":46,"channel":10,"type":"channel","noteNumber":52,"velocity":0,"subtype":"noteOff"},{"deltaTime":2,"channel":10,"type":"channel","noteNumber":40,"velocity":110,"subtype":"noteOn"},{"deltaTime":94,"channel":10,"type":"channel","noteNumber":40,"velocity":0,"subtype":"noteOff"},{"deltaTime":2,"channel":10,"type":"channel","noteNumber":52,"velocity":110,"subtype":"noteOn"},{"deltaTime":46,"channel":10,"type":"channel","noteNumber":52,"velocity":0,"subtype":"noteOff"},{"deltaTime":2,"channel":10,"type":"channel","noteNumber":52,"velocity":110,"subtype":"noteOn"},{"deltaTime":46,"channel":10,"type":"channel","noteNumber":52,"velocity":0,"subtype":"noteOff"},{"deltaTime":2,"channel":10,"type":"channel","noteNumber":40,"velocity":110,"subtype":"noteOn"},{"deltaTime":94,"channel":10,"type":"channel","noteNumber":40,"velocity":0,"subtype":"noteOff"},{"deltaTime":2,"channel":10,"type":"channel","noteNumber":52,"velocity":110,"subtype":"noteOn"},{"deltaTime":46,"channel":10,"type":"channel","noteNumber":52,"velocity":0,"subtype":"noteOff"},{"deltaTime":2,"channel":10,"type":"channel","noteNumber":52,"velocity":110,"subtype":"noteOn"},{"deltaTime":46,"channel":10,"type":"channel","noteNumber":52,"velocity":0,"subtype":"noteOff"},{"deltaTime":2,"channel":10,"type":"channel","noteNumber":39,"velocity":110,"subtype":"noteOn"},{"deltaTime":94,"channel":10,"type":"channel","noteNumber":39,"velocity":0,"subtype":"noteOff"},{"deltaTime":2,"channel":10,"type":"channel","noteNumber":51,"velocity":110,"subtype":"noteOn"},{"deltaTime":46,"channel":10,"type":"channel","noteNumber":51,"velocity":0,"subtype":"noteOff"},{"deltaTime":2,"channel":10,"type":"channel","noteNumber":51,"velocity":110,"subtype":"noteOn"},{"deltaTime":46,"channel":10,"type":"channel","noteNumber":51,"velocity":0,"subtype":"noteOff"},{"deltaTime":2,"channel":10,"type":"channel","noteNumber":39,"velocity":110,"subtype":"noteOn"},{"deltaTime":94,"channel":10,"type":"channel","noteNumber":39,"velocity":0,"subtype":"noteOff"},{"deltaTime":2,"channel":10,"type":"channel","noteNumber":51,"velocity":110,"subtype":"noteOn"},{"deltaTime":46,"channel":10,"type":"channel","noteNumber":51,"velocity":0,"subtype":"noteOff"},{"deltaTime":2,"channel":10,"type":"channel","noteNumber":51,"velocity":110,"subtype":"noteOn"},{"deltaTime":46,"channel":10,"type":"channel","noteNumber":51,"velocity":0,"subtype":"noteOff"},{"deltaTime":2,"channel":10,"type":"channel","noteNumber":35,"velocity":110,"subtype":"noteOn"},{"deltaTime":94,"channel":10,"type":"channel","noteNumber":35,"velocity":0,"subtype":"noteOff"},{"deltaTime":2,"channel":10,"type":"channel","noteNumber":47,"velocity":110,"subtype":"noteOn"},{"deltaTime":46,"channel":10,"type":"channel","noteNumber":47,"velocity":0,"subtype":"noteOff"},{"deltaTime":2,"channel":10,"type":"channel","noteNumber":47,"velocity":110,"subtype":"noteOn"},{"deltaTime":46,"channel":10,"type":"channel","noteNumber":47,"velocity":0,"subtype":"noteOff"},{"deltaTime":2,"channel":10,"type":"channel","noteNumber":35,"velocity":110,"subtype":"noteOn"},{"deltaTime":94,"channel":10,"type":"channel","noteNumber":35,"velocity":0,"subtype":"noteOff"},{"deltaTime":2,"channel":10,"type":"channel","noteNumber":47,"velocity":110,"subtype":"noteOn"},{"deltaTime":46,"channel":10,"type":"channel","noteNumber":47,"velocity":0,"subtype":"noteOff"},{"deltaTime":2,"channel":10,"type":"channel","noteNumber":47,"velocity":110,"subtype":"noteOn"},{"deltaTime":46,"channel":10,"type":"channel","noteNumber":47,"velocity":0,"subtype":"noteOff"},{"deltaTime":2,"channel":10,"type":"channel","noteNumber":28,"velocity":110,"subtype":"noteOn"},{"deltaTime":46,"channel":10,"type":"channel","noteNumber":28,"velocity":0,"subtype":"noteOff"},{"deltaTime":2,"channel":10,"type":"channel","noteNumber":35,"velocity":110,"subtype":"noteOn"},{"deltaTime":46,"channel":10,"type":"channel","noteNumber":35,"velocity":0,"subtype":"noteOff"},{"deltaTime":2,"channel":10,"type":"channel","noteNumber":40,"velocity":110,"subtype":"noteOn"},{"deltaTime":46,"channel":10,"type":"channel","noteNumber":40,"velocity":0,"subtype":"noteOff"},{"deltaTime":2,"channel":10,"type":"channel","noteNumber":35,"velocity":110,"subtype":"noteOn"},{"deltaTime":46,"channel":10,"type":"channel","noteNumber":35,"velocity":0,"subtype":"noteOff"},{"deltaTime":2,"channel":10,"type":"channel","noteNumber":28,"velocity":110,"subtype":"noteOn"},{"deltaTime":46,"channel":10,"type":"channel","noteNumber":28,"velocity":0,"subtype":"noteOff"},{"deltaTime":2,"channel":10,"type":"channel","noteNumber":35,"velocity":110,"subtype":"noteOn"},{"deltaTime":46,"channel":10,"type":"channel","noteNumber":35,"velocity":0,"subtype":"noteOff"},{"deltaTime":2,"channel":10,"type":"channel","noteNumber":40,"velocity":110,"subtype":"noteOn"},{"deltaTime":46,"channel":10,"type":"channel","noteNumber":40,"velocity":0,"subtype":"noteOff"},{"deltaTime":2,"channel":10,"type":"channel","noteNumber":35,"velocity":110,"subtype":"noteOn"},{"deltaTime":46,"channel":10,"type":"channel","noteNumber":35,"velocity":0,"subtype":"noteOff"},{"deltaTime":2,"channel":10,"type":"channel","noteNumber":28,"velocity":110,"subtype":"noteOn"},{"deltaTime":46,"channel":10,"type":"channel","noteNumber":28,"velocity":0,"subtype":"noteOff"},{"deltaTime":2,"channel":10,"type":"channel","noteNumber":35,"velocity":110,"subtype":"noteOn"},{"deltaTime":46,"channel":10,"type":"channel","noteNumber":35,"velocity":0,"subtype":"noteOff"},{"deltaTime":2,"channel":10,"type":"channel","noteNumber":40,"velocity":110,"subtype":"noteOn"},{"deltaTime":46,"channel":10,"type":"channel","noteNumber":40,"velocity":0,"subtype":"noteOff"},{"deltaTime":2,"channel":10,"type":"channel","noteNumber":35,"velocity":110,"subtype":"noteOn"},{"deltaTime":46,"channel":10,"type":"channel","noteNumber":35,"velocity":0,"subtype":"noteOff"},{"deltaTime":2,"channel":10,"type":"channel","noteNumber":28,"velocity":110,"subtype":"noteOn"},{"deltaTime":46,"channel":10,"type":"channel","noteNumber":28,"velocity":0,"subtype":"noteOff"},{"deltaTime":2,"channel":10,"type":"channel","noteNumber":35,"velocity":110,"subtype":"noteOn"},{"deltaTime":46,"channel":10,"type":"channel","noteNumber":35,"velocity":0,"subtype":"noteOff"},{"deltaTime":2,"channel":10,"type":"channel","noteNumber":40,"velocity":110,"subtype":"noteOn"},{"deltaTime":46,"channel":10,"type":"channel","noteNumber":40,"velocity":0,"subtype":"noteOff"},{"deltaTime":2,"channel":10,"type":"channel","noteNumber":35,"velocity":110,"subtype":"noteOn"},{"deltaTime":46,"channel":10,"type":"channel","noteNumber":35,"velocity":0,"subtype":"noteOff"},{"deltaTime":2,"channel":10,"type":"channel","noteNumber":33,"velocity":110,"subtype":"noteOn"},{"deltaTime":94,"channel":10,"type":"channel","noteNumber":33,"velocity":0,"subtype":"noteOff"},{"deltaTime":2,"channel":10,"type":"channel","noteNumber":45,"velocity":110,"subtype":"noteOn"},{"deltaTime":46,"channel":10,"type":"channel","noteNumber":45,"velocity":0,"subtype":"noteOff"},{"deltaTime":2,"channel":10,"type":"channel","noteNumber":45,"velocity":110,"subtype":"noteOn"},{"deltaTime":46,"channel":10,"type":"channel","noteNumber":45,"velocity":0,"subtype":"noteOff"},{"deltaTime":2,"channel":10,"type":"channel","noteNumber":33,"velocity":110,"subtype":"noteOn"},{"deltaTime":94,"channel":10,"type":"channel","noteNumber":33,"velocity":0,"subtype":"noteOff"},{"deltaTime":2,"channel":10,"type":"channel","noteNumber":45,"velocity":110,"subtype":"noteOn"},{"deltaTime":46,"channel":10,"type":"channel","noteNumber":45,"velocity":0,"subtype":"noteOff"},{"deltaTime":2,"channel":10,"type":"channel","noteNumber":45,"velocity":110,"subtype":"noteOn"},{"deltaTime":46,"channel":10,"type":"channel","noteNumber":45,"velocity":0,"subtype":"noteOff"},{"deltaTime":2,"channel":10,"type":"channel","noteNumber":33,"velocity":110,"subtype":"noteOn"},{"deltaTime":94,"channel":10,"type":"channel","noteNumber":33,"velocity":0,"subtype":"noteOff"},{"deltaTime":2,"channel":10,"type":"channel","noteNumber":45,"velocity":110,"subtype":"noteOn"},{"deltaTime":46,"channel":10,"type":"channel","noteNumber":45,"velocity":0,"subtype":"noteOff"},{"deltaTime":2,"channel":10,"type":"channel","noteNumber":45,"velocity":110,"subtype":"noteOn"},{"deltaTime":46,"channel":10,"type":"channel","noteNumber":45,"velocity":0,"subtype":"noteOff"},{"deltaTime":2,"channel":10,"type":"channel","noteNumber":33,"velocity":110,"subtype":"noteOn"},{"deltaTime":94,"channel":10,"type":"channel","noteNumber":33,"velocity":0,"subtype":"noteOff"},{"deltaTime":2,"channel":10,"type":"channel","noteNumber":45,"velocity":110,"subtype":"noteOn"},{"deltaTime":46,"channel":10,"type":"channel","noteNumber":45,"velocity":0,"subtype":"noteOff"},{"deltaTime":2,"channel":10,"type":"channel","noteNumber":45,"velocity":110,"subtype":"noteOn"},{"deltaTime":46,"channel":10,"type":"channel","noteNumber":45,"velocity":0,"subtype":"noteOff"},{"deltaTime":2,"channel":10,"type":"channel","noteNumber":35,"velocity":110,"subtype":"noteOn"},{"deltaTime":94,"channel":10,"type":"channel","noteNumber":35,"velocity":0,"subtype":"noteOff"},{"deltaTime":2,"channel":10,"type":"channel","noteNumber":47,"velocity":110,"subtype":"noteOn"},{"deltaTime":46,"channel":10,"type":"channel","noteNumber":47,"velocity":0,"subtype":"noteOff"},{"deltaTime":2,"channel":10,"type":"channel","noteNumber":47,"velocity":110,"subtype":"noteOn"},{"deltaTime":46,"channel":10,"type":"channel","noteNumber":47,"velocity":0,"subtype":"noteOff"},{"deltaTime":2,"channel":10,"type":"channel","noteNumber":35,"velocity":110,"subtype":"noteOn"},{"deltaTime":94,"channel":10,"type":"channel","noteNumber":35,"velocity":0,"subtype":"noteOff"},{"deltaTime":2,"channel":10,"type":"channel","noteNumber":47,"velocity":110,"subtype":"noteOn"},{"deltaTime":46,"channel":10,"type":"channel","noteNumber":47,"velocity":0,"subtype":"noteOff"},{"deltaTime":2,"channel":10,"type":"channel","noteNumber":47,"velocity":110,"subtype":"noteOn"},{"deltaTime":46,"channel":10,"type":"channel","noteNumber":47,"velocity":0,"subtype":"noteOff"},{"deltaTime":2,"channel":10,"type":"channel","noteNumber":35,"velocity":110,"subtype":"noteOn"},{"deltaTime":94,"channel":10,"type":"channel","noteNumber":35,"velocity":0,"subtype":"noteOff"},{"deltaTime":2,"channel":10,"type":"channel","noteNumber":47,"velocity":110,"subtype":"noteOn"},{"deltaTime":46,"channel":10,"type":"channel","noteNumber":47,"velocity":0,"subtype":"noteOff"},{"deltaTime":2,"channel":10,"type":"channel","noteNumber":47,"velocity":110,"subtype":"noteOn"},{"deltaTime":46,"channel":10,"type":"channel","noteNumber":47,"velocity":0,"subtype":"noteOff"},{"deltaTime":2,"channel":10,"type":"channel","noteNumber":35,"velocity":110,"subtype":"noteOn"},{"deltaTime":94,"channel":10,"type":"channel","noteNumber":35,"velocity":0,"subtype":"noteOff"},{"deltaTime":2,"channel":10,"type":"channel","noteNumber":47,"velocity":110,"subtype":"noteOn"},{"deltaTime":46,"channel":10,"type":"channel","noteNumber":47,"velocity":0,"subtype":"noteOff"},{"deltaTime":2,"channel":10,"type":"channel","noteNumber":47,"velocity":110,"subtype":"noteOn"},{"deltaTime":46,"channel":10,"type":"channel","noteNumber":47,"velocity":0,"subtype":"noteOff"},{"deltaTime":2,"channel":10,"type":"channel","noteNumber":39,"velocity":110,"subtype":"noteOn"},{"deltaTime":94,"channel":10,"type":"channel","noteNumber":39,"velocity":0,"subtype":"noteOff"},{"deltaTime":2,"channel":10,"type":"channel","noteNumber":51,"velocity":110,"subtype":"noteOn"},{"deltaTime":46,"channel":10,"type":"channel","noteNumber":51,"velocity":0,"subtype":"noteOff"},{"deltaTime":2,"channel":10,"type":"channel","noteNumber":51,"velocity":110,"subtype":"noteOn"},{"deltaTime":46,"channel":10,"type":"channel","noteNumber":51,"velocity":0,"subtype":"noteOff"},{"deltaTime":2,"channel":10,"type":"channel","noteNumber":39,"velocity":110,"subtype":"noteOn"},{"deltaTime":94,"channel":10,"type":"channel","noteNumber":39,"velocity":0,"subtype":"noteOff"},{"deltaTime":2,"channel":10,"type":"channel","noteNumber":51,"velocity":110,"subtype":"noteOn"},{"deltaTime":46,"channel":10,"type":"channel","noteNumber":51,"velocity":0,"subtype":"noteOff"},{"deltaTime":2,"channel":10,"type":"channel","noteNumber":51,"velocity":110,"subtype":"noteOn"},{"deltaTime":46,"channel":10,"type":"channel","noteNumber":51,"velocity":0,"subtype":"noteOff"},{"deltaTime":2,"channel":10,"type":"channel","noteNumber":35,"velocity":110,"subtype":"noteOn"},{"deltaTime":94,"channel":10,"type":"channel","noteNumber":35,"velocity":0,"subtype":"noteOff"},{"deltaTime":2,"channel":10,"type":"channel","noteNumber":47,"velocity":110,"subtype":"noteOn"},{"deltaTime":46,"channel":10,"type":"channel","noteNumber":47,"velocity":0,"subtype":"noteOff"},{"deltaTime":2,"channel":10,"type":"channel","noteNumber":47,"velocity":110,"subtype":"noteOn"},{"deltaTime":46,"channel":10,"type":"channel","noteNumber":47,"velocity":0,"subtype":"noteOff"},{"deltaTime":2,"channel":10,"type":"channel","noteNumber":35,"velocity":110,"subtype":"noteOn"},{"deltaTime":94,"channel":10,"type":"channel","noteNumber":35,"velocity":0,"subtype":"noteOff"},{"deltaTime":2,"channel":10,"type":"channel","noteNumber":47,"velocity":110,"subtype":"noteOn"},{"deltaTime":46,"channel":10,"type":"channel","noteNumber":47,"velocity":0,"subtype":"noteOff"},{"deltaTime":2,"channel":10,"type":"channel","noteNumber":47,"velocity":110,"subtype":"noteOn"},{"deltaTime":46,"channel":10,"type":"channel","noteNumber":47,"velocity":0,"subtype":"noteOff"},{"deltaTime":2,"channel":10,"type":"channel","noteNumber":28,"velocity":110,"subtype":"noteOn"},{"deltaTime":94,"channel":10,"type":"channel","noteNumber":28,"velocity":0,"subtype":"noteOff"},{"deltaTime":2,"channel":10,"type":"channel","noteNumber":40,"velocity":110,"subtype":"noteOn"},{"deltaTime":46,"channel":10,"type":"channel","noteNumber":40,"velocity":0,"subtype":"noteOff"},{"deltaTime":2,"channel":10,"type":"channel","noteNumber":40,"velocity":110,"subtype":"noteOn"},{"deltaTime":46,"channel":10,"type":"channel","noteNumber":40,"velocity":0,"subtype":"noteOff"},{"deltaTime":2,"channel":10,"type":"channel","noteNumber":28,"velocity":110,"subtype":"noteOn"},{"deltaTime":94,"channel":10,"type":"channel","noteNumber":28,"velocity":0,"subtype":"noteOff"},{"deltaTime":2,"channel":10,"type":"channel","noteNumber":40,"velocity":110,"subtype":"noteOn"},{"deltaTime":46,"channel":10,"type":"channel","noteNumber":40,"velocity":0,"subtype":"noteOff"},{"deltaTime":2,"channel":10,"type":"channel","noteNumber":40,"velocity":110,"subtype":"noteOn"},{"deltaTime":46,"channel":10,"type":"channel","noteNumber":40,"velocity":0,"subtype":"noteOff"},{"deltaTime":2,"channel":10,"type":"channel","noteNumber":28,"velocity":110,"subtype":"noteOn"},{"deltaTime":94,"channel":10,"type":"channel","noteNumber":28,"velocity":0,"subtype":"noteOff"},{"deltaTime":2,"channel":10,"type":"channel","noteNumber":40,"velocity":110,"subtype":"noteOn"},{"deltaTime":46,"channel":10,"type":"channel","noteNumber":40,"velocity":0,"subtype":"noteOff"},{"deltaTime":2,"channel":10,"type":"channel","noteNumber":40,"velocity":110,"subtype":"noteOn"},{"deltaTime":46,"channel":10,"type":"channel","noteNumber":40,"velocity":0,"subtype":"noteOff"},{"deltaTime":2,"channel":10,"type":"channel","noteNumber":52,"velocity":110,"subtype":"noteOn"},{"deltaTime":94,"channel":10,"type":"channel","noteNumber":52,"velocity":0,"subtype":"noteOff"},{"deltaTime":2,"channel":10,"type":"channel","noteNumber":52,"velocity":110,"subtype":"noteOn"},{"deltaTime":46,"channel":10,"type":"channel","noteNumber":52,"velocity":0,"subtype":"noteOff"},{"deltaTime":2,"channel":10,"type":"channel","noteNumber":52,"velocity":110,"subtype":"noteOn"},{"deltaTime":46,"channel":10,"type":"channel","noteNumber":52,"velocity":0,"subtype":"noteOff"},{"deltaTime":2,"channel":10,"type":"channel","noteNumber":35,"velocity":110,"subtype":"noteOn"},{"deltaTime":94,"channel":10,"type":"channel","noteNumber":35,"velocity":0,"subtype":"noteOff"},{"deltaTime":2,"channel":10,"type":"channel","noteNumber":47,"velocity":110,"subtype":"noteOn"},{"deltaTime":46,"channel":10,"type":"channel","noteNumber":47,"velocity":0,"subtype":"noteOff"},{"deltaTime":2,"channel":10,"type":"channel","noteNumber":47,"velocity":110,"subtype":"noteOn"},{"deltaTime":46,"channel":10,"type":"channel","noteNumber":47,"velocity":0,"subtype":"noteOff"},{"deltaTime":2,"channel":10,"type":"channel","noteNumber":35,"velocity":110,"subtype":"noteOn"},{"deltaTime":94,"channel":10,"type":"channel","noteNumber":35,"velocity":0,"subtype":"noteOff"},{"deltaTime":2,"channel":10,"type":"channel","noteNumber":47,"velocity":110,"subtype":"noteOn"},{"deltaTime":46,"channel":10,"type":"channel","noteNumber":47,"velocity":0,"subtype":"noteOff"},{"deltaTime":2,"channel":10,"type":"channel","noteNumber":47,"velocity":110,"subtype":"noteOn"},{"deltaTime":46,"channel":10,"type":"channel","noteNumber":47,"velocity":0,"subtype":"noteOff"},{"deltaTime":2,"channel":10,"type":"channel","noteNumber":35,"velocity":110,"subtype":"noteOn"},{"deltaTime":94,"channel":10,"type":"channel","noteNumber":35,"velocity":0,"subtype":"noteOff"},{"deltaTime":2,"channel":10,"type":"channel","noteNumber":47,"velocity":110,"subtype":"noteOn"},{"deltaTime":46,"channel":10,"type":"channel","noteNumber":47,"velocity":0,"subtype":"noteOff"},{"deltaTime":2,"channel":10,"type":"channel","noteNumber":47,"velocity":110,"subtype":"noteOn"},{"deltaTime":46,"channel":10,"type":"channel","noteNumber":47,"velocity":0,"subtype":"noteOff"},{"deltaTime":2,"channel":10,"type":"channel","noteNumber":35,"velocity":110,"subtype":"noteOn"},{"deltaTime":94,"channel":10,"type":"channel","noteNumber":35,"velocity":0,"subtype":"noteOff"},{"deltaTime":2,"channel":10,"type":"channel","noteNumber":47,"velocity":110,"subtype":"noteOn"},{"deltaTime":46,"channel":10,"type":"channel","noteNumber":47,"velocity":0,"subtype":"noteOff"},{"deltaTime":2,"channel":10,"type":"channel","noteNumber":47,"velocity":110,"subtype":"noteOn"},{"deltaTime":46,"channel":10,"type":"channel","noteNumber":47,"velocity":0,"subtype":"noteOff"},{"deltaTime":2,"channel":10,"type":"channel","noteNumber":40,"velocity":110,"subtype":"noteOn"},{"deltaTime":94,"channel":10,"type":"channel","noteNumber":40,"velocity":0,"subtype":"noteOff"},{"deltaTime":2,"channel":10,"type":"channel","noteNumber":52,"velocity":110,"subtype":"noteOn"},{"deltaTime":46,"channel":10,"type":"channel","noteNumber":52,"velocity":0,"subtype":"noteOff"},{"deltaTime":2,"channel":10,"type":"channel","noteNumber":52,"velocity":110,"subtype":"noteOn"},{"deltaTime":46,"channel":10,"type":"channel","noteNumber":52,"velocity":0,"subtype":"noteOff"},{"deltaTime":2,"channel":10,"type":"channel","noteNumber":40,"velocity":110,"subtype":"noteOn"},{"deltaTime":94,"channel":10,"type":"channel","noteNumber":40,"velocity":0,"subtype":"noteOff"},{"deltaTime":2,"channel":10,"type":"channel","noteNumber":52,"velocity":110,"subtype":"noteOn"},{"deltaTime":46,"channel":10,"type":"channel","noteNumber":52,"velocity":0,"subtype":"noteOff"},{"deltaTime":2,"channel":10,"type":"channel","noteNumber":52,"velocity":110,"subtype":"noteOn"},{"deltaTime":46,"channel":10,"type":"channel","noteNumber":52,"velocity":0,"subtype":"noteOff"},{"deltaTime":2,"channel":10,"type":"channel","noteNumber":40,"velocity":110,"subtype":"noteOn"},{"deltaTime":94,"channel":10,"type":"channel","noteNumber":40,"velocity":0,"subtype":"noteOff"},{"deltaTime":2,"channel":10,"type":"channel","noteNumber":52,"velocity":110,"subtype":"noteOn"},{"deltaTime":46,"channel":10,"type":"channel","noteNumber":52,"velocity":0,"subtype":"noteOff"},{"deltaTime":2,"channel":10,"type":"channel","noteNumber":52,"velocity":110,"subtype":"noteOn"},{"deltaTime":46,"channel":10,"type":"channel","noteNumber":52,"velocity":0,"subtype":"noteOff"},{"deltaTime":2,"channel":10,"type":"channel","noteNumber":40,"velocity":110,"subtype":"noteOn"},{"deltaTime":94,"channel":10,"type":"channel","noteNumber":40,"velocity":0,"subtype":"noteOff"},{"deltaTime":2,"channel":10,"type":"channel","noteNumber":52,"velocity":110,"subtype":"noteOn"},{"deltaTime":46,"channel":10,"type":"channel","noteNumber":52,"velocity":0,"subtype":"noteOff"},{"deltaTime":2,"channel":10,"type":"channel","noteNumber":52,"velocity":110,"subtype":"noteOn"},{"deltaTime":46,"channel":10,"type":"channel","noteNumber":52,"velocity":0,"subtype":"noteOff"},{"deltaTime":2,"channel":10,"type":"channel","noteNumber":39,"velocity":110,"subtype":"noteOn"},{"deltaTime":94,"channel":10,"type":"channel","noteNumber":39,"velocity":0,"subtype":"noteOff"},{"deltaTime":2,"channel":10,"type":"channel","noteNumber":51,"velocity":110,"subtype":"noteOn"},{"deltaTime":46,"channel":10,"type":"channel","noteNumber":51,"velocity":0,"subtype":"noteOff"},{"deltaTime":2,"channel":10,"type":"channel","noteNumber":51,"velocity":110,"subtype":"noteOn"},{"deltaTime":46,"channel":10,"type":"channel","noteNumber":51,"velocity":0,"subtype":"noteOff"},{"deltaTime":2,"channel":10,"type":"channel","noteNumber":39,"velocity":110,"subtype":"noteOn"},{"deltaTime":94,"channel":10,"type":"channel","noteNumber":39,"velocity":0,"subtype":"noteOff"},{"deltaTime":2,"channel":10,"type":"channel","noteNumber":51,"velocity":110,"subtype":"noteOn"},{"deltaTime":46,"channel":10,"type":"channel","noteNumber":51,"velocity":0,"subtype":"noteOff"},{"deltaTime":2,"channel":10,"type":"channel","noteNumber":51,"velocity":110,"subtype":"noteOn"},{"deltaTime":46,"channel":10,"type":"channel","noteNumber":51,"velocity":0,"subtype":"noteOff"},{"deltaTime":2,"channel":10,"type":"channel","noteNumber":35,"velocity":110,"subtype":"noteOn"},{"deltaTime":94,"channel":10,"type":"channel","noteNumber":35,"velocity":0,"subtype":"noteOff"},{"deltaTime":2,"channel":10,"type":"channel","noteNumber":47,"velocity":110,"subtype":"noteOn"},{"deltaTime":46,"channel":10,"type":"channel","noteNumber":47,"velocity":0,"subtype":"noteOff"},{"deltaTime":2,"channel":10,"type":"channel","noteNumber":47,"velocity":110,"subtype":"noteOn"},{"deltaTime":46,"channel":10,"type":"channel","noteNumber":47,"velocity":0,"subtype":"noteOff"},{"deltaTime":2,"channel":10,"type":"channel","noteNumber":35,"velocity":110,"subtype":"noteOn"},{"deltaTime":94,"channel":10,"type":"channel","noteNumber":35,"velocity":0,"subtype":"noteOff"},{"deltaTime":2,"channel":10,"type":"channel","noteNumber":47,"velocity":110,"subtype":"noteOn"},{"deltaTime":46,"channel":10,"type":"channel","noteNumber":47,"velocity":0,"subtype":"noteOff"},{"deltaTime":2,"channel":10,"type":"channel","noteNumber":47,"velocity":110,"subtype":"noteOn"},{"deltaTime":46,"channel":10,"type":"channel","noteNumber":47,"velocity":0,"subtype":"noteOff"},{"deltaTime":2,"channel":10,"type":"channel","noteNumber":28,"velocity":110,"subtype":"noteOn"},{"deltaTime":46,"channel":10,"type":"channel","noteNumber":28,"velocity":0,"subtype":"noteOff"},{"deltaTime":2,"channel":10,"type":"channel","noteNumber":35,"velocity":110,"subtype":"noteOn"},{"deltaTime":46,"channel":10,"type":"channel","noteNumber":35,"velocity":0,"subtype":"noteOff"},{"deltaTime":2,"channel":10,"type":"channel","noteNumber":40,"velocity":110,"subtype":"noteOn"},{"deltaTime":46,"channel":10,"type":"channel","noteNumber":40,"velocity":0,"subtype":"noteOff"},{"deltaTime":2,"channel":10,"type":"channel","noteNumber":35,"velocity":110,"subtype":"noteOn"},{"deltaTime":46,"channel":10,"type":"channel","noteNumber":35,"velocity":0,"subtype":"noteOff"},{"deltaTime":2,"channel":10,"type":"channel","noteNumber":28,"velocity":110,"subtype":"noteOn"},{"deltaTime":46,"channel":10,"type":"channel","noteNumber":28,"velocity":0,"subtype":"noteOff"},{"deltaTime":2,"channel":10,"type":"channel","noteNumber":35,"velocity":110,"subtype":"noteOn"},{"deltaTime":46,"channel":10,"type":"channel","noteNumber":35,"velocity":0,"subtype":"noteOff"},{"deltaTime":2,"channel":10,"type":"channel","noteNumber":40,"velocity":110,"subtype":"noteOn"},{"deltaTime":46,"channel":10,"type":"channel","noteNumber":40,"velocity":0,"subtype":"noteOff"},{"deltaTime":2,"channel":10,"type":"channel","noteNumber":35,"velocity":110,"subtype":"noteOn"},{"deltaTime":46,"channel":10,"type":"channel","noteNumber":35,"velocity":0,"subtype":"noteOff"},{"deltaTime":2,"channel":10,"type":"channel","noteNumber":28,"velocity":110,"subtype":"noteOn"},{"deltaTime":46,"channel":10,"type":"channel","noteNumber":28,"velocity":0,"subtype":"noteOff"},{"deltaTime":2,"channel":10,"type":"channel","noteNumber":35,"velocity":110,"subtype":"noteOn"},{"deltaTime":46,"channel":10,"type":"channel","noteNumber":35,"velocity":0,"subtype":"noteOff"},{"deltaTime":2,"channel":10,"type":"channel","noteNumber":40,"velocity":110,"subtype":"noteOn"},{"deltaTime":46,"channel":10,"type":"channel","noteNumber":40,"velocity":0,"subtype":"noteOff"},{"deltaTime":2,"channel":10,"type":"channel","noteNumber":35,"velocity":110,"subtype":"noteOn"},{"deltaTime":46,"channel":10,"type":"channel","noteNumber":35,"velocity":0,"subtype":"noteOff"},{"deltaTime":2,"channel":10,"type":"channel","noteNumber":28,"velocity":110,"subtype":"noteOn"},{"deltaTime":46,"channel":10,"type":"channel","noteNumber":28,"velocity":0,"subtype":"noteOff"},{"deltaTime":2,"channel":10,"type":"channel","noteNumber":35,"velocity":110,"subtype":"noteOn"},{"deltaTime":46,"channel":10,"type":"channel","noteNumber":35,"velocity":0,"subtype":"noteOff"},{"deltaTime":2,"channel":10,"type":"channel","noteNumber":40,"velocity":110,"subtype":"noteOn"},{"deltaTime":46,"channel":10,"type":"channel","noteNumber":40,"velocity":0,"subtype":"noteOff"},{"deltaTime":2,"channel":10,"type":"channel","noteNumber":35,"velocity":110,"subtype":"noteOn"},{"deltaTime":46,"channel":10,"type":"channel","noteNumber":35,"velocity":0,"subtype":"noteOff"},{"deltaTime":2,"channel":10,"type":"channel","noteNumber":33,"velocity":110,"subtype":"noteOn"},{"deltaTime":94,"channel":10,"type":"channel","noteNumber":33,"velocity":0,"subtype":"noteOff"},{"deltaTime":2,"channel":10,"type":"channel","noteNumber":45,"velocity":110,"subtype":"noteOn"},{"deltaTime":46,"channel":10,"type":"channel","noteNumber":45,"velocity":0,"subtype":"noteOff"},{"deltaTime":2,"channel":10,"type":"channel","noteNumber":45,"velocity":110,"subtype":"noteOn"},{"deltaTime":46,"channel":10,"type":"channel","noteNumber":45,"velocity":0,"subtype":"noteOff"},{"deltaTime":2,"channel":10,"type":"channel","noteNumber":33,"velocity":110,"subtype":"noteOn"},{"deltaTime":94,"channel":10,"type":"channel","noteNumber":33,"velocity":0,"subtype":"noteOff"},{"deltaTime":2,"channel":10,"type":"channel","noteNumber":45,"velocity":110,"subtype":"noteOn"},{"deltaTime":46,"channel":10,"type":"channel","noteNumber":45,"velocity":0,"subtype":"noteOff"},{"deltaTime":2,"channel":10,"type":"channel","noteNumber":45,"velocity":110,"subtype":"noteOn"},{"deltaTime":46,"channel":10,"type":"channel","noteNumber":45,"velocity":0,"subtype":"noteOff"},{"deltaTime":2,"channel":10,"type":"channel","noteNumber":33,"velocity":110,"subtype":"noteOn"},{"deltaTime":94,"channel":10,"type":"channel","noteNumber":33,"velocity":0,"subtype":"noteOff"},{"deltaTime":2,"channel":10,"type":"channel","noteNumber":45,"velocity":110,"subtype":"noteOn"},{"deltaTime":46,"channel":10,"type":"channel","noteNumber":45,"velocity":0,"subtype":"noteOff"},{"deltaTime":2,"channel":10,"type":"channel","noteNumber":45,"velocity":110,"subtype":"noteOn"},{"deltaTime":46,"channel":10,"type":"channel","noteNumber":45,"velocity":0,"subtype":"noteOff"},{"deltaTime":2,"channel":10,"type":"channel","noteNumber":33,"velocity":110,"subtype":"noteOn"},{"deltaTime":94,"channel":10,"type":"channel","noteNumber":33,"velocity":0,"subtype":"noteOff"},{"deltaTime":2,"channel":10,"type":"channel","noteNumber":45,"velocity":110,"subtype":"noteOn"},{"deltaTime":46,"channel":10,"type":"channel","noteNumber":45,"velocity":0,"subtype":"noteOff"},{"deltaTime":2,"channel":10,"type":"channel","noteNumber":45,"velocity":110,"subtype":"noteOn"},{"deltaTime":46,"channel":10,"type":"channel","noteNumber":45,"velocity":0,"subtype":"noteOff"},{"deltaTime":2,"channel":10,"type":"channel","noteNumber":35,"velocity":110,"subtype":"noteOn"},{"deltaTime":94,"channel":10,"type":"channel","noteNumber":35,"velocity":0,"subtype":"noteOff"},{"deltaTime":2,"channel":10,"type":"channel","noteNumber":47,"velocity":110,"subtype":"noteOn"},{"deltaTime":46,"channel":10,"type":"channel","noteNumber":47,"velocity":0,"subtype":"noteOff"},{"deltaTime":2,"channel":10,"type":"channel","noteNumber":47,"velocity":110,"subtype":"noteOn"},{"deltaTime":46,"channel":10,"type":"channel","noteNumber":47,"velocity":0,"subtype":"noteOff"},{"deltaTime":2,"channel":10,"type":"channel","noteNumber":35,"velocity":110,"subtype":"noteOn"},{"deltaTime":94,"channel":10,"type":"channel","noteNumber":35,"velocity":0,"subtype":"noteOff"},{"deltaTime":2,"channel":10,"type":"channel","noteNumber":47,"velocity":110,"subtype":"noteOn"},{"deltaTime":46,"channel":10,"type":"channel","noteNumber":47,"velocity":0,"subtype":"noteOff"},{"deltaTime":2,"channel":10,"type":"channel","noteNumber":47,"velocity":110,"subtype":"noteOn"},{"deltaTime":46,"channel":10,"type":"channel","noteNumber":47,"velocity":0,"subtype":"noteOff"},{"deltaTime":2,"channel":10,"type":"channel","noteNumber":35,"velocity":110,"subtype":"noteOn"},{"deltaTime":94,"channel":10,"type":"channel","noteNumber":35,"velocity":0,"subtype":"noteOff"},{"deltaTime":2,"channel":10,"type":"channel","noteNumber":47,"velocity":110,"subtype":"noteOn"},{"deltaTime":46,"channel":10,"type":"channel","noteNumber":47,"velocity":0,"subtype":"noteOff"},{"deltaTime":2,"channel":10,"type":"channel","noteNumber":47,"velocity":110,"subtype":"noteOn"},{"deltaTime":46,"channel":10,"type":"channel","noteNumber":47,"velocity":0,"subtype":"noteOff"},{"deltaTime":2,"channel":10,"type":"channel","noteNumber":35,"velocity":110,"subtype":"noteOn"},{"deltaTime":94,"channel":10,"type":"channel","noteNumber":35,"velocity":0,"subtype":"noteOff"},{"deltaTime":2,"channel":10,"type":"channel","noteNumber":47,"velocity":110,"subtype":"noteOn"},{"deltaTime":46,"channel":10,"type":"channel","noteNumber":47,"velocity":0,"subtype":"noteOff"},{"deltaTime":2,"channel":10,"type":"channel","noteNumber":47,"velocity":110,"subtype":"noteOn"},{"deltaTime":46,"channel":10,"type":"channel","noteNumber":47,"velocity":0,"subtype":"noteOff"},{"deltaTime":2,"channel":10,"type":"channel","noteNumber":39,"velocity":110,"subtype":"noteOn"},{"deltaTime":94,"channel":10,"type":"channel","noteNumber":39,"velocity":0,"subtype":"noteOff"},{"deltaTime":2,"channel":10,"type":"channel","noteNumber":51,"velocity":110,"subtype":"noteOn"},{"deltaTime":46,"channel":10,"type":"channel","noteNumber":51,"velocity":0,"subtype":"noteOff"},{"deltaTime":2,"channel":10,"type":"channel","noteNumber":51,"velocity":110,"subtype":"noteOn"},{"deltaTime":46,"channel":10,"type":"channel","noteNumber":51,"velocity":0,"subtype":"noteOff"},{"deltaTime":2,"channel":10,"type":"channel","noteNumber":39,"velocity":110,"subtype":"noteOn"},{"deltaTime":94,"channel":10,"type":"channel","noteNumber":39,"velocity":0,"subtype":"noteOff"},{"deltaTime":2,"channel":10,"type":"channel","noteNumber":51,"velocity":110,"subtype":"noteOn"},{"deltaTime":46,"channel":10,"type":"channel","noteNumber":51,"velocity":0,"subtype":"noteOff"},{"deltaTime":2,"channel":10,"type":"channel","noteNumber":51,"velocity":110,"subtype":"noteOn"},{"deltaTime":46,"channel":10,"type":"channel","noteNumber":51,"velocity":0,"subtype":"noteOff"},{"deltaTime":2,"channel":10,"type":"channel","noteNumber":35,"velocity":110,"subtype":"noteOn"},{"deltaTime":94,"channel":10,"type":"channel","noteNumber":35,"velocity":0,"subtype":"noteOff"},{"deltaTime":2,"channel":10,"type":"channel","noteNumber":47,"velocity":110,"subtype":"noteOn"},{"deltaTime":46,"channel":10,"type":"channel","noteNumber":47,"velocity":0,"subtype":"noteOff"},{"deltaTime":2,"channel":10,"type":"channel","noteNumber":47,"velocity":110,"subtype":"noteOn"},{"deltaTime":46,"channel":10,"type":"channel","noteNumber":47,"velocity":0,"subtype":"noteOff"},{"deltaTime":2,"channel":10,"type":"channel","noteNumber":35,"velocity":110,"subtype":"noteOn"},{"deltaTime":94,"channel":10,"type":"channel","noteNumber":35,"velocity":0,"subtype":"noteOff"},{"deltaTime":2,"channel":10,"type":"channel","noteNumber":47,"velocity":110,"subtype":"noteOn"},{"deltaTime":46,"channel":10,"type":"channel","noteNumber":47,"velocity":0,"subtype":"noteOff"},{"deltaTime":2,"channel":10,"type":"channel","noteNumber":47,"velocity":110,"subtype":"noteOn"},{"deltaTime":46,"channel":10,"type":"channel","noteNumber":47,"velocity":0,"subtype":"noteOff"},{"deltaTime":2,"channel":10,"type":"channel","noteNumber":28,"velocity":110,"subtype":"noteOn"},{"deltaTime":94,"channel":10,"type":"channel","noteNumber":28,"velocity":0,"subtype":"noteOff"},{"deltaTime":2,"channel":10,"type":"channel","noteNumber":40,"velocity":110,"subtype":"noteOn"},{"deltaTime":46,"channel":10,"type":"channel","noteNumber":40,"velocity":0,"subtype":"noteOff"},{"deltaTime":2,"channel":10,"type":"channel","noteNumber":40,"velocity":110,"subtype":"noteOn"},{"deltaTime":46,"channel":10,"type":"channel","noteNumber":40,"velocity":0,"subtype":"noteOff"},{"deltaTime":2,"channel":10,"type":"channel","noteNumber":28,"velocity":110,"subtype":"noteOn"},{"deltaTime":94,"channel":10,"type":"channel","noteNumber":28,"velocity":0,"subtype":"noteOff"},{"deltaTime":2,"channel":10,"type":"channel","noteNumber":40,"velocity":110,"subtype":"noteOn"},{"deltaTime":46,"channel":10,"type":"channel","noteNumber":40,"velocity":0,"subtype":"noteOff"},{"deltaTime":2,"channel":10,"type":"channel","noteNumber":40,"velocity":110,"subtype":"noteOn"},{"deltaTime":46,"channel":10,"type":"channel","noteNumber":40,"velocity":0,"subtype":"noteOff"},{"deltaTime":2,"channel":10,"type":"channel","noteNumber":28,"velocity":110,"subtype":"noteOn"},{"deltaTime":94,"channel":10,"type":"channel","noteNumber":28,"velocity":0,"subtype":"noteOff"},{"deltaTime":2,"channel":10,"type":"channel","noteNumber":40,"velocity":110,"subtype":"noteOn"},{"deltaTime":46,"channel":10,"type":"channel","noteNumber":40,"velocity":0,"subtype":"noteOff"},{"deltaTime":2,"channel":10,"type":"channel","noteNumber":40,"velocity":110,"subtype":"noteOn"},{"deltaTime":46,"channel":10,"type":"channel","noteNumber":40,"velocity":0,"subtype":"noteOff"},{"deltaTime":2,"channel":10,"type":"channel","noteNumber":52,"velocity":110,"subtype":"noteOn"},{"deltaTime":94,"channel":10,"type":"channel","noteNumber":52,"velocity":0,"subtype":"noteOff"},{"deltaTime":2,"channel":10,"type":"channel","noteNumber":52,"velocity":110,"subtype":"noteOn"},{"deltaTime":46,"channel":10,"type":"channel","noteNumber":52,"velocity":0,"subtype":"noteOff"},{"deltaTime":2,"channel":10,"type":"channel","noteNumber":52,"velocity":110,"subtype":"noteOn"},{"deltaTime":46,"channel":10,"type":"channel","noteNumber":52,"velocity":0,"subtype":"noteOff"},{"deltaTime":2,"channel":10,"type":"channel","noteNumber":35,"velocity":110,"subtype":"noteOn"},{"deltaTime":94,"channel":10,"type":"channel","noteNumber":35,"velocity":0,"subtype":"noteOff"},{"deltaTime":2,"channel":10,"type":"channel","noteNumber":47,"velocity":110,"subtype":"noteOn"},{"deltaTime":46,"channel":10,"type":"channel","noteNumber":47,"velocity":0,"subtype":"noteOff"},{"deltaTime":2,"channel":10,"type":"channel","noteNumber":47,"velocity":110,"subtype":"noteOn"},{"deltaTime":46,"channel":10,"type":"channel","noteNumber":47,"velocity":0,"subtype":"noteOff"},{"deltaTime":2,"channel":10,"type":"channel","noteNumber":35,"velocity":110,"subtype":"noteOn"},{"deltaTime":94,"channel":10,"type":"channel","noteNumber":35,"velocity":0,"subtype":"noteOff"},{"deltaTime":2,"channel":10,"type":"channel","noteNumber":47,"velocity":110,"subtype":"noteOn"},{"deltaTime":46,"channel":10,"type":"channel","noteNumber":47,"velocity":0,"subtype":"noteOff"},{"deltaTime":2,"channel":10,"type":"channel","noteNumber":47,"velocity":110,"subtype":"noteOn"},{"deltaTime":46,"channel":10,"type":"channel","noteNumber":47,"velocity":0,"subtype":"noteOff"},{"deltaTime":2,"channel":10,"type":"channel","noteNumber":35,"velocity":110,"subtype":"noteOn"},{"deltaTime":94,"channel":10,"type":"channel","noteNumber":35,"velocity":0,"subtype":"noteOff"},{"deltaTime":2,"channel":10,"type":"channel","noteNumber":47,"velocity":110,"subtype":"noteOn"},{"deltaTime":46,"channel":10,"type":"channel","noteNumber":47,"velocity":0,"subtype":"noteOff"},{"deltaTime":2,"channel":10,"type":"channel","noteNumber":47,"velocity":110,"subtype":"noteOn"},{"deltaTime":46,"channel":10,"type":"channel","noteNumber":47,"velocity":0,"subtype":"noteOff"},{"deltaTime":2,"channel":10,"type":"channel","noteNumber":35,"velocity":110,"subtype":"noteOn"},{"deltaTime":94,"channel":10,"type":"channel","noteNumber":35,"velocity":0,"subtype":"noteOff"},{"deltaTime":2,"channel":10,"type":"channel","noteNumber":47,"velocity":110,"subtype":"noteOn"},{"deltaTime":46,"channel":10,"type":"channel","noteNumber":47,"velocity":0,"subtype":"noteOff"},{"deltaTime":2,"channel":10,"type":"channel","noteNumber":47,"velocity":110,"subtype":"noteOn"},{"deltaTime":46,"channel":10,"type":"channel","noteNumber":47,"velocity":0,"subtype":"noteOff"},{"deltaTime":2,"channel":10,"type":"channel","noteNumber":40,"velocity":110,"subtype":"noteOn"},{"deltaTime":94,"channel":10,"type":"channel","noteNumber":40,"velocity":0,"subtype":"noteOff"},{"deltaTime":2,"channel":10,"type":"channel","noteNumber":52,"velocity":110,"subtype":"noteOn"},{"deltaTime":46,"channel":10,"type":"channel","noteNumber":52,"velocity":0,"subtype":"noteOff"},{"deltaTime":2,"channel":10,"type":"channel","noteNumber":52,"velocity":110,"subtype":"noteOn"},{"deltaTime":46,"channel":10,"type":"channel","noteNumber":52,"velocity":0,"subtype":"noteOff"},{"deltaTime":2,"channel":10,"type":"channel","noteNumber":40,"velocity":110,"subtype":"noteOn"},{"deltaTime":94,"channel":10,"type":"channel","noteNumber":40,"velocity":0,"subtype":"noteOff"},{"deltaTime":2,"channel":10,"type":"channel","noteNumber":52,"velocity":110,"subtype":"noteOn"},{"deltaTime":46,"channel":10,"type":"channel","noteNumber":52,"velocity":0,"subtype":"noteOff"},{"deltaTime":2,"channel":10,"type":"channel","noteNumber":52,"velocity":110,"subtype":"noteOn"},{"deltaTime":46,"channel":10,"type":"channel","noteNumber":52,"velocity":0,"subtype":"noteOff"},{"deltaTime":2,"channel":10,"type":"channel","noteNumber":40,"velocity":110,"subtype":"noteOn"},{"deltaTime":94,"channel":10,"type":"channel","noteNumber":40,"velocity":0,"subtype":"noteOff"},{"deltaTime":2,"channel":10,"type":"channel","noteNumber":52,"velocity":110,"subtype":"noteOn"},{"deltaTime":46,"channel":10,"type":"channel","noteNumber":52,"velocity":0,"subtype":"noteOff"},{"deltaTime":2,"channel":10,"type":"channel","noteNumber":52,"velocity":110,"subtype":"noteOn"},{"deltaTime":46,"channel":10,"type":"channel","noteNumber":52,"velocity":0,"subtype":"noteOff"},{"deltaTime":2,"channel":10,"type":"channel","noteNumber":40,"velocity":110,"subtype":"noteOn"},{"deltaTime":94,"channel":10,"type":"channel","noteNumber":40,"velocity":0,"subtype":"noteOff"},{"deltaTime":2,"channel":10,"type":"channel","noteNumber":52,"velocity":110,"subtype":"noteOn"},{"deltaTime":46,"channel":10,"type":"channel","noteNumber":52,"velocity":0,"subtype":"noteOff"},{"deltaTime":2,"channel":10,"type":"channel","noteNumber":52,"velocity":110,"subtype":"noteOn"},{"deltaTime":46,"channel":10,"type":"channel","noteNumber":52,"velocity":0,"subtype":"noteOff"},{"deltaTime":2,"channel":10,"type":"channel","noteNumber":39,"velocity":110,"subtype":"noteOn"},{"deltaTime":94,"channel":10,"type":"channel","noteNumber":39,"velocity":0,"subtype":"noteOff"},{"deltaTime":2,"channel":10,"type":"channel","noteNumber":51,"velocity":110,"subtype":"noteOn"},{"deltaTime":46,"channel":10,"type":"channel","noteNumber":51,"velocity":0,"subtype":"noteOff"},{"deltaTime":2,"channel":10,"type":"channel","noteNumber":51,"velocity":110,"subtype":"noteOn"},{"deltaTime":46,"channel":10,"type":"channel","noteNumber":51,"velocity":0,"subtype":"noteOff"},{"deltaTime":2,"channel":10,"type":"channel","noteNumber":39,"velocity":110,"subtype":"noteOn"},{"deltaTime":94,"channel":10,"type":"channel","noteNumber":39,"velocity":0,"subtype":"noteOff"},{"deltaTime":2,"channel":10,"type":"channel","noteNumber":51,"velocity":110,"subtype":"noteOn"},{"deltaTime":46,"channel":10,"type":"channel","noteNumber":51,"velocity":0,"subtype":"noteOff"},{"deltaTime":2,"channel":10,"type":"channel","noteNumber":51,"velocity":110,"subtype":"noteOn"},{"deltaTime":46,"channel":10,"type":"channel","noteNumber":51,"velocity":0,"subtype":"noteOff"},{"deltaTime":2,"channel":10,"type":"channel","noteNumber":35,"velocity":110,"subtype":"noteOn"},{"deltaTime":94,"channel":10,"type":"channel","noteNumber":35,"velocity":0,"subtype":"noteOff"},{"deltaTime":2,"channel":10,"type":"channel","noteNumber":47,"velocity":110,"subtype":"noteOn"},{"deltaTime":46,"channel":10,"type":"channel","noteNumber":47,"velocity":0,"subtype":"noteOff"},{"deltaTime":2,"channel":10,"type":"channel","noteNumber":47,"velocity":110,"subtype":"noteOn"},{"deltaTime":46,"channel":10,"type":"channel","noteNumber":47,"velocity":0,"subtype":"noteOff"},{"deltaTime":2,"channel":10,"type":"channel","noteNumber":35,"velocity":110,"subtype":"noteOn"},{"deltaTime":94,"channel":10,"type":"channel","noteNumber":35,"velocity":0,"subtype":"noteOff"},{"deltaTime":2,"channel":10,"type":"channel","noteNumber":47,"velocity":110,"subtype":"noteOn"},{"deltaTime":46,"channel":10,"type":"channel","noteNumber":47,"velocity":0,"subtype":"noteOff"},{"deltaTime":2,"channel":10,"type":"channel","noteNumber":47,"velocity":110,"subtype":"noteOn"},{"deltaTime":46,"channel":10,"type":"channel","noteNumber":47,"velocity":0,"subtype":"noteOff"},{"deltaTime":2,"channel":10,"type":"channel","noteNumber":28,"velocity":110,"subtype":"noteOn"},{"deltaTime":46,"channel":10,"type":"channel","noteNumber":28,"velocity":0,"subtype":"noteOff"},{"deltaTime":2,"channel":10,"type":"channel","noteNumber":35,"velocity":110,"subtype":"noteOn"},{"deltaTime":46,"channel":10,"type":"channel","noteNumber":35,"velocity":0,"subtype":"noteOff"},{"deltaTime":2,"channel":10,"type":"channel","noteNumber":40,"velocity":110,"subtype":"noteOn"},{"deltaTime":46,"channel":10,"type":"channel","noteNumber":40,"velocity":0,"subtype":"noteOff"},{"deltaTime":2,"channel":10,"type":"channel","noteNumber":35,"velocity":110,"subtype":"noteOn"},{"deltaTime":46,"channel":10,"type":"channel","noteNumber":35,"velocity":0,"subtype":"noteOff"},{"deltaTime":2,"channel":10,"type":"channel","noteNumber":28,"velocity":110,"subtype":"noteOn"},{"deltaTime":46,"channel":10,"type":"channel","noteNumber":28,"velocity":0,"subtype":"noteOff"},{"deltaTime":2,"channel":10,"type":"channel","noteNumber":35,"velocity":110,"subtype":"noteOn"},{"deltaTime":46,"channel":10,"type":"channel","noteNumber":35,"velocity":0,"subtype":"noteOff"},{"deltaTime":2,"channel":10,"type":"channel","noteNumber":40,"velocity":110,"subtype":"noteOn"},{"deltaTime":46,"channel":10,"type":"channel","noteNumber":40,"velocity":0,"subtype":"noteOff"},{"deltaTime":2,"channel":10,"type":"channel","noteNumber":35,"velocity":110,"subtype":"noteOn"},{"deltaTime":46,"channel":10,"type":"channel","noteNumber":35,"velocity":0,"subtype":"noteOff"},{"deltaTime":2,"channel":10,"type":"channel","noteNumber":28,"velocity":110,"subtype":"noteOn"},{"deltaTime":46,"channel":10,"type":"channel","noteNumber":28,"velocity":0,"subtype":"noteOff"},{"deltaTime":2,"channel":10,"type":"channel","noteNumber":35,"velocity":110,"subtype":"noteOn"},{"deltaTime":46,"channel":10,"type":"channel","noteNumber":35,"velocity":0,"subtype":"noteOff"},{"deltaTime":2,"channel":10,"type":"channel","noteNumber":40,"velocity":110,"subtype":"noteOn"},{"deltaTime":46,"channel":10,"type":"channel","noteNumber":40,"velocity":0,"subtype":"noteOff"},{"deltaTime":2,"channel":10,"type":"channel","noteNumber":35,"velocity":110,"subtype":"noteOn"},{"deltaTime":46,"channel":10,"type":"channel","noteNumber":35,"velocity":0,"subtype":"noteOff"},{"deltaTime":2,"channel":10,"type":"channel","noteNumber":28,"velocity":110,"subtype":"noteOn"},{"deltaTime":46,"channel":10,"type":"channel","noteNumber":28,"velocity":0,"subtype":"noteOff"},{"deltaTime":2,"channel":10,"type":"channel","noteNumber":35,"velocity":110,"subtype":"noteOn"},{"deltaTime":46,"channel":10,"type":"channel","noteNumber":35,"velocity":0,"subtype":"noteOff"},{"deltaTime":2,"channel":10,"type":"channel","noteNumber":40,"velocity":110,"subtype":"noteOn"},{"deltaTime":46,"channel":10,"type":"channel","noteNumber":40,"velocity":0,"subtype":"noteOff"},{"deltaTime":2,"channel":10,"type":"channel","noteNumber":35,"velocity":110,"subtype":"noteOn"},{"deltaTime":46,"channel":10,"type":"channel","noteNumber":35,"velocity":0,"subtype":"noteOff"},{"deltaTime":2,"channel":10,"type":"channel","noteNumber":33,"velocity":110,"subtype":"noteOn"},{"deltaTime":94,"channel":10,"type":"channel","noteNumber":33,"velocity":0,"subtype":"noteOff"},{"deltaTime":2,"channel":10,"type":"channel","noteNumber":45,"velocity":110,"subtype":"noteOn"},{"deltaTime":46,"channel":10,"type":"channel","noteNumber":45,"velocity":0,"subtype":"noteOff"},{"deltaTime":2,"channel":10,"type":"channel","noteNumber":45,"velocity":110,"subtype":"noteOn"},{"deltaTime":46,"channel":10,"type":"channel","noteNumber":45,"velocity":0,"subtype":"noteOff"},{"deltaTime":2,"channel":10,"type":"channel","noteNumber":33,"velocity":110,"subtype":"noteOn"},{"deltaTime":94,"channel":10,"type":"channel","noteNumber":33,"velocity":0,"subtype":"noteOff"},{"deltaTime":2,"channel":10,"type":"channel","noteNumber":45,"velocity":110,"subtype":"noteOn"},{"deltaTime":46,"channel":10,"type":"channel","noteNumber":45,"velocity":0,"subtype":"noteOff"},{"deltaTime":2,"channel":10,"type":"channel","noteNumber":45,"velocity":110,"subtype":"noteOn"},{"deltaTime":46,"channel":10,"type":"channel","noteNumber":45,"velocity":0,"subtype":"noteOff"},{"deltaTime":2,"channel":10,"type":"channel","noteNumber":33,"velocity":110,"subtype":"noteOn"},{"deltaTime":94,"channel":10,"type":"channel","noteNumber":33,"velocity":0,"subtype":"noteOff"},{"deltaTime":2,"channel":10,"type":"channel","noteNumber":45,"velocity":110,"subtype":"noteOn"},{"deltaTime":46,"channel":10,"type":"channel","noteNumber":45,"velocity":0,"subtype":"noteOff"},{"deltaTime":2,"channel":10,"type":"channel","noteNumber":45,"velocity":110,"subtype":"noteOn"},{"deltaTime":46,"channel":10,"type":"channel","noteNumber":45,"velocity":0,"subtype":"noteOff"},{"deltaTime":2,"channel":10,"type":"channel","noteNumber":33,"velocity":110,"subtype":"noteOn"},{"deltaTime":94,"channel":10,"type":"channel","noteNumber":33,"velocity":0,"subtype":"noteOff"},{"deltaTime":2,"channel":10,"type":"channel","noteNumber":45,"velocity":110,"subtype":"noteOn"},{"deltaTime":46,"channel":10,"type":"channel","noteNumber":45,"velocity":0,"subtype":"noteOff"},{"deltaTime":2,"channel":10,"type":"channel","noteNumber":45,"velocity":110,"subtype":"noteOn"},{"deltaTime":46,"channel":10,"type":"channel","noteNumber":45,"velocity":0,"subtype":"noteOff"},{"deltaTime":2,"channel":10,"type":"channel","noteNumber":35,"velocity":110,"subtype":"noteOn"},{"deltaTime":94,"channel":10,"type":"channel","noteNumber":35,"velocity":0,"subtype":"noteOff"},{"deltaTime":2,"channel":10,"type":"channel","noteNumber":47,"velocity":110,"subtype":"noteOn"},{"deltaTime":46,"channel":10,"type":"channel","noteNumber":47,"velocity":0,"subtype":"noteOff"},{"deltaTime":2,"channel":10,"type":"channel","noteNumber":47,"velocity":110,"subtype":"noteOn"},{"deltaTime":46,"channel":10,"type":"channel","noteNumber":47,"velocity":0,"subtype":"noteOff"},{"deltaTime":2,"channel":10,"type":"channel","noteNumber":35,"velocity":110,"subtype":"noteOn"},{"deltaTime":94,"channel":10,"type":"channel","noteNumber":35,"velocity":0,"subtype":"noteOff"},{"deltaTime":2,"channel":10,"type":"channel","noteNumber":47,"velocity":110,"subtype":"noteOn"},{"deltaTime":46,"channel":10,"type":"channel","noteNumber":47,"velocity":0,"subtype":"noteOff"},{"deltaTime":2,"channel":10,"type":"channel","noteNumber":47,"velocity":110,"subtype":"noteOn"},{"deltaTime":46,"channel":10,"type":"channel","noteNumber":47,"velocity":0,"subtype":"noteOff"},{"deltaTime":2,"channel":10,"type":"channel","noteNumber":35,"velocity":110,"subtype":"noteOn"},{"deltaTime":94,"channel":10,"type":"channel","noteNumber":35,"velocity":0,"subtype":"noteOff"},{"deltaTime":2,"channel":10,"type":"channel","noteNumber":47,"velocity":110,"subtype":"noteOn"},{"deltaTime":46,"channel":10,"type":"channel","noteNumber":47,"velocity":0,"subtype":"noteOff"},{"deltaTime":2,"channel":10,"type":"channel","noteNumber":47,"velocity":110,"subtype":"noteOn"},{"deltaTime":46,"channel":10,"type":"channel","noteNumber":47,"velocity":0,"subtype":"noteOff"},{"deltaTime":2,"channel":10,"type":"channel","noteNumber":35,"velocity":110,"subtype":"noteOn"},{"deltaTime":94,"channel":10,"type":"channel","noteNumber":35,"velocity":0,"subtype":"noteOff"},{"deltaTime":2,"channel":10,"type":"channel","noteNumber":47,"velocity":110,"subtype":"noteOn"},{"deltaTime":46,"channel":10,"type":"channel","noteNumber":47,"velocity":0,"subtype":"noteOff"},{"deltaTime":2,"channel":10,"type":"channel","noteNumber":47,"velocity":110,"subtype":"noteOn"},{"deltaTime":46,"channel":10,"type":"channel","noteNumber":47,"velocity":0,"subtype":"noteOff"},{"deltaTime":2,"channel":10,"type":"channel","noteNumber":39,"velocity":110,"subtype":"noteOn"},{"deltaTime":94,"channel":10,"type":"channel","noteNumber":39,"velocity":0,"subtype":"noteOff"},{"deltaTime":2,"channel":10,"type":"channel","noteNumber":51,"velocity":110,"subtype":"noteOn"},{"deltaTime":46,"channel":10,"type":"channel","noteNumber":51,"velocity":0,"subtype":"noteOff"},{"deltaTime":2,"channel":10,"type":"channel","noteNumber":51,"velocity":110,"subtype":"noteOn"},{"deltaTime":46,"channel":10,"type":"channel","noteNumber":51,"velocity":0,"subtype":"noteOff"},{"deltaTime":2,"channel":10,"type":"channel","noteNumber":39,"velocity":110,"subtype":"noteOn"},{"deltaTime":94,"channel":10,"type":"channel","noteNumber":39,"velocity":0,"subtype":"noteOff"},{"deltaTime":2,"channel":10,"type":"channel","noteNumber":51,"velocity":110,"subtype":"noteOn"},{"deltaTime":46,"channel":10,"type":"channel","noteNumber":51,"velocity":0,"subtype":"noteOff"},{"deltaTime":2,"channel":10,"type":"channel","noteNumber":51,"velocity":110,"subtype":"noteOn"},{"deltaTime":46,"channel":10,"type":"channel","noteNumber":51,"velocity":0,"subtype":"noteOff"},{"deltaTime":2,"channel":10,"type":"channel","noteNumber":35,"velocity":110,"subtype":"noteOn"},{"deltaTime":94,"channel":10,"type":"channel","noteNumber":35,"velocity":0,"subtype":"noteOff"},{"deltaTime":2,"channel":10,"type":"channel","noteNumber":47,"velocity":110,"subtype":"noteOn"},{"deltaTime":46,"channel":10,"type":"channel","noteNumber":47,"velocity":0,"subtype":"noteOff"},{"deltaTime":2,"channel":10,"type":"channel","noteNumber":47,"velocity":110,"subtype":"noteOn"},{"deltaTime":46,"channel":10,"type":"channel","noteNumber":47,"velocity":0,"subtype":"noteOff"},{"deltaTime":2,"channel":10,"type":"channel","noteNumber":35,"velocity":110,"subtype":"noteOn"},{"deltaTime":94,"channel":10,"type":"channel","noteNumber":35,"velocity":0,"subtype":"noteOff"},{"deltaTime":2,"channel":10,"type":"channel","noteNumber":47,"velocity":110,"subtype":"noteOn"},{"deltaTime":46,"channel":10,"type":"channel","noteNumber":47,"velocity":0,"subtype":"noteOff"},{"deltaTime":2,"channel":10,"type":"channel","noteNumber":47,"velocity":110,"subtype":"noteOn"},{"deltaTime":46,"channel":10,"type":"channel","noteNumber":47,"velocity":0,"subtype":"noteOff"},{"deltaTime":2,"channel":10,"type":"channel","noteNumber":28,"velocity":110,"subtype":"noteOn"},{"deltaTime":94,"channel":10,"type":"channel","noteNumber":28,"velocity":0,"subtype":"noteOff"},{"deltaTime":2,"channel":10,"type":"channel","noteNumber":40,"velocity":110,"subtype":"noteOn"},{"deltaTime":46,"channel":10,"type":"channel","noteNumber":40,"velocity":0,"subtype":"noteOff"},{"deltaTime":2,"channel":10,"type":"channel","noteNumber":40,"velocity":110,"subtype":"noteOn"},{"deltaTime":46,"channel":10,"type":"channel","noteNumber":40,"velocity":0,"subtype":"noteOff"},{"deltaTime":2,"channel":10,"type":"channel","noteNumber":28,"velocity":110,"subtype":"noteOn"},{"deltaTime":94,"channel":10,"type":"channel","noteNumber":28,"velocity":0,"subtype":"noteOff"},{"deltaTime":2,"channel":10,"type":"channel","noteNumber":40,"velocity":110,"subtype":"noteOn"},{"deltaTime":46,"channel":10,"type":"channel","noteNumber":40,"velocity":0,"subtype":"noteOff"},{"deltaTime":2,"channel":10,"type":"channel","noteNumber":40,"velocity":110,"subtype":"noteOn"},{"deltaTime":46,"channel":10,"type":"channel","noteNumber":40,"velocity":0,"subtype":"noteOff"},{"deltaTime":2,"channel":10,"type":"channel","noteNumber":28,"velocity":110,"subtype":"noteOn"},{"deltaTime":94,"channel":10,"type":"channel","noteNumber":28,"velocity":0,"subtype":"noteOff"},{"deltaTime":2,"channel":10,"type":"channel","noteNumber":40,"velocity":110,"subtype":"noteOn"},{"deltaTime":46,"channel":10,"type":"channel","noteNumber":40,"velocity":0,"subtype":"noteOff"},{"deltaTime":2,"channel":10,"type":"channel","noteNumber":40,"velocity":110,"subtype":"noteOn"},{"deltaTime":46,"channel":10,"type":"channel","noteNumber":40,"velocity":0,"subtype":"noteOff"},{"deltaTime":2,"channel":10,"type":"channel","noteNumber":52,"velocity":110,"subtype":"noteOn"},{"deltaTime":94,"channel":10,"type":"channel","noteNumber":52,"velocity":0,"subtype":"noteOff"},{"deltaTime":2,"channel":10,"type":"channel","noteNumber":52,"velocity":110,"subtype":"noteOn"},{"deltaTime":46,"channel":10,"type":"channel","noteNumber":52,"velocity":0,"subtype":"noteOff"},{"deltaTime":2,"channel":10,"type":"channel","noteNumber":52,"velocity":110,"subtype":"noteOn"},{"deltaTime":46,"channel":10,"type":"channel","noteNumber":52,"velocity":0,"subtype":"noteOff"},{"deltaTime":12290,"channel":10,"type":"channel","noteNumber":35,"velocity":110,"subtype":"noteOn"},{"deltaTime":94,"channel":10,"type":"channel","noteNumber":35,"velocity":0,"subtype":"noteOff"},{"deltaTime":2,"channel":10,"type":"channel","noteNumber":47,"velocity":110,"subtype":"noteOn"},{"deltaTime":46,"channel":10,"type":"channel","noteNumber":47,"velocity":0,"subtype":"noteOff"},{"deltaTime":2,"channel":10,"type":"channel","noteNumber":47,"velocity":110,"subtype":"noteOn"},{"deltaTime":46,"channel":10,"type":"channel","noteNumber":47,"velocity":0,"subtype":"noteOff"},{"deltaTime":2,"channel":10,"type":"channel","noteNumber":35,"velocity":110,"subtype":"noteOn"},{"deltaTime":94,"channel":10,"type":"channel","noteNumber":35,"velocity":0,"subtype":"noteOff"},{"deltaTime":2,"channel":10,"type":"channel","noteNumber":47,"velocity":110,"subtype":"noteOn"},{"deltaTime":46,"channel":10,"type":"channel","noteNumber":47,"velocity":0,"subtype":"noteOff"},{"deltaTime":2,"channel":10,"type":"channel","noteNumber":47,"velocity":110,"subtype":"noteOn"},{"deltaTime":46,"channel":10,"type":"channel","noteNumber":47,"velocity":0,"subtype":"noteOff"},{"deltaTime":2,"channel":10,"type":"channel","noteNumber":35,"velocity":110,"subtype":"noteOn"},{"deltaTime":94,"channel":10,"type":"channel","noteNumber":35,"velocity":0,"subtype":"noteOff"},{"deltaTime":2,"channel":10,"type":"channel","noteNumber":47,"velocity":110,"subtype":"noteOn"},{"deltaTime":46,"channel":10,"type":"channel","noteNumber":47,"velocity":0,"subtype":"noteOff"},{"deltaTime":2,"channel":10,"type":"channel","noteNumber":47,"velocity":110,"subtype":"noteOn"},{"deltaTime":46,"channel":10,"type":"channel","noteNumber":47,"velocity":0,"subtype":"noteOff"},{"deltaTime":2,"channel":10,"type":"channel","noteNumber":35,"velocity":110,"subtype":"noteOn"},{"deltaTime":94,"channel":10,"type":"channel","noteNumber":35,"velocity":0,"subtype":"noteOff"},{"deltaTime":2,"channel":10,"type":"channel","noteNumber":47,"velocity":110,"subtype":"noteOn"},{"deltaTime":46,"channel":10,"type":"channel","noteNumber":47,"velocity":0,"subtype":"noteOff"},{"deltaTime":2,"channel":10,"type":"channel","noteNumber":47,"velocity":110,"subtype":"noteOn"},{"deltaTime":46,"channel":10,"type":"channel","noteNumber":47,"velocity":0,"subtype":"noteOff"},{"deltaTime":2,"channel":10,"type":"channel","noteNumber":40,"velocity":110,"subtype":"noteOn"},{"deltaTime":94,"channel":10,"type":"channel","noteNumber":40,"velocity":0,"subtype":"noteOff"},{"deltaTime":2,"channel":10,"type":"channel","noteNumber":52,"velocity":110,"subtype":"noteOn"},{"deltaTime":46,"channel":10,"type":"channel","noteNumber":52,"velocity":0,"subtype":"noteOff"},{"deltaTime":2,"channel":10,"type":"channel","noteNumber":52,"velocity":110,"subtype":"noteOn"},{"deltaTime":46,"channel":10,"type":"channel","noteNumber":52,"velocity":0,"subtype":"noteOff"},{"deltaTime":2,"channel":10,"type":"channel","noteNumber":40,"velocity":110,"subtype":"noteOn"},{"deltaTime":94,"channel":10,"type":"channel","noteNumber":40,"velocity":0,"subtype":"noteOff"},{"deltaTime":2,"channel":10,"type":"channel","noteNumber":52,"velocity":110,"subtype":"noteOn"},{"deltaTime":46,"channel":10,"type":"channel","noteNumber":52,"velocity":0,"subtype":"noteOff"},{"deltaTime":2,"channel":10,"type":"channel","noteNumber":52,"velocity":110,"subtype":"noteOn"},{"deltaTime":46,"channel":10,"type":"channel","noteNumber":52,"velocity":0,"subtype":"noteOff"},{"deltaTime":2,"channel":10,"type":"channel","noteNumber":40,"velocity":110,"subtype":"noteOn"},{"deltaTime":94,"channel":10,"type":"channel","noteNumber":40,"velocity":0,"subtype":"noteOff"},{"deltaTime":2,"channel":10,"type":"channel","noteNumber":52,"velocity":110,"subtype":"noteOn"},{"deltaTime":46,"channel":10,"type":"channel","noteNumber":52,"velocity":0,"subtype":"noteOff"},{"deltaTime":2,"channel":10,"type":"channel","noteNumber":52,"velocity":110,"subtype":"noteOn"},{"deltaTime":46,"channel":10,"type":"channel","noteNumber":52,"velocity":0,"subtype":"noteOff"},{"deltaTime":2,"channel":10,"type":"channel","noteNumber":40,"velocity":110,"subtype":"noteOn"},{"deltaTime":94,"channel":10,"type":"channel","noteNumber":40,"velocity":0,"subtype":"noteOff"},{"deltaTime":2,"channel":10,"type":"channel","noteNumber":52,"velocity":110,"subtype":"noteOn"},{"deltaTime":46,"channel":10,"type":"channel","noteNumber":52,"velocity":0,"subtype":"noteOff"},{"deltaTime":2,"channel":10,"type":"channel","noteNumber":52,"velocity":110,"subtype":"noteOn"},{"deltaTime":46,"channel":10,"type":"channel","noteNumber":52,"velocity":0,"subtype":"noteOff"},{"deltaTime":2,"channel":10,"type":"channel","noteNumber":39,"velocity":110,"subtype":"noteOn"},{"deltaTime":94,"channel":10,"type":"channel","noteNumber":39,"velocity":0,"subtype":"noteOff"},{"deltaTime":2,"channel":10,"type":"channel","noteNumber":51,"velocity":110,"subtype":"noteOn"},{"deltaTime":46,"channel":10,"type":"channel","noteNumber":51,"velocity":0,"subtype":"noteOff"},{"deltaTime":2,"channel":10,"type":"channel","noteNumber":51,"velocity":110,"subtype":"noteOn"},{"deltaTime":46,"channel":10,"type":"channel","noteNumber":51,"velocity":0,"subtype":"noteOff"},{"deltaTime":2,"channel":10,"type":"channel","noteNumber":39,"velocity":110,"subtype":"noteOn"},{"deltaTime":94,"channel":10,"type":"channel","noteNumber":39,"velocity":0,"subtype":"noteOff"},{"deltaTime":2,"channel":10,"type":"channel","noteNumber":51,"velocity":110,"subtype":"noteOn"},{"deltaTime":46,"channel":10,"type":"channel","noteNumber":51,"velocity":0,"subtype":"noteOff"},{"deltaTime":2,"channel":10,"type":"channel","noteNumber":51,"velocity":110,"subtype":"noteOn"},{"deltaTime":46,"channel":10,"type":"channel","noteNumber":51,"velocity":0,"subtype":"noteOff"},{"deltaTime":2,"channel":10,"type":"channel","noteNumber":35,"velocity":110,"subtype":"noteOn"},{"deltaTime":94,"channel":10,"type":"channel","noteNumber":35,"velocity":0,"subtype":"noteOff"},{"deltaTime":2,"channel":10,"type":"channel","noteNumber":47,"velocity":110,"subtype":"noteOn"},{"deltaTime":46,"channel":10,"type":"channel","noteNumber":47,"velocity":0,"subtype":"noteOff"},{"deltaTime":2,"channel":10,"type":"channel","noteNumber":47,"velocity":110,"subtype":"noteOn"},{"deltaTime":46,"channel":10,"type":"channel","noteNumber":47,"velocity":0,"subtype":"noteOff"},{"deltaTime":2,"channel":10,"type":"channel","noteNumber":35,"velocity":110,"subtype":"noteOn"},{"deltaTime":94,"channel":10,"type":"channel","noteNumber":35,"velocity":0,"subtype":"noteOff"},{"deltaTime":2,"channel":10,"type":"channel","noteNumber":47,"velocity":110,"subtype":"noteOn"},{"deltaTime":46,"channel":10,"type":"channel","noteNumber":47,"velocity":0,"subtype":"noteOff"},{"deltaTime":2,"channel":10,"type":"channel","noteNumber":47,"velocity":110,"subtype":"noteOn"},{"deltaTime":46,"channel":10,"type":"channel","noteNumber":47,"velocity":0,"subtype":"noteOff"},{"deltaTime":2,"channel":10,"type":"channel","noteNumber":28,"velocity":110,"subtype":"noteOn"},{"deltaTime":46,"channel":10,"type":"channel","noteNumber":28,"velocity":0,"subtype":"noteOff"},{"deltaTime":2,"channel":10,"type":"channel","noteNumber":35,"velocity":110,"subtype":"noteOn"},{"deltaTime":46,"channel":10,"type":"channel","noteNumber":35,"velocity":0,"subtype":"noteOff"},{"deltaTime":2,"channel":10,"type":"channel","noteNumber":40,"velocity":110,"subtype":"noteOn"},{"deltaTime":46,"channel":10,"type":"channel","noteNumber":40,"velocity":0,"subtype":"noteOff"},{"deltaTime":2,"channel":10,"type":"channel","noteNumber":35,"velocity":110,"subtype":"noteOn"},{"deltaTime":46,"channel":10,"type":"channel","noteNumber":35,"velocity":0,"subtype":"noteOff"},{"deltaTime":2,"channel":10,"type":"channel","noteNumber":28,"velocity":110,"subtype":"noteOn"},{"deltaTime":46,"channel":10,"type":"channel","noteNumber":28,"velocity":0,"subtype":"noteOff"},{"deltaTime":2,"channel":10,"type":"channel","noteNumber":35,"velocity":110,"subtype":"noteOn"},{"deltaTime":46,"channel":10,"type":"channel","noteNumber":35,"velocity":0,"subtype":"noteOff"},{"deltaTime":2,"channel":10,"type":"channel","noteNumber":40,"velocity":110,"subtype":"noteOn"},{"deltaTime":46,"channel":10,"type":"channel","noteNumber":40,"velocity":0,"subtype":"noteOff"},{"deltaTime":2,"channel":10,"type":"channel","noteNumber":35,"velocity":110,"subtype":"noteOn"},{"deltaTime":46,"channel":10,"type":"channel","noteNumber":35,"velocity":0,"subtype":"noteOff"},{"deltaTime":2,"channel":10,"type":"channel","noteNumber":28,"velocity":110,"subtype":"noteOn"},{"deltaTime":46,"channel":10,"type":"channel","noteNumber":28,"velocity":0,"subtype":"noteOff"},{"deltaTime":2,"channel":10,"type":"channel","noteNumber":35,"velocity":110,"subtype":"noteOn"},{"deltaTime":46,"channel":10,"type":"channel","noteNumber":35,"velocity":0,"subtype":"noteOff"},{"deltaTime":2,"channel":10,"type":"channel","noteNumber":40,"velocity":110,"subtype":"noteOn"},{"deltaTime":46,"channel":10,"type":"channel","noteNumber":40,"velocity":0,"subtype":"noteOff"},{"deltaTime":2,"channel":10,"type":"channel","noteNumber":35,"velocity":110,"subtype":"noteOn"},{"deltaTime":46,"channel":10,"type":"channel","noteNumber":35,"velocity":0,"subtype":"noteOff"},{"deltaTime":2,"channel":10,"type":"channel","noteNumber":28,"velocity":110,"subtype":"noteOn"},{"deltaTime":46,"channel":10,"type":"channel","noteNumber":28,"velocity":0,"subtype":"noteOff"},{"deltaTime":2,"channel":10,"type":"channel","noteNumber":35,"velocity":110,"subtype":"noteOn"},{"deltaTime":46,"channel":10,"type":"channel","noteNumber":35,"velocity":0,"subtype":"noteOff"},{"deltaTime":2,"channel":10,"type":"channel","noteNumber":40,"velocity":110,"subtype":"noteOn"},{"deltaTime":46,"channel":10,"type":"channel","noteNumber":40,"velocity":0,"subtype":"noteOff"},{"deltaTime":2,"channel":10,"type":"channel","noteNumber":35,"velocity":110,"subtype":"noteOn"},{"deltaTime":46,"channel":10,"type":"channel","noteNumber":35,"velocity":0,"subtype":"noteOff"},{"deltaTime":2,"channel":10,"type":"channel","noteNumber":33,"velocity":110,"subtype":"noteOn"},{"deltaTime":94,"channel":10,"type":"channel","noteNumber":33,"velocity":0,"subtype":"noteOff"},{"deltaTime":2,"channel":10,"type":"channel","noteNumber":45,"velocity":110,"subtype":"noteOn"},{"deltaTime":46,"channel":10,"type":"channel","noteNumber":45,"velocity":0,"subtype":"noteOff"},{"deltaTime":2,"channel":10,"type":"channel","noteNumber":45,"velocity":110,"subtype":"noteOn"},{"deltaTime":46,"channel":10,"type":"channel","noteNumber":45,"velocity":0,"subtype":"noteOff"},{"deltaTime":2,"channel":10,"type":"channel","noteNumber":33,"velocity":110,"subtype":"noteOn"},{"deltaTime":94,"channel":10,"type":"channel","noteNumber":33,"velocity":0,"subtype":"noteOff"},{"deltaTime":2,"channel":10,"type":"channel","noteNumber":45,"velocity":110,"subtype":"noteOn"},{"deltaTime":46,"channel":10,"type":"channel","noteNumber":45,"velocity":0,"subtype":"noteOff"},{"deltaTime":2,"channel":10,"type":"channel","noteNumber":45,"velocity":110,"subtype":"noteOn"},{"deltaTime":46,"channel":10,"type":"channel","noteNumber":45,"velocity":0,"subtype":"noteOff"},{"deltaTime":2,"channel":10,"type":"channel","noteNumber":33,"velocity":110,"subtype":"noteOn"},{"deltaTime":94,"channel":10,"type":"channel","noteNumber":33,"velocity":0,"subtype":"noteOff"},{"deltaTime":2,"channel":10,"type":"channel","noteNumber":45,"velocity":110,"subtype":"noteOn"},{"deltaTime":46,"channel":10,"type":"channel","noteNumber":45,"velocity":0,"subtype":"noteOff"},{"deltaTime":2,"channel":10,"type":"channel","noteNumber":45,"velocity":110,"subtype":"noteOn"},{"deltaTime":46,"channel":10,"type":"channel","noteNumber":45,"velocity":0,"subtype":"noteOff"},{"deltaTime":2,"channel":10,"type":"channel","noteNumber":33,"velocity":110,"subtype":"noteOn"},{"deltaTime":94,"channel":10,"type":"channel","noteNumber":33,"velocity":0,"subtype":"noteOff"},{"deltaTime":2,"channel":10,"type":"channel","noteNumber":45,"velocity":110,"subtype":"noteOn"},{"deltaTime":46,"channel":10,"type":"channel","noteNumber":45,"velocity":0,"subtype":"noteOff"},{"deltaTime":2,"channel":10,"type":"channel","noteNumber":45,"velocity":110,"subtype":"noteOn"},{"deltaTime":46,"channel":10,"type":"channel","noteNumber":45,"velocity":0,"subtype":"noteOff"},{"deltaTime":2,"channel":10,"type":"channel","noteNumber":35,"velocity":110,"subtype":"noteOn"},{"deltaTime":94,"channel":10,"type":"channel","noteNumber":35,"velocity":0,"subtype":"noteOff"},{"deltaTime":2,"channel":10,"type":"channel","noteNumber":47,"velocity":110,"subtype":"noteOn"},{"deltaTime":46,"channel":10,"type":"channel","noteNumber":47,"velocity":0,"subtype":"noteOff"},{"deltaTime":2,"channel":10,"type":"channel","noteNumber":47,"velocity":110,"subtype":"noteOn"},{"deltaTime":46,"channel":10,"type":"channel","noteNumber":47,"velocity":0,"subtype":"noteOff"},{"deltaTime":2,"channel":10,"type":"channel","noteNumber":35,"velocity":110,"subtype":"noteOn"},{"deltaTime":94,"channel":10,"type":"channel","noteNumber":35,"velocity":0,"subtype":"noteOff"},{"deltaTime":2,"channel":10,"type":"channel","noteNumber":47,"velocity":110,"subtype":"noteOn"},{"deltaTime":46,"channel":10,"type":"channel","noteNumber":47,"velocity":0,"subtype":"noteOff"},{"deltaTime":2,"channel":10,"type":"channel","noteNumber":47,"velocity":110,"subtype":"noteOn"},{"deltaTime":46,"channel":10,"type":"channel","noteNumber":47,"velocity":0,"subtype":"noteOff"},{"deltaTime":2,"channel":10,"type":"channel","noteNumber":35,"velocity":110,"subtype":"noteOn"},{"deltaTime":94,"channel":10,"type":"channel","noteNumber":35,"velocity":0,"subtype":"noteOff"},{"deltaTime":2,"channel":10,"type":"channel","noteNumber":47,"velocity":110,"subtype":"noteOn"},{"deltaTime":46,"channel":10,"type":"channel","noteNumber":47,"velocity":0,"subtype":"noteOff"},{"deltaTime":2,"channel":10,"type":"channel","noteNumber":47,"velocity":110,"subtype":"noteOn"},{"deltaTime":46,"channel":10,"type":"channel","noteNumber":47,"velocity":0,"subtype":"noteOff"},{"deltaTime":2,"channel":10,"type":"channel","noteNumber":35,"velocity":110,"subtype":"noteOn"},{"deltaTime":94,"channel":10,"type":"channel","noteNumber":35,"velocity":0,"subtype":"noteOff"},{"deltaTime":2,"channel":10,"type":"channel","noteNumber":47,"velocity":110,"subtype":"noteOn"},{"deltaTime":46,"channel":10,"type":"channel","noteNumber":47,"velocity":0,"subtype":"noteOff"},{"deltaTime":2,"channel":10,"type":"channel","noteNumber":47,"velocity":110,"subtype":"noteOn"},{"deltaTime":46,"channel":10,"type":"channel","noteNumber":47,"velocity":0,"subtype":"noteOff"},{"deltaTime":2,"channel":10,"type":"channel","noteNumber":39,"velocity":110,"subtype":"noteOn"},{"deltaTime":94,"channel":10,"type":"channel","noteNumber":39,"velocity":0,"subtype":"noteOff"},{"deltaTime":2,"channel":10,"type":"channel","noteNumber":51,"velocity":110,"subtype":"noteOn"},{"deltaTime":46,"channel":10,"type":"channel","noteNumber":51,"velocity":0,"subtype":"noteOff"},{"deltaTime":2,"channel":10,"type":"channel","noteNumber":51,"velocity":110,"subtype":"noteOn"},{"deltaTime":46,"channel":10,"type":"channel","noteNumber":51,"velocity":0,"subtype":"noteOff"},{"deltaTime":2,"channel":10,"type":"channel","noteNumber":39,"velocity":110,"subtype":"noteOn"},{"deltaTime":94,"channel":10,"type":"channel","noteNumber":39,"velocity":0,"subtype":"noteOff"},{"deltaTime":2,"channel":10,"type":"channel","noteNumber":51,"velocity":110,"subtype":"noteOn"},{"deltaTime":46,"channel":10,"type":"channel","noteNumber":51,"velocity":0,"subtype":"noteOff"},{"deltaTime":2,"channel":10,"type":"channel","noteNumber":51,"velocity":110,"subtype":"noteOn"},{"deltaTime":46,"channel":10,"type":"channel","noteNumber":51,"velocity":0,"subtype":"noteOff"},{"deltaTime":2,"channel":10,"type":"channel","noteNumber":35,"velocity":110,"subtype":"noteOn"},{"deltaTime":94,"channel":10,"type":"channel","noteNumber":35,"velocity":0,"subtype":"noteOff"},{"deltaTime":2,"channel":10,"type":"channel","noteNumber":47,"velocity":110,"subtype":"noteOn"},{"deltaTime":46,"channel":10,"type":"channel","noteNumber":47,"velocity":0,"subtype":"noteOff"},{"deltaTime":2,"channel":10,"type":"channel","noteNumber":47,"velocity":110,"subtype":"noteOn"},{"deltaTime":46,"channel":10,"type":"channel","noteNumber":47,"velocity":0,"subtype":"noteOff"},{"deltaTime":2,"channel":10,"type":"channel","noteNumber":35,"velocity":110,"subtype":"noteOn"},{"deltaTime":94,"channel":10,"type":"channel","noteNumber":35,"velocity":0,"subtype":"noteOff"},{"deltaTime":2,"channel":10,"type":"channel","noteNumber":47,"velocity":110,"subtype":"noteOn"},{"deltaTime":46,"channel":10,"type":"channel","noteNumber":47,"velocity":0,"subtype":"noteOff"},{"deltaTime":2,"channel":10,"type":"channel","noteNumber":47,"velocity":110,"subtype":"noteOn"},{"deltaTime":46,"channel":10,"type":"channel","noteNumber":47,"velocity":0,"subtype":"noteOff"},{"deltaTime":2,"channel":10,"type":"channel","noteNumber":28,"velocity":110,"subtype":"noteOn"},{"deltaTime":94,"channel":10,"type":"channel","noteNumber":28,"velocity":0,"subtype":"noteOff"},{"deltaTime":2,"channel":10,"type":"channel","noteNumber":40,"velocity":110,"subtype":"noteOn"},{"deltaTime":46,"channel":10,"type":"channel","noteNumber":40,"velocity":0,"subtype":"noteOff"},{"deltaTime":2,"channel":10,"type":"channel","noteNumber":40,"velocity":110,"subtype":"noteOn"},{"deltaTime":46,"channel":10,"type":"channel","noteNumber":40,"velocity":0,"subtype":"noteOff"},{"deltaTime":2,"channel":10,"type":"channel","noteNumber":28,"velocity":110,"subtype":"noteOn"},{"deltaTime":94,"channel":10,"type":"channel","noteNumber":28,"velocity":0,"subtype":"noteOff"},{"deltaTime":2,"channel":10,"type":"channel","noteNumber":40,"velocity":110,"subtype":"noteOn"},{"deltaTime":46,"channel":10,"type":"channel","noteNumber":40,"velocity":0,"subtype":"noteOff"},{"deltaTime":2,"channel":10,"type":"channel","noteNumber":40,"velocity":110,"subtype":"noteOn"},{"deltaTime":46,"channel":10,"type":"channel","noteNumber":40,"velocity":0,"subtype":"noteOff"},{"deltaTime":2,"channel":10,"type":"channel","noteNumber":28,"velocity":110,"subtype":"noteOn"},{"deltaTime":94,"channel":10,"type":"channel","noteNumber":28,"velocity":0,"subtype":"noteOff"},{"deltaTime":2,"channel":10,"type":"channel","noteNumber":40,"velocity":110,"subtype":"noteOn"},{"deltaTime":46,"channel":10,"type":"channel","noteNumber":40,"velocity":0,"subtype":"noteOff"},{"deltaTime":2,"channel":10,"type":"channel","noteNumber":40,"velocity":110,"subtype":"noteOn"},{"deltaTime":46,"channel":10,"type":"channel","noteNumber":40,"velocity":0,"subtype":"noteOff"},{"deltaTime":2,"channel":10,"type":"channel","noteNumber":52,"velocity":110,"subtype":"noteOn"},{"deltaTime":94,"channel":10,"type":"channel","noteNumber":52,"velocity":0,"subtype":"noteOff"},{"deltaTime":2,"channel":10,"type":"channel","noteNumber":52,"velocity":110,"subtype":"noteOn"},{"deltaTime":46,"channel":10,"type":"channel","noteNumber":52,"velocity":0,"subtype":"noteOff"},{"deltaTime":2,"channel":10,"type":"channel","noteNumber":52,"velocity":110,"subtype":"noteOn"},{"deltaTime":46,"channel":10,"type":"channel","noteNumber":52,"velocity":0,"subtype":"noteOff"},{"deltaTime":2,"channel":10,"type":"channel","noteNumber":35,"velocity":110,"subtype":"noteOn"},{"deltaTime":94,"channel":10,"type":"channel","noteNumber":35,"velocity":0,"subtype":"noteOff"},{"deltaTime":2,"channel":10,"type":"channel","noteNumber":47,"velocity":110,"subtype":"noteOn"},{"deltaTime":46,"channel":10,"type":"channel","noteNumber":47,"velocity":0,"subtype":"noteOff"},{"deltaTime":2,"channel":10,"type":"channel","noteNumber":47,"velocity":110,"subtype":"noteOn"},{"deltaTime":46,"channel":10,"type":"channel","noteNumber":47,"velocity":0,"subtype":"noteOff"},{"deltaTime":2,"channel":10,"type":"channel","noteNumber":35,"velocity":110,"subtype":"noteOn"},{"deltaTime":94,"channel":10,"type":"channel","noteNumber":35,"velocity":0,"subtype":"noteOff"},{"deltaTime":2,"channel":10,"type":"channel","noteNumber":47,"velocity":110,"subtype":"noteOn"},{"deltaTime":46,"channel":10,"type":"channel","noteNumber":47,"velocity":0,"subtype":"noteOff"},{"deltaTime":2,"channel":10,"type":"channel","noteNumber":47,"velocity":110,"subtype":"noteOn"},{"deltaTime":46,"channel":10,"type":"channel","noteNumber":47,"velocity":0,"subtype":"noteOff"},{"deltaTime":2,"channel":10,"type":"channel","noteNumber":35,"velocity":110,"subtype":"noteOn"},{"deltaTime":94,"channel":10,"type":"channel","noteNumber":35,"velocity":0,"subtype":"noteOff"},{"deltaTime":2,"channel":10,"type":"channel","noteNumber":47,"velocity":110,"subtype":"noteOn"},{"deltaTime":46,"channel":10,"type":"channel","noteNumber":47,"velocity":0,"subtype":"noteOff"},{"deltaTime":2,"channel":10,"type":"channel","noteNumber":47,"velocity":110,"subtype":"noteOn"},{"deltaTime":46,"channel":10,"type":"channel","noteNumber":47,"velocity":0,"subtype":"noteOff"},{"deltaTime":2,"channel":10,"type":"channel","noteNumber":35,"velocity":110,"subtype":"noteOn"},{"deltaTime":94,"channel":10,"type":"channel","noteNumber":35,"velocity":0,"subtype":"noteOff"},{"deltaTime":2,"channel":10,"type":"channel","noteNumber":47,"velocity":110,"subtype":"noteOn"},{"deltaTime":46,"channel":10,"type":"channel","noteNumber":47,"velocity":0,"subtype":"noteOff"},{"deltaTime":2,"channel":10,"type":"channel","noteNumber":47,"velocity":110,"subtype":"noteOn"},{"deltaTime":46,"channel":10,"type":"channel","noteNumber":47,"velocity":0,"subtype":"noteOff"},{"deltaTime":2,"channel":10,"type":"channel","noteNumber":40,"velocity":110,"subtype":"noteOn"},{"deltaTime":94,"channel":10,"type":"channel","noteNumber":40,"velocity":0,"subtype":"noteOff"},{"deltaTime":2,"channel":10,"type":"channel","noteNumber":52,"velocity":110,"subtype":"noteOn"},{"deltaTime":46,"channel":10,"type":"channel","noteNumber":52,"velocity":0,"subtype":"noteOff"},{"deltaTime":2,"channel":10,"type":"channel","noteNumber":52,"velocity":110,"subtype":"noteOn"},{"deltaTime":46,"channel":10,"type":"channel","noteNumber":52,"velocity":0,"subtype":"noteOff"},{"deltaTime":2,"channel":10,"type":"channel","noteNumber":40,"velocity":110,"subtype":"noteOn"},{"deltaTime":94,"channel":10,"type":"channel","noteNumber":40,"velocity":0,"subtype":"noteOff"},{"deltaTime":2,"channel":10,"type":"channel","noteNumber":52,"velocity":110,"subtype":"noteOn"},{"deltaTime":46,"channel":10,"type":"channel","noteNumber":52,"velocity":0,"subtype":"noteOff"},{"deltaTime":2,"channel":10,"type":"channel","noteNumber":52,"velocity":110,"subtype":"noteOn"},{"deltaTime":46,"channel":10,"type":"channel","noteNumber":52,"velocity":0,"subtype":"noteOff"},{"deltaTime":2,"channel":10,"type":"channel","noteNumber":40,"velocity":110,"subtype":"noteOn"},{"deltaTime":94,"channel":10,"type":"channel","noteNumber":40,"velocity":0,"subtype":"noteOff"},{"deltaTime":2,"channel":10,"type":"channel","noteNumber":52,"velocity":110,"subtype":"noteOn"},{"deltaTime":46,"channel":10,"type":"channel","noteNumber":52,"velocity":0,"subtype":"noteOff"},{"deltaTime":2,"channel":10,"type":"channel","noteNumber":52,"velocity":110,"subtype":"noteOn"},{"deltaTime":46,"channel":10,"type":"channel","noteNumber":52,"velocity":0,"subtype":"noteOff"},{"deltaTime":2,"channel":10,"type":"channel","noteNumber":40,"velocity":110,"subtype":"noteOn"},{"deltaTime":94,"channel":10,"type":"channel","noteNumber":40,"velocity":0,"subtype":"noteOff"},{"deltaTime":2,"channel":10,"type":"channel","noteNumber":52,"velocity":110,"subtype":"noteOn"},{"deltaTime":46,"channel":10,"type":"channel","noteNumber":52,"velocity":0,"subtype":"noteOff"},{"deltaTime":2,"channel":10,"type":"channel","noteNumber":52,"velocity":110,"subtype":"noteOn"},{"deltaTime":46,"channel":10,"type":"channel","noteNumber":52,"velocity":0,"subtype":"noteOff"},{"deltaTime":2,"channel":10,"type":"channel","noteNumber":39,"velocity":110,"subtype":"noteOn"},{"deltaTime":94,"channel":10,"type":"channel","noteNumber":39,"velocity":0,"subtype":"noteOff"},{"deltaTime":2,"channel":10,"type":"channel","noteNumber":51,"velocity":110,"subtype":"noteOn"},{"deltaTime":46,"channel":10,"type":"channel","noteNumber":51,"velocity":0,"subtype":"noteOff"},{"deltaTime":2,"channel":10,"type":"channel","noteNumber":51,"velocity":110,"subtype":"noteOn"},{"deltaTime":46,"channel":10,"type":"channel","noteNumber":51,"velocity":0,"subtype":"noteOff"},{"deltaTime":2,"channel":10,"type":"channel","noteNumber":39,"velocity":110,"subtype":"noteOn"},{"deltaTime":94,"channel":10,"type":"channel","noteNumber":39,"velocity":0,"subtype":"noteOff"},{"deltaTime":2,"channel":10,"type":"channel","noteNumber":51,"velocity":110,"subtype":"noteOn"},{"deltaTime":46,"channel":10,"type":"channel","noteNumber":51,"velocity":0,"subtype":"noteOff"},{"deltaTime":2,"channel":10,"type":"channel","noteNumber":51,"velocity":110,"subtype":"noteOn"},{"deltaTime":46,"channel":10,"type":"channel","noteNumber":51,"velocity":0,"subtype":"noteOff"},{"deltaTime":2,"channel":10,"type":"channel","noteNumber":35,"velocity":110,"subtype":"noteOn"},{"deltaTime":94,"channel":10,"type":"channel","noteNumber":35,"velocity":0,"subtype":"noteOff"},{"deltaTime":2,"channel":10,"type":"channel","noteNumber":47,"velocity":110,"subtype":"noteOn"},{"deltaTime":46,"channel":10,"type":"channel","noteNumber":47,"velocity":0,"subtype":"noteOff"},{"deltaTime":2,"channel":10,"type":"channel","noteNumber":47,"velocity":110,"subtype":"noteOn"},{"deltaTime":46,"channel":10,"type":"channel","noteNumber":47,"velocity":0,"subtype":"noteOff"},{"deltaTime":2,"channel":10,"type":"channel","noteNumber":35,"velocity":110,"subtype":"noteOn"},{"deltaTime":94,"channel":10,"type":"channel","noteNumber":35,"velocity":0,"subtype":"noteOff"},{"deltaTime":2,"channel":10,"type":"channel","noteNumber":47,"velocity":110,"subtype":"noteOn"},{"deltaTime":46,"channel":10,"type":"channel","noteNumber":47,"velocity":0,"subtype":"noteOff"},{"deltaTime":2,"channel":10,"type":"channel","noteNumber":47,"velocity":110,"subtype":"noteOn"},{"deltaTime":46,"channel":10,"type":"channel","noteNumber":47,"velocity":0,"subtype":"noteOff"},{"deltaTime":2,"channel":10,"type":"channel","noteNumber":28,"velocity":110,"subtype":"noteOn"},{"deltaTime":46,"channel":10,"type":"channel","noteNumber":28,"velocity":0,"subtype":"noteOff"},{"deltaTime":2,"channel":10,"type":"channel","noteNumber":35,"velocity":110,"subtype":"noteOn"},{"deltaTime":46,"channel":10,"type":"channel","noteNumber":35,"velocity":0,"subtype":"noteOff"},{"deltaTime":2,"channel":10,"type":"channel","noteNumber":40,"velocity":110,"subtype":"noteOn"},{"deltaTime":46,"channel":10,"type":"channel","noteNumber":40,"velocity":0,"subtype":"noteOff"},{"deltaTime":2,"channel":10,"type":"channel","noteNumber":35,"velocity":110,"subtype":"noteOn"},{"deltaTime":46,"channel":10,"type":"channel","noteNumber":35,"velocity":0,"subtype":"noteOff"},{"deltaTime":2,"channel":10,"type":"channel","noteNumber":28,"velocity":110,"subtype":"noteOn"},{"deltaTime":46,"channel":10,"type":"channel","noteNumber":28,"velocity":0,"subtype":"noteOff"},{"deltaTime":2,"channel":10,"type":"channel","noteNumber":35,"velocity":110,"subtype":"noteOn"},{"deltaTime":46,"channel":10,"type":"channel","noteNumber":35,"velocity":0,"subtype":"noteOff"},{"deltaTime":2,"channel":10,"type":"channel","noteNumber":40,"velocity":110,"subtype":"noteOn"},{"deltaTime":46,"channel":10,"type":"channel","noteNumber":40,"velocity":0,"subtype":"noteOff"},{"deltaTime":2,"channel":10,"type":"channel","noteNumber":35,"velocity":110,"subtype":"noteOn"},{"deltaTime":46,"channel":10,"type":"channel","noteNumber":35,"velocity":0,"subtype":"noteOff"},{"deltaTime":2,"channel":10,"type":"channel","noteNumber":28,"velocity":110,"subtype":"noteOn"},{"deltaTime":46,"channel":10,"type":"channel","noteNumber":28,"velocity":0,"subtype":"noteOff"},{"deltaTime":2,"channel":10,"type":"channel","noteNumber":35,"velocity":110,"subtype":"noteOn"},{"deltaTime":46,"channel":10,"type":"channel","noteNumber":35,"velocity":0,"subtype":"noteOff"},{"deltaTime":2,"channel":10,"type":"channel","noteNumber":40,"velocity":110,"subtype":"noteOn"},{"deltaTime":46,"channel":10,"type":"channel","noteNumber":40,"velocity":0,"subtype":"noteOff"},{"deltaTime":2,"channel":10,"type":"channel","noteNumber":35,"velocity":110,"subtype":"noteOn"},{"deltaTime":46,"channel":10,"type":"channel","noteNumber":35,"velocity":0,"subtype":"noteOff"},{"deltaTime":2,"channel":10,"type":"channel","noteNumber":28,"velocity":110,"subtype":"noteOn"},{"deltaTime":46,"channel":10,"type":"channel","noteNumber":28,"velocity":0,"subtype":"noteOff"},{"deltaTime":2,"channel":10,"type":"channel","noteNumber":35,"velocity":110,"subtype":"noteOn"},{"deltaTime":46,"channel":10,"type":"channel","noteNumber":35,"velocity":0,"subtype":"noteOff"},{"deltaTime":2,"channel":10,"type":"channel","noteNumber":40,"velocity":110,"subtype":"noteOn"},{"deltaTime":46,"channel":10,"type":"channel","noteNumber":40,"velocity":0,"subtype":"noteOff"},{"deltaTime":2,"channel":10,"type":"channel","noteNumber":35,"velocity":110,"subtype":"noteOn"},{"deltaTime":46,"channel":10,"type":"channel","noteNumber":35,"velocity":0,"subtype":"noteOff"},{"deltaTime":2,"channel":10,"type":"channel","noteNumber":33,"velocity":110,"subtype":"noteOn"},{"deltaTime":94,"channel":10,"type":"channel","noteNumber":33,"velocity":0,"subtype":"noteOff"},{"deltaTime":2,"channel":10,"type":"channel","noteNumber":45,"velocity":110,"subtype":"noteOn"},{"deltaTime":46,"channel":10,"type":"channel","noteNumber":45,"velocity":0,"subtype":"noteOff"},{"deltaTime":2,"channel":10,"type":"channel","noteNumber":45,"velocity":110,"subtype":"noteOn"},{"deltaTime":46,"channel":10,"type":"channel","noteNumber":45,"velocity":0,"subtype":"noteOff"},{"deltaTime":2,"channel":10,"type":"channel","noteNumber":33,"velocity":110,"subtype":"noteOn"},{"deltaTime":94,"channel":10,"type":"channel","noteNumber":33,"velocity":0,"subtype":"noteOff"},{"deltaTime":2,"channel":10,"type":"channel","noteNumber":45,"velocity":110,"subtype":"noteOn"},{"deltaTime":46,"channel":10,"type":"channel","noteNumber":45,"velocity":0,"subtype":"noteOff"},{"deltaTime":2,"channel":10,"type":"channel","noteNumber":45,"velocity":110,"subtype":"noteOn"},{"deltaTime":46,"channel":10,"type":"channel","noteNumber":45,"velocity":0,"subtype":"noteOff"},{"deltaTime":2,"channel":10,"type":"channel","noteNumber":33,"velocity":110,"subtype":"noteOn"},{"deltaTime":94,"channel":10,"type":"channel","noteNumber":33,"velocity":0,"subtype":"noteOff"},{"deltaTime":2,"channel":10,"type":"channel","noteNumber":45,"velocity":110,"subtype":"noteOn"},{"deltaTime":46,"channel":10,"type":"channel","noteNumber":45,"velocity":0,"subtype":"noteOff"},{"deltaTime":2,"channel":10,"type":"channel","noteNumber":45,"velocity":110,"subtype":"noteOn"},{"deltaTime":46,"channel":10,"type":"channel","noteNumber":45,"velocity":0,"subtype":"noteOff"},{"deltaTime":2,"channel":10,"type":"channel","noteNumber":33,"velocity":110,"subtype":"noteOn"},{"deltaTime":94,"channel":10,"type":"channel","noteNumber":33,"velocity":0,"subtype":"noteOff"},{"deltaTime":2,"channel":10,"type":"channel","noteNumber":45,"velocity":110,"subtype":"noteOn"},{"deltaTime":46,"channel":10,"type":"channel","noteNumber":45,"velocity":0,"subtype":"noteOff"},{"deltaTime":2,"channel":10,"type":"channel","noteNumber":45,"velocity":110,"subtype":"noteOn"},{"deltaTime":46,"channel":10,"type":"channel","noteNumber":45,"velocity":0,"subtype":"noteOff"},{"deltaTime":2,"channel":10,"type":"channel","noteNumber":35,"velocity":110,"subtype":"noteOn"},{"deltaTime":94,"channel":10,"type":"channel","noteNumber":35,"velocity":0,"subtype":"noteOff"},{"deltaTime":2,"channel":10,"type":"channel","noteNumber":47,"velocity":110,"subtype":"noteOn"},{"deltaTime":46,"channel":10,"type":"channel","noteNumber":47,"velocity":0,"subtype":"noteOff"},{"deltaTime":2,"channel":10,"type":"channel","noteNumber":47,"velocity":110,"subtype":"noteOn"},{"deltaTime":46,"channel":10,"type":"channel","noteNumber":47,"velocity":0,"subtype":"noteOff"},{"deltaTime":2,"channel":10,"type":"channel","noteNumber":35,"velocity":110,"subtype":"noteOn"},{"deltaTime":94,"channel":10,"type":"channel","noteNumber":35,"velocity":0,"subtype":"noteOff"},{"deltaTime":2,"channel":10,"type":"channel","noteNumber":47,"velocity":110,"subtype":"noteOn"},{"deltaTime":46,"channel":10,"type":"channel","noteNumber":47,"velocity":0,"subtype":"noteOff"},{"deltaTime":2,"channel":10,"type":"channel","noteNumber":47,"velocity":110,"subtype":"noteOn"},{"deltaTime":46,"channel":10,"type":"channel","noteNumber":47,"velocity":0,"subtype":"noteOff"},{"deltaTime":2,"channel":10,"type":"channel","noteNumber":35,"velocity":110,"subtype":"noteOn"},{"deltaTime":94,"channel":10,"type":"channel","noteNumber":35,"velocity":0,"subtype":"noteOff"},{"deltaTime":2,"channel":10,"type":"channel","noteNumber":47,"velocity":110,"subtype":"noteOn"},{"deltaTime":46,"channel":10,"type":"channel","noteNumber":47,"velocity":0,"subtype":"noteOff"},{"deltaTime":2,"channel":10,"type":"channel","noteNumber":47,"velocity":110,"subtype":"noteOn"},{"deltaTime":46,"channel":10,"type":"channel","noteNumber":47,"velocity":0,"subtype":"noteOff"},{"deltaTime":2,"channel":10,"type":"channel","noteNumber":35,"velocity":110,"subtype":"noteOn"},{"deltaTime":94,"channel":10,"type":"channel","noteNumber":35,"velocity":0,"subtype":"noteOff"},{"deltaTime":2,"channel":10,"type":"channel","noteNumber":47,"velocity":110,"subtype":"noteOn"},{"deltaTime":46,"channel":10,"type":"channel","noteNumber":47,"velocity":0,"subtype":"noteOff"},{"deltaTime":2,"channel":10,"type":"channel","noteNumber":47,"velocity":110,"subtype":"noteOn"},{"deltaTime":46,"channel":10,"type":"channel","noteNumber":47,"velocity":0,"subtype":"noteOff"},{"deltaTime":2,"channel":10,"type":"channel","noteNumber":39,"velocity":110,"subtype":"noteOn"},{"deltaTime":94,"channel":10,"type":"channel","noteNumber":39,"velocity":0,"subtype":"noteOff"},{"deltaTime":2,"channel":10,"type":"channel","noteNumber":51,"velocity":110,"subtype":"noteOn"},{"deltaTime":46,"channel":10,"type":"channel","noteNumber":51,"velocity":0,"subtype":"noteOff"},{"deltaTime":2,"channel":10,"type":"channel","noteNumber":51,"velocity":110,"subtype":"noteOn"},{"deltaTime":46,"channel":10,"type":"channel","noteNumber":51,"velocity":0,"subtype":"noteOff"},{"deltaTime":2,"channel":10,"type":"channel","noteNumber":39,"velocity":110,"subtype":"noteOn"},{"deltaTime":94,"channel":10,"type":"channel","noteNumber":39,"velocity":0,"subtype":"noteOff"},{"deltaTime":2,"channel":10,"type":"channel","noteNumber":51,"velocity":110,"subtype":"noteOn"},{"deltaTime":46,"channel":10,"type":"channel","noteNumber":51,"velocity":0,"subtype":"noteOff"},{"deltaTime":2,"channel":10,"type":"channel","noteNumber":51,"velocity":110,"subtype":"noteOn"},{"deltaTime":46,"channel":10,"type":"channel","noteNumber":51,"velocity":0,"subtype":"noteOff"},{"deltaTime":2,"channel":10,"type":"channel","noteNumber":35,"velocity":110,"subtype":"noteOn"},{"deltaTime":94,"channel":10,"type":"channel","noteNumber":35,"velocity":0,"subtype":"noteOff"},{"deltaTime":2,"channel":10,"type":"channel","noteNumber":47,"velocity":110,"subtype":"noteOn"},{"deltaTime":46,"channel":10,"type":"channel","noteNumber":47,"velocity":0,"subtype":"noteOff"},{"deltaTime":2,"channel":10,"type":"channel","noteNumber":47,"velocity":110,"subtype":"noteOn"},{"deltaTime":46,"channel":10,"type":"channel","noteNumber":47,"velocity":0,"subtype":"noteOff"},{"deltaTime":2,"channel":10,"type":"channel","noteNumber":35,"velocity":110,"subtype":"noteOn"},{"deltaTime":94,"channel":10,"type":"channel","noteNumber":35,"velocity":0,"subtype":"noteOff"},{"deltaTime":2,"channel":10,"type":"channel","noteNumber":47,"velocity":110,"subtype":"noteOn"},{"deltaTime":46,"channel":10,"type":"channel","noteNumber":47,"velocity":0,"subtype":"noteOff"},{"deltaTime":2,"channel":10,"type":"channel","noteNumber":47,"velocity":110,"subtype":"noteOn"},{"deltaTime":46,"channel":10,"type":"channel","noteNumber":47,"velocity":0,"subtype":"noteOff"},{"deltaTime":2,"channel":10,"type":"channel","noteNumber":28,"velocity":110,"subtype":"noteOn"},{"deltaTime":94,"channel":10,"type":"channel","noteNumber":28,"velocity":0,"subtype":"noteOff"},{"deltaTime":2,"channel":10,"type":"channel","noteNumber":40,"velocity":110,"subtype":"noteOn"},{"deltaTime":46,"channel":10,"type":"channel","noteNumber":40,"velocity":0,"subtype":"noteOff"},{"deltaTime":2,"channel":10,"type":"channel","noteNumber":40,"velocity":110,"subtype":"noteOn"},{"deltaTime":46,"channel":10,"type":"channel","noteNumber":40,"velocity":0,"subtype":"noteOff"},{"deltaTime":2,"channel":10,"type":"channel","noteNumber":28,"velocity":110,"subtype":"noteOn"},{"deltaTime":94,"channel":10,"type":"channel","noteNumber":28,"velocity":0,"subtype":"noteOff"},{"deltaTime":2,"channel":10,"type":"channel","noteNumber":40,"velocity":110,"subtype":"noteOn"},{"deltaTime":46,"channel":10,"type":"channel","noteNumber":40,"velocity":0,"subtype":"noteOff"},{"deltaTime":2,"channel":10,"type":"channel","noteNumber":40,"velocity":110,"subtype":"noteOn"},{"deltaTime":46,"channel":10,"type":"channel","noteNumber":40,"velocity":0,"subtype":"noteOff"},{"deltaTime":2,"channel":10,"type":"channel","noteNumber":28,"velocity":110,"subtype":"noteOn"},{"deltaTime":94,"channel":10,"type":"channel","noteNumber":28,"velocity":0,"subtype":"noteOff"},{"deltaTime":2,"channel":10,"type":"channel","noteNumber":40,"velocity":110,"subtype":"noteOn"},{"deltaTime":46,"channel":10,"type":"channel","noteNumber":40,"velocity":0,"subtype":"noteOff"},{"deltaTime":2,"channel":10,"type":"channel","noteNumber":40,"velocity":110,"subtype":"noteOn"},{"deltaTime":46,"channel":10,"type":"channel","noteNumber":40,"velocity":0,"subtype":"noteOff"},{"deltaTime":2,"channel":10,"type":"channel","noteNumber":52,"velocity":110,"subtype":"noteOn"},{"deltaTime":94,"channel":10,"type":"channel","noteNumber":52,"velocity":0,"subtype":"noteOff"},{"deltaTime":2,"channel":10,"type":"channel","noteNumber":52,"velocity":110,"subtype":"noteOn"},{"deltaTime":46,"channel":10,"type":"channel","noteNumber":52,"velocity":0,"subtype":"noteOff"},{"deltaTime":2,"channel":10,"type":"channel","noteNumber":52,"velocity":110,"subtype":"noteOn"},{"deltaTime":46,"channel":10,"type":"channel","noteNumber":52,"velocity":0,"subtype":"noteOff"},{"deltaTime":0,"type":"meta","subtype":"endOfTrack"}],[{"deltaTime":0,"type":"meta","subtype":"unknown","data":"\u0000"},{"deltaTime":0,"type":"meta","subtype":"trackName","text":"Staff-4"},{"deltaTime":0,"channel":9,"type":"channel","subtype":"programChange","programNumber":81},{"deltaTime":0,"channel":9,"type":"channel","subtype":"controller","controllerType":7,"value":127},{"deltaTime":0,"channel":9,"type":"channel","subtype":"controller","controllerType":10,"value":64},{"deltaTime":0,"channel":9,"type":"channel","subtype":"programChange","programNumber":81},{"deltaTime":0,"channel":9,"type":"channel","subtype":"controller","controllerType":7,"value":127},{"deltaTime":0,"channel":9,"type":"channel","subtype":"controller","controllerType":10,"value":64},{"deltaTime":11520,"channel":9,"type":"channel","noteNumber":38,"velocity":110,"subtype":"noteOn"},{"deltaTime":0,"channel":9,"type":"channel","noteNumber":39,"velocity":110,"subtype":"noteOn"},{"deltaTime":46,"channel":9,"type":"channel","noteNumber":38,"velocity":0,"subtype":"noteOff"},{"deltaTime":0,"channel":9,"type":"channel","noteNumber":39,"velocity":0,"subtype":"noteOff"},{"deltaTime":2,"channel":9,"type":"channel","noteNumber":38,"velocity":110,"subtype":"noteOn"},{"deltaTime":46,"channel":9,"type":"channel","noteNumber":38,"velocity":0,"subtype":"noteOff"},{"deltaTime":2,"channel":9,"type":"channel","noteNumber":38,"velocity":110,"subtype":"noteOn"},{"deltaTime":0,"channel":9,"type":"channel","noteNumber":39,"velocity":110,"subtype":"noteOn"},{"deltaTime":46,"channel":9,"type":"channel","noteNumber":38,"velocity":0,"subtype":"noteOff"},{"deltaTime":0,"channel":9,"type":"channel","noteNumber":39,"velocity":0,"subtype":"noteOff"},{"deltaTime":2,"channel":9,"type":"channel","noteNumber":38,"velocity":110,"subtype":"noteOn"},{"deltaTime":0,"channel":9,"type":"channel","noteNumber":39,"velocity":110,"subtype":"noteOn"},{"deltaTime":46,"channel":9,"type":"channel","noteNumber":38,"velocity":0,"subtype":"noteOff"},{"deltaTime":0,"channel":9,"type":"channel","noteNumber":39,"velocity":0,"subtype":"noteOff"},{"deltaTime":2,"channel":9,"type":"channel","noteNumber":38,"velocity":110,"subtype":"noteOn"},{"deltaTime":0,"channel":9,"type":"channel","noteNumber":39,"velocity":110,"subtype":"noteOn"},{"deltaTime":46,"channel":9,"type":"channel","noteNumber":38,"velocity":0,"subtype":"noteOff"},{"deltaTime":0,"channel":9,"type":"channel","noteNumber":39,"velocity":0,"subtype":"noteOff"},{"deltaTime":2,"channel":9,"type":"channel","noteNumber":38,"velocity":110,"subtype":"noteOn"},{"deltaTime":46,"channel":9,"type":"channel","noteNumber":38,"velocity":0,"subtype":"noteOff"},{"deltaTime":2,"channel":9,"type":"channel","noteNumber":38,"velocity":110,"subtype":"noteOn"},{"deltaTime":0,"channel":9,"type":"channel","noteNumber":39,"velocity":110,"subtype":"noteOn"},{"deltaTime":46,"channel":9,"type":"channel","noteNumber":38,"velocity":0,"subtype":"noteOff"},{"deltaTime":0,"channel":9,"type":"channel","noteNumber":39,"velocity":0,"subtype":"noteOff"},{"deltaTime":2,"channel":9,"type":"channel","noteNumber":38,"velocity":110,"subtype":"noteOn"},{"deltaTime":0,"channel":9,"type":"channel","noteNumber":39,"velocity":110,"subtype":"noteOn"},{"deltaTime":46,"channel":9,"type":"channel","noteNumber":38,"velocity":0,"subtype":"noteOff"},{"deltaTime":0,"channel":9,"type":"channel","noteNumber":39,"velocity":0,"subtype":"noteOff"},{"deltaTime":2,"channel":9,"type":"channel","noteNumber":38,"velocity":110,"subtype":"noteOn"},{"deltaTime":0,"channel":9,"type":"channel","noteNumber":39,"velocity":110,"subtype":"noteOn"},{"deltaTime":46,"channel":9,"type":"channel","noteNumber":38,"velocity":0,"subtype":"noteOff"},{"deltaTime":0,"channel":9,"type":"channel","noteNumber":39,"velocity":0,"subtype":"noteOff"},{"deltaTime":2,"channel":9,"type":"channel","noteNumber":38,"velocity":110,"subtype":"noteOn"},{"deltaTime":46,"channel":9,"type":"channel","noteNumber":38,"velocity":0,"subtype":"noteOff"},{"deltaTime":2,"channel":9,"type":"channel","noteNumber":38,"velocity":110,"subtype":"noteOn"},{"deltaTime":0,"channel":9,"type":"channel","noteNumber":39,"velocity":110,"subtype":"noteOn"},{"deltaTime":46,"channel":9,"type":"channel","noteNumber":38,"velocity":0,"subtype":"noteOff"},{"deltaTime":0,"channel":9,"type":"channel","noteNumber":39,"velocity":0,"subtype":"noteOff"},{"deltaTime":2,"channel":9,"type":"channel","noteNumber":38,"velocity":110,"subtype":"noteOn"},{"deltaTime":46,"channel":9,"type":"channel","noteNumber":38,"velocity":0,"subtype":"noteOff"},{"deltaTime":2,"channel":9,"type":"channel","noteNumber":38,"velocity":110,"subtype":"noteOn"},{"deltaTime":0,"channel":9,"type":"channel","noteNumber":39,"velocity":110,"subtype":"noteOn"},{"deltaTime":46,"channel":9,"type":"channel","noteNumber":38,"velocity":0,"subtype":"noteOff"},{"deltaTime":0,"channel":9,"type":"channel","noteNumber":39,"velocity":0,"subtype":"noteOff"},{"deltaTime":2,"channel":9,"type":"channel","noteNumber":38,"velocity":110,"subtype":"noteOn"},{"deltaTime":0,"channel":9,"type":"channel","noteNumber":39,"velocity":110,"subtype":"noteOn"},{"deltaTime":46,"channel":9,"type":"channel","noteNumber":38,"velocity":0,"subtype":"noteOff"},{"deltaTime":0,"channel":9,"type":"channel","noteNumber":39,"velocity":0,"subtype":"noteOff"},{"deltaTime":2,"channel":9,"type":"channel","noteNumber":38,"velocity":110,"subtype":"noteOn"},{"deltaTime":0,"channel":9,"type":"channel","noteNumber":39,"velocity":110,"subtype":"noteOn"},{"deltaTime":46,"channel":9,"type":"channel","noteNumber":38,"velocity":0,"subtype":"noteOff"},{"deltaTime":0,"channel":9,"type":"channel","noteNumber":39,"velocity":0,"subtype":"noteOff"},{"deltaTime":2,"channel":9,"type":"channel","noteNumber":38,"velocity":110,"subtype":"noteOn"},{"deltaTime":0,"channel":9,"type":"channel","noteNumber":39,"velocity":110,"subtype":"noteOn"},{"deltaTime":46,"channel":9,"type":"channel","noteNumber":38,"velocity":0,"subtype":"noteOff"},{"deltaTime":0,"channel":9,"type":"channel","noteNumber":39,"velocity":0,"subtype":"noteOff"},{"deltaTime":2,"channel":9,"type":"channel","noteNumber":57,"velocity":110,"subtype":"noteOn"},{"deltaTime":160,"channel":9,"type":"channel","noteNumber":57,"velocity":0,"subtype":"noteOff"},{"deltaTime":32,"channel":9,"type":"channel","noteNumber":38,"velocity":110,"subtype":"noteOn"},{"deltaTime":160,"channel":9,"type":"channel","noteNumber":38,"velocity":0,"subtype":"noteOff"},{"deltaTime":224,"channel":9,"type":"channel","noteNumber":38,"velocity":110,"subtype":"noteOn"},{"deltaTime":160,"channel":9,"type":"channel","noteNumber":38,"velocity":0,"subtype":"noteOff"},{"deltaTime":224,"channel":9,"type":"channel","noteNumber":38,"velocity":110,"subtype":"noteOn"},{"deltaTime":160,"channel":9,"type":"channel","noteNumber":38,"velocity":0,"subtype":"noteOff"},{"deltaTime":224,"channel":9,"type":"channel","noteNumber":38,"velocity":110,"subtype":"noteOn"},{"deltaTime":0,"channel":9,"type":"channel","noteNumber":39,"velocity":110,"subtype":"noteOn"},{"deltaTime":94,"channel":9,"type":"channel","noteNumber":38,"velocity":0,"subtype":"noteOff"},{"deltaTime":0,"channel":9,"type":"channel","noteNumber":39,"velocity":0,"subtype":"noteOff"},{"deltaTime":2,"channel":9,"type":"channel","noteNumber":38,"velocity":110,"subtype":"noteOn"},{"deltaTime":0,"channel":9,"type":"channel","noteNumber":39,"velocity":110,"subtype":"noteOn"},{"deltaTime":46,"channel":9,"type":"channel","noteNumber":38,"velocity":0,"subtype":"noteOff"},{"deltaTime":0,"channel":9,"type":"channel","noteNumber":39,"velocity":0,"subtype":"noteOff"},{"deltaTime":2,"channel":9,"type":"channel","noteNumber":38,"velocity":110,"subtype":"noteOn"},{"deltaTime":0,"channel":9,"type":"channel","noteNumber":39,"velocity":110,"subtype":"noteOn"},{"deltaTime":46,"channel":9,"type":"channel","noteNumber":38,"velocity":0,"subtype":"noteOff"},{"deltaTime":0,"channel":9,"type":"channel","noteNumber":39,"velocity":0,"subtype":"noteOff"},{"deltaTime":194,"channel":9,"type":"channel","noteNumber":38,"velocity":110,"subtype":"noteOn"},{"deltaTime":160,"channel":9,"type":"channel","noteNumber":38,"velocity":0,"subtype":"noteOff"},{"deltaTime":224,"channel":9,"type":"channel","noteNumber":38,"velocity":110,"subtype":"noteOn"},{"deltaTime":160,"channel":9,"type":"channel","noteNumber":38,"velocity":0,"subtype":"noteOff"},{"deltaTime":224,"channel":9,"type":"channel","noteNumber":38,"velocity":110,"subtype":"noteOn"},{"deltaTime":160,"channel":9,"type":"channel","noteNumber":38,"velocity":0,"subtype":"noteOff"},{"deltaTime":224,"channel":9,"type":"channel","noteNumber":38,"velocity":110,"subtype":"noteOn"},{"deltaTime":160,"channel":9,"type":"channel","noteNumber":38,"velocity":0,"subtype":"noteOff"},{"deltaTime":224,"channel":9,"type":"channel","noteNumber":38,"velocity":110,"subtype":"noteOn"},{"deltaTime":160,"channel":9,"type":"channel","noteNumber":38,"velocity":0,"subtype":"noteOff"},{"deltaTime":224,"channel":9,"type":"channel","noteNumber":38,"velocity":110,"subtype":"noteOn"},{"deltaTime":0,"channel":9,"type":"channel","noteNumber":39,"velocity":110,"subtype":"noteOn"},{"deltaTime":94,"channel":9,"type":"channel","noteNumber":38,"velocity":0,"subtype":"noteOff"},{"deltaTime":0,"channel":9,"type":"channel","noteNumber":39,"velocity":0,"subtype":"noteOff"},{"deltaTime":2,"channel":9,"type":"channel","noteNumber":38,"velocity":110,"subtype":"noteOn"},{"deltaTime":0,"channel":9,"type":"channel","noteNumber":39,"velocity":110,"subtype":"noteOn"},{"deltaTime":46,"channel":9,"type":"channel","noteNumber":38,"velocity":0,"subtype":"noteOff"},{"deltaTime":0,"channel":9,"type":"channel","noteNumber":39,"velocity":0,"subtype":"noteOff"},{"deltaTime":2,"channel":9,"type":"channel","noteNumber":38,"velocity":110,"subtype":"noteOn"},{"deltaTime":0,"channel":9,"type":"channel","noteNumber":39,"velocity":110,"subtype":"noteOn"},{"deltaTime":46,"channel":9,"type":"channel","noteNumber":38,"velocity":0,"subtype":"noteOff"},{"deltaTime":0,"channel":9,"type":"channel","noteNumber":39,"velocity":0,"subtype":"noteOff"},{"deltaTime":194,"channel":9,"type":"channel","noteNumber":38,"velocity":110,"subtype":"noteOn"},{"deltaTime":160,"channel":9,"type":"channel","noteNumber":38,"velocity":0,"subtype":"noteOff"},{"deltaTime":224,"channel":9,"type":"channel","noteNumber":38,"velocity":110,"subtype":"noteOn"},{"deltaTime":160,"channel":9,"type":"channel","noteNumber":38,"velocity":0,"subtype":"noteOff"},{"deltaTime":224,"channel":9,"type":"channel","noteNumber":38,"velocity":110,"subtype":"noteOn"},{"deltaTime":160,"channel":9,"type":"channel","noteNumber":38,"velocity":0,"subtype":"noteOff"},{"deltaTime":224,"channel":9,"type":"channel","noteNumber":38,"velocity":110,"subtype":"noteOn"},{"deltaTime":160,"channel":9,"type":"channel","noteNumber":38,"velocity":0,"subtype":"noteOff"},{"deltaTime":224,"channel":9,"type":"channel","noteNumber":38,"velocity":110,"subtype":"noteOn"},{"deltaTime":160,"channel":9,"type":"channel","noteNumber":38,"velocity":0,"subtype":"noteOff"},{"deltaTime":224,"channel":9,"type":"channel","noteNumber":38,"velocity":110,"subtype":"noteOn"},{"deltaTime":0,"channel":9,"type":"channel","noteNumber":39,"velocity":110,"subtype":"noteOn"},{"deltaTime":46,"channel":9,"type":"channel","noteNumber":38,"velocity":0,"subtype":"noteOff"},{"deltaTime":0,"channel":9,"type":"channel","noteNumber":39,"velocity":0,"subtype":"noteOff"},{"deltaTime":2,"channel":9,"type":"channel","noteNumber":38,"velocity":110,"subtype":"noteOn"},{"deltaTime":46,"channel":9,"type":"channel","noteNumber":38,"velocity":0,"subtype":"noteOff"},{"deltaTime":2,"channel":9,"type":"channel","noteNumber":38,"velocity":110,"subtype":"noteOn"},{"deltaTime":0,"channel":9,"type":"channel","noteNumber":39,"velocity":110,"subtype":"noteOn"},{"deltaTime":46,"channel":9,"type":"channel","noteNumber":38,"velocity":0,"subtype":"noteOff"},{"deltaTime":0,"channel":9,"type":"channel","noteNumber":39,"velocity":0,"subtype":"noteOff"},{"deltaTime":2,"channel":9,"type":"channel","noteNumber":38,"velocity":110,"subtype":"noteOn"},{"deltaTime":0,"channel":9,"type":"channel","noteNumber":39,"velocity":110,"subtype":"noteOn"},{"deltaTime":46,"channel":9,"type":"channel","noteNumber":38,"velocity":0,"subtype":"noteOff"},{"deltaTime":0,"channel":9,"type":"channel","noteNumber":39,"velocity":0,"subtype":"noteOff"},{"deltaTime":2,"channel":9,"type":"channel","noteNumber":57,"velocity":110,"subtype":"noteOn"},{"deltaTime":160,"channel":9,"type":"channel","noteNumber":57,"velocity":0,"subtype":"noteOff"},{"deltaTime":32,"channel":9,"type":"channel","noteNumber":38,"velocity":110,"subtype":"noteOn"},{"deltaTime":160,"channel":9,"type":"channel","noteNumber":38,"velocity":0,"subtype":"noteOff"},{"deltaTime":224,"channel":9,"type":"channel","noteNumber":38,"velocity":110,"subtype":"noteOn"},{"deltaTime":160,"channel":9,"type":"channel","noteNumber":38,"velocity":0,"subtype":"noteOff"},{"deltaTime":224,"channel":9,"type":"channel","noteNumber":38,"velocity":110,"subtype":"noteOn"},{"deltaTime":160,"channel":9,"type":"channel","noteNumber":38,"velocity":0,"subtype":"noteOff"},{"deltaTime":224,"channel":9,"type":"channel","noteNumber":38,"velocity":110,"subtype":"noteOn"},{"deltaTime":0,"channel":9,"type":"channel","noteNumber":39,"velocity":110,"subtype":"noteOn"},{"deltaTime":94,"channel":9,"type":"channel","noteNumber":38,"velocity":0,"subtype":"noteOff"},{"deltaTime":0,"channel":9,"type":"channel","noteNumber":39,"velocity":0,"subtype":"noteOff"},{"deltaTime":2,"channel":9,"type":"channel","noteNumber":38,"velocity":110,"subtype":"noteOn"},{"deltaTime":0,"channel":9,"type":"channel","noteNumber":39,"velocity":110,"subtype":"noteOn"},{"deltaTime":46,"channel":9,"type":"channel","noteNumber":38,"velocity":0,"subtype":"noteOff"},{"deltaTime":0,"channel":9,"type":"channel","noteNumber":39,"velocity":0,"subtype":"noteOff"},{"deltaTime":2,"channel":9,"type":"channel","noteNumber":38,"velocity":110,"subtype":"noteOn"},{"deltaTime":0,"channel":9,"type":"channel","noteNumber":39,"velocity":110,"subtype":"noteOn"},{"deltaTime":46,"channel":9,"type":"channel","noteNumber":38,"velocity":0,"subtype":"noteOff"},{"deltaTime":0,"channel":9,"type":"channel","noteNumber":39,"velocity":0,"subtype":"noteOff"},{"deltaTime":194,"channel":9,"type":"channel","noteNumber":38,"velocity":110,"subtype":"noteOn"},{"deltaTime":160,"channel":9,"type":"channel","noteNumber":38,"velocity":0,"subtype":"noteOff"},{"deltaTime":224,"channel":9,"type":"channel","noteNumber":38,"velocity":110,"subtype":"noteOn"},{"deltaTime":160,"channel":9,"type":"channel","noteNumber":38,"velocity":0,"subtype":"noteOff"},{"deltaTime":224,"channel":9,"type":"channel","noteNumber":38,"velocity":110,"subtype":"noteOn"},{"deltaTime":160,"channel":9,"type":"channel","noteNumber":38,"velocity":0,"subtype":"noteOff"},{"deltaTime":224,"channel":9,"type":"channel","noteNumber":38,"velocity":110,"subtype":"noteOn"},{"deltaTime":160,"channel":9,"type":"channel","noteNumber":38,"velocity":0,"subtype":"noteOff"},{"deltaTime":224,"channel":9,"type":"channel","noteNumber":38,"velocity":110,"subtype":"noteOn"},{"deltaTime":160,"channel":9,"type":"channel","noteNumber":38,"velocity":0,"subtype":"noteOff"},{"deltaTime":224,"channel":9,"type":"channel","noteNumber":38,"velocity":110,"subtype":"noteOn"},{"deltaTime":0,"channel":9,"type":"channel","noteNumber":39,"velocity":110,"subtype":"noteOn"},{"deltaTime":94,"channel":9,"type":"channel","noteNumber":38,"velocity":0,"subtype":"noteOff"},{"deltaTime":0,"channel":9,"type":"channel","noteNumber":39,"velocity":0,"subtype":"noteOff"},{"deltaTime":2,"channel":9,"type":"channel","noteNumber":38,"velocity":110,"subtype":"noteOn"},{"deltaTime":0,"channel":9,"type":"channel","noteNumber":39,"velocity":110,"subtype":"noteOn"},{"deltaTime":46,"channel":9,"type":"channel","noteNumber":38,"velocity":0,"subtype":"noteOff"},{"deltaTime":0,"channel":9,"type":"channel","noteNumber":39,"velocity":0,"subtype":"noteOff"},{"deltaTime":2,"channel":9,"type":"channel","noteNumber":38,"velocity":110,"subtype":"noteOn"},{"deltaTime":0,"channel":9,"type":"channel","noteNumber":39,"velocity":110,"subtype":"noteOn"},{"deltaTime":46,"channel":9,"type":"channel","noteNumber":38,"velocity":0,"subtype":"noteOff"},{"deltaTime":0,"channel":9,"type":"channel","noteNumber":39,"velocity":0,"subtype":"noteOff"},{"deltaTime":194,"channel":9,"type":"channel","noteNumber":38,"velocity":110,"subtype":"noteOn"},{"deltaTime":160,"channel":9,"type":"channel","noteNumber":38,"velocity":0,"subtype":"noteOff"},{"deltaTime":224,"channel":9,"type":"channel","noteNumber":38,"velocity":110,"subtype":"noteOn"},{"deltaTime":160,"channel":9,"type":"channel","noteNumber":38,"velocity":0,"subtype":"noteOff"},{"deltaTime":224,"channel":9,"type":"channel","noteNumber":38,"velocity":110,"subtype":"noteOn"},{"deltaTime":160,"channel":9,"type":"channel","noteNumber":38,"velocity":0,"subtype":"noteOff"},{"deltaTime":224,"channel":9,"type":"channel","noteNumber":38,"velocity":110,"subtype":"noteOn"},{"deltaTime":160,"channel":9,"type":"channel","noteNumber":38,"velocity":0,"subtype":"noteOff"},{"deltaTime":224,"channel":9,"type":"channel","noteNumber":38,"velocity":110,"subtype":"noteOn"},{"deltaTime":160,"channel":9,"type":"channel","noteNumber":38,"velocity":0,"subtype":"noteOff"},{"deltaTime":224,"channel":9,"type":"channel","noteNumber":38,"velocity":110,"subtype":"noteOn"},{"deltaTime":0,"channel":9,"type":"channel","noteNumber":39,"velocity":110,"subtype":"noteOn"},{"deltaTime":46,"channel":9,"type":"channel","noteNumber":38,"velocity":0,"subtype":"noteOff"},{"deltaTime":0,"channel":9,"type":"channel","noteNumber":39,"velocity":0,"subtype":"noteOff"},{"deltaTime":2,"channel":9,"type":"channel","noteNumber":38,"velocity":110,"subtype":"noteOn"},{"deltaTime":46,"channel":9,"type":"channel","noteNumber":38,"velocity":0,"subtype":"noteOff"},{"deltaTime":2,"channel":9,"type":"channel","noteNumber":38,"velocity":110,"subtype":"noteOn"},{"deltaTime":0,"channel":9,"type":"channel","noteNumber":39,"velocity":110,"subtype":"noteOn"},{"deltaTime":46,"channel":9,"type":"channel","noteNumber":38,"velocity":0,"subtype":"noteOff"},{"deltaTime":0,"channel":9,"type":"channel","noteNumber":39,"velocity":0,"subtype":"noteOff"},{"deltaTime":2,"channel":9,"type":"channel","noteNumber":38,"velocity":110,"subtype":"noteOn"},{"deltaTime":0,"channel":9,"type":"channel","noteNumber":39,"velocity":110,"subtype":"noteOn"},{"deltaTime":46,"channel":9,"type":"channel","noteNumber":38,"velocity":0,"subtype":"noteOff"},{"deltaTime":0,"channel":9,"type":"channel","noteNumber":39,"velocity":0,"subtype":"noteOff"},{"deltaTime":2,"channel":9,"type":"channel","noteNumber":57,"velocity":110,"subtype":"noteOn"},{"deltaTime":160,"channel":9,"type":"channel","noteNumber":57,"velocity":0,"subtype":"noteOff"},{"deltaTime":5792,"channel":9,"type":"channel","noteNumber":38,"velocity":110,"subtype":"noteOn"},{"deltaTime":0,"channel":9,"type":"channel","noteNumber":39,"velocity":110,"subtype":"noteOn"},{"deltaTime":46,"channel":9,"type":"channel","noteNumber":38,"velocity":0,"subtype":"noteOff"},{"deltaTime":0,"channel":9,"type":"channel","noteNumber":39,"velocity":0,"subtype":"noteOff"},{"deltaTime":2,"channel":9,"type":"channel","noteNumber":38,"velocity":110,"subtype":"noteOn"},{"deltaTime":46,"channel":9,"type":"channel","noteNumber":38,"velocity":0,"subtype":"noteOff"},{"deltaTime":2,"channel":9,"type":"channel","noteNumber":38,"velocity":110,"subtype":"noteOn"},{"deltaTime":0,"channel":9,"type":"channel","noteNumber":39,"velocity":110,"subtype":"noteOn"},{"deltaTime":46,"channel":9,"type":"channel","noteNumber":38,"velocity":0,"subtype":"noteOff"},{"deltaTime":0,"channel":9,"type":"channel","noteNumber":39,"velocity":0,"subtype":"noteOff"},{"deltaTime":2,"channel":9,"type":"channel","noteNumber":38,"velocity":110,"subtype":"noteOn"},{"deltaTime":0,"channel":9,"type":"channel","noteNumber":39,"velocity":110,"subtype":"noteOn"},{"deltaTime":46,"channel":9,"type":"channel","noteNumber":38,"velocity":0,"subtype":"noteOff"},{"deltaTime":0,"channel":9,"type":"channel","noteNumber":39,"velocity":0,"subtype":"noteOff"},{"deltaTime":2,"channel":9,"type":"channel","noteNumber":57,"velocity":110,"subtype":"noteOn"},{"deltaTime":160,"channel":9,"type":"channel","noteNumber":57,"velocity":0,"subtype":"noteOff"},{"deltaTime":32,"channel":9,"type":"channel","noteNumber":39,"velocity":110,"subtype":"noteOn"},{"deltaTime":160,"channel":9,"type":"channel","noteNumber":39,"velocity":0,"subtype":"noteOff"},{"deltaTime":224,"channel":9,"type":"channel","noteNumber":39,"velocity":110,"subtype":"noteOn"},{"deltaTime":160,"channel":9,"type":"channel","noteNumber":39,"velocity":0,"subtype":"noteOff"},{"deltaTime":224,"channel":9,"type":"channel","noteNumber":39,"velocity":110,"subtype":"noteOn"},{"deltaTime":160,"channel":9,"type":"channel","noteNumber":39,"velocity":0,"subtype":"noteOff"},{"deltaTime":224,"channel":9,"type":"channel","noteNumber":39,"velocity":110,"subtype":"noteOn"},{"deltaTime":94,"channel":9,"type":"channel","noteNumber":39,"velocity":0,"subtype":"noteOff"},{"deltaTime":2,"channel":9,"type":"channel","noteNumber":39,"velocity":110,"subtype":"noteOn"},{"deltaTime":46,"channel":9,"type":"channel","noteNumber":39,"velocity":0,"subtype":"noteOff"},{"deltaTime":2,"channel":9,"type":"channel","noteNumber":39,"velocity":110,"subtype":"noteOn"},{"deltaTime":46,"channel":9,"type":"channel","noteNumber":39,"velocity":0,"subtype":"noteOff"},{"deltaTime":194,"channel":9,"type":"channel","noteNumber":39,"velocity":110,"subtype":"noteOn"},{"deltaTime":160,"channel":9,"type":"channel","noteNumber":39,"velocity":0,"subtype":"noteOff"},{"deltaTime":224,"channel":9,"type":"channel","noteNumber":39,"velocity":110,"subtype":"noteOn"},{"deltaTime":160,"channel":9,"type":"channel","noteNumber":39,"velocity":0,"subtype":"noteOff"},{"deltaTime":224,"channel":9,"type":"channel","noteNumber":39,"velocity":110,"subtype":"noteOn"},{"deltaTime":160,"channel":9,"type":"channel","noteNumber":39,"velocity":0,"subtype":"noteOff"},{"deltaTime":128,"channel":9,"type":"channel","noteNumber":39,"velocity":110,"subtype":"noteOn"},{"deltaTime":94,"channel":9,"type":"channel","noteNumber":39,"velocity":0,"subtype":"noteOff"},{"deltaTime":2,"channel":9,"type":"channel","noteNumber":39,"velocity":110,"subtype":"noteOn"},{"deltaTime":46,"channel":9,"type":"channel","noteNumber":39,"velocity":0,"subtype":"noteOff"},{"deltaTime":2,"channel":9,"type":"channel","noteNumber":39,"velocity":110,"subtype":"noteOn"},{"deltaTime":46,"channel":9,"type":"channel","noteNumber":39,"velocity":0,"subtype":"noteOff"},{"deltaTime":2,"channel":9,"type":"channel","noteNumber":39,"velocity":110,"subtype":"noteOn"},{"deltaTime":46,"channel":9,"type":"channel","noteNumber":39,"velocity":0,"subtype":"noteOff"},{"deltaTime":2,"channel":9,"type":"channel","noteNumber":39,"velocity":110,"subtype":"noteOn"},{"deltaTime":46,"channel":9,"type":"channel","noteNumber":39,"velocity":0,"subtype":"noteOff"},{"deltaTime":194,"channel":9,"type":"channel","noteNumber":39,"velocity":110,"subtype":"noteOn"},{"deltaTime":160,"channel":9,"type":"channel","noteNumber":39,"velocity":0,"subtype":"noteOff"},{"deltaTime":224,"channel":9,"type":"channel","noteNumber":39,"velocity":110,"subtype":"noteOn"},{"deltaTime":160,"channel":9,"type":"channel","noteNumber":39,"velocity":0,"subtype":"noteOff"},{"deltaTime":224,"channel":9,"type":"channel","noteNumber":39,"velocity":110,"subtype":"noteOn"},{"deltaTime":160,"channel":9,"type":"channel","noteNumber":39,"velocity":0,"subtype":"noteOff"},{"deltaTime":224,"channel":9,"type":"channel","noteNumber":39,"velocity":110,"subtype":"noteOn"},{"deltaTime":160,"channel":9,"type":"channel","noteNumber":39,"velocity":0,"subtype":"noteOff"},{"deltaTime":224,"channel":9,"type":"channel","noteNumber":39,"velocity":110,"subtype":"noteOn"},{"deltaTime":160,"channel":9,"type":"channel","noteNumber":39,"velocity":0,"subtype":"noteOff"},{"deltaTime":224,"channel":9,"type":"channel","noteNumber":39,"velocity":110,"subtype":"noteOn"},{"deltaTime":160,"channel":9,"type":"channel","noteNumber":39,"velocity":0,"subtype":"noteOff"},{"deltaTime":224,"channel":9,"type":"channel","noteNumber":39,"velocity":110,"subtype":"noteOn"},{"deltaTime":160,"channel":9,"type":"channel","noteNumber":39,"velocity":0,"subtype":"noteOff"},{"deltaTime":224,"channel":9,"type":"channel","noteNumber":38,"velocity":110,"subtype":"noteOn"},{"deltaTime":0,"channel":9,"type":"channel","noteNumber":39,"velocity":110,"subtype":"noteOn"},{"deltaTime":46,"channel":9,"type":"channel","noteNumber":38,"velocity":0,"subtype":"noteOff"},{"deltaTime":0,"channel":9,"type":"channel","noteNumber":39,"velocity":0,"subtype":"noteOff"},{"deltaTime":2,"channel":9,"type":"channel","noteNumber":38,"velocity":110,"subtype":"noteOn"},{"deltaTime":0,"channel":9,"type":"channel","noteNumber":39,"velocity":110,"subtype":"noteOn"},{"deltaTime":46,"channel":9,"type":"channel","noteNumber":38,"velocity":0,"subtype":"noteOff"},{"deltaTime":0,"channel":9,"type":"channel","noteNumber":39,"velocity":0,"subtype":"noteOff"},{"deltaTime":2,"channel":9,"type":"channel","noteNumber":38,"velocity":110,"subtype":"noteOn"},{"deltaTime":0,"channel":9,"type":"channel","noteNumber":39,"velocity":110,"subtype":"noteOn"},{"deltaTime":46,"channel":9,"type":"channel","noteNumber":38,"velocity":0,"subtype":"noteOff"},{"deltaTime":0,"channel":9,"type":"channel","noteNumber":39,"velocity":0,"subtype":"noteOff"},{"deltaTime":2,"channel":9,"type":"channel","noteNumber":38,"velocity":110,"subtype":"noteOn"},{"deltaTime":0,"channel":9,"type":"channel","noteNumber":39,"velocity":110,"subtype":"noteOn"},{"deltaTime":46,"channel":9,"type":"channel","noteNumber":38,"velocity":0,"subtype":"noteOff"},{"deltaTime":0,"channel":9,"type":"channel","noteNumber":39,"velocity":0,"subtype":"noteOff"},{"deltaTime":2,"channel":9,"type":"channel","noteNumber":57,"velocity":110,"subtype":"noteOn"},{"deltaTime":160,"channel":9,"type":"channel","noteNumber":57,"velocity":0,"subtype":"noteOff"},{"deltaTime":32,"channel":9,"type":"channel","noteNumber":38,"velocity":110,"subtype":"noteOn"},{"deltaTime":160,"channel":9,"type":"channel","noteNumber":38,"velocity":0,"subtype":"noteOff"},{"deltaTime":224,"channel":9,"type":"channel","noteNumber":38,"velocity":110,"subtype":"noteOn"},{"deltaTime":160,"channel":9,"type":"channel","noteNumber":38,"velocity":0,"subtype":"noteOff"},{"deltaTime":224,"channel":9,"type":"channel","noteNumber":38,"velocity":110,"subtype":"noteOn"},{"deltaTime":160,"channel":9,"type":"channel","noteNumber":38,"velocity":0,"subtype":"noteOff"},{"deltaTime":224,"channel":9,"type":"channel","noteNumber":38,"velocity":110,"subtype":"noteOn"},{"deltaTime":94,"channel":9,"type":"channel","noteNumber":38,"velocity":0,"subtype":"noteOff"},{"deltaTime":2,"channel":9,"type":"channel","noteNumber":38,"velocity":110,"subtype":"noteOn"},{"deltaTime":46,"channel":9,"type":"channel","noteNumber":38,"velocity":0,"subtype":"noteOff"},{"deltaTime":2,"channel":9,"type":"channel","noteNumber":38,"velocity":110,"subtype":"noteOn"},{"deltaTime":46,"channel":9,"type":"channel","noteNumber":38,"velocity":0,"subtype":"noteOff"},{"deltaTime":194,"channel":9,"type":"channel","noteNumber":38,"velocity":110,"subtype":"noteOn"},{"deltaTime":160,"channel":9,"type":"channel","noteNumber":38,"velocity":0,"subtype":"noteOff"},{"deltaTime":224,"channel":9,"type":"channel","noteNumber":38,"velocity":110,"subtype":"noteOn"},{"deltaTime":160,"channel":9,"type":"channel","noteNumber":38,"velocity":0,"subtype":"noteOff"},{"deltaTime":224,"channel":9,"type":"channel","noteNumber":38,"velocity":110,"subtype":"noteOn"},{"deltaTime":160,"channel":9,"type":"channel","noteNumber":38,"velocity":0,"subtype":"noteOff"},{"deltaTime":224,"channel":9,"type":"channel","noteNumber":38,"velocity":110,"subtype":"noteOn"},{"deltaTime":160,"channel":9,"type":"channel","noteNumber":38,"velocity":0,"subtype":"noteOff"},{"deltaTime":224,"channel":9,"type":"channel","noteNumber":38,"velocity":110,"subtype":"noteOn"},{"deltaTime":160,"channel":9,"type":"channel","noteNumber":38,"velocity":0,"subtype":"noteOff"},{"deltaTime":224,"channel":9,"type":"channel","noteNumber":38,"velocity":110,"subtype":"noteOn"},{"deltaTime":94,"channel":9,"type":"channel","noteNumber":38,"velocity":0,"subtype":"noteOff"},{"deltaTime":2,"channel":9,"type":"channel","noteNumber":38,"velocity":110,"subtype":"noteOn"},{"deltaTime":46,"channel":9,"type":"channel","noteNumber":38,"velocity":0,"subtype":"noteOff"},{"deltaTime":2,"channel":9,"type":"channel","noteNumber":38,"velocity":110,"subtype":"noteOn"},{"deltaTime":46,"channel":9,"type":"channel","noteNumber":38,"velocity":0,"subtype":"noteOff"},{"deltaTime":194,"channel":9,"type":"channel","noteNumber":38,"velocity":110,"subtype":"noteOn"},{"deltaTime":160,"channel":9,"type":"channel","noteNumber":38,"velocity":0,"subtype":"noteOff"},{"deltaTime":224,"channel":9,"type":"channel","noteNumber":38,"velocity":110,"subtype":"noteOn"},{"deltaTime":160,"channel":9,"type":"channel","noteNumber":38,"velocity":0,"subtype":"noteOff"},{"deltaTime":224,"channel":9,"type":"channel","noteNumber":38,"velocity":110,"subtype":"noteOn"},{"deltaTime":160,"channel":9,"type":"channel","noteNumber":38,"velocity":0,"subtype":"noteOff"},{"deltaTime":224,"channel":9,"type":"channel","noteNumber":38,"velocity":110,"subtype":"noteOn"},{"deltaTime":160,"channel":9,"type":"channel","noteNumber":38,"velocity":0,"subtype":"noteOff"},{"deltaTime":224,"channel":9,"type":"channel","noteNumber":38,"velocity":110,"subtype":"noteOn"},{"deltaTime":160,"channel":9,"type":"channel","noteNumber":38,"velocity":0,"subtype":"noteOff"},{"deltaTime":224,"channel":9,"type":"channel","noteNumber":38,"velocity":110,"subtype":"noteOn"},{"deltaTime":46,"channel":9,"type":"channel","noteNumber":38,"velocity":0,"subtype":"noteOff"},{"deltaTime":2,"channel":9,"type":"channel","noteNumber":38,"velocity":110,"subtype":"noteOn"},{"deltaTime":46,"channel":9,"type":"channel","noteNumber":38,"velocity":0,"subtype":"noteOff"},{"deltaTime":2,"channel":9,"type":"channel","noteNumber":38,"velocity":110,"subtype":"noteOn"},{"deltaTime":46,"channel":9,"type":"channel","noteNumber":38,"velocity":0,"subtype":"noteOff"},{"deltaTime":2,"channel":9,"type":"channel","noteNumber":38,"velocity":110,"subtype":"noteOn"},{"deltaTime":46,"channel":9,"type":"channel","noteNumber":38,"velocity":0,"subtype":"noteOff"},{"deltaTime":2,"channel":9,"type":"channel","noteNumber":57,"velocity":110,"subtype":"noteOn"},{"deltaTime":160,"channel":9,"type":"channel","noteNumber":57,"velocity":0,"subtype":"noteOff"},{"deltaTime":32,"channel":9,"type":"channel","noteNumber":38,"velocity":110,"subtype":"noteOn"},{"deltaTime":160,"channel":9,"type":"channel","noteNumber":38,"velocity":0,"subtype":"noteOff"},{"deltaTime":224,"channel":9,"type":"channel","noteNumber":38,"velocity":110,"subtype":"noteOn"},{"deltaTime":160,"channel":9,"type":"channel","noteNumber":38,"velocity":0,"subtype":"noteOff"},{"deltaTime":224,"channel":9,"type":"channel","noteNumber":38,"velocity":110,"subtype":"noteOn"},{"deltaTime":160,"channel":9,"type":"channel","noteNumber":38,"velocity":0,"subtype":"noteOff"},{"deltaTime":224,"channel":9,"type":"channel","noteNumber":38,"velocity":110,"subtype":"noteOn"},{"deltaTime":94,"channel":9,"type":"channel","noteNumber":38,"velocity":0,"subtype":"noteOff"},{"deltaTime":2,"channel":9,"type":"channel","noteNumber":38,"velocity":110,"subtype":"noteOn"},{"deltaTime":46,"channel":9,"type":"channel","noteNumber":38,"velocity":0,"subtype":"noteOff"},{"deltaTime":2,"channel":9,"type":"channel","noteNumber":38,"velocity":110,"subtype":"noteOn"},{"deltaTime":46,"channel":9,"type":"channel","noteNumber":38,"velocity":0,"subtype":"noteOff"},{"deltaTime":194,"channel":9,"type":"channel","noteNumber":38,"velocity":110,"subtype":"noteOn"},{"deltaTime":160,"channel":9,"type":"channel","noteNumber":38,"velocity":0,"subtype":"noteOff"},{"deltaTime":224,"channel":9,"type":"channel","noteNumber":38,"velocity":110,"subtype":"noteOn"},{"deltaTime":160,"channel":9,"type":"channel","noteNumber":38,"velocity":0,"subtype":"noteOff"},{"deltaTime":224,"channel":9,"type":"channel","noteNumber":38,"velocity":110,"subtype":"noteOn"},{"deltaTime":160,"channel":9,"type":"channel","noteNumber":38,"velocity":0,"subtype":"noteOff"},{"deltaTime":224,"channel":9,"type":"channel","noteNumber":38,"velocity":110,"subtype":"noteOn"},{"deltaTime":160,"channel":9,"type":"channel","noteNumber":38,"velocity":0,"subtype":"noteOff"},{"deltaTime":224,"channel":9,"type":"channel","noteNumber":38,"velocity":110,"subtype":"noteOn"},{"deltaTime":160,"channel":9,"type":"channel","noteNumber":38,"velocity":0,"subtype":"noteOff"},{"deltaTime":224,"channel":9,"type":"channel","noteNumber":38,"velocity":110,"subtype":"noteOn"},{"deltaTime":94,"channel":9,"type":"channel","noteNumber":38,"velocity":0,"subtype":"noteOff"},{"deltaTime":2,"channel":9,"type":"channel","noteNumber":38,"velocity":110,"subtype":"noteOn"},{"deltaTime":46,"channel":9,"type":"channel","noteNumber":38,"velocity":0,"subtype":"noteOff"},{"deltaTime":2,"channel":9,"type":"channel","noteNumber":38,"velocity":110,"subtype":"noteOn"},{"deltaTime":46,"channel":9,"type":"channel","noteNumber":38,"velocity":0,"subtype":"noteOff"},{"deltaTime":194,"channel":9,"type":"channel","noteNumber":38,"velocity":110,"subtype":"noteOn"},{"deltaTime":160,"channel":9,"type":"channel","noteNumber":38,"velocity":0,"subtype":"noteOff"},{"deltaTime":224,"channel":9,"type":"channel","noteNumber":38,"velocity":110,"subtype":"noteOn"},{"deltaTime":160,"channel":9,"type":"channel","noteNumber":38,"velocity":0,"subtype":"noteOff"},{"deltaTime":224,"channel":9,"type":"channel","noteNumber":38,"velocity":110,"subtype":"noteOn"},{"deltaTime":160,"channel":9,"type":"channel","noteNumber":38,"velocity":0,"subtype":"noteOff"},{"deltaTime":224,"channel":9,"type":"channel","noteNumber":38,"velocity":110,"subtype":"noteOn"},{"deltaTime":160,"channel":9,"type":"channel","noteNumber":38,"velocity":0,"subtype":"noteOff"},{"deltaTime":224,"channel":9,"type":"channel","noteNumber":38,"velocity":110,"subtype":"noteOn"},{"deltaTime":160,"channel":9,"type":"channel","noteNumber":38,"velocity":0,"subtype":"noteOff"},{"deltaTime":224,"channel":9,"type":"channel","noteNumber":38,"velocity":110,"subtype":"noteOn"},{"deltaTime":46,"channel":9,"type":"channel","noteNumber":38,"velocity":0,"subtype":"noteOff"},{"deltaTime":2,"channel":9,"type":"channel","noteNumber":38,"velocity":110,"subtype":"noteOn"},{"deltaTime":46,"channel":9,"type":"channel","noteNumber":38,"velocity":0,"subtype":"noteOff"},{"deltaTime":2,"channel":9,"type":"channel","noteNumber":38,"velocity":110,"subtype":"noteOn"},{"deltaTime":46,"channel":9,"type":"channel","noteNumber":38,"velocity":0,"subtype":"noteOff"},{"deltaTime":2,"channel":9,"type":"channel","noteNumber":38,"velocity":110,"subtype":"noteOn"},{"deltaTime":46,"channel":9,"type":"channel","noteNumber":38,"velocity":0,"subtype":"noteOff"},{"deltaTime":2,"channel":9,"type":"channel","noteNumber":57,"velocity":110,"subtype":"noteOn"},{"deltaTime":160,"channel":9,"type":"channel","noteNumber":57,"velocity":0,"subtype":"noteOff"},{"deltaTime":5792,"channel":9,"type":"channel","noteNumber":38,"velocity":110,"subtype":"noteOn"},{"deltaTime":46,"channel":9,"type":"channel","noteNumber":38,"velocity":0,"subtype":"noteOff"},{"deltaTime":2,"channel":9,"type":"channel","noteNumber":38,"velocity":110,"subtype":"noteOn"},{"deltaTime":46,"channel":9,"type":"channel","noteNumber":38,"velocity":0,"subtype":"noteOff"},{"deltaTime":2,"channel":9,"type":"channel","noteNumber":38,"velocity":110,"subtype":"noteOn"},{"deltaTime":46,"channel":9,"type":"channel","noteNumber":38,"velocity":0,"subtype":"noteOff"},{"deltaTime":2,"channel":9,"type":"channel","noteNumber":38,"velocity":110,"subtype":"noteOn"},{"deltaTime":46,"channel":9,"type":"channel","noteNumber":38,"velocity":0,"subtype":"noteOff"},{"deltaTime":2,"channel":9,"type":"channel","noteNumber":57,"velocity":110,"subtype":"noteOn"},{"deltaTime":160,"channel":9,"type":"channel","noteNumber":57,"velocity":0,"subtype":"noteOff"},{"deltaTime":5792,"channel":9,"type":"channel","noteNumber":38,"velocity":110,"subtype":"noteOn"},{"deltaTime":46,"channel":9,"type":"channel","noteNumber":38,"velocity":0,"subtype":"noteOff"},{"deltaTime":2,"channel":9,"type":"channel","noteNumber":38,"velocity":110,"subtype":"noteOn"},{"deltaTime":46,"channel":9,"type":"channel","noteNumber":38,"velocity":0,"subtype":"noteOff"},{"deltaTime":2,"channel":9,"type":"channel","noteNumber":38,"velocity":110,"subtype":"noteOn"},{"deltaTime":46,"channel":9,"type":"channel","noteNumber":38,"velocity":0,"subtype":"noteOff"},{"deltaTime":2,"channel":9,"type":"channel","noteNumber":38,"velocity":110,"subtype":"noteOn"},{"deltaTime":46,"channel":9,"type":"channel","noteNumber":38,"velocity":0,"subtype":"noteOff"},{"deltaTime":98,"channel":9,"type":"channel","noteNumber":42,"velocity":110,"subtype":"noteOn"},{"deltaTime":94,"channel":9,"type":"channel","noteNumber":42,"velocity":0,"subtype":"noteOff"},{"deltaTime":98,"channel":9,"type":"channel","noteNumber":42,"velocity":110,"subtype":"noteOn"},{"deltaTime":94,"channel":9,"type":"channel","noteNumber":42,"velocity":0,"subtype":"noteOff"},{"deltaTime":98,"channel":9,"type":"channel","noteNumber":42,"velocity":110,"subtype":"noteOn"},{"deltaTime":46,"channel":9,"type":"channel","noteNumber":42,"velocity":0,"subtype":"noteOff"},{"deltaTime":2,"channel":9,"type":"channel","noteNumber":42,"velocity":110,"subtype":"noteOn"},{"deltaTime":46,"channel":9,"type":"channel","noteNumber":42,"velocity":0,"subtype":"noteOff"},{"deltaTime":98,"channel":9,"type":"channel","noteNumber":42,"velocity":110,"subtype":"noteOn"},{"deltaTime":94,"channel":9,"type":"channel","noteNumber":42,"velocity":0,"subtype":"noteOff"},{"deltaTime":98,"channel":9,"type":"channel","noteNumber":42,"velocity":110,"subtype":"noteOn"},{"deltaTime":94,"channel":9,"type":"channel","noteNumber":42,"velocity":0,"subtype":"noteOff"},{"deltaTime":98,"channel":9,"type":"channel","noteNumber":42,"velocity":110,"subtype":"noteOn"},{"deltaTime":94,"channel":9,"type":"channel","noteNumber":42,"velocity":0,"subtype":"noteOff"},{"deltaTime":98,"channel":9,"type":"channel","noteNumber":42,"velocity":110,"subtype":"noteOn"},{"deltaTime":94,"channel":9,"type":"channel","noteNumber":42,"velocity":0,"subtype":"noteOff"},{"deltaTime":2,"channel":9,"type":"channel","noteNumber":42,"velocity":110,"subtype":"noteOn"},{"deltaTime":94,"channel":9,"type":"channel","noteNumber":42,"velocity":0,"subtype":"noteOff"},{"deltaTime":2,"channel":9,"type":"channel","noteNumber":42,"velocity":110,"subtype":"noteOn"},{"deltaTime":94,"channel":9,"type":"channel","noteNumber":42,"velocity":0,"subtype":"noteOff"},{"deltaTime":98,"channel":9,"type":"channel","noteNumber":42,"velocity":110,"subtype":"noteOn"},{"deltaTime":94,"channel":9,"type":"channel","noteNumber":42,"velocity":0,"subtype":"noteOff"},{"deltaTime":98,"channel":9,"type":"channel","noteNumber":42,"velocity":110,"subtype":"noteOn"},{"deltaTime":94,"channel":9,"type":"channel","noteNumber":42,"velocity":0,"subtype":"noteOff"},{"deltaTime":98,"channel":9,"type":"channel","noteNumber":42,"velocity":110,"subtype":"noteOn"},{"deltaTime":46,"channel":9,"type":"channel","noteNumber":42,"velocity":0,"subtype":"noteOff"},{"deltaTime":2,"channel":9,"type":"channel","noteNumber":42,"velocity":110,"subtype":"noteOn"},{"deltaTime":46,"channel":9,"type":"channel","noteNumber":42,"velocity":0,"subtype":"noteOff"},{"deltaTime":98,"channel":9,"type":"channel","noteNumber":42,"velocity":110,"subtype":"noteOn"},{"deltaTime":94,"channel":9,"type":"channel","noteNumber":42,"velocity":0,"subtype":"noteOff"},{"deltaTime":98,"channel":9,"type":"channel","noteNumber":42,"velocity":110,"subtype":"noteOn"},{"deltaTime":94,"channel":9,"type":"channel","noteNumber":42,"velocity":0,"subtype":"noteOff"},{"deltaTime":98,"channel":9,"type":"channel","noteNumber":42,"velocity":110,"subtype":"noteOn"},{"deltaTime":94,"channel":9,"type":"channel","noteNumber":42,"velocity":0,"subtype":"noteOff"},{"deltaTime":98,"channel":9,"type":"channel","noteNumber":42,"velocity":110,"subtype":"noteOn"},{"deltaTime":94,"channel":9,"type":"channel","noteNumber":42,"velocity":0,"subtype":"noteOff"},{"deltaTime":2,"channel":9,"type":"channel","noteNumber":42,"velocity":110,"subtype":"noteOn"},{"deltaTime":94,"channel":9,"type":"channel","noteNumber":42,"velocity":0,"subtype":"noteOff"},{"deltaTime":2,"channel":9,"type":"channel","noteNumber":42,"velocity":110,"subtype":"noteOn"},{"deltaTime":94,"channel":9,"type":"channel","noteNumber":42,"velocity":0,"subtype":"noteOff"},{"deltaTime":98,"channel":9,"type":"channel","noteNumber":42,"velocity":110,"subtype":"noteOn"},{"deltaTime":94,"channel":9,"type":"channel","noteNumber":42,"velocity":0,"subtype":"noteOff"},{"deltaTime":98,"channel":9,"type":"channel","noteNumber":42,"velocity":110,"subtype":"noteOn"},{"deltaTime":94,"channel":9,"type":"channel","noteNumber":42,"velocity":0,"subtype":"noteOff"},{"deltaTime":98,"channel":9,"type":"channel","noteNumber":42,"velocity":110,"subtype":"noteOn"},{"deltaTime":46,"channel":9,"type":"channel","noteNumber":42,"velocity":0,"subtype":"noteOff"},{"deltaTime":2,"channel":9,"type":"channel","noteNumber":42,"velocity":110,"subtype":"noteOn"},{"deltaTime":46,"channel":9,"type":"channel","noteNumber":42,"velocity":0,"subtype":"noteOff"},{"deltaTime":98,"channel":9,"type":"channel","noteNumber":42,"velocity":110,"subtype":"noteOn"},{"deltaTime":94,"channel":9,"type":"channel","noteNumber":42,"velocity":0,"subtype":"noteOff"},{"deltaTime":98,"channel":9,"type":"channel","noteNumber":42,"velocity":110,"subtype":"noteOn"},{"deltaTime":94,"channel":9,"type":"channel","noteNumber":42,"velocity":0,"subtype":"noteOff"},{"deltaTime":98,"channel":9,"type":"channel","noteNumber":42,"velocity":110,"subtype":"noteOn"},{"deltaTime":94,"channel":9,"type":"channel","noteNumber":42,"velocity":0,"subtype":"noteOff"},{"deltaTime":98,"channel":9,"type":"channel","noteNumber":42,"velocity":110,"subtype":"noteOn"},{"deltaTime":94,"channel":9,"type":"channel","noteNumber":42,"velocity":0,"subtype":"noteOff"},{"deltaTime":2,"channel":9,"type":"channel","noteNumber":42,"velocity":110,"subtype":"noteOn"},{"deltaTime":94,"channel":9,"type":"channel","noteNumber":42,"velocity":0,"subtype":"noteOff"},{"deltaTime":2,"channel":9,"type":"channel","noteNumber":42,"velocity":110,"subtype":"noteOn"},{"deltaTime":94,"channel":9,"type":"channel","noteNumber":42,"velocity":0,"subtype":"noteOff"},{"deltaTime":98,"channel":9,"type":"channel","noteNumber":42,"velocity":110,"subtype":"noteOn"},{"deltaTime":94,"channel":9,"type":"channel","noteNumber":42,"velocity":0,"subtype":"noteOff"},{"deltaTime":98,"channel":9,"type":"channel","noteNumber":42,"velocity":110,"subtype":"noteOn"},{"deltaTime":94,"channel":9,"type":"channel","noteNumber":42,"velocity":0,"subtype":"noteOff"},{"deltaTime":98,"channel":9,"type":"channel","noteNumber":42,"velocity":110,"subtype":"noteOn"},{"deltaTime":46,"channel":9,"type":"channel","noteNumber":42,"velocity":0,"subtype":"noteOff"},{"deltaTime":2,"channel":9,"type":"channel","noteNumber":42,"velocity":110,"subtype":"noteOn"},{"deltaTime":46,"channel":9,"type":"channel","noteNumber":42,"velocity":0,"subtype":"noteOff"},{"deltaTime":98,"channel":9,"type":"channel","noteNumber":42,"velocity":110,"subtype":"noteOn"},{"deltaTime":94,"channel":9,"type":"channel","noteNumber":42,"velocity":0,"subtype":"noteOff"},{"deltaTime":98,"channel":9,"type":"channel","noteNumber":42,"velocity":110,"subtype":"noteOn"},{"deltaTime":94,"channel":9,"type":"channel","noteNumber":42,"velocity":0,"subtype":"noteOff"},{"deltaTime":98,"channel":9,"type":"channel","noteNumber":42,"velocity":110,"subtype":"noteOn"},{"deltaTime":94,"channel":9,"type":"channel","noteNumber":42,"velocity":0,"subtype":"noteOff"},{"deltaTime":98,"channel":9,"type":"channel","noteNumber":42,"velocity":110,"subtype":"noteOn"},{"deltaTime":94,"channel":9,"type":"channel","noteNumber":42,"velocity":0,"subtype":"noteOff"},{"deltaTime":0,"type":"meta","subtype":"endOfTrack"}],[{"deltaTime":0,"type":"meta","subtype":"unknown","data":"\u0000"},{"deltaTime":0,"type":"meta","subtype":"trackName","text":"Tempo Track-2"},{"deltaTime":0,"channel":12,"type":"channel","subtype":"programChange","programNumber":38},{"deltaTime":0,"channel":12,"type":"channel","subtype":"controller","controllerType":7,"value":127},{"deltaTime":0,"channel":12,"type":"channel","subtype":"controller","controllerType":10,"value":64},{"deltaTime":0,"channel":12,"type":"channel","subtype":"programChange","programNumber":38},{"deltaTime":0,"channel":12,"type":"channel","subtype":"controller","controllerType":7,"value":127},{"deltaTime":0,"channel":12,"type":"channel","subtype":"controller","controllerType":10,"value":64},{"deltaTime":12336,"channel":12,"type":"channel","noteNumber":47,"velocity":110,"subtype":"noteOn"},{"deltaTime":94,"channel":12,"type":"channel","noteNumber":47,"velocity":0,"subtype":"noteOff"},{"deltaTime":2,"channel":12,"type":"channel","noteNumber":59,"velocity":110,"subtype":"noteOn"},{"deltaTime":46,"channel":12,"type":"channel","noteNumber":59,"velocity":0,"subtype":"noteOff"},{"deltaTime":50,"channel":12,"type":"channel","noteNumber":47,"velocity":110,"subtype":"noteOn"},{"deltaTime":94,"channel":12,"type":"channel","noteNumber":47,"velocity":0,"subtype":"noteOff"},{"deltaTime":2,"channel":12,"type":"channel","noteNumber":59,"velocity":110,"subtype":"noteOn"},{"deltaTime":46,"channel":12,"type":"channel","noteNumber":59,"velocity":0,"subtype":"noteOff"},{"deltaTime":50,"channel":12,"type":"channel","noteNumber":47,"velocity":110,"subtype":"noteOn"},{"deltaTime":94,"channel":12,"type":"channel","noteNumber":47,"velocity":0,"subtype":"noteOff"},{"deltaTime":2,"channel":12,"type":"channel","noteNumber":59,"velocity":110,"subtype":"noteOn"},{"deltaTime":46,"channel":12,"type":"channel","noteNumber":59,"velocity":0,"subtype":"noteOff"},{"deltaTime":50,"channel":12,"type":"channel","noteNumber":47,"velocity":110,"subtype":"noteOn"},{"deltaTime":94,"channel":12,"type":"channel","noteNumber":47,"velocity":0,"subtype":"noteOff"},{"deltaTime":2,"channel":12,"type":"channel","noteNumber":59,"velocity":110,"subtype":"noteOn"},{"deltaTime":46,"channel":12,"type":"channel","noteNumber":59,"velocity":0,"subtype":"noteOff"},{"deltaTime":50,"channel":12,"type":"channel","noteNumber":52,"velocity":110,"subtype":"noteOn"},{"deltaTime":94,"channel":12,"type":"channel","noteNumber":52,"velocity":0,"subtype":"noteOff"},{"deltaTime":2,"channel":12,"type":"channel","noteNumber":64,"velocity":110,"subtype":"noteOn"},{"deltaTime":46,"channel":12,"type":"channel","noteNumber":64,"velocity":0,"subtype":"noteOff"},{"deltaTime":50,"channel":12,"type":"channel","noteNumber":52,"velocity":110,"subtype":"noteOn"},{"deltaTime":94,"channel":12,"type":"channel","noteNumber":52,"velocity":0,"subtype":"noteOff"},{"deltaTime":2,"channel":12,"type":"channel","noteNumber":64,"velocity":110,"subtype":"noteOn"},{"deltaTime":46,"channel":12,"type":"channel","noteNumber":64,"velocity":0,"subtype":"noteOff"},{"deltaTime":50,"channel":12,"type":"channel","noteNumber":52,"velocity":110,"subtype":"noteOn"},{"deltaTime":94,"channel":12,"type":"channel","noteNumber":52,"velocity":0,"subtype":"noteOff"},{"deltaTime":2,"channel":12,"type":"channel","noteNumber":64,"velocity":110,"subtype":"noteOn"},{"deltaTime":46,"channel":12,"type":"channel","noteNumber":64,"velocity":0,"subtype":"noteOff"},{"deltaTime":50,"channel":12,"type":"channel","noteNumber":52,"velocity":110,"subtype":"noteOn"},{"deltaTime":94,"channel":12,"type":"channel","noteNumber":52,"velocity":0,"subtype":"noteOff"},{"deltaTime":2,"channel":12,"type":"channel","noteNumber":64,"velocity":110,"subtype":"noteOn"},{"deltaTime":46,"channel":12,"type":"channel","noteNumber":64,"velocity":0,"subtype":"noteOff"},{"deltaTime":50,"channel":12,"type":"channel","noteNumber":51,"velocity":110,"subtype":"noteOn"},{"deltaTime":94,"channel":12,"type":"channel","noteNumber":51,"velocity":0,"subtype":"noteOff"},{"deltaTime":2,"channel":12,"type":"channel","noteNumber":63,"velocity":110,"subtype":"noteOn"},{"deltaTime":46,"channel":12,"type":"channel","noteNumber":63,"velocity":0,"subtype":"noteOff"},{"deltaTime":50,"channel":12,"type":"channel","noteNumber":51,"velocity":110,"subtype":"noteOn"},{"deltaTime":94,"channel":12,"type":"channel","noteNumber":51,"velocity":0,"subtype":"noteOff"},{"deltaTime":2,"channel":12,"type":"channel","noteNumber":63,"velocity":110,"subtype":"noteOn"},{"deltaTime":46,"channel":12,"type":"channel","noteNumber":63,"velocity":0,"subtype":"noteOff"},{"deltaTime":50,"channel":12,"type":"channel","noteNumber":47,"velocity":110,"subtype":"noteOn"},{"deltaTime":94,"channel":12,"type":"channel","noteNumber":47,"velocity":0,"subtype":"noteOff"},{"deltaTime":2,"channel":12,"type":"channel","noteNumber":59,"velocity":110,"subtype":"noteOn"},{"deltaTime":46,"channel":12,"type":"channel","noteNumber":59,"velocity":0,"subtype":"noteOff"},{"deltaTime":50,"channel":12,"type":"channel","noteNumber":47,"velocity":110,"subtype":"noteOn"},{"deltaTime":94,"channel":12,"type":"channel","noteNumber":47,"velocity":0,"subtype":"noteOff"},{"deltaTime":2,"channel":12,"type":"channel","noteNumber":59,"velocity":110,"subtype":"noteOn"},{"deltaTime":46,"channel":12,"type":"channel","noteNumber":59,"velocity":0,"subtype":"noteOff"},{"deltaTime":50,"channel":12,"type":"channel","noteNumber":40,"velocity":110,"subtype":"noteOn"},{"deltaTime":94,"channel":12,"type":"channel","noteNumber":40,"velocity":0,"subtype":"noteOff"},{"deltaTime":2,"channel":12,"type":"channel","noteNumber":52,"velocity":110,"subtype":"noteOn"},{"deltaTime":46,"channel":12,"type":"channel","noteNumber":52,"velocity":0,"subtype":"noteOff"},{"deltaTime":50,"channel":12,"type":"channel","noteNumber":40,"velocity":110,"subtype":"noteOn"},{"deltaTime":94,"channel":12,"type":"channel","noteNumber":40,"velocity":0,"subtype":"noteOff"},{"deltaTime":2,"channel":12,"type":"channel","noteNumber":52,"velocity":110,"subtype":"noteOn"},{"deltaTime":46,"channel":12,"type":"channel","noteNumber":52,"velocity":0,"subtype":"noteOff"},{"deltaTime":50,"channel":12,"type":"channel","noteNumber":40,"velocity":110,"subtype":"noteOn"},{"deltaTime":94,"channel":12,"type":"channel","noteNumber":40,"velocity":0,"subtype":"noteOff"},{"deltaTime":2,"channel":12,"type":"channel","noteNumber":52,"velocity":110,"subtype":"noteOn"},{"deltaTime":46,"channel":12,"type":"channel","noteNumber":52,"velocity":0,"subtype":"noteOff"},{"deltaTime":50,"channel":12,"type":"channel","noteNumber":40,"velocity":110,"subtype":"noteOn"},{"deltaTime":94,"channel":12,"type":"channel","noteNumber":40,"velocity":0,"subtype":"noteOff"},{"deltaTime":2,"channel":12,"type":"channel","noteNumber":52,"velocity":110,"subtype":"noteOn"},{"deltaTime":46,"channel":12,"type":"channel","noteNumber":52,"velocity":0,"subtype":"noteOff"},{"deltaTime":50,"channel":12,"type":"channel","noteNumber":45,"velocity":110,"subtype":"noteOn"},{"deltaTime":94,"channel":12,"type":"channel","noteNumber":45,"velocity":0,"subtype":"noteOff"},{"deltaTime":2,"channel":12,"type":"channel","noteNumber":57,"velocity":110,"subtype":"noteOn"},{"deltaTime":46,"channel":12,"type":"channel","noteNumber":57,"velocity":0,"subtype":"noteOff"},{"deltaTime":50,"channel":12,"type":"channel","noteNumber":45,"velocity":110,"subtype":"noteOn"},{"deltaTime":94,"channel":12,"type":"channel","noteNumber":45,"velocity":0,"subtype":"noteOff"},{"deltaTime":2,"channel":12,"type":"channel","noteNumber":57,"velocity":110,"subtype":"noteOn"},{"deltaTime":46,"channel":12,"type":"channel","noteNumber":57,"velocity":0,"subtype":"noteOff"},{"deltaTime":50,"channel":12,"type":"channel","noteNumber":45,"velocity":110,"subtype":"noteOn"},{"deltaTime":94,"channel":12,"type":"channel","noteNumber":45,"velocity":0,"subtype":"noteOff"},{"deltaTime":2,"channel":12,"type":"channel","noteNumber":57,"velocity":110,"subtype":"noteOn"},{"deltaTime":46,"channel":12,"type":"channel","noteNumber":57,"velocity":0,"subtype":"noteOff"},{"deltaTime":50,"channel":12,"type":"channel","noteNumber":45,"velocity":110,"subtype":"noteOn"},{"deltaTime":94,"channel":12,"type":"channel","noteNumber":45,"velocity":0,"subtype":"noteOff"},{"deltaTime":2,"channel":12,"type":"channel","noteNumber":57,"velocity":110,"subtype":"noteOn"},{"deltaTime":46,"channel":12,"type":"channel","noteNumber":57,"velocity":0,"subtype":"noteOff"},{"deltaTime":50,"channel":12,"type":"channel","noteNumber":47,"velocity":110,"subtype":"noteOn"},{"deltaTime":94,"channel":12,"type":"channel","noteNumber":47,"velocity":0,"subtype":"noteOff"},{"deltaTime":2,"channel":12,"type":"channel","noteNumber":59,"velocity":110,"subtype":"noteOn"},{"deltaTime":46,"channel":12,"type":"channel","noteNumber":59,"velocity":0,"subtype":"noteOff"},{"deltaTime":50,"channel":12,"type":"channel","noteNumber":47,"velocity":110,"subtype":"noteOn"},{"deltaTime":94,"channel":12,"type":"channel","noteNumber":47,"velocity":0,"subtype":"noteOff"},{"deltaTime":2,"channel":12,"type":"channel","noteNumber":59,"velocity":110,"subtype":"noteOn"},{"deltaTime":46,"channel":12,"type":"channel","noteNumber":59,"velocity":0,"subtype":"noteOff"},{"deltaTime":50,"channel":12,"type":"channel","noteNumber":47,"velocity":110,"subtype":"noteOn"},{"deltaTime":94,"channel":12,"type":"channel","noteNumber":47,"velocity":0,"subtype":"noteOff"},{"deltaTime":2,"channel":12,"type":"channel","noteNumber":59,"velocity":110,"subtype":"noteOn"},{"deltaTime":46,"channel":12,"type":"channel","noteNumber":59,"velocity":0,"subtype":"noteOff"},{"deltaTime":50,"channel":12,"type":"channel","noteNumber":47,"velocity":110,"subtype":"noteOn"},{"deltaTime":94,"channel":12,"type":"channel","noteNumber":47,"velocity":0,"subtype":"noteOff"},{"deltaTime":2,"channel":12,"type":"channel","noteNumber":59,"velocity":110,"subtype":"noteOn"},{"deltaTime":46,"channel":12,"type":"channel","noteNumber":59,"velocity":0,"subtype":"noteOff"},{"deltaTime":50,"channel":12,"type":"channel","noteNumber":51,"velocity":110,"subtype":"noteOn"},{"deltaTime":94,"channel":12,"type":"channel","noteNumber":51,"velocity":0,"subtype":"noteOff"},{"deltaTime":2,"channel":12,"type":"channel","noteNumber":63,"velocity":110,"subtype":"noteOn"},{"deltaTime":46,"channel":12,"type":"channel","noteNumber":63,"velocity":0,"subtype":"noteOff"},{"deltaTime":50,"channel":12,"type":"channel","noteNumber":51,"velocity":110,"subtype":"noteOn"},{"deltaTime":94,"channel":12,"type":"channel","noteNumber":51,"velocity":0,"subtype":"noteOff"},{"deltaTime":2,"channel":12,"type":"channel","noteNumber":63,"velocity":110,"subtype":"noteOn"},{"deltaTime":46,"channel":12,"type":"channel","noteNumber":63,"velocity":0,"subtype":"noteOff"},{"deltaTime":50,"channel":12,"type":"channel","noteNumber":47,"velocity":110,"subtype":"noteOn"},{"deltaTime":94,"channel":12,"type":"channel","noteNumber":47,"velocity":0,"subtype":"noteOff"},{"deltaTime":2,"channel":12,"type":"channel","noteNumber":59,"velocity":110,"subtype":"noteOn"},{"deltaTime":46,"channel":12,"type":"channel","noteNumber":59,"velocity":0,"subtype":"noteOff"},{"deltaTime":50,"channel":12,"type":"channel","noteNumber":47,"velocity":110,"subtype":"noteOn"},{"deltaTime":94,"channel":12,"type":"channel","noteNumber":47,"velocity":0,"subtype":"noteOff"},{"deltaTime":2,"channel":12,"type":"channel","noteNumber":59,"velocity":110,"subtype":"noteOn"},{"deltaTime":46,"channel":12,"type":"channel","noteNumber":59,"velocity":0,"subtype":"noteOff"},{"deltaTime":50,"channel":12,"type":"channel","noteNumber":40,"velocity":110,"subtype":"noteOn"},{"deltaTime":94,"channel":12,"type":"channel","noteNumber":40,"velocity":0,"subtype":"noteOff"},{"deltaTime":2,"channel":12,"type":"channel","noteNumber":52,"velocity":110,"subtype":"noteOn"},{"deltaTime":46,"channel":12,"type":"channel","noteNumber":52,"velocity":0,"subtype":"noteOff"},{"deltaTime":50,"channel":12,"type":"channel","noteNumber":40,"velocity":110,"subtype":"noteOn"},{"deltaTime":94,"channel":12,"type":"channel","noteNumber":40,"velocity":0,"subtype":"noteOff"},{"deltaTime":2,"channel":12,"type":"channel","noteNumber":52,"velocity":110,"subtype":"noteOn"},{"deltaTime":46,"channel":12,"type":"channel","noteNumber":52,"velocity":0,"subtype":"noteOff"},{"deltaTime":50,"channel":12,"type":"channel","noteNumber":40,"velocity":110,"subtype":"noteOn"},{"deltaTime":94,"channel":12,"type":"channel","noteNumber":40,"velocity":0,"subtype":"noteOff"},{"deltaTime":2,"channel":12,"type":"channel","noteNumber":52,"velocity":110,"subtype":"noteOn"},{"deltaTime":46,"channel":12,"type":"channel","noteNumber":52,"velocity":0,"subtype":"noteOff"},{"deltaTime":50,"channel":12,"type":"channel","noteNumber":64,"velocity":110,"subtype":"noteOn"},{"deltaTime":94,"channel":12,"type":"channel","noteNumber":64,"velocity":0,"subtype":"noteOff"},{"deltaTime":2,"channel":12,"type":"channel","noteNumber":52,"velocity":110,"subtype":"noteOn"},{"deltaTime":46,"channel":12,"type":"channel","noteNumber":52,"velocity":0,"subtype":"noteOff"},{"deltaTime":50,"channel":12,"type":"channel","noteNumber":47,"velocity":110,"subtype":"noteOn"},{"deltaTime":94,"channel":12,"type":"channel","noteNumber":47,"velocity":0,"subtype":"noteOff"},{"deltaTime":2,"channel":12,"type":"channel","noteNumber":59,"velocity":110,"subtype":"noteOn"},{"deltaTime":46,"channel":12,"type":"channel","noteNumber":59,"velocity":0,"subtype":"noteOff"},{"deltaTime":50,"channel":12,"type":"channel","noteNumber":47,"velocity":110,"subtype":"noteOn"},{"deltaTime":94,"channel":12,"type":"channel","noteNumber":47,"velocity":0,"subtype":"noteOff"},{"deltaTime":2,"channel":12,"type":"channel","noteNumber":59,"velocity":110,"subtype":"noteOn"},{"deltaTime":46,"channel":12,"type":"channel","noteNumber":59,"velocity":0,"subtype":"noteOff"},{"deltaTime":50,"channel":12,"type":"channel","noteNumber":47,"velocity":110,"subtype":"noteOn"},{"deltaTime":94,"channel":12,"type":"channel","noteNumber":47,"velocity":0,"subtype":"noteOff"},{"deltaTime":2,"channel":12,"type":"channel","noteNumber":59,"velocity":110,"subtype":"noteOn"},{"deltaTime":46,"channel":12,"type":"channel","noteNumber":59,"velocity":0,"subtype":"noteOff"},{"deltaTime":50,"channel":12,"type":"channel","noteNumber":47,"velocity":110,"subtype":"noteOn"},{"deltaTime":94,"channel":12,"type":"channel","noteNumber":47,"velocity":0,"subtype":"noteOff"},{"deltaTime":2,"channel":12,"type":"channel","noteNumber":59,"velocity":110,"subtype":"noteOn"},{"deltaTime":46,"channel":12,"type":"channel","noteNumber":59,"velocity":0,"subtype":"noteOff"},{"deltaTime":50,"channel":12,"type":"channel","noteNumber":52,"velocity":110,"subtype":"noteOn"},{"deltaTime":94,"channel":12,"type":"channel","noteNumber":52,"velocity":0,"subtype":"noteOff"},{"deltaTime":2,"channel":12,"type":"channel","noteNumber":64,"velocity":110,"subtype":"noteOn"},{"deltaTime":46,"channel":12,"type":"channel","noteNumber":64,"velocity":0,"subtype":"noteOff"},{"deltaTime":50,"channel":12,"type":"channel","noteNumber":52,"velocity":110,"subtype":"noteOn"},{"deltaTime":94,"channel":12,"type":"channel","noteNumber":52,"velocity":0,"subtype":"noteOff"},{"deltaTime":2,"channel":12,"type":"channel","noteNumber":64,"velocity":110,"subtype":"noteOn"},{"deltaTime":46,"channel":12,"type":"channel","noteNumber":64,"velocity":0,"subtype":"noteOff"},{"deltaTime":50,"channel":12,"type":"channel","noteNumber":52,"velocity":110,"subtype":"noteOn"},{"deltaTime":94,"channel":12,"type":"channel","noteNumber":52,"velocity":0,"subtype":"noteOff"},{"deltaTime":2,"channel":12,"type":"channel","noteNumber":64,"velocity":110,"subtype":"noteOn"},{"deltaTime":46,"channel":12,"type":"channel","noteNumber":64,"velocity":0,"subtype":"noteOff"},{"deltaTime":50,"channel":12,"type":"channel","noteNumber":52,"velocity":110,"subtype":"noteOn"},{"deltaTime":94,"channel":12,"type":"channel","noteNumber":52,"velocity":0,"subtype":"noteOff"},{"deltaTime":2,"channel":12,"type":"channel","noteNumber":64,"velocity":110,"subtype":"noteOn"},{"deltaTime":46,"channel":12,"type":"channel","noteNumber":64,"velocity":0,"subtype":"noteOff"},{"deltaTime":50,"channel":12,"type":"channel","noteNumber":51,"velocity":110,"subtype":"noteOn"},{"deltaTime":94,"channel":12,"type":"channel","noteNumber":51,"velocity":0,"subtype":"noteOff"},{"deltaTime":2,"channel":12,"type":"channel","noteNumber":63,"velocity":110,"subtype":"noteOn"},{"deltaTime":46,"channel":12,"type":"channel","noteNumber":63,"velocity":0,"subtype":"noteOff"},{"deltaTime":50,"channel":12,"type":"channel","noteNumber":51,"velocity":110,"subtype":"noteOn"},{"deltaTime":94,"channel":12,"type":"channel","noteNumber":51,"velocity":0,"subtype":"noteOff"},{"deltaTime":2,"channel":12,"type":"channel","noteNumber":63,"velocity":110,"subtype":"noteOn"},{"deltaTime":46,"channel":12,"type":"channel","noteNumber":63,"velocity":0,"subtype":"noteOff"},{"deltaTime":50,"channel":12,"type":"channel","noteNumber":47,"velocity":110,"subtype":"noteOn"},{"deltaTime":94,"channel":12,"type":"channel","noteNumber":47,"velocity":0,"subtype":"noteOff"},{"deltaTime":2,"channel":12,"type":"channel","noteNumber":59,"velocity":110,"subtype":"noteOn"},{"deltaTime":46,"channel":12,"type":"channel","noteNumber":59,"velocity":0,"subtype":"noteOff"},{"deltaTime":50,"channel":12,"type":"channel","noteNumber":47,"velocity":110,"subtype":"noteOn"},{"deltaTime":94,"channel":12,"type":"channel","noteNumber":47,"velocity":0,"subtype":"noteOff"},{"deltaTime":2,"channel":12,"type":"channel","noteNumber":59,"velocity":110,"subtype":"noteOn"},{"deltaTime":46,"channel":12,"type":"channel","noteNumber":59,"velocity":0,"subtype":"noteOff"},{"deltaTime":50,"channel":12,"type":"channel","noteNumber":40,"velocity":110,"subtype":"noteOn"},{"deltaTime":94,"channel":12,"type":"channel","noteNumber":40,"velocity":0,"subtype":"noteOff"},{"deltaTime":2,"channel":12,"type":"channel","noteNumber":52,"velocity":110,"subtype":"noteOn"},{"deltaTime":46,"channel":12,"type":"channel","noteNumber":52,"velocity":0,"subtype":"noteOff"},{"deltaTime":50,"channel":12,"type":"channel","noteNumber":40,"velocity":110,"subtype":"noteOn"},{"deltaTime":94,"channel":12,"type":"channel","noteNumber":40,"velocity":0,"subtype":"noteOff"},{"deltaTime":2,"channel":12,"type":"channel","noteNumber":52,"velocity":110,"subtype":"noteOn"},{"deltaTime":46,"channel":12,"type":"channel","noteNumber":52,"velocity":0,"subtype":"noteOff"},{"deltaTime":50,"channel":12,"type":"channel","noteNumber":40,"velocity":110,"subtype":"noteOn"},{"deltaTime":94,"channel":12,"type":"channel","noteNumber":40,"velocity":0,"subtype":"noteOff"},{"deltaTime":2,"channel":12,"type":"channel","noteNumber":52,"velocity":110,"subtype":"noteOn"},{"deltaTime":46,"channel":12,"type":"channel","noteNumber":52,"velocity":0,"subtype":"noteOff"},{"deltaTime":50,"channel":12,"type":"channel","noteNumber":40,"velocity":110,"subtype":"noteOn"},{"deltaTime":94,"channel":12,"type":"channel","noteNumber":40,"velocity":0,"subtype":"noteOff"},{"deltaTime":2,"channel":12,"type":"channel","noteNumber":52,"velocity":110,"subtype":"noteOn"},{"deltaTime":46,"channel":12,"type":"channel","noteNumber":52,"velocity":0,"subtype":"noteOff"},{"deltaTime":50,"channel":12,"type":"channel","noteNumber":45,"velocity":110,"subtype":"noteOn"},{"deltaTime":94,"channel":12,"type":"channel","noteNumber":45,"velocity":0,"subtype":"noteOff"},{"deltaTime":2,"channel":12,"type":"channel","noteNumber":57,"velocity":110,"subtype":"noteOn"},{"deltaTime":46,"channel":12,"type":"channel","noteNumber":57,"velocity":0,"subtype":"noteOff"},{"deltaTime":50,"channel":12,"type":"channel","noteNumber":45,"velocity":110,"subtype":"noteOn"},{"deltaTime":94,"channel":12,"type":"channel","noteNumber":45,"velocity":0,"subtype":"noteOff"},{"deltaTime":2,"channel":12,"type":"channel","noteNumber":57,"velocity":110,"subtype":"noteOn"},{"deltaTime":46,"channel":12,"type":"channel","noteNumber":57,"velocity":0,"subtype":"noteOff"},{"deltaTime":50,"channel":12,"type":"channel","noteNumber":45,"velocity":110,"subtype":"noteOn"},{"deltaTime":94,"channel":12,"type":"channel","noteNumber":45,"velocity":0,"subtype":"noteOff"},{"deltaTime":2,"channel":12,"type":"channel","noteNumber":57,"velocity":110,"subtype":"noteOn"},{"deltaTime":46,"channel":12,"type":"channel","noteNumber":57,"velocity":0,"subtype":"noteOff"},{"deltaTime":50,"channel":12,"type":"channel","noteNumber":45,"velocity":110,"subtype":"noteOn"},{"deltaTime":94,"channel":12,"type":"channel","noteNumber":45,"velocity":0,"subtype":"noteOff"},{"deltaTime":2,"channel":12,"type":"channel","noteNumber":57,"velocity":110,"subtype":"noteOn"},{"deltaTime":46,"channel":12,"type":"channel","noteNumber":57,"velocity":0,"subtype":"noteOff"},{"deltaTime":50,"channel":12,"type":"channel","noteNumber":47,"velocity":110,"subtype":"noteOn"},{"deltaTime":94,"channel":12,"type":"channel","noteNumber":47,"velocity":0,"subtype":"noteOff"},{"deltaTime":2,"channel":12,"type":"channel","noteNumber":59,"velocity":110,"subtype":"noteOn"},{"deltaTime":46,"channel":12,"type":"channel","noteNumber":59,"velocity":0,"subtype":"noteOff"},{"deltaTime":50,"channel":12,"type":"channel","noteNumber":47,"velocity":110,"subtype":"noteOn"},{"deltaTime":94,"channel":12,"type":"channel","noteNumber":47,"velocity":0,"subtype":"noteOff"},{"deltaTime":2,"channel":12,"type":"channel","noteNumber":59,"velocity":110,"subtype":"noteOn"},{"deltaTime":46,"channel":12,"type":"channel","noteNumber":59,"velocity":0,"subtype":"noteOff"},{"deltaTime":50,"channel":12,"type":"channel","noteNumber":47,"velocity":110,"subtype":"noteOn"},{"deltaTime":94,"channel":12,"type":"channel","noteNumber":47,"velocity":0,"subtype":"noteOff"},{"deltaTime":2,"channel":12,"type":"channel","noteNumber":59,"velocity":110,"subtype":"noteOn"},{"deltaTime":46,"channel":12,"type":"channel","noteNumber":59,"velocity":0,"subtype":"noteOff"},{"deltaTime":50,"channel":12,"type":"channel","noteNumber":47,"velocity":110,"subtype":"noteOn"},{"deltaTime":94,"channel":12,"type":"channel","noteNumber":47,"velocity":0,"subtype":"noteOff"},{"deltaTime":2,"channel":12,"type":"channel","noteNumber":59,"velocity":110,"subtype":"noteOn"},{"deltaTime":46,"channel":12,"type":"channel","noteNumber":59,"velocity":0,"subtype":"noteOff"},{"deltaTime":50,"channel":12,"type":"channel","noteNumber":51,"velocity":110,"subtype":"noteOn"},{"deltaTime":94,"channel":12,"type":"channel","noteNumber":51,"velocity":0,"subtype":"noteOff"},{"deltaTime":2,"channel":12,"type":"channel","noteNumber":63,"velocity":110,"subtype":"noteOn"},{"deltaTime":46,"channel":12,"type":"channel","noteNumber":63,"velocity":0,"subtype":"noteOff"},{"deltaTime":50,"channel":12,"type":"channel","noteNumber":51,"velocity":110,"subtype":"noteOn"},{"deltaTime":94,"channel":12,"type":"channel","noteNumber":51,"velocity":0,"subtype":"noteOff"},{"deltaTime":2,"channel":12,"type":"channel","noteNumber":63,"velocity":110,"subtype":"noteOn"},{"deltaTime":46,"channel":12,"type":"channel","noteNumber":63,"velocity":0,"subtype":"noteOff"},{"deltaTime":50,"channel":12,"type":"channel","noteNumber":47,"velocity":110,"subtype":"noteOn"},{"deltaTime":94,"channel":12,"type":"channel","noteNumber":47,"velocity":0,"subtype":"noteOff"},{"deltaTime":2,"channel":12,"type":"channel","noteNumber":59,"velocity":110,"subtype":"noteOn"},{"deltaTime":46,"channel":12,"type":"channel","noteNumber":59,"velocity":0,"subtype":"noteOff"},{"deltaTime":50,"channel":12,"type":"channel","noteNumber":47,"velocity":110,"subtype":"noteOn"},{"deltaTime":94,"channel":12,"type":"channel","noteNumber":47,"velocity":0,"subtype":"noteOff"},{"deltaTime":2,"channel":12,"type":"channel","noteNumber":59,"velocity":110,"subtype":"noteOn"},{"deltaTime":46,"channel":12,"type":"channel","noteNumber":59,"velocity":0,"subtype":"noteOff"},{"deltaTime":50,"channel":12,"type":"channel","noteNumber":40,"velocity":110,"subtype":"noteOn"},{"deltaTime":94,"channel":12,"type":"channel","noteNumber":40,"velocity":0,"subtype":"noteOff"},{"deltaTime":2,"channel":12,"type":"channel","noteNumber":52,"velocity":110,"subtype":"noteOn"},{"deltaTime":46,"channel":12,"type":"channel","noteNumber":52,"velocity":0,"subtype":"noteOff"},{"deltaTime":50,"channel":12,"type":"channel","noteNumber":40,"velocity":110,"subtype":"noteOn"},{"deltaTime":94,"channel":12,"type":"channel","noteNumber":40,"velocity":0,"subtype":"noteOff"},{"deltaTime":2,"channel":12,"type":"channel","noteNumber":52,"velocity":110,"subtype":"noteOn"},{"deltaTime":46,"channel":12,"type":"channel","noteNumber":52,"velocity":0,"subtype":"noteOff"},{"deltaTime":50,"channel":12,"type":"channel","noteNumber":40,"velocity":110,"subtype":"noteOn"},{"deltaTime":94,"channel":12,"type":"channel","noteNumber":40,"velocity":0,"subtype":"noteOff"},{"deltaTime":2,"channel":12,"type":"channel","noteNumber":52,"velocity":110,"subtype":"noteOn"},{"deltaTime":46,"channel":12,"type":"channel","noteNumber":52,"velocity":0,"subtype":"noteOff"},{"deltaTime":50,"channel":12,"type":"channel","noteNumber":64,"velocity":110,"subtype":"noteOn"},{"deltaTime":94,"channel":12,"type":"channel","noteNumber":64,"velocity":0,"subtype":"noteOff"},{"deltaTime":2,"channel":12,"type":"channel","noteNumber":52,"velocity":110,"subtype":"noteOn"},{"deltaTime":46,"channel":12,"type":"channel","noteNumber":52,"velocity":0,"subtype":"noteOff"},{"deltaTime":50,"channel":12,"type":"channel","noteNumber":47,"velocity":110,"subtype":"noteOn"},{"deltaTime":94,"channel":12,"type":"channel","noteNumber":47,"velocity":0,"subtype":"noteOff"},{"deltaTime":2,"channel":12,"type":"channel","noteNumber":59,"velocity":110,"subtype":"noteOn"},{"deltaTime":46,"channel":12,"type":"channel","noteNumber":59,"velocity":0,"subtype":"noteOff"},{"deltaTime":50,"channel":12,"type":"channel","noteNumber":47,"velocity":110,"subtype":"noteOn"},{"deltaTime":94,"channel":12,"type":"channel","noteNumber":47,"velocity":0,"subtype":"noteOff"},{"deltaTime":2,"channel":12,"type":"channel","noteNumber":59,"velocity":110,"subtype":"noteOn"},{"deltaTime":46,"channel":12,"type":"channel","noteNumber":59,"velocity":0,"subtype":"noteOff"},{"deltaTime":50,"channel":12,"type":"channel","noteNumber":47,"velocity":110,"subtype":"noteOn"},{"deltaTime":94,"channel":12,"type":"channel","noteNumber":47,"velocity":0,"subtype":"noteOff"},{"deltaTime":2,"channel":12,"type":"channel","noteNumber":59,"velocity":110,"subtype":"noteOn"},{"deltaTime":46,"channel":12,"type":"channel","noteNumber":59,"velocity":0,"subtype":"noteOff"},{"deltaTime":50,"channel":12,"type":"channel","noteNumber":47,"velocity":110,"subtype":"noteOn"},{"deltaTime":94,"channel":12,"type":"channel","noteNumber":47,"velocity":0,"subtype":"noteOff"},{"deltaTime":2,"channel":12,"type":"channel","noteNumber":59,"velocity":110,"subtype":"noteOn"},{"deltaTime":46,"channel":12,"type":"channel","noteNumber":59,"velocity":0,"subtype":"noteOff"},{"deltaTime":50,"channel":12,"type":"channel","noteNumber":52,"velocity":110,"subtype":"noteOn"},{"deltaTime":94,"channel":12,"type":"channel","noteNumber":52,"velocity":0,"subtype":"noteOff"},{"deltaTime":2,"channel":12,"type":"channel","noteNumber":64,"velocity":110,"subtype":"noteOn"},{"deltaTime":46,"channel":12,"type":"channel","noteNumber":64,"velocity":0,"subtype":"noteOff"},{"deltaTime":50,"channel":12,"type":"channel","noteNumber":52,"velocity":110,"subtype":"noteOn"},{"deltaTime":94,"channel":12,"type":"channel","noteNumber":52,"velocity":0,"subtype":"noteOff"},{"deltaTime":2,"channel":12,"type":"channel","noteNumber":64,"velocity":110,"subtype":"noteOn"},{"deltaTime":46,"channel":12,"type":"channel","noteNumber":64,"velocity":0,"subtype":"noteOff"},{"deltaTime":50,"channel":12,"type":"channel","noteNumber":52,"velocity":110,"subtype":"noteOn"},{"deltaTime":94,"channel":12,"type":"channel","noteNumber":52,"velocity":0,"subtype":"noteOff"},{"deltaTime":2,"channel":12,"type":"channel","noteNumber":64,"velocity":110,"subtype":"noteOn"},{"deltaTime":46,"channel":12,"type":"channel","noteNumber":64,"velocity":0,"subtype":"noteOff"},{"deltaTime":50,"channel":12,"type":"channel","noteNumber":52,"velocity":110,"subtype":"noteOn"},{"deltaTime":94,"channel":12,"type":"channel","noteNumber":52,"velocity":0,"subtype":"noteOff"},{"deltaTime":2,"channel":12,"type":"channel","noteNumber":64,"velocity":110,"subtype":"noteOn"},{"deltaTime":46,"channel":12,"type":"channel","noteNumber":64,"velocity":0,"subtype":"noteOff"},{"deltaTime":50,"channel":12,"type":"channel","noteNumber":51,"velocity":110,"subtype":"noteOn"},{"deltaTime":94,"channel":12,"type":"channel","noteNumber":51,"velocity":0,"subtype":"noteOff"},{"deltaTime":2,"channel":12,"type":"channel","noteNumber":63,"velocity":110,"subtype":"noteOn"},{"deltaTime":46,"channel":12,"type":"channel","noteNumber":63,"velocity":0,"subtype":"noteOff"},{"deltaTime":50,"channel":12,"type":"channel","noteNumber":51,"velocity":110,"subtype":"noteOn"},{"deltaTime":94,"channel":12,"type":"channel","noteNumber":51,"velocity":0,"subtype":"noteOff"},{"deltaTime":2,"channel":12,"type":"channel","noteNumber":63,"velocity":110,"subtype":"noteOn"},{"deltaTime":46,"channel":12,"type":"channel","noteNumber":63,"velocity":0,"subtype":"noteOff"},{"deltaTime":50,"channel":12,"type":"channel","noteNumber":47,"velocity":110,"subtype":"noteOn"},{"deltaTime":94,"channel":12,"type":"channel","noteNumber":47,"velocity":0,"subtype":"noteOff"},{"deltaTime":2,"channel":12,"type":"channel","noteNumber":59,"velocity":110,"subtype":"noteOn"},{"deltaTime":46,"channel":12,"type":"channel","noteNumber":59,"velocity":0,"subtype":"noteOff"},{"deltaTime":50,"channel":12,"type":"channel","noteNumber":47,"velocity":110,"subtype":"noteOn"},{"deltaTime":94,"channel":12,"type":"channel","noteNumber":47,"velocity":0,"subtype":"noteOff"},{"deltaTime":2,"channel":12,"type":"channel","noteNumber":59,"velocity":110,"subtype":"noteOn"},{"deltaTime":46,"channel":12,"type":"channel","noteNumber":59,"velocity":0,"subtype":"noteOff"},{"deltaTime":50,"channel":12,"type":"channel","noteNumber":40,"velocity":110,"subtype":"noteOn"},{"deltaTime":94,"channel":12,"type":"channel","noteNumber":40,"velocity":0,"subtype":"noteOff"},{"deltaTime":2,"channel":12,"type":"channel","noteNumber":52,"velocity":110,"subtype":"noteOn"},{"deltaTime":46,"channel":12,"type":"channel","noteNumber":52,"velocity":0,"subtype":"noteOff"},{"deltaTime":50,"channel":12,"type":"channel","noteNumber":40,"velocity":110,"subtype":"noteOn"},{"deltaTime":94,"channel":12,"type":"channel","noteNumber":40,"velocity":0,"subtype":"noteOff"},{"deltaTime":2,"channel":12,"type":"channel","noteNumber":52,"velocity":110,"subtype":"noteOn"},{"deltaTime":46,"channel":12,"type":"channel","noteNumber":52,"velocity":0,"subtype":"noteOff"},{"deltaTime":50,"channel":12,"type":"channel","noteNumber":40,"velocity":110,"subtype":"noteOn"},{"deltaTime":94,"channel":12,"type":"channel","noteNumber":40,"velocity":0,"subtype":"noteOff"},{"deltaTime":2,"channel":12,"type":"channel","noteNumber":52,"velocity":110,"subtype":"noteOn"},{"deltaTime":46,"channel":12,"type":"channel","noteNumber":52,"velocity":0,"subtype":"noteOff"},{"deltaTime":50,"channel":12,"type":"channel","noteNumber":40,"velocity":110,"subtype":"noteOn"},{"deltaTime":94,"channel":12,"type":"channel","noteNumber":40,"velocity":0,"subtype":"noteOff"},{"deltaTime":2,"channel":12,"type":"channel","noteNumber":52,"velocity":110,"subtype":"noteOn"},{"deltaTime":46,"channel":12,"type":"channel","noteNumber":52,"velocity":0,"subtype":"noteOff"},{"deltaTime":50,"channel":12,"type":"channel","noteNumber":45,"velocity":110,"subtype":"noteOn"},{"deltaTime":94,"channel":12,"type":"channel","noteNumber":45,"velocity":0,"subtype":"noteOff"},{"deltaTime":2,"channel":12,"type":"channel","noteNumber":57,"velocity":110,"subtype":"noteOn"},{"deltaTime":46,"channel":12,"type":"channel","noteNumber":57,"velocity":0,"subtype":"noteOff"},{"deltaTime":50,"channel":12,"type":"channel","noteNumber":45,"velocity":110,"subtype":"noteOn"},{"deltaTime":94,"channel":12,"type":"channel","noteNumber":45,"velocity":0,"subtype":"noteOff"},{"deltaTime":2,"channel":12,"type":"channel","noteNumber":57,"velocity":110,"subtype":"noteOn"},{"deltaTime":46,"channel":12,"type":"channel","noteNumber":57,"velocity":0,"subtype":"noteOff"},{"deltaTime":50,"channel":12,"type":"channel","noteNumber":45,"velocity":110,"subtype":"noteOn"},{"deltaTime":94,"channel":12,"type":"channel","noteNumber":45,"velocity":0,"subtype":"noteOff"},{"deltaTime":2,"channel":12,"type":"channel","noteNumber":57,"velocity":110,"subtype":"noteOn"},{"deltaTime":46,"channel":12,"type":"channel","noteNumber":57,"velocity":0,"subtype":"noteOff"},{"deltaTime":50,"channel":12,"type":"channel","noteNumber":45,"velocity":110,"subtype":"noteOn"},{"deltaTime":94,"channel":12,"type":"channel","noteNumber":45,"velocity":0,"subtype":"noteOff"},{"deltaTime":2,"channel":12,"type":"channel","noteNumber":57,"velocity":110,"subtype":"noteOn"},{"deltaTime":46,"channel":12,"type":"channel","noteNumber":57,"velocity":0,"subtype":"noteOff"},{"deltaTime":50,"channel":12,"type":"channel","noteNumber":47,"velocity":110,"subtype":"noteOn"},{"deltaTime":94,"channel":12,"type":"channel","noteNumber":47,"velocity":0,"subtype":"noteOff"},{"deltaTime":2,"channel":12,"type":"channel","noteNumber":59,"velocity":110,"subtype":"noteOn"},{"deltaTime":46,"channel":12,"type":"channel","noteNumber":59,"velocity":0,"subtype":"noteOff"},{"deltaTime":50,"channel":12,"type":"channel","noteNumber":47,"velocity":110,"subtype":"noteOn"},{"deltaTime":94,"channel":12,"type":"channel","noteNumber":47,"velocity":0,"subtype":"noteOff"},{"deltaTime":2,"channel":12,"type":"channel","noteNumber":59,"velocity":110,"subtype":"noteOn"},{"deltaTime":46,"channel":12,"type":"channel","noteNumber":59,"velocity":0,"subtype":"noteOff"},{"deltaTime":50,"channel":12,"type":"channel","noteNumber":47,"velocity":110,"subtype":"noteOn"},{"deltaTime":94,"channel":12,"type":"channel","noteNumber":47,"velocity":0,"subtype":"noteOff"},{"deltaTime":2,"channel":12,"type":"channel","noteNumber":59,"velocity":110,"subtype":"noteOn"},{"deltaTime":46,"channel":12,"type":"channel","noteNumber":59,"velocity":0,"subtype":"noteOff"},{"deltaTime":50,"channel":12,"type":"channel","noteNumber":47,"velocity":110,"subtype":"noteOn"},{"deltaTime":94,"channel":12,"type":"channel","noteNumber":47,"velocity":0,"subtype":"noteOff"},{"deltaTime":2,"channel":12,"type":"channel","noteNumber":59,"velocity":110,"subtype":"noteOn"},{"deltaTime":46,"channel":12,"type":"channel","noteNumber":59,"velocity":0,"subtype":"noteOff"},{"deltaTime":50,"channel":12,"type":"channel","noteNumber":51,"velocity":110,"subtype":"noteOn"},{"deltaTime":94,"channel":12,"type":"channel","noteNumber":51,"velocity":0,"subtype":"noteOff"},{"deltaTime":2,"channel":12,"type":"channel","noteNumber":63,"velocity":110,"subtype":"noteOn"},{"deltaTime":46,"channel":12,"type":"channel","noteNumber":63,"velocity":0,"subtype":"noteOff"},{"deltaTime":50,"channel":12,"type":"channel","noteNumber":51,"velocity":110,"subtype":"noteOn"},{"deltaTime":94,"channel":12,"type":"channel","noteNumber":51,"velocity":0,"subtype":"noteOff"},{"deltaTime":2,"channel":12,"type":"channel","noteNumber":63,"velocity":110,"subtype":"noteOn"},{"deltaTime":46,"channel":12,"type":"channel","noteNumber":63,"velocity":0,"subtype":"noteOff"},{"deltaTime":50,"channel":12,"type":"channel","noteNumber":47,"velocity":110,"subtype":"noteOn"},{"deltaTime":94,"channel":12,"type":"channel","noteNumber":47,"velocity":0,"subtype":"noteOff"},{"deltaTime":2,"channel":12,"type":"channel","noteNumber":59,"velocity":110,"subtype":"noteOn"},{"deltaTime":46,"channel":12,"type":"channel","noteNumber":59,"velocity":0,"subtype":"noteOff"},{"deltaTime":50,"channel":12,"type":"channel","noteNumber":47,"velocity":110,"subtype":"noteOn"},{"deltaTime":94,"channel":12,"type":"channel","noteNumber":47,"velocity":0,"subtype":"noteOff"},{"deltaTime":2,"channel":12,"type":"channel","noteNumber":59,"velocity":110,"subtype":"noteOn"},{"deltaTime":46,"channel":12,"type":"channel","noteNumber":59,"velocity":0,"subtype":"noteOff"},{"deltaTime":50,"channel":12,"type":"channel","noteNumber":40,"velocity":110,"subtype":"noteOn"},{"deltaTime":94,"channel":12,"type":"channel","noteNumber":40,"velocity":0,"subtype":"noteOff"},{"deltaTime":2,"channel":12,"type":"channel","noteNumber":52,"velocity":110,"subtype":"noteOn"},{"deltaTime":46,"channel":12,"type":"channel","noteNumber":52,"velocity":0,"subtype":"noteOff"},{"deltaTime":50,"channel":12,"type":"channel","noteNumber":40,"velocity":110,"subtype":"noteOn"},{"deltaTime":94,"channel":12,"type":"channel","noteNumber":40,"velocity":0,"subtype":"noteOff"},{"deltaTime":2,"channel":12,"type":"channel","noteNumber":52,"velocity":110,"subtype":"noteOn"},{"deltaTime":46,"channel":12,"type":"channel","noteNumber":52,"velocity":0,"subtype":"noteOff"},{"deltaTime":50,"channel":12,"type":"channel","noteNumber":40,"velocity":110,"subtype":"noteOn"},{"deltaTime":94,"channel":12,"type":"channel","noteNumber":40,"velocity":0,"subtype":"noteOff"},{"deltaTime":2,"channel":12,"type":"channel","noteNumber":52,"velocity":110,"subtype":"noteOn"},{"deltaTime":46,"channel":12,"type":"channel","noteNumber":52,"velocity":0,"subtype":"noteOff"},{"deltaTime":50,"channel":12,"type":"channel","noteNumber":64,"velocity":110,"subtype":"noteOn"},{"deltaTime":94,"channel":12,"type":"channel","noteNumber":64,"velocity":0,"subtype":"noteOff"},{"deltaTime":2,"channel":12,"type":"channel","noteNumber":52,"velocity":110,"subtype":"noteOn"},{"deltaTime":46,"channel":12,"type":"channel","noteNumber":52,"velocity":0,"subtype":"noteOff"},{"deltaTime":50,"channel":12,"type":"channel","noteNumber":47,"velocity":110,"subtype":"noteOn"},{"deltaTime":94,"channel":12,"type":"channel","noteNumber":47,"velocity":0,"subtype":"noteOff"},{"deltaTime":2,"channel":12,"type":"channel","noteNumber":59,"velocity":110,"subtype":"noteOn"},{"deltaTime":46,"channel":12,"type":"channel","noteNumber":59,"velocity":0,"subtype":"noteOff"},{"deltaTime":50,"channel":12,"type":"channel","noteNumber":47,"velocity":110,"subtype":"noteOn"},{"deltaTime":94,"channel":12,"type":"channel","noteNumber":47,"velocity":0,"subtype":"noteOff"},{"deltaTime":2,"channel":12,"type":"channel","noteNumber":59,"velocity":110,"subtype":"noteOn"},{"deltaTime":46,"channel":12,"type":"channel","noteNumber":59,"velocity":0,"subtype":"noteOff"},{"deltaTime":50,"channel":12,"type":"channel","noteNumber":47,"velocity":110,"subtype":"noteOn"},{"deltaTime":94,"channel":12,"type":"channel","noteNumber":47,"velocity":0,"subtype":"noteOff"},{"deltaTime":2,"channel":12,"type":"channel","noteNumber":59,"velocity":110,"subtype":"noteOn"},{"deltaTime":46,"channel":12,"type":"channel","noteNumber":59,"velocity":0,"subtype":"noteOff"},{"deltaTime":50,"channel":12,"type":"channel","noteNumber":47,"velocity":110,"subtype":"noteOn"},{"deltaTime":94,"channel":12,"type":"channel","noteNumber":47,"velocity":0,"subtype":"noteOff"},{"deltaTime":2,"channel":12,"type":"channel","noteNumber":59,"velocity":110,"subtype":"noteOn"},{"deltaTime":46,"channel":12,"type":"channel","noteNumber":59,"velocity":0,"subtype":"noteOff"},{"deltaTime":50,"channel":12,"type":"channel","noteNumber":52,"velocity":110,"subtype":"noteOn"},{"deltaTime":94,"channel":12,"type":"channel","noteNumber":52,"velocity":0,"subtype":"noteOff"},{"deltaTime":2,"channel":12,"type":"channel","noteNumber":64,"velocity":110,"subtype":"noteOn"},{"deltaTime":46,"channel":12,"type":"channel","noteNumber":64,"velocity":0,"subtype":"noteOff"},{"deltaTime":50,"channel":12,"type":"channel","noteNumber":52,"velocity":110,"subtype":"noteOn"},{"deltaTime":94,"channel":12,"type":"channel","noteNumber":52,"velocity":0,"subtype":"noteOff"},{"deltaTime":2,"channel":12,"type":"channel","noteNumber":64,"velocity":110,"subtype":"noteOn"},{"deltaTime":46,"channel":12,"type":"channel","noteNumber":64,"velocity":0,"subtype":"noteOff"},{"deltaTime":50,"channel":12,"type":"channel","noteNumber":52,"velocity":110,"subtype":"noteOn"},{"deltaTime":94,"channel":12,"type":"channel","noteNumber":52,"velocity":0,"subtype":"noteOff"},{"deltaTime":2,"channel":12,"type":"channel","noteNumber":64,"velocity":110,"subtype":"noteOn"},{"deltaTime":46,"channel":12,"type":"channel","noteNumber":64,"velocity":0,"subtype":"noteOff"},{"deltaTime":50,"channel":12,"type":"channel","noteNumber":52,"velocity":110,"subtype":"noteOn"},{"deltaTime":94,"channel":12,"type":"channel","noteNumber":52,"velocity":0,"subtype":"noteOff"},{"deltaTime":2,"channel":12,"type":"channel","noteNumber":64,"velocity":110,"subtype":"noteOn"},{"deltaTime":46,"channel":12,"type":"channel","noteNumber":64,"velocity":0,"subtype":"noteOff"},{"deltaTime":50,"channel":12,"type":"channel","noteNumber":51,"velocity":110,"subtype":"noteOn"},{"deltaTime":94,"channel":12,"type":"channel","noteNumber":51,"velocity":0,"subtype":"noteOff"},{"deltaTime":2,"channel":12,"type":"channel","noteNumber":63,"velocity":110,"subtype":"noteOn"},{"deltaTime":46,"channel":12,"type":"channel","noteNumber":63,"velocity":0,"subtype":"noteOff"},{"deltaTime":50,"channel":12,"type":"channel","noteNumber":51,"velocity":110,"subtype":"noteOn"},{"deltaTime":94,"channel":12,"type":"channel","noteNumber":51,"velocity":0,"subtype":"noteOff"},{"deltaTime":2,"channel":12,"type":"channel","noteNumber":63,"velocity":110,"subtype":"noteOn"},{"deltaTime":46,"channel":12,"type":"channel","noteNumber":63,"velocity":0,"subtype":"noteOff"},{"deltaTime":50,"channel":12,"type":"channel","noteNumber":47,"velocity":110,"subtype":"noteOn"},{"deltaTime":94,"channel":12,"type":"channel","noteNumber":47,"velocity":0,"subtype":"noteOff"},{"deltaTime":2,"channel":12,"type":"channel","noteNumber":59,"velocity":110,"subtype":"noteOn"},{"deltaTime":46,"channel":12,"type":"channel","noteNumber":59,"velocity":0,"subtype":"noteOff"},{"deltaTime":50,"channel":12,"type":"channel","noteNumber":47,"velocity":110,"subtype":"noteOn"},{"deltaTime":94,"channel":12,"type":"channel","noteNumber":47,"velocity":0,"subtype":"noteOff"},{"deltaTime":2,"channel":12,"type":"channel","noteNumber":59,"velocity":110,"subtype":"noteOn"},{"deltaTime":46,"channel":12,"type":"channel","noteNumber":59,"velocity":0,"subtype":"noteOff"},{"deltaTime":50,"channel":12,"type":"channel","noteNumber":40,"velocity":110,"subtype":"noteOn"},{"deltaTime":94,"channel":12,"type":"channel","noteNumber":40,"velocity":0,"subtype":"noteOff"},{"deltaTime":2,"channel":12,"type":"channel","noteNumber":52,"velocity":110,"subtype":"noteOn"},{"deltaTime":46,"channel":12,"type":"channel","noteNumber":52,"velocity":0,"subtype":"noteOff"},{"deltaTime":50,"channel":12,"type":"channel","noteNumber":40,"velocity":110,"subtype":"noteOn"},{"deltaTime":94,"channel":12,"type":"channel","noteNumber":40,"velocity":0,"subtype":"noteOff"},{"deltaTime":2,"channel":12,"type":"channel","noteNumber":52,"velocity":110,"subtype":"noteOn"},{"deltaTime":46,"channel":12,"type":"channel","noteNumber":52,"velocity":0,"subtype":"noteOff"},{"deltaTime":50,"channel":12,"type":"channel","noteNumber":40,"velocity":110,"subtype":"noteOn"},{"deltaTime":94,"channel":12,"type":"channel","noteNumber":40,"velocity":0,"subtype":"noteOff"},{"deltaTime":2,"channel":12,"type":"channel","noteNumber":52,"velocity":110,"subtype":"noteOn"},{"deltaTime":46,"channel":12,"type":"channel","noteNumber":52,"velocity":0,"subtype":"noteOff"},{"deltaTime":50,"channel":12,"type":"channel","noteNumber":40,"velocity":110,"subtype":"noteOn"},{"deltaTime":94,"channel":12,"type":"channel","noteNumber":40,"velocity":0,"subtype":"noteOff"},{"deltaTime":2,"channel":12,"type":"channel","noteNumber":52,"velocity":110,"subtype":"noteOn"},{"deltaTime":46,"channel":12,"type":"channel","noteNumber":52,"velocity":0,"subtype":"noteOff"},{"deltaTime":50,"channel":12,"type":"channel","noteNumber":45,"velocity":110,"subtype":"noteOn"},{"deltaTime":94,"channel":12,"type":"channel","noteNumber":45,"velocity":0,"subtype":"noteOff"},{"deltaTime":2,"channel":12,"type":"channel","noteNumber":57,"velocity":110,"subtype":"noteOn"},{"deltaTime":46,"channel":12,"type":"channel","noteNumber":57,"velocity":0,"subtype":"noteOff"},{"deltaTime":50,"channel":12,"type":"channel","noteNumber":45,"velocity":110,"subtype":"noteOn"},{"deltaTime":94,"channel":12,"type":"channel","noteNumber":45,"velocity":0,"subtype":"noteOff"},{"deltaTime":2,"channel":12,"type":"channel","noteNumber":57,"velocity":110,"subtype":"noteOn"},{"deltaTime":46,"channel":12,"type":"channel","noteNumber":57,"velocity":0,"subtype":"noteOff"},{"deltaTime":50,"channel":12,"type":"channel","noteNumber":45,"velocity":110,"subtype":"noteOn"},{"deltaTime":94,"channel":12,"type":"channel","noteNumber":45,"velocity":0,"subtype":"noteOff"},{"deltaTime":2,"channel":12,"type":"channel","noteNumber":57,"velocity":110,"subtype":"noteOn"},{"deltaTime":46,"channel":12,"type":"channel","noteNumber":57,"velocity":0,"subtype":"noteOff"},{"deltaTime":50,"channel":12,"type":"channel","noteNumber":45,"velocity":110,"subtype":"noteOn"},{"deltaTime":94,"channel":12,"type":"channel","noteNumber":45,"velocity":0,"subtype":"noteOff"},{"deltaTime":2,"channel":12,"type":"channel","noteNumber":57,"velocity":110,"subtype":"noteOn"},{"deltaTime":46,"channel":12,"type":"channel","noteNumber":57,"velocity":0,"subtype":"noteOff"},{"deltaTime":50,"channel":12,"type":"channel","noteNumber":47,"velocity":110,"subtype":"noteOn"},{"deltaTime":94,"channel":12,"type":"channel","noteNumber":47,"velocity":0,"subtype":"noteOff"},{"deltaTime":2,"channel":12,"type":"channel","noteNumber":59,"velocity":110,"subtype":"noteOn"},{"deltaTime":46,"channel":12,"type":"channel","noteNumber":59,"velocity":0,"subtype":"noteOff"},{"deltaTime":50,"channel":12,"type":"channel","noteNumber":47,"velocity":110,"subtype":"noteOn"},{"deltaTime":94,"channel":12,"type":"channel","noteNumber":47,"velocity":0,"subtype":"noteOff"},{"deltaTime":2,"channel":12,"type":"channel","noteNumber":59,"velocity":110,"subtype":"noteOn"},{"deltaTime":46,"channel":12,"type":"channel","noteNumber":59,"velocity":0,"subtype":"noteOff"},{"deltaTime":50,"channel":12,"type":"channel","noteNumber":47,"velocity":110,"subtype":"noteOn"},{"deltaTime":94,"channel":12,"type":"channel","noteNumber":47,"velocity":0,"subtype":"noteOff"},{"deltaTime":2,"channel":12,"type":"channel","noteNumber":59,"velocity":110,"subtype":"noteOn"},{"deltaTime":46,"channel":12,"type":"channel","noteNumber":59,"velocity":0,"subtype":"noteOff"},{"deltaTime":50,"channel":12,"type":"channel","noteNumber":47,"velocity":110,"subtype":"noteOn"},{"deltaTime":94,"channel":12,"type":"channel","noteNumber":47,"velocity":0,"subtype":"noteOff"},{"deltaTime":2,"channel":12,"type":"channel","noteNumber":59,"velocity":110,"subtype":"noteOn"},{"deltaTime":46,"channel":12,"type":"channel","noteNumber":59,"velocity":0,"subtype":"noteOff"},{"deltaTime":50,"channel":12,"type":"channel","noteNumber":51,"velocity":110,"subtype":"noteOn"},{"deltaTime":94,"channel":12,"type":"channel","noteNumber":51,"velocity":0,"subtype":"noteOff"},{"deltaTime":2,"channel":12,"type":"channel","noteNumber":63,"velocity":110,"subtype":"noteOn"},{"deltaTime":46,"channel":12,"type":"channel","noteNumber":63,"velocity":0,"subtype":"noteOff"},{"deltaTime":50,"channel":12,"type":"channel","noteNumber":51,"velocity":110,"subtype":"noteOn"},{"deltaTime":94,"channel":12,"type":"channel","noteNumber":51,"velocity":0,"subtype":"noteOff"},{"deltaTime":2,"channel":12,"type":"channel","noteNumber":63,"velocity":110,"subtype":"noteOn"},{"deltaTime":46,"channel":12,"type":"channel","noteNumber":63,"velocity":0,"subtype":"noteOff"},{"deltaTime":50,"channel":12,"type":"channel","noteNumber":47,"velocity":110,"subtype":"noteOn"},{"deltaTime":94,"channel":12,"type":"channel","noteNumber":47,"velocity":0,"subtype":"noteOff"},{"deltaTime":2,"channel":12,"type":"channel","noteNumber":59,"velocity":110,"subtype":"noteOn"},{"deltaTime":46,"channel":12,"type":"channel","noteNumber":59,"velocity":0,"subtype":"noteOff"},{"deltaTime":50,"channel":12,"type":"channel","noteNumber":47,"velocity":110,"subtype":"noteOn"},{"deltaTime":94,"channel":12,"type":"channel","noteNumber":47,"velocity":0,"subtype":"noteOff"},{"deltaTime":2,"channel":12,"type":"channel","noteNumber":59,"velocity":110,"subtype":"noteOn"},{"deltaTime":46,"channel":12,"type":"channel","noteNumber":59,"velocity":0,"subtype":"noteOff"},{"deltaTime":50,"channel":12,"type":"channel","noteNumber":40,"velocity":110,"subtype":"noteOn"},{"deltaTime":94,"channel":12,"type":"channel","noteNumber":40,"velocity":0,"subtype":"noteOff"},{"deltaTime":2,"channel":12,"type":"channel","noteNumber":52,"velocity":110,"subtype":"noteOn"},{"deltaTime":46,"channel":12,"type":"channel","noteNumber":52,"velocity":0,"subtype":"noteOff"},{"deltaTime":50,"channel":12,"type":"channel","noteNumber":40,"velocity":110,"subtype":"noteOn"},{"deltaTime":94,"channel":12,"type":"channel","noteNumber":40,"velocity":0,"subtype":"noteOff"},{"deltaTime":2,"channel":12,"type":"channel","noteNumber":52,"velocity":110,"subtype":"noteOn"},{"deltaTime":46,"channel":12,"type":"channel","noteNumber":52,"velocity":0,"subtype":"noteOff"},{"deltaTime":50,"channel":12,"type":"channel","noteNumber":40,"velocity":110,"subtype":"noteOn"},{"deltaTime":94,"channel":12,"type":"channel","noteNumber":40,"velocity":0,"subtype":"noteOff"},{"deltaTime":2,"channel":12,"type":"channel","noteNumber":52,"velocity":110,"subtype":"noteOn"},{"deltaTime":46,"channel":12,"type":"channel","noteNumber":52,"velocity":0,"subtype":"noteOff"},{"deltaTime":50,"channel":12,"type":"channel","noteNumber":64,"velocity":110,"subtype":"noteOn"},{"deltaTime":94,"channel":12,"type":"channel","noteNumber":64,"velocity":0,"subtype":"noteOff"},{"deltaTime":2,"channel":12,"type":"channel","noteNumber":52,"velocity":110,"subtype":"noteOn"},{"deltaTime":46,"channel":12,"type":"channel","noteNumber":52,"velocity":0,"subtype":"noteOff"},{"deltaTime":50,"channel":12,"type":"channel","noteNumber":47,"velocity":110,"subtype":"noteOn"},{"deltaTime":94,"channel":12,"type":"channel","noteNumber":47,"velocity":0,"subtype":"noteOff"},{"deltaTime":2,"channel":12,"type":"channel","noteNumber":59,"velocity":110,"subtype":"noteOn"},{"deltaTime":46,"channel":12,"type":"channel","noteNumber":59,"velocity":0,"subtype":"noteOff"},{"deltaTime":50,"channel":12,"type":"channel","noteNumber":47,"velocity":110,"subtype":"noteOn"},{"deltaTime":94,"channel":12,"type":"channel","noteNumber":47,"velocity":0,"subtype":"noteOff"},{"deltaTime":2,"channel":12,"type":"channel","noteNumber":59,"velocity":110,"subtype":"noteOn"},{"deltaTime":46,"channel":12,"type":"channel","noteNumber":59,"velocity":0,"subtype":"noteOff"},{"deltaTime":50,"channel":12,"type":"channel","noteNumber":47,"velocity":110,"subtype":"noteOn"},{"deltaTime":94,"channel":12,"type":"channel","noteNumber":47,"velocity":0,"subtype":"noteOff"},{"deltaTime":2,"channel":12,"type":"channel","noteNumber":59,"velocity":110,"subtype":"noteOn"},{"deltaTime":46,"channel":12,"type":"channel","noteNumber":59,"velocity":0,"subtype":"noteOff"},{"deltaTime":50,"channel":12,"type":"channel","noteNumber":47,"velocity":110,"subtype":"noteOn"},{"deltaTime":94,"channel":12,"type":"channel","noteNumber":47,"velocity":0,"subtype":"noteOff"},{"deltaTime":2,"channel":12,"type":"channel","noteNumber":59,"velocity":110,"subtype":"noteOn"},{"deltaTime":46,"channel":12,"type":"channel","noteNumber":59,"velocity":0,"subtype":"noteOff"},{"deltaTime":50,"channel":12,"type":"channel","noteNumber":52,"velocity":110,"subtype":"noteOn"},{"deltaTime":94,"channel":12,"type":"channel","noteNumber":52,"velocity":0,"subtype":"noteOff"},{"deltaTime":2,"channel":12,"type":"channel","noteNumber":64,"velocity":110,"subtype":"noteOn"},{"deltaTime":46,"channel":12,"type":"channel","noteNumber":64,"velocity":0,"subtype":"noteOff"},{"deltaTime":50,"channel":12,"type":"channel","noteNumber":52,"velocity":110,"subtype":"noteOn"},{"deltaTime":94,"channel":12,"type":"channel","noteNumber":52,"velocity":0,"subtype":"noteOff"},{"deltaTime":2,"channel":12,"type":"channel","noteNumber":64,"velocity":110,"subtype":"noteOn"},{"deltaTime":46,"channel":12,"type":"channel","noteNumber":64,"velocity":0,"subtype":"noteOff"},{"deltaTime":50,"channel":12,"type":"channel","noteNumber":52,"velocity":110,"subtype":"noteOn"},{"deltaTime":94,"channel":12,"type":"channel","noteNumber":52,"velocity":0,"subtype":"noteOff"},{"deltaTime":2,"channel":12,"type":"channel","noteNumber":64,"velocity":110,"subtype":"noteOn"},{"deltaTime":46,"channel":12,"type":"channel","noteNumber":64,"velocity":0,"subtype":"noteOff"},{"deltaTime":50,"channel":12,"type":"channel","noteNumber":52,"velocity":110,"subtype":"noteOn"},{"deltaTime":94,"channel":12,"type":"channel","noteNumber":52,"velocity":0,"subtype":"noteOff"},{"deltaTime":2,"channel":12,"type":"channel","noteNumber":64,"velocity":110,"subtype":"noteOn"},{"deltaTime":46,"channel":12,"type":"channel","noteNumber":64,"velocity":0,"subtype":"noteOff"},{"deltaTime":50,"channel":12,"type":"channel","noteNumber":51,"velocity":110,"subtype":"noteOn"},{"deltaTime":94,"channel":12,"type":"channel","noteNumber":51,"velocity":0,"subtype":"noteOff"},{"deltaTime":2,"channel":12,"type":"channel","noteNumber":63,"velocity":110,"subtype":"noteOn"},{"deltaTime":46,"channel":12,"type":"channel","noteNumber":63,"velocity":0,"subtype":"noteOff"},{"deltaTime":50,"channel":12,"type":"channel","noteNumber":51,"velocity":110,"subtype":"noteOn"},{"deltaTime":94,"channel":12,"type":"channel","noteNumber":51,"velocity":0,"subtype":"noteOff"},{"deltaTime":2,"channel":12,"type":"channel","noteNumber":63,"velocity":110,"subtype":"noteOn"},{"deltaTime":46,"channel":12,"type":"channel","noteNumber":63,"velocity":0,"subtype":"noteOff"},{"deltaTime":50,"channel":12,"type":"channel","noteNumber":47,"velocity":110,"subtype":"noteOn"},{"deltaTime":94,"channel":12,"type":"channel","noteNumber":47,"velocity":0,"subtype":"noteOff"},{"deltaTime":2,"channel":12,"type":"channel","noteNumber":59,"velocity":110,"subtype":"noteOn"},{"deltaTime":46,"channel":12,"type":"channel","noteNumber":59,"velocity":0,"subtype":"noteOff"},{"deltaTime":50,"channel":12,"type":"channel","noteNumber":47,"velocity":110,"subtype":"noteOn"},{"deltaTime":94,"channel":12,"type":"channel","noteNumber":47,"velocity":0,"subtype":"noteOff"},{"deltaTime":2,"channel":12,"type":"channel","noteNumber":59,"velocity":110,"subtype":"noteOn"},{"deltaTime":46,"channel":12,"type":"channel","noteNumber":59,"velocity":0,"subtype":"noteOff"},{"deltaTime":50,"channel":12,"type":"channel","noteNumber":40,"velocity":110,"subtype":"noteOn"},{"deltaTime":94,"channel":12,"type":"channel","noteNumber":40,"velocity":0,"subtype":"noteOff"},{"deltaTime":2,"channel":12,"type":"channel","noteNumber":52,"velocity":110,"subtype":"noteOn"},{"deltaTime":46,"channel":12,"type":"channel","noteNumber":52,"velocity":0,"subtype":"noteOff"},{"deltaTime":50,"channel":12,"type":"channel","noteNumber":40,"velocity":110,"subtype":"noteOn"},{"deltaTime":94,"channel":12,"type":"channel","noteNumber":40,"velocity":0,"subtype":"noteOff"},{"deltaTime":2,"channel":12,"type":"channel","noteNumber":52,"velocity":110,"subtype":"noteOn"},{"deltaTime":46,"channel":12,"type":"channel","noteNumber":52,"velocity":0,"subtype":"noteOff"},{"deltaTime":50,"channel":12,"type":"channel","noteNumber":40,"velocity":110,"subtype":"noteOn"},{"deltaTime":94,"channel":12,"type":"channel","noteNumber":40,"velocity":0,"subtype":"noteOff"},{"deltaTime":2,"channel":12,"type":"channel","noteNumber":52,"velocity":110,"subtype":"noteOn"},{"deltaTime":46,"channel":12,"type":"channel","noteNumber":52,"velocity":0,"subtype":"noteOff"},{"deltaTime":50,"channel":12,"type":"channel","noteNumber":40,"velocity":110,"subtype":"noteOn"},{"deltaTime":94,"channel":12,"type":"channel","noteNumber":40,"velocity":0,"subtype":"noteOff"},{"deltaTime":2,"channel":12,"type":"channel","noteNumber":52,"velocity":110,"subtype":"noteOn"},{"deltaTime":46,"channel":12,"type":"channel","noteNumber":52,"velocity":0,"subtype":"noteOff"},{"deltaTime":50,"channel":12,"type":"channel","noteNumber":45,"velocity":110,"subtype":"noteOn"},{"deltaTime":94,"channel":12,"type":"channel","noteNumber":45,"velocity":0,"subtype":"noteOff"},{"deltaTime":2,"channel":12,"type":"channel","noteNumber":57,"velocity":110,"subtype":"noteOn"},{"deltaTime":46,"channel":12,"type":"channel","noteNumber":57,"velocity":0,"subtype":"noteOff"},{"deltaTime":50,"channel":12,"type":"channel","noteNumber":45,"velocity":110,"subtype":"noteOn"},{"deltaTime":94,"channel":12,"type":"channel","noteNumber":45,"velocity":0,"subtype":"noteOff"},{"deltaTime":2,"channel":12,"type":"channel","noteNumber":57,"velocity":110,"subtype":"noteOn"},{"deltaTime":46,"channel":12,"type":"channel","noteNumber":57,"velocity":0,"subtype":"noteOff"},{"deltaTime":50,"channel":12,"type":"channel","noteNumber":45,"velocity":110,"subtype":"noteOn"},{"deltaTime":94,"channel":12,"type":"channel","noteNumber":45,"velocity":0,"subtype":"noteOff"},{"deltaTime":2,"channel":12,"type":"channel","noteNumber":57,"velocity":110,"subtype":"noteOn"},{"deltaTime":46,"channel":12,"type":"channel","noteNumber":57,"velocity":0,"subtype":"noteOff"},{"deltaTime":50,"channel":12,"type":"channel","noteNumber":45,"velocity":110,"subtype":"noteOn"},{"deltaTime":94,"channel":12,"type":"channel","noteNumber":45,"velocity":0,"subtype":"noteOff"},{"deltaTime":2,"channel":12,"type":"channel","noteNumber":57,"velocity":110,"subtype":"noteOn"},{"deltaTime":46,"channel":12,"type":"channel","noteNumber":57,"velocity":0,"subtype":"noteOff"},{"deltaTime":50,"channel":12,"type":"channel","noteNumber":47,"velocity":110,"subtype":"noteOn"},{"deltaTime":94,"channel":12,"type":"channel","noteNumber":47,"velocity":0,"subtype":"noteOff"},{"deltaTime":2,"channel":12,"type":"channel","noteNumber":59,"velocity":110,"subtype":"noteOn"},{"deltaTime":46,"channel":12,"type":"channel","noteNumber":59,"velocity":0,"subtype":"noteOff"},{"deltaTime":50,"channel":12,"type":"channel","noteNumber":47,"velocity":110,"subtype":"noteOn"},{"deltaTime":94,"channel":12,"type":"channel","noteNumber":47,"velocity":0,"subtype":"noteOff"},{"deltaTime":2,"channel":12,"type":"channel","noteNumber":59,"velocity":110,"subtype":"noteOn"},{"deltaTime":46,"channel":12,"type":"channel","noteNumber":59,"velocity":0,"subtype":"noteOff"},{"deltaTime":50,"channel":12,"type":"channel","noteNumber":47,"velocity":110,"subtype":"noteOn"},{"deltaTime":94,"channel":12,"type":"channel","noteNumber":47,"velocity":0,"subtype":"noteOff"},{"deltaTime":2,"channel":12,"type":"channel","noteNumber":59,"velocity":110,"subtype":"noteOn"},{"deltaTime":46,"channel":12,"type":"channel","noteNumber":59,"velocity":0,"subtype":"noteOff"},{"deltaTime":50,"channel":12,"type":"channel","noteNumber":47,"velocity":110,"subtype":"noteOn"},{"deltaTime":94,"channel":12,"type":"channel","noteNumber":47,"velocity":0,"subtype":"noteOff"},{"deltaTime":2,"channel":12,"type":"channel","noteNumber":59,"velocity":110,"subtype":"noteOn"},{"deltaTime":46,"channel":12,"type":"channel","noteNumber":59,"velocity":0,"subtype":"noteOff"},{"deltaTime":50,"channel":12,"type":"channel","noteNumber":51,"velocity":110,"subtype":"noteOn"},{"deltaTime":94,"channel":12,"type":"channel","noteNumber":51,"velocity":0,"subtype":"noteOff"},{"deltaTime":2,"channel":12,"type":"channel","noteNumber":63,"velocity":110,"subtype":"noteOn"},{"deltaTime":46,"channel":12,"type":"channel","noteNumber":63,"velocity":0,"subtype":"noteOff"},{"deltaTime":50,"channel":12,"type":"channel","noteNumber":51,"velocity":110,"subtype":"noteOn"},{"deltaTime":94,"channel":12,"type":"channel","noteNumber":51,"velocity":0,"subtype":"noteOff"},{"deltaTime":2,"channel":12,"type":"channel","noteNumber":63,"velocity":110,"subtype":"noteOn"},{"deltaTime":46,"channel":12,"type":"channel","noteNumber":63,"velocity":0,"subtype":"noteOff"},{"deltaTime":50,"channel":12,"type":"channel","noteNumber":47,"velocity":110,"subtype":"noteOn"},{"deltaTime":94,"channel":12,"type":"channel","noteNumber":47,"velocity":0,"subtype":"noteOff"},{"deltaTime":2,"channel":12,"type":"channel","noteNumber":59,"velocity":110,"subtype":"noteOn"},{"deltaTime":46,"channel":12,"type":"channel","noteNumber":59,"velocity":0,"subtype":"noteOff"},{"deltaTime":50,"channel":12,"type":"channel","noteNumber":47,"velocity":110,"subtype":"noteOn"},{"deltaTime":94,"channel":12,"type":"channel","noteNumber":47,"velocity":0,"subtype":"noteOff"},{"deltaTime":2,"channel":12,"type":"channel","noteNumber":59,"velocity":110,"subtype":"noteOn"},{"deltaTime":46,"channel":12,"type":"channel","noteNumber":59,"velocity":0,"subtype":"noteOff"},{"deltaTime":50,"channel":12,"type":"channel","noteNumber":40,"velocity":110,"subtype":"noteOn"},{"deltaTime":94,"channel":12,"type":"channel","noteNumber":40,"velocity":0,"subtype":"noteOff"},{"deltaTime":2,"channel":12,"type":"channel","noteNumber":52,"velocity":110,"subtype":"noteOn"},{"deltaTime":46,"channel":12,"type":"channel","noteNumber":52,"velocity":0,"subtype":"noteOff"},{"deltaTime":50,"channel":12,"type":"channel","noteNumber":40,"velocity":110,"subtype":"noteOn"},{"deltaTime":94,"channel":12,"type":"channel","noteNumber":40,"velocity":0,"subtype":"noteOff"},{"deltaTime":2,"channel":12,"type":"channel","noteNumber":52,"velocity":110,"subtype":"noteOn"},{"deltaTime":46,"channel":12,"type":"channel","noteNumber":52,"velocity":0,"subtype":"noteOff"},{"deltaTime":50,"channel":12,"type":"channel","noteNumber":40,"velocity":110,"subtype":"noteOn"},{"deltaTime":94,"channel":12,"type":"channel","noteNumber":40,"velocity":0,"subtype":"noteOff"},{"deltaTime":2,"channel":12,"type":"channel","noteNumber":52,"velocity":110,"subtype":"noteOn"},{"deltaTime":46,"channel":12,"type":"channel","noteNumber":52,"velocity":0,"subtype":"noteOff"},{"deltaTime":50,"channel":12,"type":"channel","noteNumber":64,"velocity":110,"subtype":"noteOn"},{"deltaTime":94,"channel":12,"type":"channel","noteNumber":64,"velocity":0,"subtype":"noteOff"},{"deltaTime":2,"channel":12,"type":"channel","noteNumber":52,"velocity":110,"subtype":"noteOn"},{"deltaTime":46,"channel":12,"type":"channel","noteNumber":52,"velocity":0,"subtype":"noteOff"},{"deltaTime":50,"channel":12,"type":"channel","noteNumber":47,"velocity":110,"subtype":"noteOn"},{"deltaTime":94,"channel":12,"type":"channel","noteNumber":47,"velocity":0,"subtype":"noteOff"},{"deltaTime":2,"channel":12,"type":"channel","noteNumber":59,"velocity":110,"subtype":"noteOn"},{"deltaTime":46,"channel":12,"type":"channel","noteNumber":59,"velocity":0,"subtype":"noteOff"},{"deltaTime":50,"channel":12,"type":"channel","noteNumber":47,"velocity":110,"subtype":"noteOn"},{"deltaTime":94,"channel":12,"type":"channel","noteNumber":47,"velocity":0,"subtype":"noteOff"},{"deltaTime":2,"channel":12,"type":"channel","noteNumber":59,"velocity":110,"subtype":"noteOn"},{"deltaTime":46,"channel":12,"type":"channel","noteNumber":59,"velocity":0,"subtype":"noteOff"},{"deltaTime":50,"channel":12,"type":"channel","noteNumber":47,"velocity":110,"subtype":"noteOn"},{"deltaTime":94,"channel":12,"type":"channel","noteNumber":47,"velocity":0,"subtype":"noteOff"},{"deltaTime":2,"channel":12,"type":"channel","noteNumber":59,"velocity":110,"subtype":"noteOn"},{"deltaTime":46,"channel":12,"type":"channel","noteNumber":59,"velocity":0,"subtype":"noteOff"},{"deltaTime":50,"channel":12,"type":"channel","noteNumber":47,"velocity":110,"subtype":"noteOn"},{"deltaTime":94,"channel":12,"type":"channel","noteNumber":47,"velocity":0,"subtype":"noteOff"},{"deltaTime":2,"channel":12,"type":"channel","noteNumber":59,"velocity":110,"subtype":"noteOn"},{"deltaTime":46,"channel":12,"type":"channel","noteNumber":59,"velocity":0,"subtype":"noteOff"},{"deltaTime":50,"channel":12,"type":"channel","noteNumber":52,"velocity":110,"subtype":"noteOn"},{"deltaTime":94,"channel":12,"type":"channel","noteNumber":52,"velocity":0,"subtype":"noteOff"},{"deltaTime":2,"channel":12,"type":"channel","noteNumber":64,"velocity":110,"subtype":"noteOn"},{"deltaTime":46,"channel":12,"type":"channel","noteNumber":64,"velocity":0,"subtype":"noteOff"},{"deltaTime":50,"channel":12,"type":"channel","noteNumber":52,"velocity":110,"subtype":"noteOn"},{"deltaTime":94,"channel":12,"type":"channel","noteNumber":52,"velocity":0,"subtype":"noteOff"},{"deltaTime":2,"channel":12,"type":"channel","noteNumber":64,"velocity":110,"subtype":"noteOn"},{"deltaTime":46,"channel":12,"type":"channel","noteNumber":64,"velocity":0,"subtype":"noteOff"},{"deltaTime":50,"channel":12,"type":"channel","noteNumber":52,"velocity":110,"subtype":"noteOn"},{"deltaTime":94,"channel":12,"type":"channel","noteNumber":52,"velocity":0,"subtype":"noteOff"},{"deltaTime":2,"channel":12,"type":"channel","noteNumber":64,"velocity":110,"subtype":"noteOn"},{"deltaTime":46,"channel":12,"type":"channel","noteNumber":64,"velocity":0,"subtype":"noteOff"},{"deltaTime":50,"channel":12,"type":"channel","noteNumber":52,"velocity":110,"subtype":"noteOn"},{"deltaTime":94,"channel":12,"type":"channel","noteNumber":52,"velocity":0,"subtype":"noteOff"},{"deltaTime":2,"channel":12,"type":"channel","noteNumber":64,"velocity":110,"subtype":"noteOn"},{"deltaTime":46,"channel":12,"type":"channel","noteNumber":64,"velocity":0,"subtype":"noteOff"},{"deltaTime":50,"channel":12,"type":"channel","noteNumber":51,"velocity":110,"subtype":"noteOn"},{"deltaTime":94,"channel":12,"type":"channel","noteNumber":51,"velocity":0,"subtype":"noteOff"},{"deltaTime":2,"channel":12,"type":"channel","noteNumber":63,"velocity":110,"subtype":"noteOn"},{"deltaTime":46,"channel":12,"type":"channel","noteNumber":63,"velocity":0,"subtype":"noteOff"},{"deltaTime":50,"channel":12,"type":"channel","noteNumber":51,"velocity":110,"subtype":"noteOn"},{"deltaTime":94,"channel":12,"type":"channel","noteNumber":51,"velocity":0,"subtype":"noteOff"},{"deltaTime":2,"channel":12,"type":"channel","noteNumber":63,"velocity":110,"subtype":"noteOn"},{"deltaTime":46,"channel":12,"type":"channel","noteNumber":63,"velocity":0,"subtype":"noteOff"},{"deltaTime":50,"channel":12,"type":"channel","noteNumber":47,"velocity":110,"subtype":"noteOn"},{"deltaTime":94,"channel":12,"type":"channel","noteNumber":47,"velocity":0,"subtype":"noteOff"},{"deltaTime":2,"channel":12,"type":"channel","noteNumber":59,"velocity":110,"subtype":"noteOn"},{"deltaTime":46,"channel":12,"type":"channel","noteNumber":59,"velocity":0,"subtype":"noteOff"},{"deltaTime":50,"channel":12,"type":"channel","noteNumber":47,"velocity":110,"subtype":"noteOn"},{"deltaTime":94,"channel":12,"type":"channel","noteNumber":47,"velocity":0,"subtype":"noteOff"},{"deltaTime":2,"channel":12,"type":"channel","noteNumber":59,"velocity":110,"subtype":"noteOn"},{"deltaTime":46,"channel":12,"type":"channel","noteNumber":59,"velocity":0,"subtype":"noteOff"},{"deltaTime":50,"channel":12,"type":"channel","noteNumber":40,"velocity":110,"subtype":"noteOn"},{"deltaTime":94,"channel":12,"type":"channel","noteNumber":40,"velocity":0,"subtype":"noteOff"},{"deltaTime":2,"channel":12,"type":"channel","noteNumber":52,"velocity":110,"subtype":"noteOn"},{"deltaTime":46,"channel":12,"type":"channel","noteNumber":52,"velocity":0,"subtype":"noteOff"},{"deltaTime":50,"channel":12,"type":"channel","noteNumber":40,"velocity":110,"subtype":"noteOn"},{"deltaTime":94,"channel":12,"type":"channel","noteNumber":40,"velocity":0,"subtype":"noteOff"},{"deltaTime":2,"channel":12,"type":"channel","noteNumber":52,"velocity":110,"subtype":"noteOn"},{"deltaTime":46,"channel":12,"type":"channel","noteNumber":52,"velocity":0,"subtype":"noteOff"},{"deltaTime":50,"channel":12,"type":"channel","noteNumber":40,"velocity":110,"subtype":"noteOn"},{"deltaTime":94,"channel":12,"type":"channel","noteNumber":40,"velocity":0,"subtype":"noteOff"},{"deltaTime":2,"channel":12,"type":"channel","noteNumber":52,"velocity":110,"subtype":"noteOn"},{"deltaTime":46,"channel":12,"type":"channel","noteNumber":52,"velocity":0,"subtype":"noteOff"},{"deltaTime":50,"channel":12,"type":"channel","noteNumber":40,"velocity":110,"subtype":"noteOn"},{"deltaTime":94,"channel":12,"type":"channel","noteNumber":40,"velocity":0,"subtype":"noteOff"},{"deltaTime":2,"channel":12,"type":"channel","noteNumber":52,"velocity":110,"subtype":"noteOn"},{"deltaTime":46,"channel":12,"type":"channel","noteNumber":52,"velocity":0,"subtype":"noteOff"},{"deltaTime":50,"channel":12,"type":"channel","noteNumber":45,"velocity":110,"subtype":"noteOn"},{"deltaTime":94,"channel":12,"type":"channel","noteNumber":45,"velocity":0,"subtype":"noteOff"},{"deltaTime":2,"channel":12,"type":"channel","noteNumber":57,"velocity":110,"subtype":"noteOn"},{"deltaTime":46,"channel":12,"type":"channel","noteNumber":57,"velocity":0,"subtype":"noteOff"},{"deltaTime":50,"channel":12,"type":"channel","noteNumber":45,"velocity":110,"subtype":"noteOn"},{"deltaTime":94,"channel":12,"type":"channel","noteNumber":45,"velocity":0,"subtype":"noteOff"},{"deltaTime":2,"channel":12,"type":"channel","noteNumber":57,"velocity":110,"subtype":"noteOn"},{"deltaTime":46,"channel":12,"type":"channel","noteNumber":57,"velocity":0,"subtype":"noteOff"},{"deltaTime":50,"channel":12,"type":"channel","noteNumber":45,"velocity":110,"subtype":"noteOn"},{"deltaTime":94,"channel":12,"type":"channel","noteNumber":45,"velocity":0,"subtype":"noteOff"},{"deltaTime":2,"channel":12,"type":"channel","noteNumber":57,"velocity":110,"subtype":"noteOn"},{"deltaTime":46,"channel":12,"type":"channel","noteNumber":57,"velocity":0,"subtype":"noteOff"},{"deltaTime":50,"channel":12,"type":"channel","noteNumber":45,"velocity":110,"subtype":"noteOn"},{"deltaTime":94,"channel":12,"type":"channel","noteNumber":45,"velocity":0,"subtype":"noteOff"},{"deltaTime":2,"channel":12,"type":"channel","noteNumber":57,"velocity":110,"subtype":"noteOn"},{"deltaTime":46,"channel":12,"type":"channel","noteNumber":57,"velocity":0,"subtype":"noteOff"},{"deltaTime":50,"channel":12,"type":"channel","noteNumber":47,"velocity":110,"subtype":"noteOn"},{"deltaTime":94,"channel":12,"type":"channel","noteNumber":47,"velocity":0,"subtype":"noteOff"},{"deltaTime":2,"channel":12,"type":"channel","noteNumber":59,"velocity":110,"subtype":"noteOn"},{"deltaTime":46,"channel":12,"type":"channel","noteNumber":59,"velocity":0,"subtype":"noteOff"},{"deltaTime":50,"channel":12,"type":"channel","noteNumber":47,"velocity":110,"subtype":"noteOn"},{"deltaTime":94,"channel":12,"type":"channel","noteNumber":47,"velocity":0,"subtype":"noteOff"},{"deltaTime":2,"channel":12,"type":"channel","noteNumber":59,"velocity":110,"subtype":"noteOn"},{"deltaTime":46,"channel":12,"type":"channel","noteNumber":59,"velocity":0,"subtype":"noteOff"},{"deltaTime":50,"channel":12,"type":"channel","noteNumber":47,"velocity":110,"subtype":"noteOn"},{"deltaTime":94,"channel":12,"type":"channel","noteNumber":47,"velocity":0,"subtype":"noteOff"},{"deltaTime":2,"channel":12,"type":"channel","noteNumber":59,"velocity":110,"subtype":"noteOn"},{"deltaTime":46,"channel":12,"type":"channel","noteNumber":59,"velocity":0,"subtype":"noteOff"},{"deltaTime":50,"channel":12,"type":"channel","noteNumber":47,"velocity":110,"subtype":"noteOn"},{"deltaTime":94,"channel":12,"type":"channel","noteNumber":47,"velocity":0,"subtype":"noteOff"},{"deltaTime":2,"channel":12,"type":"channel","noteNumber":59,"velocity":110,"subtype":"noteOn"},{"deltaTime":46,"channel":12,"type":"channel","noteNumber":59,"velocity":0,"subtype":"noteOff"},{"deltaTime":50,"channel":12,"type":"channel","noteNumber":51,"velocity":110,"subtype":"noteOn"},{"deltaTime":94,"channel":12,"type":"channel","noteNumber":51,"velocity":0,"subtype":"noteOff"},{"deltaTime":2,"channel":12,"type":"channel","noteNumber":63,"velocity":110,"subtype":"noteOn"},{"deltaTime":46,"channel":12,"type":"channel","noteNumber":63,"velocity":0,"subtype":"noteOff"},{"deltaTime":50,"channel":12,"type":"channel","noteNumber":51,"velocity":110,"subtype":"noteOn"},{"deltaTime":94,"channel":12,"type":"channel","noteNumber":51,"velocity":0,"subtype":"noteOff"},{"deltaTime":2,"channel":12,"type":"channel","noteNumber":63,"velocity":110,"subtype":"noteOn"},{"deltaTime":46,"channel":12,"type":"channel","noteNumber":63,"velocity":0,"subtype":"noteOff"},{"deltaTime":50,"channel":12,"type":"channel","noteNumber":47,"velocity":110,"subtype":"noteOn"},{"deltaTime":94,"channel":12,"type":"channel","noteNumber":47,"velocity":0,"subtype":"noteOff"},{"deltaTime":2,"channel":12,"type":"channel","noteNumber":59,"velocity":110,"subtype":"noteOn"},{"deltaTime":46,"channel":12,"type":"channel","noteNumber":59,"velocity":0,"subtype":"noteOff"},{"deltaTime":50,"channel":12,"type":"channel","noteNumber":47,"velocity":110,"subtype":"noteOn"},{"deltaTime":94,"channel":12,"type":"channel","noteNumber":47,"velocity":0,"subtype":"noteOff"},{"deltaTime":2,"channel":12,"type":"channel","noteNumber":59,"velocity":110,"subtype":"noteOn"},{"deltaTime":46,"channel":12,"type":"channel","noteNumber":59,"velocity":0,"subtype":"noteOff"},{"deltaTime":50,"channel":12,"type":"channel","noteNumber":40,"velocity":110,"subtype":"noteOn"},{"deltaTime":94,"channel":12,"type":"channel","noteNumber":40,"velocity":0,"subtype":"noteOff"},{"deltaTime":2,"channel":12,"type":"channel","noteNumber":52,"velocity":110,"subtype":"noteOn"},{"deltaTime":46,"channel":12,"type":"channel","noteNumber":52,"velocity":0,"subtype":"noteOff"},{"deltaTime":50,"channel":12,"type":"channel","noteNumber":40,"velocity":110,"subtype":"noteOn"},{"deltaTime":94,"channel":12,"type":"channel","noteNumber":40,"velocity":0,"subtype":"noteOff"},{"deltaTime":2,"channel":12,"type":"channel","noteNumber":52,"velocity":110,"subtype":"noteOn"},{"deltaTime":46,"channel":12,"type":"channel","noteNumber":52,"velocity":0,"subtype":"noteOff"},{"deltaTime":50,"channel":12,"type":"channel","noteNumber":40,"velocity":110,"subtype":"noteOn"},{"deltaTime":94,"channel":12,"type":"channel","noteNumber":40,"velocity":0,"subtype":"noteOff"},{"deltaTime":2,"channel":12,"type":"channel","noteNumber":52,"velocity":110,"subtype":"noteOn"},{"deltaTime":46,"channel":12,"type":"channel","noteNumber":52,"velocity":0,"subtype":"noteOff"},{"deltaTime":50,"channel":12,"type":"channel","noteNumber":64,"velocity":110,"subtype":"noteOn"},{"deltaTime":94,"channel":12,"type":"channel","noteNumber":64,"velocity":0,"subtype":"noteOff"},{"deltaTime":2,"channel":12,"type":"channel","noteNumber":52,"velocity":110,"subtype":"noteOn"},{"deltaTime":46,"channel":12,"type":"channel","noteNumber":52,"velocity":0,"subtype":"noteOff"},{"deltaTime":50,"channel":12,"type":"channel","noteNumber":47,"velocity":110,"subtype":"noteOn"},{"deltaTime":94,"channel":12,"type":"channel","noteNumber":47,"velocity":0,"subtype":"noteOff"},{"deltaTime":2,"channel":12,"type":"channel","noteNumber":59,"velocity":110,"subtype":"noteOn"},{"deltaTime":46,"channel":12,"type":"channel","noteNumber":59,"velocity":0,"subtype":"noteOff"},{"deltaTime":50,"channel":12,"type":"channel","noteNumber":47,"velocity":110,"subtype":"noteOn"},{"deltaTime":94,"channel":12,"type":"channel","noteNumber":47,"velocity":0,"subtype":"noteOff"},{"deltaTime":2,"channel":12,"type":"channel","noteNumber":59,"velocity":110,"subtype":"noteOn"},{"deltaTime":46,"channel":12,"type":"channel","noteNumber":59,"velocity":0,"subtype":"noteOff"},{"deltaTime":50,"channel":12,"type":"channel","noteNumber":47,"velocity":110,"subtype":"noteOn"},{"deltaTime":94,"channel":12,"type":"channel","noteNumber":47,"velocity":0,"subtype":"noteOff"},{"deltaTime":2,"channel":12,"type":"channel","noteNumber":59,"velocity":110,"subtype":"noteOn"},{"deltaTime":46,"channel":12,"type":"channel","noteNumber":59,"velocity":0,"subtype":"noteOff"},{"deltaTime":50,"channel":12,"type":"channel","noteNumber":47,"velocity":110,"subtype":"noteOn"},{"deltaTime":94,"channel":12,"type":"channel","noteNumber":47,"velocity":0,"subtype":"noteOff"},{"deltaTime":2,"channel":12,"type":"channel","noteNumber":59,"velocity":110,"subtype":"noteOn"},{"deltaTime":46,"channel":12,"type":"channel","noteNumber":59,"velocity":0,"subtype":"noteOff"},{"deltaTime":50,"channel":12,"type":"channel","noteNumber":52,"velocity":110,"subtype":"noteOn"},{"deltaTime":94,"channel":12,"type":"channel","noteNumber":52,"velocity":0,"subtype":"noteOff"},{"deltaTime":2,"channel":12,"type":"channel","noteNumber":64,"velocity":110,"subtype":"noteOn"},{"deltaTime":46,"channel":12,"type":"channel","noteNumber":64,"velocity":0,"subtype":"noteOff"},{"deltaTime":50,"channel":12,"type":"channel","noteNumber":52,"velocity":110,"subtype":"noteOn"},{"deltaTime":94,"channel":12,"type":"channel","noteNumber":52,"velocity":0,"subtype":"noteOff"},{"deltaTime":2,"channel":12,"type":"channel","noteNumber":64,"velocity":110,"subtype":"noteOn"},{"deltaTime":46,"channel":12,"type":"channel","noteNumber":64,"velocity":0,"subtype":"noteOff"},{"deltaTime":50,"channel":12,"type":"channel","noteNumber":52,"velocity":110,"subtype":"noteOn"},{"deltaTime":94,"channel":12,"type":"channel","noteNumber":52,"velocity":0,"subtype":"noteOff"},{"deltaTime":2,"channel":12,"type":"channel","noteNumber":64,"velocity":110,"subtype":"noteOn"},{"deltaTime":46,"channel":12,"type":"channel","noteNumber":64,"velocity":0,"subtype":"noteOff"},{"deltaTime":50,"channel":12,"type":"channel","noteNumber":52,"velocity":110,"subtype":"noteOn"},{"deltaTime":94,"channel":12,"type":"channel","noteNumber":52,"velocity":0,"subtype":"noteOff"},{"deltaTime":2,"channel":12,"type":"channel","noteNumber":64,"velocity":110,"subtype":"noteOn"},{"deltaTime":46,"channel":12,"type":"channel","noteNumber":64,"velocity":0,"subtype":"noteOff"},{"deltaTime":50,"channel":12,"type":"channel","noteNumber":51,"velocity":110,"subtype":"noteOn"},{"deltaTime":94,"channel":12,"type":"channel","noteNumber":51,"velocity":0,"subtype":"noteOff"},{"deltaTime":2,"channel":12,"type":"channel","noteNumber":63,"velocity":110,"subtype":"noteOn"},{"deltaTime":46,"channel":12,"type":"channel","noteNumber":63,"velocity":0,"subtype":"noteOff"},{"deltaTime":50,"channel":12,"type":"channel","noteNumber":51,"velocity":110,"subtype":"noteOn"},{"deltaTime":94,"channel":12,"type":"channel","noteNumber":51,"velocity":0,"subtype":"noteOff"},{"deltaTime":2,"channel":12,"type":"channel","noteNumber":63,"velocity":110,"subtype":"noteOn"},{"deltaTime":46,"channel":12,"type":"channel","noteNumber":63,"velocity":0,"subtype":"noteOff"},{"deltaTime":50,"channel":12,"type":"channel","noteNumber":47,"velocity":110,"subtype":"noteOn"},{"deltaTime":94,"channel":12,"type":"channel","noteNumber":47,"velocity":0,"subtype":"noteOff"},{"deltaTime":2,"channel":12,"type":"channel","noteNumber":59,"velocity":110,"subtype":"noteOn"},{"deltaTime":46,"channel":12,"type":"channel","noteNumber":59,"velocity":0,"subtype":"noteOff"},{"deltaTime":50,"channel":12,"type":"channel","noteNumber":47,"velocity":110,"subtype":"noteOn"},{"deltaTime":94,"channel":12,"type":"channel","noteNumber":47,"velocity":0,"subtype":"noteOff"},{"deltaTime":2,"channel":12,"type":"channel","noteNumber":59,"velocity":110,"subtype":"noteOn"},{"deltaTime":46,"channel":12,"type":"channel","noteNumber":59,"velocity":0,"subtype":"noteOff"},{"deltaTime":50,"channel":12,"type":"channel","noteNumber":40,"velocity":110,"subtype":"noteOn"},{"deltaTime":94,"channel":12,"type":"channel","noteNumber":40,"velocity":0,"subtype":"noteOff"},{"deltaTime":2,"channel":12,"type":"channel","noteNumber":52,"velocity":110,"subtype":"noteOn"},{"deltaTime":46,"channel":12,"type":"channel","noteNumber":52,"velocity":0,"subtype":"noteOff"},{"deltaTime":50,"channel":12,"type":"channel","noteNumber":40,"velocity":110,"subtype":"noteOn"},{"deltaTime":94,"channel":12,"type":"channel","noteNumber":40,"velocity":0,"subtype":"noteOff"},{"deltaTime":2,"channel":12,"type":"channel","noteNumber":52,"velocity":110,"subtype":"noteOn"},{"deltaTime":46,"channel":12,"type":"channel","noteNumber":52,"velocity":0,"subtype":"noteOff"},{"deltaTime":50,"channel":12,"type":"channel","noteNumber":40,"velocity":110,"subtype":"noteOn"},{"deltaTime":94,"channel":12,"type":"channel","noteNumber":40,"velocity":0,"subtype":"noteOff"},{"deltaTime":2,"channel":12,"type":"channel","noteNumber":52,"velocity":110,"subtype":"noteOn"},{"deltaTime":46,"channel":12,"type":"channel","noteNumber":52,"velocity":0,"subtype":"noteOff"},{"deltaTime":50,"channel":12,"type":"channel","noteNumber":40,"velocity":110,"subtype":"noteOn"},{"deltaTime":94,"channel":12,"type":"channel","noteNumber":40,"velocity":0,"subtype":"noteOff"},{"deltaTime":2,"channel":12,"type":"channel","noteNumber":52,"velocity":110,"subtype":"noteOn"},{"deltaTime":46,"channel":12,"type":"channel","noteNumber":52,"velocity":0,"subtype":"noteOff"},{"deltaTime":50,"channel":12,"type":"channel","noteNumber":45,"velocity":110,"subtype":"noteOn"},{"deltaTime":94,"channel":12,"type":"channel","noteNumber":45,"velocity":0,"subtype":"noteOff"},{"deltaTime":2,"channel":12,"type":"channel","noteNumber":57,"velocity":110,"subtype":"noteOn"},{"deltaTime":46,"channel":12,"type":"channel","noteNumber":57,"velocity":0,"subtype":"noteOff"},{"deltaTime":50,"channel":12,"type":"channel","noteNumber":45,"velocity":110,"subtype":"noteOn"},{"deltaTime":94,"channel":12,"type":"channel","noteNumber":45,"velocity":0,"subtype":"noteOff"},{"deltaTime":2,"channel":12,"type":"channel","noteNumber":57,"velocity":110,"subtype":"noteOn"},{"deltaTime":46,"channel":12,"type":"channel","noteNumber":57,"velocity":0,"subtype":"noteOff"},{"deltaTime":50,"channel":12,"type":"channel","noteNumber":45,"velocity":110,"subtype":"noteOn"},{"deltaTime":94,"channel":12,"type":"channel","noteNumber":45,"velocity":0,"subtype":"noteOff"},{"deltaTime":2,"channel":12,"type":"channel","noteNumber":57,"velocity":110,"subtype":"noteOn"},{"deltaTime":46,"channel":12,"type":"channel","noteNumber":57,"velocity":0,"subtype":"noteOff"},{"deltaTime":50,"channel":12,"type":"channel","noteNumber":45,"velocity":110,"subtype":"noteOn"},{"deltaTime":94,"channel":12,"type":"channel","noteNumber":45,"velocity":0,"subtype":"noteOff"},{"deltaTime":2,"channel":12,"type":"channel","noteNumber":57,"velocity":110,"subtype":"noteOn"},{"deltaTime":46,"channel":12,"type":"channel","noteNumber":57,"velocity":0,"subtype":"noteOff"},{"deltaTime":50,"channel":12,"type":"channel","noteNumber":47,"velocity":110,"subtype":"noteOn"},{"deltaTime":94,"channel":12,"type":"channel","noteNumber":47,"velocity":0,"subtype":"noteOff"},{"deltaTime":2,"channel":12,"type":"channel","noteNumber":59,"velocity":110,"subtype":"noteOn"},{"deltaTime":46,"channel":12,"type":"channel","noteNumber":59,"velocity":0,"subtype":"noteOff"},{"deltaTime":50,"channel":12,"type":"channel","noteNumber":47,"velocity":110,"subtype":"noteOn"},{"deltaTime":94,"channel":12,"type":"channel","noteNumber":47,"velocity":0,"subtype":"noteOff"},{"deltaTime":2,"channel":12,"type":"channel","noteNumber":59,"velocity":110,"subtype":"noteOn"},{"deltaTime":46,"channel":12,"type":"channel","noteNumber":59,"velocity":0,"subtype":"noteOff"},{"deltaTime":50,"channel":12,"type":"channel","noteNumber":47,"velocity":110,"subtype":"noteOn"},{"deltaTime":94,"channel":12,"type":"channel","noteNumber":47,"velocity":0,"subtype":"noteOff"},{"deltaTime":2,"channel":12,"type":"channel","noteNumber":59,"velocity":110,"subtype":"noteOn"},{"deltaTime":46,"channel":12,"type":"channel","noteNumber":59,"velocity":0,"subtype":"noteOff"},{"deltaTime":50,"channel":12,"type":"channel","noteNumber":47,"velocity":110,"subtype":"noteOn"},{"deltaTime":94,"channel":12,"type":"channel","noteNumber":47,"velocity":0,"subtype":"noteOff"},{"deltaTime":2,"channel":12,"type":"channel","noteNumber":59,"velocity":110,"subtype":"noteOn"},{"deltaTime":46,"channel":12,"type":"channel","noteNumber":59,"velocity":0,"subtype":"noteOff"},{"deltaTime":50,"channel":12,"type":"channel","noteNumber":51,"velocity":110,"subtype":"noteOn"},{"deltaTime":94,"channel":12,"type":"channel","noteNumber":51,"velocity":0,"subtype":"noteOff"},{"deltaTime":2,"channel":12,"type":"channel","noteNumber":63,"velocity":110,"subtype":"noteOn"},{"deltaTime":46,"channel":12,"type":"channel","noteNumber":63,"velocity":0,"subtype":"noteOff"},{"deltaTime":50,"channel":12,"type":"channel","noteNumber":51,"velocity":110,"subtype":"noteOn"},{"deltaTime":94,"channel":12,"type":"channel","noteNumber":51,"velocity":0,"subtype":"noteOff"},{"deltaTime":2,"channel":12,"type":"channel","noteNumber":63,"velocity":110,"subtype":"noteOn"},{"deltaTime":46,"channel":12,"type":"channel","noteNumber":63,"velocity":0,"subtype":"noteOff"},{"deltaTime":50,"channel":12,"type":"channel","noteNumber":47,"velocity":110,"subtype":"noteOn"},{"deltaTime":94,"channel":12,"type":"channel","noteNumber":47,"velocity":0,"subtype":"noteOff"},{"deltaTime":2,"channel":12,"type":"channel","noteNumber":59,"velocity":110,"subtype":"noteOn"},{"deltaTime":46,"channel":12,"type":"channel","noteNumber":59,"velocity":0,"subtype":"noteOff"},{"deltaTime":50,"channel":12,"type":"channel","noteNumber":47,"velocity":110,"subtype":"noteOn"},{"deltaTime":94,"channel":12,"type":"channel","noteNumber":47,"velocity":0,"subtype":"noteOff"},{"deltaTime":2,"channel":12,"type":"channel","noteNumber":59,"velocity":110,"subtype":"noteOn"},{"deltaTime":46,"channel":12,"type":"channel","noteNumber":59,"velocity":0,"subtype":"noteOff"},{"deltaTime":50,"channel":12,"type":"channel","noteNumber":40,"velocity":110,"subtype":"noteOn"},{"deltaTime":94,"channel":12,"type":"channel","noteNumber":40,"velocity":0,"subtype":"noteOff"},{"deltaTime":2,"channel":12,"type":"channel","noteNumber":52,"velocity":110,"subtype":"noteOn"},{"deltaTime":46,"channel":12,"type":"channel","noteNumber":52,"velocity":0,"subtype":"noteOff"},{"deltaTime":50,"channel":12,"type":"channel","noteNumber":40,"velocity":110,"subtype":"noteOn"},{"deltaTime":94,"channel":12,"type":"channel","noteNumber":40,"velocity":0,"subtype":"noteOff"},{"deltaTime":2,"channel":12,"type":"channel","noteNumber":52,"velocity":110,"subtype":"noteOn"},{"deltaTime":46,"channel":12,"type":"channel","noteNumber":52,"velocity":0,"subtype":"noteOff"},{"deltaTime":50,"channel":12,"type":"channel","noteNumber":40,"velocity":110,"subtype":"noteOn"},{"deltaTime":94,"channel":12,"type":"channel","noteNumber":40,"velocity":0,"subtype":"noteOff"},{"deltaTime":2,"channel":12,"type":"channel","noteNumber":52,"velocity":110,"subtype":"noteOn"},{"deltaTime":46,"channel":12,"type":"channel","noteNumber":52,"velocity":0,"subtype":"noteOff"},{"deltaTime":50,"channel":12,"type":"channel","noteNumber":64,"velocity":110,"subtype":"noteOn"},{"deltaTime":94,"channel":12,"type":"channel","noteNumber":64,"velocity":0,"subtype":"noteOff"},{"deltaTime":2,"channel":12,"type":"channel","noteNumber":52,"velocity":110,"subtype":"noteOn"},{"deltaTime":46,"channel":12,"type":"channel","noteNumber":52,"velocity":0,"subtype":"noteOff"},{"deltaTime":50,"channel":12,"type":"channel","noteNumber":47,"velocity":110,"subtype":"noteOn"},{"deltaTime":94,"channel":12,"type":"channel","noteNumber":47,"velocity":0,"subtype":"noteOff"},{"deltaTime":2,"channel":12,"type":"channel","noteNumber":59,"velocity":110,"subtype":"noteOn"},{"deltaTime":46,"channel":12,"type":"channel","noteNumber":59,"velocity":0,"subtype":"noteOff"},{"deltaTime":50,"channel":12,"type":"channel","noteNumber":47,"velocity":110,"subtype":"noteOn"},{"deltaTime":94,"channel":12,"type":"channel","noteNumber":47,"velocity":0,"subtype":"noteOff"},{"deltaTime":2,"channel":12,"type":"channel","noteNumber":59,"velocity":110,"subtype":"noteOn"},{"deltaTime":46,"channel":12,"type":"channel","noteNumber":59,"velocity":0,"subtype":"noteOff"},{"deltaTime":50,"channel":12,"type":"channel","noteNumber":47,"velocity":110,"subtype":"noteOn"},{"deltaTime":94,"channel":12,"type":"channel","noteNumber":47,"velocity":0,"subtype":"noteOff"},{"deltaTime":2,"channel":12,"type":"channel","noteNumber":59,"velocity":110,"subtype":"noteOn"},{"deltaTime":46,"channel":12,"type":"channel","noteNumber":59,"velocity":0,"subtype":"noteOff"},{"deltaTime":50,"channel":12,"type":"channel","noteNumber":47,"velocity":110,"subtype":"noteOn"},{"deltaTime":94,"channel":12,"type":"channel","noteNumber":47,"velocity":0,"subtype":"noteOff"},{"deltaTime":2,"channel":12,"type":"channel","noteNumber":59,"velocity":110,"subtype":"noteOn"},{"deltaTime":46,"channel":12,"type":"channel","noteNumber":59,"velocity":0,"subtype":"noteOff"},{"deltaTime":50,"channel":12,"type":"channel","noteNumber":52,"velocity":110,"subtype":"noteOn"},{"deltaTime":94,"channel":12,"type":"channel","noteNumber":52,"velocity":0,"subtype":"noteOff"},{"deltaTime":2,"channel":12,"type":"channel","noteNumber":64,"velocity":110,"subtype":"noteOn"},{"deltaTime":46,"channel":12,"type":"channel","noteNumber":64,"velocity":0,"subtype":"noteOff"},{"deltaTime":50,"channel":12,"type":"channel","noteNumber":52,"velocity":110,"subtype":"noteOn"},{"deltaTime":94,"channel":12,"type":"channel","noteNumber":52,"velocity":0,"subtype":"noteOff"},{"deltaTime":2,"channel":12,"type":"channel","noteNumber":64,"velocity":110,"subtype":"noteOn"},{"deltaTime":46,"channel":12,"type":"channel","noteNumber":64,"velocity":0,"subtype":"noteOff"},{"deltaTime":50,"channel":12,"type":"channel","noteNumber":52,"velocity":110,"subtype":"noteOn"},{"deltaTime":94,"channel":12,"type":"channel","noteNumber":52,"velocity":0,"subtype":"noteOff"},{"deltaTime":2,"channel":12,"type":"channel","noteNumber":64,"velocity":110,"subtype":"noteOn"},{"deltaTime":46,"channel":12,"type":"channel","noteNumber":64,"velocity":0,"subtype":"noteOff"},{"deltaTime":50,"channel":12,"type":"channel","noteNumber":52,"velocity":110,"subtype":"noteOn"},{"deltaTime":94,"channel":12,"type":"channel","noteNumber":52,"velocity":0,"subtype":"noteOff"},{"deltaTime":2,"channel":12,"type":"channel","noteNumber":64,"velocity":110,"subtype":"noteOn"},{"deltaTime":46,"channel":12,"type":"channel","noteNumber":64,"velocity":0,"subtype":"noteOff"},{"deltaTime":50,"channel":12,"type":"channel","noteNumber":51,"velocity":110,"subtype":"noteOn"},{"deltaTime":94,"channel":12,"type":"channel","noteNumber":51,"velocity":0,"subtype":"noteOff"},{"deltaTime":2,"channel":12,"type":"channel","noteNumber":63,"velocity":110,"subtype":"noteOn"},{"deltaTime":46,"channel":12,"type":"channel","noteNumber":63,"velocity":0,"subtype":"noteOff"},{"deltaTime":50,"channel":12,"type":"channel","noteNumber":51,"velocity":110,"subtype":"noteOn"},{"deltaTime":94,"channel":12,"type":"channel","noteNumber":51,"velocity":0,"subtype":"noteOff"},{"deltaTime":2,"channel":12,"type":"channel","noteNumber":63,"velocity":110,"subtype":"noteOn"},{"deltaTime":46,"channel":12,"type":"channel","noteNumber":63,"velocity":0,"subtype":"noteOff"},{"deltaTime":50,"channel":12,"type":"channel","noteNumber":47,"velocity":110,"subtype":"noteOn"},{"deltaTime":94,"channel":12,"type":"channel","noteNumber":47,"velocity":0,"subtype":"noteOff"},{"deltaTime":2,"channel":12,"type":"channel","noteNumber":59,"velocity":110,"subtype":"noteOn"},{"deltaTime":46,"channel":12,"type":"channel","noteNumber":59,"velocity":0,"subtype":"noteOff"},{"deltaTime":50,"channel":12,"type":"channel","noteNumber":47,"velocity":110,"subtype":"noteOn"},{"deltaTime":94,"channel":12,"type":"channel","noteNumber":47,"velocity":0,"subtype":"noteOff"},{"deltaTime":2,"channel":12,"type":"channel","noteNumber":59,"velocity":110,"subtype":"noteOn"},{"deltaTime":46,"channel":12,"type":"channel","noteNumber":59,"velocity":0,"subtype":"noteOff"},{"deltaTime":50,"channel":12,"type":"channel","noteNumber":40,"velocity":110,"subtype":"noteOn"},{"deltaTime":94,"channel":12,"type":"channel","noteNumber":40,"velocity":0,"subtype":"noteOff"},{"deltaTime":2,"channel":12,"type":"channel","noteNumber":52,"velocity":110,"subtype":"noteOn"},{"deltaTime":46,"channel":12,"type":"channel","noteNumber":52,"velocity":0,"subtype":"noteOff"},{"deltaTime":50,"channel":12,"type":"channel","noteNumber":40,"velocity":110,"subtype":"noteOn"},{"deltaTime":94,"channel":12,"type":"channel","noteNumber":40,"velocity":0,"subtype":"noteOff"},{"deltaTime":2,"channel":12,"type":"channel","noteNumber":52,"velocity":110,"subtype":"noteOn"},{"deltaTime":46,"channel":12,"type":"channel","noteNumber":52,"velocity":0,"subtype":"noteOff"},{"deltaTime":50,"channel":12,"type":"channel","noteNumber":40,"velocity":110,"subtype":"noteOn"},{"deltaTime":94,"channel":12,"type":"channel","noteNumber":40,"velocity":0,"subtype":"noteOff"},{"deltaTime":2,"channel":12,"type":"channel","noteNumber":52,"velocity":110,"subtype":"noteOn"},{"deltaTime":46,"channel":12,"type":"channel","noteNumber":52,"velocity":0,"subtype":"noteOff"},{"deltaTime":50,"channel":12,"type":"channel","noteNumber":40,"velocity":110,"subtype":"noteOn"},{"deltaTime":94,"channel":12,"type":"channel","noteNumber":40,"velocity":0,"subtype":"noteOff"},{"deltaTime":2,"channel":12,"type":"channel","noteNumber":52,"velocity":110,"subtype":"noteOn"},{"deltaTime":46,"channel":12,"type":"channel","noteNumber":52,"velocity":0,"subtype":"noteOff"},{"deltaTime":50,"channel":12,"type":"channel","noteNumber":45,"velocity":110,"subtype":"noteOn"},{"deltaTime":94,"channel":12,"type":"channel","noteNumber":45,"velocity":0,"subtype":"noteOff"},{"deltaTime":2,"channel":12,"type":"channel","noteNumber":57,"velocity":110,"subtype":"noteOn"},{"deltaTime":46,"channel":12,"type":"channel","noteNumber":57,"velocity":0,"subtype":"noteOff"},{"deltaTime":50,"channel":12,"type":"channel","noteNumber":45,"velocity":110,"subtype":"noteOn"},{"deltaTime":94,"channel":12,"type":"channel","noteNumber":45,"velocity":0,"subtype":"noteOff"},{"deltaTime":2,"channel":12,"type":"channel","noteNumber":57,"velocity":110,"subtype":"noteOn"},{"deltaTime":46,"channel":12,"type":"channel","noteNumber":57,"velocity":0,"subtype":"noteOff"},{"deltaTime":50,"channel":12,"type":"channel","noteNumber":45,"velocity":110,"subtype":"noteOn"},{"deltaTime":94,"channel":12,"type":"channel","noteNumber":45,"velocity":0,"subtype":"noteOff"},{"deltaTime":2,"channel":12,"type":"channel","noteNumber":57,"velocity":110,"subtype":"noteOn"},{"deltaTime":46,"channel":12,"type":"channel","noteNumber":57,"velocity":0,"subtype":"noteOff"},{"deltaTime":50,"channel":12,"type":"channel","noteNumber":45,"velocity":110,"subtype":"noteOn"},{"deltaTime":94,"channel":12,"type":"channel","noteNumber":45,"velocity":0,"subtype":"noteOff"},{"deltaTime":2,"channel":12,"type":"channel","noteNumber":57,"velocity":110,"subtype":"noteOn"},{"deltaTime":46,"channel":12,"type":"channel","noteNumber":57,"velocity":0,"subtype":"noteOff"},{"deltaTime":50,"channel":12,"type":"channel","noteNumber":47,"velocity":110,"subtype":"noteOn"},{"deltaTime":94,"channel":12,"type":"channel","noteNumber":47,"velocity":0,"subtype":"noteOff"},{"deltaTime":2,"channel":12,"type":"channel","noteNumber":59,"velocity":110,"subtype":"noteOn"},{"deltaTime":46,"channel":12,"type":"channel","noteNumber":59,"velocity":0,"subtype":"noteOff"},{"deltaTime":50,"channel":12,"type":"channel","noteNumber":47,"velocity":110,"subtype":"noteOn"},{"deltaTime":94,"channel":12,"type":"channel","noteNumber":47,"velocity":0,"subtype":"noteOff"},{"deltaTime":2,"channel":12,"type":"channel","noteNumber":59,"velocity":110,"subtype":"noteOn"},{"deltaTime":46,"channel":12,"type":"channel","noteNumber":59,"velocity":0,"subtype":"noteOff"},{"deltaTime":50,"channel":12,"type":"channel","noteNumber":47,"velocity":110,"subtype":"noteOn"},{"deltaTime":94,"channel":12,"type":"channel","noteNumber":47,"velocity":0,"subtype":"noteOff"},{"deltaTime":2,"channel":12,"type":"channel","noteNumber":59,"velocity":110,"subtype":"noteOn"},{"deltaTime":46,"channel":12,"type":"channel","noteNumber":59,"velocity":0,"subtype":"noteOff"},{"deltaTime":50,"channel":12,"type":"channel","noteNumber":47,"velocity":110,"subtype":"noteOn"},{"deltaTime":94,"channel":12,"type":"channel","noteNumber":47,"velocity":0,"subtype":"noteOff"},{"deltaTime":2,"channel":12,"type":"channel","noteNumber":59,"velocity":110,"subtype":"noteOn"},{"deltaTime":46,"channel":12,"type":"channel","noteNumber":59,"velocity":0,"subtype":"noteOff"},{"deltaTime":50,"channel":12,"type":"channel","noteNumber":51,"velocity":110,"subtype":"noteOn"},{"deltaTime":94,"channel":12,"type":"channel","noteNumber":51,"velocity":0,"subtype":"noteOff"},{"deltaTime":2,"channel":12,"type":"channel","noteNumber":63,"velocity":110,"subtype":"noteOn"},{"deltaTime":46,"channel":12,"type":"channel","noteNumber":63,"velocity":0,"subtype":"noteOff"},{"deltaTime":50,"channel":12,"type":"channel","noteNumber":51,"velocity":110,"subtype":"noteOn"},{"deltaTime":94,"channel":12,"type":"channel","noteNumber":51,"velocity":0,"subtype":"noteOff"},{"deltaTime":2,"channel":12,"type":"channel","noteNumber":63,"velocity":110,"subtype":"noteOn"},{"deltaTime":46,"channel":12,"type":"channel","noteNumber":63,"velocity":0,"subtype":"noteOff"},{"deltaTime":50,"channel":12,"type":"channel","noteNumber":47,"velocity":110,"subtype":"noteOn"},{"deltaTime":94,"channel":12,"type":"channel","noteNumber":47,"velocity":0,"subtype":"noteOff"},{"deltaTime":2,"channel":12,"type":"channel","noteNumber":59,"velocity":110,"subtype":"noteOn"},{"deltaTime":46,"channel":12,"type":"channel","noteNumber":59,"velocity":0,"subtype":"noteOff"},{"deltaTime":50,"channel":12,"type":"channel","noteNumber":47,"velocity":110,"subtype":"noteOn"},{"deltaTime":94,"channel":12,"type":"channel","noteNumber":47,"velocity":0,"subtype":"noteOff"},{"deltaTime":2,"channel":12,"type":"channel","noteNumber":59,"velocity":110,"subtype":"noteOn"},{"deltaTime":46,"channel":12,"type":"channel","noteNumber":59,"velocity":0,"subtype":"noteOff"},{"deltaTime":50,"channel":12,"type":"channel","noteNumber":40,"velocity":110,"subtype":"noteOn"},{"deltaTime":94,"channel":12,"type":"channel","noteNumber":40,"velocity":0,"subtype":"noteOff"},{"deltaTime":2,"channel":12,"type":"channel","noteNumber":52,"velocity":110,"subtype":"noteOn"},{"deltaTime":46,"channel":12,"type":"channel","noteNumber":52,"velocity":0,"subtype":"noteOff"},{"deltaTime":50,"channel":12,"type":"channel","noteNumber":40,"velocity":110,"subtype":"noteOn"},{"deltaTime":94,"channel":12,"type":"channel","noteNumber":40,"velocity":0,"subtype":"noteOff"},{"deltaTime":2,"channel":12,"type":"channel","noteNumber":52,"velocity":110,"subtype":"noteOn"},{"deltaTime":46,"channel":12,"type":"channel","noteNumber":52,"velocity":0,"subtype":"noteOff"},{"deltaTime":50,"channel":12,"type":"channel","noteNumber":40,"velocity":110,"subtype":"noteOn"},{"deltaTime":94,"channel":12,"type":"channel","noteNumber":40,"velocity":0,"subtype":"noteOff"},{"deltaTime":2,"channel":12,"type":"channel","noteNumber":52,"velocity":110,"subtype":"noteOn"},{"deltaTime":46,"channel":12,"type":"channel","noteNumber":52,"velocity":0,"subtype":"noteOff"},{"deltaTime":50,"channel":12,"type":"channel","noteNumber":64,"velocity":110,"subtype":"noteOn"},{"deltaTime":94,"channel":12,"type":"channel","noteNumber":64,"velocity":0,"subtype":"noteOff"},{"deltaTime":2,"channel":12,"type":"channel","noteNumber":52,"velocity":110,"subtype":"noteOn"},{"deltaTime":46,"channel":12,"type":"channel","noteNumber":52,"velocity":0,"subtype":"noteOff"},{"deltaTime":0,"type":"meta","subtype":"endOfTrack"}],[{"deltaTime":0,"type":"meta","subtype":"unknown","data":"\u0000"},{"deltaTime":0,"type":"meta","subtype":"trackName","text":"Staff-5"},{"deltaTime":0,"channel":13,"type":"channel","subtype":"programChange","programNumber":0},{"deltaTime":0,"channel":13,"type":"channel","subtype":"controller","controllerType":7,"value":127},{"deltaTime":0,"channel":13,"type":"channel","subtype":"controller","controllerType":10,"value":64},{"deltaTime":0,"channel":13,"type":"channel","subtype":"programChange","programNumber":0},{"deltaTime":0,"channel":13,"type":"channel","subtype":"controller","controllerType":7,"value":127},{"deltaTime":0,"channel":13,"type":"channel","subtype":"controller","controllerType":10,"value":64},{"deltaTime":24576,"channel":13,"type":"channel","noteNumber":59,"velocity":110,"subtype":"noteOn"},{"deltaTime":0,"channel":13,"type":"channel","noteNumber":66,"velocity":110,"subtype":"noteOn"},{"deltaTime":0,"channel":13,"type":"channel","noteNumber":71,"velocity":110,"subtype":"noteOn"},{"deltaTime":720,"channel":13,"type":"channel","noteNumber":59,"velocity":0,"subtype":"noteOff"},{"deltaTime":0,"channel":13,"type":"channel","noteNumber":66,"velocity":0,"subtype":"noteOff"},{"deltaTime":0,"channel":13,"type":"channel","noteNumber":71,"velocity":0,"subtype":"noteOff"},{"deltaTime":48,"channel":13,"type":"channel","noteNumber":64,"velocity":110,"subtype":"noteOn"},{"deltaTime":0,"channel":13,"type":"channel","noteNumber":71,"velocity":110,"subtype":"noteOn"},{"deltaTime":0,"channel":13,"type":"channel","noteNumber":76,"velocity":110,"subtype":"noteOn"},{"deltaTime":720,"channel":13,"type":"channel","noteNumber":64,"velocity":0,"subtype":"noteOff"},{"deltaTime":0,"channel":13,"type":"channel","noteNumber":71,"velocity":0,"subtype":"noteOff"},{"deltaTime":0,"channel":13,"type":"channel","noteNumber":76,"velocity":0,"subtype":"noteOff"},{"deltaTime":48,"channel":13,"type":"channel","noteNumber":63,"velocity":110,"subtype":"noteOn"},{"deltaTime":0,"channel":13,"type":"channel","noteNumber":72,"velocity":110,"subtype":"noteOn"},{"deltaTime":0,"channel":13,"type":"channel","noteNumber":75,"velocity":110,"subtype":"noteOn"},{"deltaTime":336,"channel":13,"type":"channel","noteNumber":63,"velocity":0,"subtype":"noteOff"},{"deltaTime":0,"channel":13,"type":"channel","noteNumber":72,"velocity":0,"subtype":"noteOff"},{"deltaTime":0,"channel":13,"type":"channel","noteNumber":75,"velocity":0,"subtype":"noteOff"},{"deltaTime":48,"channel":13,"type":"channel","noteNumber":59,"velocity":110,"subtype":"noteOn"},{"deltaTime":0,"channel":13,"type":"channel","noteNumber":66,"velocity":110,"subtype":"noteOn"},{"deltaTime":0,"channel":13,"type":"channel","noteNumber":71,"velocity":110,"subtype":"noteOn"},{"deltaTime":336,"channel":13,"type":"channel","noteNumber":59,"velocity":0,"subtype":"noteOff"},{"deltaTime":0,"channel":13,"type":"channel","noteNumber":66,"velocity":0,"subtype":"noteOff"},{"deltaTime":0,"channel":13,"type":"channel","noteNumber":71,"velocity":0,"subtype":"noteOff"},{"deltaTime":48,"channel":13,"type":"channel","noteNumber":64,"velocity":110,"subtype":"noteOn"},{"deltaTime":0,"channel":13,"type":"channel","noteNumber":71,"velocity":110,"subtype":"noteOn"},{"deltaTime":0,"channel":13,"type":"channel","noteNumber":76,"velocity":110,"subtype":"noteOn"},{"deltaTime":720,"channel":13,"type":"channel","noteNumber":64,"velocity":0,"subtype":"noteOff"},{"deltaTime":0,"channel":13,"type":"channel","noteNumber":71,"velocity":0,"subtype":"noteOff"},{"deltaTime":0,"channel":13,"type":"channel","noteNumber":76,"velocity":0,"subtype":"noteOff"},{"deltaTime":48,"channel":13,"type":"channel","noteNumber":57,"velocity":110,"subtype":"noteOn"},{"deltaTime":0,"channel":13,"type":"channel","noteNumber":66,"velocity":110,"subtype":"noteOn"},{"deltaTime":0,"channel":13,"type":"channel","noteNumber":69,"velocity":110,"subtype":"noteOn"},{"deltaTime":720,"channel":13,"type":"channel","noteNumber":57,"velocity":0,"subtype":"noteOff"},{"deltaTime":0,"channel":13,"type":"channel","noteNumber":66,"velocity":0,"subtype":"noteOff"},{"deltaTime":0,"channel":13,"type":"channel","noteNumber":69,"velocity":0,"subtype":"noteOff"},{"deltaTime":48,"channel":13,"type":"channel","noteNumber":59,"velocity":110,"subtype":"noteOn"},{"deltaTime":0,"channel":13,"type":"channel","noteNumber":67,"velocity":110,"subtype":"noteOn"},{"deltaTime":0,"channel":13,"type":"channel","noteNumber":71,"velocity":110,"subtype":"noteOn"},{"deltaTime":720,"channel":13,"type":"channel","noteNumber":59,"velocity":0,"subtype":"noteOff"},{"deltaTime":0,"channel":13,"type":"channel","noteNumber":67,"velocity":0,"subtype":"noteOff"},{"deltaTime":0,"channel":13,"type":"channel","noteNumber":71,"velocity":0,"subtype":"noteOff"},{"deltaTime":48,"channel":13,"type":"channel","noteNumber":57,"velocity":110,"subtype":"noteOn"},{"deltaTime":0,"channel":13,"type":"channel","noteNumber":66,"velocity":110,"subtype":"noteOn"},{"deltaTime":0,"channel":13,"type":"channel","noteNumber":69,"velocity":110,"subtype":"noteOn"},{"deltaTime":336,"channel":13,"type":"channel","noteNumber":57,"velocity":0,"subtype":"noteOff"},{"deltaTime":0,"channel":13,"type":"channel","noteNumber":66,"velocity":0,"subtype":"noteOff"},{"deltaTime":0,"channel":13,"type":"channel","noteNumber":69,"velocity":0,"subtype":"noteOff"},{"deltaTime":48,"channel":13,"type":"channel","noteNumber":55,"velocity":110,"subtype":"noteOn"},{"deltaTime":0,"channel":13,"type":"channel","noteNumber":64,"velocity":110,"subtype":"noteOn"},{"deltaTime":160,"channel":13,"type":"channel","noteNumber":55,"velocity":0,"subtype":"noteOff"},{"deltaTime":0,"channel":13,"type":"channel","noteNumber":64,"velocity":0,"subtype":"noteOff"},{"deltaTime":32,"channel":13,"type":"channel","noteNumber":54,"velocity":110,"subtype":"noteOn"},{"deltaTime":0,"channel":13,"type":"channel","noteNumber":63,"velocity":110,"subtype":"noteOn"},{"deltaTime":160,"channel":13,"type":"channel","noteNumber":54,"velocity":0,"subtype":"noteOff"},{"deltaTime":0,"channel":13,"type":"channel","noteNumber":63,"velocity":0,"subtype":"noteOff"},{"deltaTime":32,"channel":13,"type":"channel","noteNumber":52,"velocity":110,"subtype":"noteOn"},{"deltaTime":0,"channel":13,"type":"channel","noteNumber":59,"velocity":110,"subtype":"noteOn"},{"deltaTime":0,"channel":13,"type":"channel","noteNumber":64,"velocity":110,"subtype":"noteOn"},{"deltaTime":720,"channel":13,"type":"channel","noteNumber":52,"velocity":0,"subtype":"noteOff"},{"deltaTime":0,"channel":13,"type":"channel","noteNumber":59,"velocity":0,"subtype":"noteOff"},{"deltaTime":0,"channel":13,"type":"channel","noteNumber":64,"velocity":0,"subtype":"noteOff"},{"deltaTime":48,"channel":13,"type":"channel","noteNumber":59,"velocity":110,"subtype":"noteOn"},{"deltaTime":0,"channel":13,"type":"channel","noteNumber":66,"velocity":110,"subtype":"noteOn"},{"deltaTime":0,"channel":13,"type":"channel","noteNumber":71,"velocity":110,"subtype":"noteOn"},{"deltaTime":720,"channel":13,"type":"channel","noteNumber":59,"velocity":0,"subtype":"noteOff"},{"deltaTime":0,"channel":13,"type":"channel","noteNumber":66,"velocity":0,"subtype":"noteOff"},{"deltaTime":0,"channel":13,"type":"channel","noteNumber":71,"velocity":0,"subtype":"noteOff"},{"deltaTime":48,"channel":13,"type":"channel","noteNumber":64,"velocity":110,"subtype":"noteOn"},{"deltaTime":0,"channel":13,"type":"channel","noteNumber":71,"velocity":110,"subtype":"noteOn"},{"deltaTime":0,"channel":13,"type":"channel","noteNumber":76,"velocity":110,"subtype":"noteOn"},{"deltaTime":720,"channel":13,"type":"channel","noteNumber":64,"velocity":0,"subtype":"noteOff"},{"deltaTime":0,"channel":13,"type":"channel","noteNumber":71,"velocity":0,"subtype":"noteOff"},{"deltaTime":0,"channel":13,"type":"channel","noteNumber":76,"velocity":0,"subtype":"noteOff"},{"deltaTime":48,"channel":13,"type":"channel","noteNumber":63,"velocity":110,"subtype":"noteOn"},{"deltaTime":0,"channel":13,"type":"channel","noteNumber":72,"velocity":110,"subtype":"noteOn"},{"deltaTime":0,"channel":13,"type":"channel","noteNumber":75,"velocity":110,"subtype":"noteOn"},{"deltaTime":336,"channel":13,"type":"channel","noteNumber":63,"velocity":0,"subtype":"noteOff"},{"deltaTime":0,"channel":13,"type":"channel","noteNumber":72,"velocity":0,"subtype":"noteOff"},{"deltaTime":0,"channel":13,"type":"channel","noteNumber":75,"velocity":0,"subtype":"noteOff"},{"deltaTime":48,"channel":13,"type":"channel","noteNumber":59,"velocity":110,"subtype":"noteOn"},{"deltaTime":0,"channel":13,"type":"channel","noteNumber":66,"velocity":110,"subtype":"noteOn"},{"deltaTime":0,"channel":13,"type":"channel","noteNumber":71,"velocity":110,"subtype":"noteOn"},{"deltaTime":336,"channel":13,"type":"channel","noteNumber":59,"velocity":0,"subtype":"noteOff"},{"deltaTime":0,"channel":13,"type":"channel","noteNumber":66,"velocity":0,"subtype":"noteOff"},{"deltaTime":0,"channel":13,"type":"channel","noteNumber":71,"velocity":0,"subtype":"noteOff"},{"deltaTime":48,"channel":13,"type":"channel","noteNumber":64,"velocity":110,"subtype":"noteOn"},{"deltaTime":0,"channel":13,"type":"channel","noteNumber":71,"velocity":110,"subtype":"noteOn"},{"deltaTime":0,"channel":13,"type":"channel","noteNumber":76,"velocity":110,"subtype":"noteOn"},{"deltaTime":720,"channel":13,"type":"channel","noteNumber":64,"velocity":0,"subtype":"noteOff"},{"deltaTime":0,"channel":13,"type":"channel","noteNumber":71,"velocity":0,"subtype":"noteOff"},{"deltaTime":0,"channel":13,"type":"channel","noteNumber":76,"velocity":0,"subtype":"noteOff"},{"deltaTime":48,"channel":13,"type":"channel","noteNumber":57,"velocity":110,"subtype":"noteOn"},{"deltaTime":0,"channel":13,"type":"channel","noteNumber":66,"velocity":110,"subtype":"noteOn"},{"deltaTime":0,"channel":13,"type":"channel","noteNumber":69,"velocity":110,"subtype":"noteOn"},{"deltaTime":720,"channel":13,"type":"channel","noteNumber":57,"velocity":0,"subtype":"noteOff"},{"deltaTime":0,"channel":13,"type":"channel","noteNumber":66,"velocity":0,"subtype":"noteOff"},{"deltaTime":0,"channel":13,"type":"channel","noteNumber":69,"velocity":0,"subtype":"noteOff"},{"deltaTime":48,"channel":13,"type":"channel","noteNumber":59,"velocity":110,"subtype":"noteOn"},{"deltaTime":0,"channel":13,"type":"channel","noteNumber":67,"velocity":110,"subtype":"noteOn"},{"deltaTime":0,"channel":13,"type":"channel","noteNumber":71,"velocity":110,"subtype":"noteOn"},{"deltaTime":720,"channel":13,"type":"channel","noteNumber":59,"velocity":0,"subtype":"noteOff"},{"deltaTime":0,"channel":13,"type":"channel","noteNumber":67,"velocity":0,"subtype":"noteOff"},{"deltaTime":0,"channel":13,"type":"channel","noteNumber":71,"velocity":0,"subtype":"noteOff"},{"deltaTime":48,"channel":13,"type":"channel","noteNumber":57,"velocity":110,"subtype":"noteOn"},{"deltaTime":0,"channel":13,"type":"channel","noteNumber":66,"velocity":110,"subtype":"noteOn"},{"deltaTime":0,"channel":13,"type":"channel","noteNumber":69,"velocity":110,"subtype":"noteOn"},{"deltaTime":336,"channel":13,"type":"channel","noteNumber":57,"velocity":0,"subtype":"noteOff"},{"deltaTime":0,"channel":13,"type":"channel","noteNumber":66,"velocity":0,"subtype":"noteOff"},{"deltaTime":0,"channel":13,"type":"channel","noteNumber":69,"velocity":0,"subtype":"noteOff"},{"deltaTime":48,"channel":13,"type":"channel","noteNumber":55,"velocity":110,"subtype":"noteOn"},{"deltaTime":0,"channel":13,"type":"channel","noteNumber":64,"velocity":110,"subtype":"noteOn"},{"deltaTime":160,"channel":13,"type":"channel","noteNumber":55,"velocity":0,"subtype":"noteOff"},{"deltaTime":0,"channel":13,"type":"channel","noteNumber":64,"velocity":0,"subtype":"noteOff"},{"deltaTime":32,"channel":13,"type":"channel","noteNumber":54,"velocity":110,"subtype":"noteOn"},{"deltaTime":0,"channel":13,"type":"channel","noteNumber":63,"velocity":110,"subtype":"noteOn"},{"deltaTime":160,"channel":13,"type":"channel","noteNumber":54,"velocity":0,"subtype":"noteOff"},{"deltaTime":0,"channel":13,"type":"channel","noteNumber":63,"velocity":0,"subtype":"noteOff"},{"deltaTime":32,"channel":13,"type":"channel","noteNumber":52,"velocity":110,"subtype":"noteOn"},{"deltaTime":0,"channel":13,"type":"channel","noteNumber":59,"velocity":110,"subtype":"noteOn"},{"deltaTime":0,"channel":13,"type":"channel","noteNumber":64,"velocity":110,"subtype":"noteOn"},{"deltaTime":720,"channel":13,"type":"channel","noteNumber":52,"velocity":0,"subtype":"noteOff"},{"deltaTime":0,"channel":13,"type":"channel","noteNumber":59,"velocity":0,"subtype":"noteOff"},{"deltaTime":0,"channel":13,"type":"channel","noteNumber":64,"velocity":0,"subtype":"noteOff"},{"deltaTime":12336,"channel":13,"type":"channel","noteNumber":59,"velocity":110,"subtype":"noteOn"},{"deltaTime":0,"channel":13,"type":"channel","noteNumber":66,"velocity":110,"subtype":"noteOn"},{"deltaTime":0,"channel":13,"type":"channel","noteNumber":71,"velocity":110,"subtype":"noteOn"},{"deltaTime":720,"channel":13,"type":"channel","noteNumber":59,"velocity":0,"subtype":"noteOff"},{"deltaTime":0,"channel":13,"type":"channel","noteNumber":66,"velocity":0,"subtype":"noteOff"},{"deltaTime":0,"channel":13,"type":"channel","noteNumber":71,"velocity":0,"subtype":"noteOff"},{"deltaTime":48,"channel":13,"type":"channel","noteNumber":64,"velocity":110,"subtype":"noteOn"},{"deltaTime":0,"channel":13,"type":"channel","noteNumber":71,"velocity":110,"subtype":"noteOn"},{"deltaTime":0,"channel":13,"type":"channel","noteNumber":76,"velocity":110,"subtype":"noteOn"},{"deltaTime":720,"channel":13,"type":"channel","noteNumber":64,"velocity":0,"subtype":"noteOff"},{"deltaTime":0,"channel":13,"type":"channel","noteNumber":71,"velocity":0,"subtype":"noteOff"},{"deltaTime":0,"channel":13,"type":"channel","noteNumber":76,"velocity":0,"subtype":"noteOff"},{"deltaTime":48,"channel":13,"type":"channel","noteNumber":63,"velocity":110,"subtype":"noteOn"},{"deltaTime":0,"channel":13,"type":"channel","noteNumber":72,"velocity":110,"subtype":"noteOn"},{"deltaTime":0,"channel":13,"type":"channel","noteNumber":75,"velocity":110,"subtype":"noteOn"},{"deltaTime":336,"channel":13,"type":"channel","noteNumber":63,"velocity":0,"subtype":"noteOff"},{"deltaTime":0,"channel":13,"type":"channel","noteNumber":72,"velocity":0,"subtype":"noteOff"},{"deltaTime":0,"channel":13,"type":"channel","noteNumber":75,"velocity":0,"subtype":"noteOff"},{"deltaTime":48,"channel":13,"type":"channel","noteNumber":59,"velocity":110,"subtype":"noteOn"},{"deltaTime":0,"channel":13,"type":"channel","noteNumber":66,"velocity":110,"subtype":"noteOn"},{"deltaTime":0,"channel":13,"type":"channel","noteNumber":71,"velocity":110,"subtype":"noteOn"},{"deltaTime":336,"channel":13,"type":"channel","noteNumber":59,"velocity":0,"subtype":"noteOff"},{"deltaTime":0,"channel":13,"type":"channel","noteNumber":66,"velocity":0,"subtype":"noteOff"},{"deltaTime":0,"channel":13,"type":"channel","noteNumber":71,"velocity":0,"subtype":"noteOff"},{"deltaTime":48,"channel":13,"type":"channel","noteNumber":64,"velocity":110,"subtype":"noteOn"},{"deltaTime":0,"channel":13,"type":"channel","noteNumber":71,"velocity":110,"subtype":"noteOn"},{"deltaTime":0,"channel":13,"type":"channel","noteNumber":76,"velocity":110,"subtype":"noteOn"},{"deltaTime":720,"channel":13,"type":"channel","noteNumber":64,"velocity":0,"subtype":"noteOff"},{"deltaTime":0,"channel":13,"type":"channel","noteNumber":71,"velocity":0,"subtype":"noteOff"},{"deltaTime":0,"channel":13,"type":"channel","noteNumber":76,"velocity":0,"subtype":"noteOff"},{"deltaTime":48,"channel":13,"type":"channel","noteNumber":57,"velocity":110,"subtype":"noteOn"},{"deltaTime":0,"channel":13,"type":"channel","noteNumber":66,"velocity":110,"subtype":"noteOn"},{"deltaTime":0,"channel":13,"type":"channel","noteNumber":69,"velocity":110,"subtype":"noteOn"},{"deltaTime":720,"channel":13,"type":"channel","noteNumber":57,"velocity":0,"subtype":"noteOff"},{"deltaTime":0,"channel":13,"type":"channel","noteNumber":66,"velocity":0,"subtype":"noteOff"},{"deltaTime":0,"channel":13,"type":"channel","noteNumber":69,"velocity":0,"subtype":"noteOff"},{"deltaTime":48,"channel":13,"type":"channel","noteNumber":59,"velocity":110,"subtype":"noteOn"},{"deltaTime":0,"channel":13,"type":"channel","noteNumber":67,"velocity":110,"subtype":"noteOn"},{"deltaTime":0,"channel":13,"type":"channel","noteNumber":71,"velocity":110,"subtype":"noteOn"},{"deltaTime":720,"channel":13,"type":"channel","noteNumber":59,"velocity":0,"subtype":"noteOff"},{"deltaTime":0,"channel":13,"type":"channel","noteNumber":67,"velocity":0,"subtype":"noteOff"},{"deltaTime":0,"channel":13,"type":"channel","noteNumber":71,"velocity":0,"subtype":"noteOff"},{"deltaTime":48,"channel":13,"type":"channel","noteNumber":57,"velocity":110,"subtype":"noteOn"},{"deltaTime":0,"channel":13,"type":"channel","noteNumber":66,"velocity":110,"subtype":"noteOn"},{"deltaTime":0,"channel":13,"type":"channel","noteNumber":69,"velocity":110,"subtype":"noteOn"},{"deltaTime":336,"channel":13,"type":"channel","noteNumber":57,"velocity":0,"subtype":"noteOff"},{"deltaTime":0,"channel":13,"type":"channel","noteNumber":66,"velocity":0,"subtype":"noteOff"},{"deltaTime":0,"channel":13,"type":"channel","noteNumber":69,"velocity":0,"subtype":"noteOff"},{"deltaTime":48,"channel":13,"type":"channel","noteNumber":55,"velocity":110,"subtype":"noteOn"},{"deltaTime":0,"channel":13,"type":"channel","noteNumber":64,"velocity":110,"subtype":"noteOn"},{"deltaTime":160,"channel":13,"type":"channel","noteNumber":55,"velocity":0,"subtype":"noteOff"},{"deltaTime":0,"channel":13,"type":"channel","noteNumber":64,"velocity":0,"subtype":"noteOff"},{"deltaTime":32,"channel":13,"type":"channel","noteNumber":54,"velocity":110,"subtype":"noteOn"},{"deltaTime":0,"channel":13,"type":"channel","noteNumber":63,"velocity":110,"subtype":"noteOn"},{"deltaTime":160,"channel":13,"type":"channel","noteNumber":54,"velocity":0,"subtype":"noteOff"},{"deltaTime":0,"channel":13,"type":"channel","noteNumber":63,"velocity":0,"subtype":"noteOff"},{"deltaTime":32,"channel":13,"type":"channel","noteNumber":52,"velocity":110,"subtype":"noteOn"},{"deltaTime":0,"channel":13,"type":"channel","noteNumber":59,"velocity":110,"subtype":"noteOn"},{"deltaTime":0,"channel":13,"type":"channel","noteNumber":64,"velocity":110,"subtype":"noteOn"},{"deltaTime":720,"channel":13,"type":"channel","noteNumber":52,"velocity":0,"subtype":"noteOff"},{"deltaTime":0,"channel":13,"type":"channel","noteNumber":59,"velocity":0,"subtype":"noteOff"},{"deltaTime":0,"channel":13,"type":"channel","noteNumber":64,"velocity":0,"subtype":"noteOff"},{"deltaTime":48,"channel":13,"type":"channel","noteNumber":59,"velocity":110,"subtype":"noteOn"},{"deltaTime":0,"channel":13,"type":"channel","noteNumber":66,"velocity":110,"subtype":"noteOn"},{"deltaTime":0,"channel":13,"type":"channel","noteNumber":71,"velocity":110,"subtype":"noteOn"},{"deltaTime":720,"channel":13,"type":"channel","noteNumber":59,"velocity":0,"subtype":"noteOff"},{"deltaTime":0,"channel":13,"type":"channel","noteNumber":66,"velocity":0,"subtype":"noteOff"},{"deltaTime":0,"channel":13,"type":"channel","noteNumber":71,"velocity":0,"subtype":"noteOff"},{"deltaTime":48,"channel":13,"type":"channel","noteNumber":64,"velocity":110,"subtype":"noteOn"},{"deltaTime":0,"channel":13,"type":"channel","noteNumber":71,"velocity":110,"subtype":"noteOn"},{"deltaTime":0,"channel":13,"type":"channel","noteNumber":76,"velocity":110,"subtype":"noteOn"},{"deltaTime":720,"channel":13,"type":"channel","noteNumber":64,"velocity":0,"subtype":"noteOff"},{"deltaTime":0,"channel":13,"type":"channel","noteNumber":71,"velocity":0,"subtype":"noteOff"},{"deltaTime":0,"channel":13,"type":"channel","noteNumber":76,"velocity":0,"subtype":"noteOff"},{"deltaTime":48,"channel":13,"type":"channel","noteNumber":63,"velocity":110,"subtype":"noteOn"},{"deltaTime":0,"channel":13,"type":"channel","noteNumber":72,"velocity":110,"subtype":"noteOn"},{"deltaTime":0,"channel":13,"type":"channel","noteNumber":75,"velocity":110,"subtype":"noteOn"},{"deltaTime":336,"channel":13,"type":"channel","noteNumber":63,"velocity":0,"subtype":"noteOff"},{"deltaTime":0,"channel":13,"type":"channel","noteNumber":72,"velocity":0,"subtype":"noteOff"},{"deltaTime":0,"channel":13,"type":"channel","noteNumber":75,"velocity":0,"subtype":"noteOff"},{"deltaTime":48,"channel":13,"type":"channel","noteNumber":59,"velocity":110,"subtype":"noteOn"},{"deltaTime":0,"channel":13,"type":"channel","noteNumber":66,"velocity":110,"subtype":"noteOn"},{"deltaTime":0,"channel":13,"type":"channel","noteNumber":71,"velocity":110,"subtype":"noteOn"},{"deltaTime":336,"channel":13,"type":"channel","noteNumber":59,"velocity":0,"subtype":"noteOff"},{"deltaTime":0,"channel":13,"type":"channel","noteNumber":66,"velocity":0,"subtype":"noteOff"},{"deltaTime":0,"channel":13,"type":"channel","noteNumber":71,"velocity":0,"subtype":"noteOff"},{"deltaTime":48,"channel":13,"type":"channel","noteNumber":64,"velocity":110,"subtype":"noteOn"},{"deltaTime":0,"channel":13,"type":"channel","noteNumber":71,"velocity":110,"subtype":"noteOn"},{"deltaTime":0,"channel":13,"type":"channel","noteNumber":76,"velocity":110,"subtype":"noteOn"},{"deltaTime":720,"channel":13,"type":"channel","noteNumber":64,"velocity":0,"subtype":"noteOff"},{"deltaTime":0,"channel":13,"type":"channel","noteNumber":71,"velocity":0,"subtype":"noteOff"},{"deltaTime":0,"channel":13,"type":"channel","noteNumber":76,"velocity":0,"subtype":"noteOff"},{"deltaTime":48,"channel":13,"type":"channel","noteNumber":57,"velocity":110,"subtype":"noteOn"},{"deltaTime":0,"channel":13,"type":"channel","noteNumber":66,"velocity":110,"subtype":"noteOn"},{"deltaTime":0,"channel":13,"type":"channel","noteNumber":69,"velocity":110,"subtype":"noteOn"},{"deltaTime":720,"channel":13,"type":"channel","noteNumber":57,"velocity":0,"subtype":"noteOff"},{"deltaTime":0,"channel":13,"type":"channel","noteNumber":66,"velocity":0,"subtype":"noteOff"},{"deltaTime":0,"channel":13,"type":"channel","noteNumber":69,"velocity":0,"subtype":"noteOff"},{"deltaTime":48,"channel":13,"type":"channel","noteNumber":59,"velocity":110,"subtype":"noteOn"},{"deltaTime":0,"channel":13,"type":"channel","noteNumber":67,"velocity":110,"subtype":"noteOn"},{"deltaTime":0,"channel":13,"type":"channel","noteNumber":71,"velocity":110,"subtype":"noteOn"},{"deltaTime":720,"channel":13,"type":"channel","noteNumber":59,"velocity":0,"subtype":"noteOff"},{"deltaTime":0,"channel":13,"type":"channel","noteNumber":67,"velocity":0,"subtype":"noteOff"},{"deltaTime":0,"channel":13,"type":"channel","noteNumber":71,"velocity":0,"subtype":"noteOff"},{"deltaTime":48,"channel":13,"type":"channel","noteNumber":57,"velocity":110,"subtype":"noteOn"},{"deltaTime":0,"channel":13,"type":"channel","noteNumber":66,"velocity":110,"subtype":"noteOn"},{"deltaTime":0,"channel":13,"type":"channel","noteNumber":69,"velocity":110,"subtype":"noteOn"},{"deltaTime":336,"channel":13,"type":"channel","noteNumber":57,"velocity":0,"subtype":"noteOff"},{"deltaTime":0,"channel":13,"type":"channel","noteNumber":66,"velocity":0,"subtype":"noteOff"},{"deltaTime":0,"channel":13,"type":"channel","noteNumber":69,"velocity":0,"subtype":"noteOff"},{"deltaTime":48,"channel":13,"type":"channel","noteNumber":55,"velocity":110,"subtype":"noteOn"},{"deltaTime":0,"channel":13,"type":"channel","noteNumber":64,"velocity":110,"subtype":"noteOn"},{"deltaTime":160,"channel":13,"type":"channel","noteNumber":55,"velocity":0,"subtype":"noteOff"},{"deltaTime":0,"channel":13,"type":"channel","noteNumber":64,"velocity":0,"subtype":"noteOff"},{"deltaTime":32,"channel":13,"type":"channel","noteNumber":54,"velocity":110,"subtype":"noteOn"},{"deltaTime":0,"channel":13,"type":"channel","noteNumber":63,"velocity":110,"subtype":"noteOn"},{"deltaTime":160,"channel":13,"type":"channel","noteNumber":54,"velocity":0,"subtype":"noteOff"},{"deltaTime":0,"channel":13,"type":"channel","noteNumber":63,"velocity":0,"subtype":"noteOff"},{"deltaTime":32,"channel":13,"type":"channel","noteNumber":52,"velocity":110,"subtype":"noteOn"},{"deltaTime":0,"channel":13,"type":"channel","noteNumber":59,"velocity":110,"subtype":"noteOn"},{"deltaTime":0,"channel":13,"type":"channel","noteNumber":64,"velocity":110,"subtype":"noteOn"},{"deltaTime":720,"channel":13,"type":"channel","noteNumber":52,"velocity":0,"subtype":"noteOff"},{"deltaTime":0,"channel":13,"type":"channel","noteNumber":59,"velocity":0,"subtype":"noteOff"},{"deltaTime":0,"channel":13,"type":"channel","noteNumber":64,"velocity":0,"subtype":"noteOff"},{"deltaTime":0,"type":"meta","subtype":"endOfTrack"}],[{"deltaTime":0,"type":"meta","subtype":"unknown","data":"\u0000"},{"deltaTime":0,"type":"meta","subtype":"trackName","text":"Staff-6"},{"deltaTime":0,"channel":14,"type":"channel","subtype":"programChange","programNumber":50},{"deltaTime":0,"channel":14,"type":"channel","subtype":"controller","controllerType":7,"value":127},{"deltaTime":0,"channel":14,"type":"channel","subtype":"controller","controllerType":10,"value":64},{"deltaTime":0,"channel":14,"type":"channel","subtype":"programChange","programNumber":50},{"deltaTime":0,"channel":14,"type":"channel","subtype":"controller","controllerType":7,"value":127},{"deltaTime":0,"channel":14,"type":"channel","subtype":"controller","controllerType":10,"value":64},{"deltaTime":30912,"channel":14,"type":"channel","noteNumber":59,"velocity":110,"subtype":"noteOn"},{"deltaTime":0,"channel":14,"type":"channel","noteNumber":66,"velocity":110,"subtype":"noteOn"},{"deltaTime":0,"channel":14,"type":"channel","noteNumber":71,"velocity":110,"subtype":"noteOn"},{"deltaTime":528,"channel":14,"type":"channel","noteNumber":59,"velocity":0,"subtype":"noteOff"},{"deltaTime":0,"channel":14,"type":"channel","noteNumber":66,"velocity":0,"subtype":"noteOff"},{"deltaTime":0,"channel":14,"type":"channel","noteNumber":71,"velocity":0,"subtype":"noteOff"},{"deltaTime":240,"channel":14,"type":"channel","noteNumber":64,"velocity":110,"subtype":"noteOn"},{"deltaTime":0,"channel":14,"type":"channel","noteNumber":71,"velocity":110,"subtype":"noteOn"},{"deltaTime":0,"channel":14,"type":"channel","noteNumber":76,"velocity":110,"subtype":"noteOn"},{"deltaTime":528,"channel":14,"type":"channel","noteNumber":64,"velocity":0,"subtype":"noteOff"},{"deltaTime":0,"channel":14,"type":"channel","noteNumber":71,"velocity":0,"subtype":"noteOff"},{"deltaTime":0,"channel":14,"type":"channel","noteNumber":76,"velocity":0,"subtype":"noteOff"},{"deltaTime":240,"channel":14,"type":"channel","noteNumber":63,"velocity":110,"subtype":"noteOn"},{"deltaTime":0,"channel":14,"type":"channel","noteNumber":72,"velocity":110,"subtype":"noteOn"},{"deltaTime":0,"channel":14,"type":"channel","noteNumber":75,"velocity":110,"subtype":"noteOn"},{"deltaTime":336,"channel":14,"type":"channel","noteNumber":63,"velocity":0,"subtype":"noteOff"},{"deltaTime":0,"channel":14,"type":"channel","noteNumber":72,"velocity":0,"subtype":"noteOff"},{"deltaTime":0,"channel":14,"type":"channel","noteNumber":75,"velocity":0,"subtype":"noteOff"},{"deltaTime":48,"channel":14,"type":"channel","noteNumber":59,"velocity":110,"subtype":"noteOn"},{"deltaTime":0,"channel":14,"type":"channel","noteNumber":66,"velocity":110,"subtype":"noteOn"},{"deltaTime":0,"channel":14,"type":"channel","noteNumber":71,"velocity":110,"subtype":"noteOn"},{"deltaTime":352,"channel":14,"type":"channel","noteNumber":59,"velocity":0,"subtype":"noteOff"},{"deltaTime":0,"channel":14,"type":"channel","noteNumber":66,"velocity":0,"subtype":"noteOff"},{"deltaTime":0,"channel":14,"type":"channel","noteNumber":71,"velocity":0,"subtype":"noteOff"},{"deltaTime":32,"channel":14,"type":"channel","noteNumber":64,"velocity":110,"subtype":"noteOn"},{"deltaTime":0,"channel":14,"type":"channel","noteNumber":71,"velocity":110,"subtype":"noteOn"},{"deltaTime":0,"channel":14,"type":"channel","noteNumber":76,"velocity":110,"subtype":"noteOn"},{"deltaTime":528,"channel":14,"type":"channel","noteNumber":64,"velocity":0,"subtype":"noteOff"},{"deltaTime":0,"channel":14,"type":"channel","noteNumber":71,"velocity":0,"subtype":"noteOff"},{"deltaTime":0,"channel":14,"type":"channel","noteNumber":76,"velocity":0,"subtype":"noteOff"},{"deltaTime":240,"channel":14,"type":"channel","noteNumber":57,"velocity":110,"subtype":"noteOn"},{"deltaTime":0,"channel":14,"type":"channel","noteNumber":66,"velocity":110,"subtype":"noteOn"},{"deltaTime":0,"channel":14,"type":"channel","noteNumber":69,"velocity":110,"subtype":"noteOn"},{"deltaTime":528,"channel":14,"type":"channel","noteNumber":57,"velocity":0,"subtype":"noteOff"},{"deltaTime":0,"channel":14,"type":"channel","noteNumber":66,"velocity":0,"subtype":"noteOff"},{"deltaTime":0,"channel":14,"type":"channel","noteNumber":69,"velocity":0,"subtype":"noteOff"},{"deltaTime":240,"channel":14,"type":"channel","noteNumber":59,"velocity":110,"subtype":"noteOn"},{"deltaTime":0,"channel":14,"type":"channel","noteNumber":67,"velocity":110,"subtype":"noteOn"},{"deltaTime":0,"channel":14,"type":"channel","noteNumber":71,"velocity":110,"subtype":"noteOn"},{"deltaTime":528,"channel":14,"type":"channel","noteNumber":59,"velocity":0,"subtype":"noteOff"},{"deltaTime":0,"channel":14,"type":"channel","noteNumber":67,"velocity":0,"subtype":"noteOff"},{"deltaTime":0,"channel":14,"type":"channel","noteNumber":71,"velocity":0,"subtype":"noteOff"},{"deltaTime":240,"channel":14,"type":"channel","noteNumber":57,"velocity":110,"subtype":"noteOn"},{"deltaTime":0,"channel":14,"type":"channel","noteNumber":66,"velocity":110,"subtype":"noteOn"},{"deltaTime":0,"channel":14,"type":"channel","noteNumber":69,"velocity":110,"subtype":"noteOn"},{"deltaTime":336,"channel":14,"type":"channel","noteNumber":57,"velocity":0,"subtype":"noteOff"},{"deltaTime":0,"channel":14,"type":"channel","noteNumber":66,"velocity":0,"subtype":"noteOff"},{"deltaTime":0,"channel":14,"type":"channel","noteNumber":69,"velocity":0,"subtype":"noteOff"},{"deltaTime":432,"channel":14,"type":"channel","noteNumber":52,"velocity":110,"subtype":"noteOn"},{"deltaTime":0,"channel":14,"type":"channel","noteNumber":59,"velocity":110,"subtype":"noteOn"},{"deltaTime":0,"channel":14,"type":"channel","noteNumber":64,"velocity":110,"subtype":"noteOn"},{"deltaTime":528,"channel":14,"type":"channel","noteNumber":52,"velocity":0,"subtype":"noteOff"},{"deltaTime":0,"channel":14,"type":"channel","noteNumber":59,"velocity":0,"subtype":"noteOff"},{"deltaTime":0,"channel":14,"type":"channel","noteNumber":64,"velocity":0,"subtype":"noteOff"},{"deltaTime":18672,"channel":14,"type":"channel","noteNumber":59,"velocity":110,"subtype":"noteOn"},{"deltaTime":0,"channel":14,"type":"channel","noteNumber":66,"velocity":110,"subtype":"noteOn"},{"deltaTime":0,"channel":14,"type":"channel","noteNumber":71,"velocity":110,"subtype":"noteOn"},{"deltaTime":528,"channel":14,"type":"channel","noteNumber":59,"velocity":0,"subtype":"noteOff"},{"deltaTime":0,"channel":14,"type":"channel","noteNumber":66,"velocity":0,"subtype":"noteOff"},{"deltaTime":0,"channel":14,"type":"channel","noteNumber":71,"velocity":0,"subtype":"noteOff"},{"deltaTime":240,"channel":14,"type":"channel","noteNumber":64,"velocity":110,"subtype":"noteOn"},{"deltaTime":0,"channel":14,"type":"channel","noteNumber":71,"velocity":110,"subtype":"noteOn"},{"deltaTime":0,"channel":14,"type":"channel","noteNumber":76,"velocity":110,"subtype":"noteOn"},{"deltaTime":528,"channel":14,"type":"channel","noteNumber":64,"velocity":0,"subtype":"noteOff"},{"deltaTime":0,"channel":14,"type":"channel","noteNumber":71,"velocity":0,"subtype":"noteOff"},{"deltaTime":0,"channel":14,"type":"channel","noteNumber":76,"velocity":0,"subtype":"noteOff"},{"deltaTime":240,"channel":14,"type":"channel","noteNumber":63,"velocity":110,"subtype":"noteOn"},{"deltaTime":0,"channel":14,"type":"channel","noteNumber":72,"velocity":110,"subtype":"noteOn"},{"deltaTime":0,"channel":14,"type":"channel","noteNumber":75,"velocity":110,"subtype":"noteOn"},{"deltaTime":336,"channel":14,"type":"channel","noteNumber":63,"velocity":0,"subtype":"noteOff"},{"deltaTime":0,"channel":14,"type":"channel","noteNumber":72,"velocity":0,"subtype":"noteOff"},{"deltaTime":0,"channel":14,"type":"channel","noteNumber":75,"velocity":0,"subtype":"noteOff"},{"deltaTime":48,"channel":14,"type":"channel","noteNumber":59,"velocity":110,"subtype":"noteOn"},{"deltaTime":0,"channel":14,"type":"channel","noteNumber":66,"velocity":110,"subtype":"noteOn"},{"deltaTime":0,"channel":14,"type":"channel","noteNumber":71,"velocity":110,"subtype":"noteOn"},{"deltaTime":352,"channel":14,"type":"channel","noteNumber":59,"velocity":0,"subtype":"noteOff"},{"deltaTime":0,"channel":14,"type":"channel","noteNumber":66,"velocity":0,"subtype":"noteOff"},{"deltaTime":0,"channel":14,"type":"channel","noteNumber":71,"velocity":0,"subtype":"noteOff"},{"deltaTime":32,"channel":14,"type":"channel","noteNumber":64,"velocity":110,"subtype":"noteOn"},{"deltaTime":0,"channel":14,"type":"channel","noteNumber":71,"velocity":110,"subtype":"noteOn"},{"deltaTime":0,"channel":14,"type":"channel","noteNumber":76,"velocity":110,"subtype":"noteOn"},{"deltaTime":528,"channel":14,"type":"channel","noteNumber":64,"velocity":0,"subtype":"noteOff"},{"deltaTime":0,"channel":14,"type":"channel","noteNumber":71,"velocity":0,"subtype":"noteOff"},{"deltaTime":0,"channel":14,"type":"channel","noteNumber":76,"velocity":0,"subtype":"noteOff"},{"deltaTime":240,"channel":14,"type":"channel","noteNumber":57,"velocity":110,"subtype":"noteOn"},{"deltaTime":0,"channel":14,"type":"channel","noteNumber":66,"velocity":110,"subtype":"noteOn"},{"deltaTime":0,"channel":14,"type":"channel","noteNumber":69,"velocity":110,"subtype":"noteOn"},{"deltaTime":528,"channel":14,"type":"channel","noteNumber":57,"velocity":0,"subtype":"noteOff"},{"deltaTime":0,"channel":14,"type":"channel","noteNumber":66,"velocity":0,"subtype":"noteOff"},{"deltaTime":0,"channel":14,"type":"channel","noteNumber":69,"velocity":0,"subtype":"noteOff"},{"deltaTime":240,"channel":14,"type":"channel","noteNumber":59,"velocity":110,"subtype":"noteOn"},{"deltaTime":0,"channel":14,"type":"channel","noteNumber":67,"velocity":110,"subtype":"noteOn"},{"deltaTime":0,"channel":14,"type":"channel","noteNumber":71,"velocity":110,"subtype":"noteOn"},{"deltaTime":528,"channel":14,"type":"channel","noteNumber":59,"velocity":0,"subtype":"noteOff"},{"deltaTime":0,"channel":14,"type":"channel","noteNumber":67,"velocity":0,"subtype":"noteOff"},{"deltaTime":0,"channel":14,"type":"channel","noteNumber":71,"velocity":0,"subtype":"noteOff"},{"deltaTime":240,"channel":14,"type":"channel","noteNumber":57,"velocity":110,"subtype":"noteOn"},{"deltaTime":0,"channel":14,"type":"channel","noteNumber":66,"velocity":110,"subtype":"noteOn"},{"deltaTime":0,"channel":14,"type":"channel","noteNumber":69,"velocity":110,"subtype":"noteOn"},{"deltaTime":336,"channel":14,"type":"channel","noteNumber":57,"velocity":0,"subtype":"noteOff"},{"deltaTime":0,"channel":14,"type":"channel","noteNumber":66,"velocity":0,"subtype":"noteOff"},{"deltaTime":0,"channel":14,"type":"channel","noteNumber":69,"velocity":0,"subtype":"noteOff"},{"deltaTime":432,"channel":14,"type":"channel","noteNumber":52,"velocity":110,"subtype":"noteOn"},{"deltaTime":0,"channel":14,"type":"channel","noteNumber":59,"velocity":110,"subtype":"noteOn"},{"deltaTime":0,"channel":14,"type":"channel","noteNumber":64,"velocity":110,"subtype":"noteOn"},{"deltaTime":528,"channel":14,"type":"channel","noteNumber":52,"velocity":0,"subtype":"noteOff"},{"deltaTime":0,"channel":14,"type":"channel","noteNumber":59,"velocity":0,"subtype":"noteOff"},{"deltaTime":0,"channel":14,"type":"channel","noteNumber":64,"velocity":0,"subtype":"noteOff"},{"deltaTime":0,"type":"meta","subtype":"endOfTrack"}],[{"deltaTime":0,"type":"meta","subtype":"unknown","data":"\u0000"},{"deltaTime":0,"type":"meta","subtype":"trackName","text":"Staff-7"},{"deltaTime":0,"channel":1,"type":"channel","subtype":"programChange","programNumber":80},{"deltaTime":0,"channel":1,"type":"channel","subtype":"controller","controllerType":7,"value":127},{"deltaTime":0,"channel":1,"type":"channel","subtype":"controller","controllerType":10,"value":64},{"deltaTime":0,"channel":1,"type":"channel","subtype":"programChange","programNumber":80},{"deltaTime":0,"channel":1,"type":"channel","subtype":"controller","controllerType":7,"value":127},{"deltaTime":0,"channel":1,"type":"channel","subtype":"controller","controllerType":10,"value":64},{"deltaTime":12288,"channel":1,"type":"channel","noteNumber":66,"velocity":110,"subtype":"noteOn"},{"deltaTime":160,"channel":1,"type":"channel","noteNumber":66,"velocity":0,"subtype":"noteOff"},{"deltaTime":32,"channel":1,"type":"channel","noteNumber":63,"velocity":110,"subtype":"noteOn"},{"deltaTime":94,"channel":1,"type":"channel","noteNumber":63,"velocity":0,"subtype":"noteOff"},{"deltaTime":2,"channel":1,"type":"channel","noteNumber":64,"velocity":110,"subtype":"noteOn"},{"deltaTime":94,"channel":1,"type":"channel","noteNumber":64,"velocity":0,"subtype":"noteOff"},{"deltaTime":2,"channel":1,"type":"channel","noteNumber":66,"velocity":110,"subtype":"noteOn"},{"deltaTime":160,"channel":1,"type":"channel","noteNumber":66,"velocity":0,"subtype":"noteOff"},{"deltaTime":32,"channel":1,"type":"channel","noteNumber":64,"velocity":110,"subtype":"noteOn"},{"deltaTime":94,"channel":1,"type":"channel","noteNumber":64,"velocity":0,"subtype":"noteOff"},{"deltaTime":2,"channel":1,"type":"channel","noteNumber":63,"velocity":110,"subtype":"noteOn"},{"deltaTime":94,"channel":1,"type":"channel","noteNumber":63,"velocity":0,"subtype":"noteOff"},{"deltaTime":2,"channel":1,"type":"channel","noteNumber":59,"velocity":110,"subtype":"noteOn"},{"deltaTime":160,"channel":1,"type":"channel","noteNumber":59,"velocity":0,"subtype":"noteOff"},{"deltaTime":32,"channel":1,"type":"channel","noteNumber":59,"velocity":110,"subtype":"noteOn"},{"deltaTime":94,"channel":1,"type":"channel","noteNumber":59,"velocity":0,"subtype":"noteOff"},{"deltaTime":2,"channel":1,"type":"channel","noteNumber":64,"velocity":110,"subtype":"noteOn"},{"deltaTime":94,"channel":1,"type":"channel","noteNumber":64,"velocity":0,"subtype":"noteOff"},{"deltaTime":2,"channel":1,"type":"channel","noteNumber":67,"velocity":110,"subtype":"noteOn"},{"deltaTime":160,"channel":1,"type":"channel","noteNumber":67,"velocity":0,"subtype":"noteOff"},{"deltaTime":32,"channel":1,"type":"channel","noteNumber":66,"velocity":110,"subtype":"noteOn"},{"deltaTime":94,"channel":1,"type":"channel","noteNumber":66,"velocity":0,"subtype":"noteOff"},{"deltaTime":2,"channel":1,"type":"channel","noteNumber":64,"velocity":110,"subtype":"noteOn"},{"deltaTime":94,"channel":1,"type":"channel","noteNumber":64,"velocity":0,"subtype":"noteOff"},{"deltaTime":2,"channel":1,"type":"channel","noteNumber":63,"velocity":110,"subtype":"noteOn"},{"deltaTime":94,"channel":1,"type":"channel","noteNumber":63,"velocity":0,"subtype":"noteOff"},{"deltaTime":2,"channel":1,"type":"channel","noteNumber":59,"velocity":110,"subtype":"noteOn"},{"deltaTime":94,"channel":1,"type":"channel","noteNumber":59,"velocity":0,"subtype":"noteOff"},{"deltaTime":2,"channel":1,"type":"channel","noteNumber":63,"velocity":110,"subtype":"noteOn"},{"deltaTime":94,"channel":1,"type":"channel","noteNumber":63,"velocity":0,"subtype":"noteOff"},{"deltaTime":2,"channel":1,"type":"channel","noteNumber":64,"velocity":110,"subtype":"noteOn"},{"deltaTime":94,"channel":1,"type":"channel","noteNumber":64,"velocity":0,"subtype":"noteOff"},{"deltaTime":2,"channel":1,"type":"channel","noteNumber":66,"velocity":110,"subtype":"noteOn"},{"deltaTime":160,"channel":1,"type":"channel","noteNumber":66,"velocity":0,"subtype":"noteOff"},{"deltaTime":32,"channel":1,"type":"channel","noteNumber":67,"velocity":110,"subtype":"noteOn"},{"deltaTime":160,"channel":1,"type":"channel","noteNumber":67,"velocity":0,"subtype":"noteOff"},{"deltaTime":32,"channel":1,"type":"channel","noteNumber":64,"velocity":110,"subtype":"noteOn"},{"deltaTime":160,"channel":1,"type":"channel","noteNumber":64,"velocity":0,"subtype":"noteOff"},{"deltaTime":32,"channel":1,"type":"channel","noteNumber":59,"velocity":110,"subtype":"noteOn"},{"deltaTime":160,"channel":1,"type":"channel","noteNumber":59,"velocity":0,"subtype":"noteOff"},{"deltaTime":32,"channel":1,"type":"channel","noteNumber":59,"velocity":110,"subtype":"noteOn"},{"deltaTime":336,"channel":1,"type":"channel","noteNumber":59,"velocity":0,"subtype":"noteOff"},{"deltaTime":144,"channel":1,"type":"channel","noteNumber":60,"velocity":110,"subtype":"noteOn"},{"deltaTime":190,"channel":1,"type":"channel","noteNumber":60,"velocity":0,"subtype":"noteOff"},{"deltaTime":2,"channel":1,"type":"channel","noteNumber":64,"velocity":110,"subtype":"noteOn"},{"deltaTime":94,"channel":1,"type":"channel","noteNumber":64,"velocity":0,"subtype":"noteOff"},{"deltaTime":2,"channel":1,"type":"channel","noteNumber":67,"velocity":110,"subtype":"noteOn"},{"deltaTime":94,"channel":1,"type":"channel","noteNumber":67,"velocity":0,"subtype":"noteOff"},{"deltaTime":2,"channel":1,"type":"channel","noteNumber":67,"velocity":110,"subtype":"noteOn"},{"deltaTime":46,"channel":1,"type":"channel","noteNumber":67,"velocity":0,"subtype":"noteOff"},{"deltaTime":2,"channel":1,"type":"channel","noteNumber":67,"velocity":110,"subtype":"noteOn"},{"deltaTime":46,"channel":1,"type":"channel","noteNumber":67,"velocity":0,"subtype":"noteOff"},{"deltaTime":2,"channel":1,"type":"channel","noteNumber":66,"velocity":110,"subtype":"noteOn"},{"deltaTime":94,"channel":1,"type":"channel","noteNumber":66,"velocity":0,"subtype":"noteOff"},{"deltaTime":2,"channel":1,"type":"channel","noteNumber":64,"velocity":110,"subtype":"noteOn"},{"deltaTime":94,"channel":1,"type":"channel","noteNumber":64,"velocity":0,"subtype":"noteOff"},{"deltaTime":2,"channel":1,"type":"channel","noteNumber":62,"velocity":110,"subtype":"noteOn"},{"deltaTime":256,"channel":1,"type":"channel","noteNumber":62,"velocity":0,"subtype":"noteOff"},{"deltaTime":32,"channel":1,"type":"channel","noteNumber":59,"velocity":110,"subtype":"noteOn"},{"deltaTime":94,"channel":1,"type":"channel","noteNumber":59,"velocity":0,"subtype":"noteOff"},{"deltaTime":2,"channel":1,"type":"channel","noteNumber":62,"velocity":110,"subtype":"noteOn"},{"deltaTime":94,"channel":1,"type":"channel","noteNumber":62,"velocity":0,"subtype":"noteOff"},{"deltaTime":2,"channel":1,"type":"channel","noteNumber":64,"velocity":110,"subtype":"noteOn"},{"deltaTime":46,"channel":1,"type":"channel","noteNumber":64,"velocity":0,"subtype":"noteOff"},{"deltaTime":2,"channel":1,"type":"channel","noteNumber":62,"velocity":110,"subtype":"noteOn"},{"deltaTime":46,"channel":1,"type":"channel","noteNumber":62,"velocity":0,"subtype":"noteOff"},{"deltaTime":2,"channel":1,"type":"channel","noteNumber":60,"velocity":110,"subtype":"noteOn"},{"deltaTime":94,"channel":1,"type":"channel","noteNumber":60,"velocity":0,"subtype":"noteOff"},{"deltaTime":2,"channel":1,"type":"channel","noteNumber":59,"velocity":110,"subtype":"noteOn"},{"deltaTime":94,"channel":1,"type":"channel","noteNumber":59,"velocity":0,"subtype":"noteOff"},{"deltaTime":2,"channel":1,"type":"channel","noteNumber":63,"velocity":110,"subtype":"noteOn"},{"deltaTime":94,"channel":1,"type":"channel","noteNumber":63,"velocity":0,"subtype":"noteOff"},{"deltaTime":2,"channel":1,"type":"channel","noteNumber":59,"velocity":110,"subtype":"noteOn"},{"deltaTime":94,"channel":1,"type":"channel","noteNumber":59,"velocity":0,"subtype":"noteOff"},{"deltaTime":2,"channel":1,"type":"channel","noteNumber":63,"velocity":110,"subtype":"noteOn"},{"deltaTime":94,"channel":1,"type":"channel","noteNumber":63,"velocity":0,"subtype":"noteOff"},{"deltaTime":2,"channel":1,"type":"channel","noteNumber":64,"velocity":110,"subtype":"noteOn"},{"deltaTime":94,"channel":1,"type":"channel","noteNumber":64,"velocity":0,"subtype":"noteOff"},{"deltaTime":2,"channel":1,"type":"channel","noteNumber":66,"velocity":110,"subtype":"noteOn"},{"deltaTime":94,"channel":1,"type":"channel","noteNumber":66,"velocity":0,"subtype":"noteOff"},{"deltaTime":2,"channel":1,"type":"channel","noteNumber":63,"velocity":110,"subtype":"noteOn"},{"deltaTime":94,"channel":1,"type":"channel","noteNumber":63,"velocity":0,"subtype":"noteOff"},{"deltaTime":2,"channel":1,"type":"channel","noteNumber":67,"velocity":110,"subtype":"noteOn"},{"deltaTime":94,"channel":1,"type":"channel","noteNumber":67,"velocity":0,"subtype":"noteOff"},{"deltaTime":2,"channel":1,"type":"channel","noteNumber":63,"velocity":110,"subtype":"noteOn"},{"deltaTime":94,"channel":1,"type":"channel","noteNumber":63,"velocity":0,"subtype":"noteOff"},{"deltaTime":2,"channel":1,"type":"channel","noteNumber":64,"velocity":110,"subtype":"noteOn"},{"deltaTime":94,"channel":1,"type":"channel","noteNumber":64,"velocity":0,"subtype":"noteOff"},{"deltaTime":2,"channel":1,"type":"channel","noteNumber":59,"velocity":110,"subtype":"noteOn"},{"deltaTime":94,"channel":1,"type":"channel","noteNumber":59,"velocity":0,"subtype":"noteOff"},{"deltaTime":2,"channel":1,"type":"channel","noteNumber":59,"velocity":110,"subtype":"noteOn"},{"deltaTime":160,"channel":1,"type":"channel","noteNumber":59,"velocity":0,"subtype":"noteOff"},{"deltaTime":32,"channel":1,"type":"channel","noteNumber":59,"velocity":110,"subtype":"noteOn"},{"deltaTime":160,"channel":1,"type":"channel","noteNumber":59,"velocity":0,"subtype":"noteOff"},{"deltaTime":224,"channel":1,"type":"channel","noteNumber":66,"velocity":110,"subtype":"noteOn"},{"deltaTime":160,"channel":1,"type":"channel","noteNumber":66,"velocity":0,"subtype":"noteOff"},{"deltaTime":32,"channel":1,"type":"channel","noteNumber":63,"velocity":110,"subtype":"noteOn"},{"deltaTime":94,"channel":1,"type":"channel","noteNumber":63,"velocity":0,"subtype":"noteOff"},{"deltaTime":2,"channel":1,"type":"channel","noteNumber":64,"velocity":110,"subtype":"noteOn"},{"deltaTime":94,"channel":1,"type":"channel","noteNumber":64,"velocity":0,"subtype":"noteOff"},{"deltaTime":2,"channel":1,"type":"channel","noteNumber":66,"velocity":110,"subtype":"noteOn"},{"deltaTime":160,"channel":1,"type":"channel","noteNumber":66,"velocity":0,"subtype":"noteOff"},{"deltaTime":32,"channel":1,"type":"channel","noteNumber":64,"velocity":110,"subtype":"noteOn"},{"deltaTime":94,"channel":1,"type":"channel","noteNumber":64,"velocity":0,"subtype":"noteOff"},{"deltaTime":2,"channel":1,"type":"channel","noteNumber":63,"velocity":110,"subtype":"noteOn"},{"deltaTime":94,"channel":1,"type":"channel","noteNumber":63,"velocity":0,"subtype":"noteOff"},{"deltaTime":2,"channel":1,"type":"channel","noteNumber":59,"velocity":110,"subtype":"noteOn"},{"deltaTime":160,"channel":1,"type":"channel","noteNumber":59,"velocity":0,"subtype":"noteOff"},{"deltaTime":32,"channel":1,"type":"channel","noteNumber":59,"velocity":110,"subtype":"noteOn"},{"deltaTime":94,"channel":1,"type":"channel","noteNumber":59,"velocity":0,"subtype":"noteOff"},{"deltaTime":2,"channel":1,"type":"channel","noteNumber":64,"velocity":110,"subtype":"noteOn"},{"deltaTime":94,"channel":1,"type":"channel","noteNumber":64,"velocity":0,"subtype":"noteOff"},{"deltaTime":2,"channel":1,"type":"channel","noteNumber":67,"velocity":110,"subtype":"noteOn"},{"deltaTime":160,"channel":1,"type":"channel","noteNumber":67,"velocity":0,"subtype":"noteOff"},{"deltaTime":32,"channel":1,"type":"channel","noteNumber":66,"velocity":110,"subtype":"noteOn"},{"deltaTime":94,"channel":1,"type":"channel","noteNumber":66,"velocity":0,"subtype":"noteOff"},{"deltaTime":2,"channel":1,"type":"channel","noteNumber":64,"velocity":110,"subtype":"noteOn"},{"deltaTime":94,"channel":1,"type":"channel","noteNumber":64,"velocity":0,"subtype":"noteOff"},{"deltaTime":2,"channel":1,"type":"channel","noteNumber":63,"velocity":110,"subtype":"noteOn"},{"deltaTime":94,"channel":1,"type":"channel","noteNumber":63,"velocity":0,"subtype":"noteOff"},{"deltaTime":2,"channel":1,"type":"channel","noteNumber":59,"velocity":110,"subtype":"noteOn"},{"deltaTime":94,"channel":1,"type":"channel","noteNumber":59,"velocity":0,"subtype":"noteOff"},{"deltaTime":2,"channel":1,"type":"channel","noteNumber":63,"velocity":110,"subtype":"noteOn"},{"deltaTime":94,"channel":1,"type":"channel","noteNumber":63,"velocity":0,"subtype":"noteOff"},{"deltaTime":2,"channel":1,"type":"channel","noteNumber":64,"velocity":110,"subtype":"noteOn"},{"deltaTime":94,"channel":1,"type":"channel","noteNumber":64,"velocity":0,"subtype":"noteOff"},{"deltaTime":2,"channel":1,"type":"channel","noteNumber":66,"velocity":110,"subtype":"noteOn"},{"deltaTime":160,"channel":1,"type":"channel","noteNumber":66,"velocity":0,"subtype":"noteOff"},{"deltaTime":32,"channel":1,"type":"channel","noteNumber":67,"velocity":110,"subtype":"noteOn"},{"deltaTime":160,"channel":1,"type":"channel","noteNumber":67,"velocity":0,"subtype":"noteOff"},{"deltaTime":32,"channel":1,"type":"channel","noteNumber":64,"velocity":110,"subtype":"noteOn"},{"deltaTime":160,"channel":1,"type":"channel","noteNumber":64,"velocity":0,"subtype":"noteOff"},{"deltaTime":32,"channel":1,"type":"channel","noteNumber":59,"velocity":110,"subtype":"noteOn"},{"deltaTime":160,"channel":1,"type":"channel","noteNumber":59,"velocity":0,"subtype":"noteOff"},{"deltaTime":32,"channel":1,"type":"channel","noteNumber":59,"velocity":110,"subtype":"noteOn"},{"deltaTime":336,"channel":1,"type":"channel","noteNumber":59,"velocity":0,"subtype":"noteOff"},{"deltaTime":144,"channel":1,"type":"channel","noteNumber":60,"velocity":110,"subtype":"noteOn"},{"deltaTime":190,"channel":1,"type":"channel","noteNumber":60,"velocity":0,"subtype":"noteOff"},{"deltaTime":2,"channel":1,"type":"channel","noteNumber":64,"velocity":110,"subtype":"noteOn"},{"deltaTime":94,"channel":1,"type":"channel","noteNumber":64,"velocity":0,"subtype":"noteOff"},{"deltaTime":2,"channel":1,"type":"channel","noteNumber":67,"velocity":110,"subtype":"noteOn"},{"deltaTime":94,"channel":1,"type":"channel","noteNumber":67,"velocity":0,"subtype":"noteOff"},{"deltaTime":2,"channel":1,"type":"channel","noteNumber":67,"velocity":110,"subtype":"noteOn"},{"deltaTime":46,"channel":1,"type":"channel","noteNumber":67,"velocity":0,"subtype":"noteOff"},{"deltaTime":2,"channel":1,"type":"channel","noteNumber":67,"velocity":110,"subtype":"noteOn"},{"deltaTime":46,"channel":1,"type":"channel","noteNumber":67,"velocity":0,"subtype":"noteOff"},{"deltaTime":2,"channel":1,"type":"channel","noteNumber":66,"velocity":110,"subtype":"noteOn"},{"deltaTime":94,"channel":1,"type":"channel","noteNumber":66,"velocity":0,"subtype":"noteOff"},{"deltaTime":2,"channel":1,"type":"channel","noteNumber":64,"velocity":110,"subtype":"noteOn"},{"deltaTime":94,"channel":1,"type":"channel","noteNumber":64,"velocity":0,"subtype":"noteOff"},{"deltaTime":2,"channel":1,"type":"channel","noteNumber":62,"velocity":110,"subtype":"noteOn"},{"deltaTime":256,"channel":1,"type":"channel","noteNumber":62,"velocity":0,"subtype":"noteOff"},{"deltaTime":32,"channel":1,"type":"channel","noteNumber":59,"velocity":110,"subtype":"noteOn"},{"deltaTime":94,"channel":1,"type":"channel","noteNumber":59,"velocity":0,"subtype":"noteOff"},{"deltaTime":2,"channel":1,"type":"channel","noteNumber":62,"velocity":110,"subtype":"noteOn"},{"deltaTime":94,"channel":1,"type":"channel","noteNumber":62,"velocity":0,"subtype":"noteOff"},{"deltaTime":2,"channel":1,"type":"channel","noteNumber":64,"velocity":110,"subtype":"noteOn"},{"deltaTime":46,"channel":1,"type":"channel","noteNumber":64,"velocity":0,"subtype":"noteOff"},{"deltaTime":2,"channel":1,"type":"channel","noteNumber":62,"velocity":110,"subtype":"noteOn"},{"deltaTime":46,"channel":1,"type":"channel","noteNumber":62,"velocity":0,"subtype":"noteOff"},{"deltaTime":2,"channel":1,"type":"channel","noteNumber":60,"velocity":110,"subtype":"noteOn"},{"deltaTime":94,"channel":1,"type":"channel","noteNumber":60,"velocity":0,"subtype":"noteOff"},{"deltaTime":2,"channel":1,"type":"channel","noteNumber":59,"velocity":110,"subtype":"noteOn"},{"deltaTime":94,"channel":1,"type":"channel","noteNumber":59,"velocity":0,"subtype":"noteOff"},{"deltaTime":2,"channel":1,"type":"channel","noteNumber":63,"velocity":110,"subtype":"noteOn"},{"deltaTime":94,"channel":1,"type":"channel","noteNumber":63,"velocity":0,"subtype":"noteOff"},{"deltaTime":2,"channel":1,"type":"channel","noteNumber":59,"velocity":110,"subtype":"noteOn"},{"deltaTime":94,"channel":1,"type":"channel","noteNumber":59,"velocity":0,"subtype":"noteOff"},{"deltaTime":2,"channel":1,"type":"channel","noteNumber":63,"velocity":110,"subtype":"noteOn"},{"deltaTime":94,"channel":1,"type":"channel","noteNumber":63,"velocity":0,"subtype":"noteOff"},{"deltaTime":2,"channel":1,"type":"channel","noteNumber":64,"velocity":110,"subtype":"noteOn"},{"deltaTime":94,"channel":1,"type":"channel","noteNumber":64,"velocity":0,"subtype":"noteOff"},{"deltaTime":2,"channel":1,"type":"channel","noteNumber":66,"velocity":110,"subtype":"noteOn"},{"deltaTime":94,"channel":1,"type":"channel","noteNumber":66,"velocity":0,"subtype":"noteOff"},{"deltaTime":2,"channel":1,"type":"channel","noteNumber":63,"velocity":110,"subtype":"noteOn"},{"deltaTime":94,"channel":1,"type":"channel","noteNumber":63,"velocity":0,"subtype":"noteOff"},{"deltaTime":2,"channel":1,"type":"channel","noteNumber":67,"velocity":110,"subtype":"noteOn"},{"deltaTime":94,"channel":1,"type":"channel","noteNumber":67,"velocity":0,"subtype":"noteOff"},{"deltaTime":2,"channel":1,"type":"channel","noteNumber":63,"velocity":110,"subtype":"noteOn"},{"deltaTime":94,"channel":1,"type":"channel","noteNumber":63,"velocity":0,"subtype":"noteOff"},{"deltaTime":2,"channel":1,"type":"channel","noteNumber":64,"velocity":110,"subtype":"noteOn"},{"deltaTime":94,"channel":1,"type":"channel","noteNumber":64,"velocity":0,"subtype":"noteOff"},{"deltaTime":2,"channel":1,"type":"channel","noteNumber":59,"velocity":110,"subtype":"noteOn"},{"deltaTime":94,"channel":1,"type":"channel","noteNumber":59,"velocity":0,"subtype":"noteOff"},{"deltaTime":2,"channel":1,"type":"channel","noteNumber":59,"velocity":110,"subtype":"noteOn"},{"deltaTime":160,"channel":1,"type":"channel","noteNumber":59,"velocity":0,"subtype":"noteOff"},{"deltaTime":32,"channel":1,"type":"channel","noteNumber":59,"velocity":110,"subtype":"noteOn"},{"deltaTime":160,"channel":1,"type":"channel","noteNumber":59,"velocity":0,"subtype":"noteOff"},{"deltaTime":12512,"channel":1,"type":"channel","noteNumber":66,"velocity":110,"subtype":"noteOn"},{"deltaTime":160,"channel":1,"type":"channel","noteNumber":66,"velocity":0,"subtype":"noteOff"},{"deltaTime":32,"channel":1,"type":"channel","noteNumber":63,"velocity":110,"subtype":"noteOn"},{"deltaTime":94,"channel":1,"type":"channel","noteNumber":63,"velocity":0,"subtype":"noteOff"},{"deltaTime":2,"channel":1,"type":"channel","noteNumber":64,"velocity":110,"subtype":"noteOn"},{"deltaTime":94,"channel":1,"type":"channel","noteNumber":64,"velocity":0,"subtype":"noteOff"},{"deltaTime":2,"channel":1,"type":"channel","noteNumber":66,"velocity":110,"subtype":"noteOn"},{"deltaTime":160,"channel":1,"type":"channel","noteNumber":66,"velocity":0,"subtype":"noteOff"},{"deltaTime":32,"channel":1,"type":"channel","noteNumber":64,"velocity":110,"subtype":"noteOn"},{"deltaTime":94,"channel":1,"type":"channel","noteNumber":64,"velocity":0,"subtype":"noteOff"},{"deltaTime":2,"channel":1,"type":"channel","noteNumber":63,"velocity":110,"subtype":"noteOn"},{"deltaTime":94,"channel":1,"type":"channel","noteNumber":63,"velocity":0,"subtype":"noteOff"},{"deltaTime":2,"channel":1,"type":"channel","noteNumber":59,"velocity":110,"subtype":"noteOn"},{"deltaTime":160,"channel":1,"type":"channel","noteNumber":59,"velocity":0,"subtype":"noteOff"},{"deltaTime":32,"channel":1,"type":"channel","noteNumber":59,"velocity":110,"subtype":"noteOn"},{"deltaTime":94,"channel":1,"type":"channel","noteNumber":59,"velocity":0,"subtype":"noteOff"},{"deltaTime":2,"channel":1,"type":"channel","noteNumber":64,"velocity":110,"subtype":"noteOn"},{"deltaTime":94,"channel":1,"type":"channel","noteNumber":64,"velocity":0,"subtype":"noteOff"},{"deltaTime":2,"channel":1,"type":"channel","noteNumber":67,"velocity":110,"subtype":"noteOn"},{"deltaTime":160,"channel":1,"type":"channel","noteNumber":67,"velocity":0,"subtype":"noteOff"},{"deltaTime":32,"channel":1,"type":"channel","noteNumber":66,"velocity":110,"subtype":"noteOn"},{"deltaTime":94,"channel":1,"type":"channel","noteNumber":66,"velocity":0,"subtype":"noteOff"},{"deltaTime":2,"channel":1,"type":"channel","noteNumber":64,"velocity":110,"subtype":"noteOn"},{"deltaTime":94,"channel":1,"type":"channel","noteNumber":64,"velocity":0,"subtype":"noteOff"},{"deltaTime":2,"channel":1,"type":"channel","noteNumber":63,"velocity":110,"subtype":"noteOn"},{"deltaTime":94,"channel":1,"type":"channel","noteNumber":63,"velocity":0,"subtype":"noteOff"},{"deltaTime":2,"channel":1,"type":"channel","noteNumber":59,"velocity":110,"subtype":"noteOn"},{"deltaTime":94,"channel":1,"type":"channel","noteNumber":59,"velocity":0,"subtype":"noteOff"},{"deltaTime":2,"channel":1,"type":"channel","noteNumber":63,"velocity":110,"subtype":"noteOn"},{"deltaTime":94,"channel":1,"type":"channel","noteNumber":63,"velocity":0,"subtype":"noteOff"},{"deltaTime":2,"channel":1,"type":"channel","noteNumber":64,"velocity":110,"subtype":"noteOn"},{"deltaTime":94,"channel":1,"type":"channel","noteNumber":64,"velocity":0,"subtype":"noteOff"},{"deltaTime":2,"channel":1,"type":"channel","noteNumber":66,"velocity":110,"subtype":"noteOn"},{"deltaTime":160,"channel":1,"type":"channel","noteNumber":66,"velocity":0,"subtype":"noteOff"},{"deltaTime":32,"channel":1,"type":"channel","noteNumber":67,"velocity":110,"subtype":"noteOn"},{"deltaTime":160,"channel":1,"type":"channel","noteNumber":67,"velocity":0,"subtype":"noteOff"},{"deltaTime":32,"channel":1,"type":"channel","noteNumber":64,"velocity":110,"subtype":"noteOn"},{"deltaTime":160,"channel":1,"type":"channel","noteNumber":64,"velocity":0,"subtype":"noteOff"},{"deltaTime":32,"channel":1,"type":"channel","noteNumber":59,"velocity":110,"subtype":"noteOn"},{"deltaTime":160,"channel":1,"type":"channel","noteNumber":59,"velocity":0,"subtype":"noteOff"},{"deltaTime":32,"channel":1,"type":"channel","noteNumber":59,"velocity":110,"subtype":"noteOn"},{"deltaTime":336,"channel":1,"type":"channel","noteNumber":59,"velocity":0,"subtype":"noteOff"},{"deltaTime":144,"channel":1,"type":"channel","noteNumber":60,"velocity":110,"subtype":"noteOn"},{"deltaTime":190,"channel":1,"type":"channel","noteNumber":60,"velocity":0,"subtype":"noteOff"},{"deltaTime":2,"channel":1,"type":"channel","noteNumber":64,"velocity":110,"subtype":"noteOn"},{"deltaTime":94,"channel":1,"type":"channel","noteNumber":64,"velocity":0,"subtype":"noteOff"},{"deltaTime":2,"channel":1,"type":"channel","noteNumber":67,"velocity":110,"subtype":"noteOn"},{"deltaTime":94,"channel":1,"type":"channel","noteNumber":67,"velocity":0,"subtype":"noteOff"},{"deltaTime":2,"channel":1,"type":"channel","noteNumber":67,"velocity":110,"subtype":"noteOn"},{"deltaTime":46,"channel":1,"type":"channel","noteNumber":67,"velocity":0,"subtype":"noteOff"},{"deltaTime":2,"channel":1,"type":"channel","noteNumber":67,"velocity":110,"subtype":"noteOn"},{"deltaTime":46,"channel":1,"type":"channel","noteNumber":67,"velocity":0,"subtype":"noteOff"},{"deltaTime":2,"channel":1,"type":"channel","noteNumber":66,"velocity":110,"subtype":"noteOn"},{"deltaTime":94,"channel":1,"type":"channel","noteNumber":66,"velocity":0,"subtype":"noteOff"},{"deltaTime":2,"channel":1,"type":"channel","noteNumber":64,"velocity":110,"subtype":"noteOn"},{"deltaTime":94,"channel":1,"type":"channel","noteNumber":64,"velocity":0,"subtype":"noteOff"},{"deltaTime":2,"channel":1,"type":"channel","noteNumber":62,"velocity":110,"subtype":"noteOn"},{"deltaTime":256,"channel":1,"type":"channel","noteNumber":62,"velocity":0,"subtype":"noteOff"},{"deltaTime":32,"channel":1,"type":"channel","noteNumber":59,"velocity":110,"subtype":"noteOn"},{"deltaTime":94,"channel":1,"type":"channel","noteNumber":59,"velocity":0,"subtype":"noteOff"},{"deltaTime":2,"channel":1,"type":"channel","noteNumber":62,"velocity":110,"subtype":"noteOn"},{"deltaTime":94,"channel":1,"type":"channel","noteNumber":62,"velocity":0,"subtype":"noteOff"},{"deltaTime":2,"channel":1,"type":"channel","noteNumber":64,"velocity":110,"subtype":"noteOn"},{"deltaTime":46,"channel":1,"type":"channel","noteNumber":64,"velocity":0,"subtype":"noteOff"},{"deltaTime":2,"channel":1,"type":"channel","noteNumber":62,"velocity":110,"subtype":"noteOn"},{"deltaTime":46,"channel":1,"type":"channel","noteNumber":62,"velocity":0,"subtype":"noteOff"},{"deltaTime":2,"channel":1,"type":"channel","noteNumber":60,"velocity":110,"subtype":"noteOn"},{"deltaTime":94,"channel":1,"type":"channel","noteNumber":60,"velocity":0,"subtype":"noteOff"},{"deltaTime":2,"channel":1,"type":"channel","noteNumber":59,"velocity":110,"subtype":"noteOn"},{"deltaTime":94,"channel":1,"type":"channel","noteNumber":59,"velocity":0,"subtype":"noteOff"},{"deltaTime":2,"channel":1,"type":"channel","noteNumber":63,"velocity":110,"subtype":"noteOn"},{"deltaTime":94,"channel":1,"type":"channel","noteNumber":63,"velocity":0,"subtype":"noteOff"},{"deltaTime":2,"channel":1,"type":"channel","noteNumber":59,"velocity":110,"subtype":"noteOn"},{"deltaTime":94,"channel":1,"type":"channel","noteNumber":59,"velocity":0,"subtype":"noteOff"},{"deltaTime":2,"channel":1,"type":"channel","noteNumber":63,"velocity":110,"subtype":"noteOn"},{"deltaTime":94,"channel":1,"type":"channel","noteNumber":63,"velocity":0,"subtype":"noteOff"},{"deltaTime":2,"channel":1,"type":"channel","noteNumber":64,"velocity":110,"subtype":"noteOn"},{"deltaTime":94,"channel":1,"type":"channel","noteNumber":64,"velocity":0,"subtype":"noteOff"},{"deltaTime":2,"channel":1,"type":"channel","noteNumber":66,"velocity":110,"subtype":"noteOn"},{"deltaTime":94,"channel":1,"type":"channel","noteNumber":66,"velocity":0,"subtype":"noteOff"},{"deltaTime":2,"channel":1,"type":"channel","noteNumber":63,"velocity":110,"subtype":"noteOn"},{"deltaTime":94,"channel":1,"type":"channel","noteNumber":63,"velocity":0,"subtype":"noteOff"},{"deltaTime":2,"channel":1,"type":"channel","noteNumber":67,"velocity":110,"subtype":"noteOn"},{"deltaTime":94,"channel":1,"type":"channel","noteNumber":67,"velocity":0,"subtype":"noteOff"},{"deltaTime":2,"channel":1,"type":"channel","noteNumber":63,"velocity":110,"subtype":"noteOn"},{"deltaTime":94,"channel":1,"type":"channel","noteNumber":63,"velocity":0,"subtype":"noteOff"},{"deltaTime":2,"channel":1,"type":"channel","noteNumber":64,"velocity":110,"subtype":"noteOn"},{"deltaTime":94,"channel":1,"type":"channel","noteNumber":64,"velocity":0,"subtype":"noteOff"},{"deltaTime":2,"channel":1,"type":"channel","noteNumber":59,"velocity":110,"subtype":"noteOn"},{"deltaTime":94,"channel":1,"type":"channel","noteNumber":59,"velocity":0,"subtype":"noteOff"},{"deltaTime":2,"channel":1,"type":"channel","noteNumber":59,"velocity":110,"subtype":"noteOn"},{"deltaTime":160,"channel":1,"type":"channel","noteNumber":59,"velocity":0,"subtype":"noteOff"},{"deltaTime":32,"channel":1,"type":"channel","noteNumber":59,"velocity":110,"subtype":"noteOn"},{"deltaTime":160,"channel":1,"type":"channel","noteNumber":59,"velocity":0,"subtype":"noteOff"},{"deltaTime":224,"channel":1,"type":"channel","noteNumber":66,"velocity":110,"subtype":"noteOn"},{"deltaTime":160,"channel":1,"type":"channel","noteNumber":66,"velocity":0,"subtype":"noteOff"},{"deltaTime":32,"channel":1,"type":"channel","noteNumber":63,"velocity":110,"subtype":"noteOn"},{"deltaTime":94,"channel":1,"type":"channel","noteNumber":63,"velocity":0,"subtype":"noteOff"},{"deltaTime":2,"channel":1,"type":"channel","noteNumber":64,"velocity":110,"subtype":"noteOn"},{"deltaTime":94,"channel":1,"type":"channel","noteNumber":64,"velocity":0,"subtype":"noteOff"},{"deltaTime":2,"channel":1,"type":"channel","noteNumber":66,"velocity":110,"subtype":"noteOn"},{"deltaTime":160,"channel":1,"type":"channel","noteNumber":66,"velocity":0,"subtype":"noteOff"},{"deltaTime":32,"channel":1,"type":"channel","noteNumber":64,"velocity":110,"subtype":"noteOn"},{"deltaTime":94,"channel":1,"type":"channel","noteNumber":64,"velocity":0,"subtype":"noteOff"},{"deltaTime":2,"channel":1,"type":"channel","noteNumber":63,"velocity":110,"subtype":"noteOn"},{"deltaTime":94,"channel":1,"type":"channel","noteNumber":63,"velocity":0,"subtype":"noteOff"},{"deltaTime":2,"channel":1,"type":"channel","noteNumber":59,"velocity":110,"subtype":"noteOn"},{"deltaTime":160,"channel":1,"type":"channel","noteNumber":59,"velocity":0,"subtype":"noteOff"},{"deltaTime":32,"channel":1,"type":"channel","noteNumber":59,"velocity":110,"subtype":"noteOn"},{"deltaTime":94,"channel":1,"type":"channel","noteNumber":59,"velocity":0,"subtype":"noteOff"},{"deltaTime":2,"channel":1,"type":"channel","noteNumber":64,"velocity":110,"subtype":"noteOn"},{"deltaTime":94,"channel":1,"type":"channel","noteNumber":64,"velocity":0,"subtype":"noteOff"},{"deltaTime":2,"channel":1,"type":"channel","noteNumber":67,"velocity":110,"subtype":"noteOn"},{"deltaTime":160,"channel":1,"type":"channel","noteNumber":67,"velocity":0,"subtype":"noteOff"},{"deltaTime":32,"channel":1,"type":"channel","noteNumber":66,"velocity":110,"subtype":"noteOn"},{"deltaTime":94,"channel":1,"type":"channel","noteNumber":66,"velocity":0,"subtype":"noteOff"},{"deltaTime":2,"channel":1,"type":"channel","noteNumber":64,"velocity":110,"subtype":"noteOn"},{"deltaTime":94,"channel":1,"type":"channel","noteNumber":64,"velocity":0,"subtype":"noteOff"},{"deltaTime":2,"channel":1,"type":"channel","noteNumber":63,"velocity":110,"subtype":"noteOn"},{"deltaTime":94,"channel":1,"type":"channel","noteNumber":63,"velocity":0,"subtype":"noteOff"},{"deltaTime":2,"channel":1,"type":"channel","noteNumber":59,"velocity":110,"subtype":"noteOn"},{"deltaTime":94,"channel":1,"type":"channel","noteNumber":59,"velocity":0,"subtype":"noteOff"},{"deltaTime":2,"channel":1,"type":"channel","noteNumber":63,"velocity":110,"subtype":"noteOn"},{"deltaTime":94,"channel":1,"type":"channel","noteNumber":63,"velocity":0,"subtype":"noteOff"},{"deltaTime":2,"channel":1,"type":"channel","noteNumber":64,"velocity":110,"subtype":"noteOn"},{"deltaTime":94,"channel":1,"type":"channel","noteNumber":64,"velocity":0,"subtype":"noteOff"},{"deltaTime":2,"channel":1,"type":"channel","noteNumber":66,"velocity":110,"subtype":"noteOn"},{"deltaTime":160,"channel":1,"type":"channel","noteNumber":66,"velocity":0,"subtype":"noteOff"},{"deltaTime":32,"channel":1,"type":"channel","noteNumber":67,"velocity":110,"subtype":"noteOn"},{"deltaTime":160,"channel":1,"type":"channel","noteNumber":67,"velocity":0,"subtype":"noteOff"},{"deltaTime":32,"channel":1,"type":"channel","noteNumber":64,"velocity":110,"subtype":"noteOn"},{"deltaTime":160,"channel":1,"type":"channel","noteNumber":64,"velocity":0,"subtype":"noteOff"},{"deltaTime":32,"channel":1,"type":"channel","noteNumber":59,"velocity":110,"subtype":"noteOn"},{"deltaTime":160,"channel":1,"type":"channel","noteNumber":59,"velocity":0,"subtype":"noteOff"},{"deltaTime":32,"channel":1,"type":"channel","noteNumber":59,"velocity":110,"subtype":"noteOn"},{"deltaTime":336,"channel":1,"type":"channel","noteNumber":59,"velocity":0,"subtype":"noteOff"},{"deltaTime":144,"channel":1,"type":"channel","noteNumber":60,"velocity":110,"subtype":"noteOn"},{"deltaTime":190,"channel":1,"type":"channel","noteNumber":60,"velocity":0,"subtype":"noteOff"},{"deltaTime":2,"channel":1,"type":"channel","noteNumber":64,"velocity":110,"subtype":"noteOn"},{"deltaTime":94,"channel":1,"type":"channel","noteNumber":64,"velocity":0,"subtype":"noteOff"},{"deltaTime":2,"channel":1,"type":"channel","noteNumber":67,"velocity":110,"subtype":"noteOn"},{"deltaTime":94,"channel":1,"type":"channel","noteNumber":67,"velocity":0,"subtype":"noteOff"},{"deltaTime":2,"channel":1,"type":"channel","noteNumber":67,"velocity":110,"subtype":"noteOn"},{"deltaTime":46,"channel":1,"type":"channel","noteNumber":67,"velocity":0,"subtype":"noteOff"},{"deltaTime":2,"channel":1,"type":"channel","noteNumber":67,"velocity":110,"subtype":"noteOn"},{"deltaTime":46,"channel":1,"type":"channel","noteNumber":67,"velocity":0,"subtype":"noteOff"},{"deltaTime":2,"channel":1,"type":"channel","noteNumber":66,"velocity":110,"subtype":"noteOn"},{"deltaTime":94,"channel":1,"type":"channel","noteNumber":66,"velocity":0,"subtype":"noteOff"},{"deltaTime":2,"channel":1,"type":"channel","noteNumber":64,"velocity":110,"subtype":"noteOn"},{"deltaTime":94,"channel":1,"type":"channel","noteNumber":64,"velocity":0,"subtype":"noteOff"},{"deltaTime":2,"channel":1,"type":"channel","noteNumber":62,"velocity":110,"subtype":"noteOn"},{"deltaTime":256,"channel":1,"type":"channel","noteNumber":62,"velocity":0,"subtype":"noteOff"},{"deltaTime":32,"channel":1,"type":"channel","noteNumber":59,"velocity":110,"subtype":"noteOn"},{"deltaTime":94,"channel":1,"type":"channel","noteNumber":59,"velocity":0,"subtype":"noteOff"},{"deltaTime":2,"channel":1,"type":"channel","noteNumber":62,"velocity":110,"subtype":"noteOn"},{"deltaTime":94,"channel":1,"type":"channel","noteNumber":62,"velocity":0,"subtype":"noteOff"},{"deltaTime":2,"channel":1,"type":"channel","noteNumber":64,"velocity":110,"subtype":"noteOn"},{"deltaTime":46,"channel":1,"type":"channel","noteNumber":64,"velocity":0,"subtype":"noteOff"},{"deltaTime":2,"channel":1,"type":"channel","noteNumber":62,"velocity":110,"subtype":"noteOn"},{"deltaTime":46,"channel":1,"type":"channel","noteNumber":62,"velocity":0,"subtype":"noteOff"},{"deltaTime":2,"channel":1,"type":"channel","noteNumber":60,"velocity":110,"subtype":"noteOn"},{"deltaTime":94,"channel":1,"type":"channel","noteNumber":60,"velocity":0,"subtype":"noteOff"},{"deltaTime":2,"channel":1,"type":"channel","noteNumber":59,"velocity":110,"subtype":"noteOn"},{"deltaTime":94,"channel":1,"type":"channel","noteNumber":59,"velocity":0,"subtype":"noteOff"},{"deltaTime":2,"channel":1,"type":"channel","noteNumber":63,"velocity":110,"subtype":"noteOn"},{"deltaTime":94,"channel":1,"type":"channel","noteNumber":63,"velocity":0,"subtype":"noteOff"},{"deltaTime":2,"channel":1,"type":"channel","noteNumber":59,"velocity":110,"subtype":"noteOn"},{"deltaTime":94,"channel":1,"type":"channel","noteNumber":59,"velocity":0,"subtype":"noteOff"},{"deltaTime":2,"channel":1,"type":"channel","noteNumber":63,"velocity":110,"subtype":"noteOn"},{"deltaTime":94,"channel":1,"type":"channel","noteNumber":63,"velocity":0,"subtype":"noteOff"},{"deltaTime":2,"channel":1,"type":"channel","noteNumber":64,"velocity":110,"subtype":"noteOn"},{"deltaTime":94,"channel":1,"type":"channel","noteNumber":64,"velocity":0,"subtype":"noteOff"},{"deltaTime":2,"channel":1,"type":"channel","noteNumber":66,"velocity":110,"subtype":"noteOn"},{"deltaTime":94,"channel":1,"type":"channel","noteNumber":66,"velocity":0,"subtype":"noteOff"},{"deltaTime":2,"channel":1,"type":"channel","noteNumber":63,"velocity":110,"subtype":"noteOn"},{"deltaTime":94,"channel":1,"type":"channel","noteNumber":63,"velocity":0,"subtype":"noteOff"},{"deltaTime":2,"channel":1,"type":"channel","noteNumber":67,"velocity":110,"subtype":"noteOn"},{"deltaTime":94,"channel":1,"type":"channel","noteNumber":67,"velocity":0,"subtype":"noteOff"},{"deltaTime":2,"channel":1,"type":"channel","noteNumber":63,"velocity":110,"subtype":"noteOn"},{"deltaTime":94,"channel":1,"type":"channel","noteNumber":63,"velocity":0,"subtype":"noteOff"},{"deltaTime":2,"channel":1,"type":"channel","noteNumber":64,"velocity":110,"subtype":"noteOn"},{"deltaTime":94,"channel":1,"type":"channel","noteNumber":64,"velocity":0,"subtype":"noteOff"},{"deltaTime":2,"channel":1,"type":"channel","noteNumber":59,"velocity":110,"subtype":"noteOn"},{"deltaTime":94,"channel":1,"type":"channel","noteNumber":59,"velocity":0,"subtype":"noteOff"},{"deltaTime":2,"channel":1,"type":"channel","noteNumber":59,"velocity":110,"subtype":"noteOn"},{"deltaTime":160,"channel":1,"type":"channel","noteNumber":59,"velocity":0,"subtype":"noteOff"},{"deltaTime":32,"channel":1,"type":"channel","noteNumber":59,"velocity":110,"subtype":"noteOn"},{"deltaTime":160,"channel":1,"type":"channel","noteNumber":59,"velocity":0,"subtype":"noteOff"},{"deltaTime":12512,"channel":1,"type":"channel","noteNumber":71,"velocity":110,"subtype":"noteOn"},{"deltaTime":160,"channel":1,"type":"channel","noteNumber":71,"velocity":0,"subtype":"noteOff"},{"deltaTime":32,"channel":1,"type":"channel","noteNumber":68,"velocity":110,"subtype":"noteOn"},{"deltaTime":94,"channel":1,"type":"channel","noteNumber":68,"velocity":0,"subtype":"noteOff"},{"deltaTime":2,"channel":1,"type":"channel","noteNumber":69,"velocity":110,"subtype":"noteOn"},{"deltaTime":94,"channel":1,"type":"channel","noteNumber":69,"velocity":0,"subtype":"noteOff"},{"deltaTime":2,"channel":1,"type":"channel","noteNumber":71,"velocity":110,"subtype":"noteOn"},{"deltaTime":160,"channel":1,"type":"channel","noteNumber":71,"velocity":0,"subtype":"noteOff"},{"deltaTime":32,"channel":1,"type":"channel","noteNumber":69,"velocity":110,"subtype":"noteOn"},{"deltaTime":94,"channel":1,"type":"channel","noteNumber":69,"velocity":0,"subtype":"noteOff"},{"deltaTime":2,"channel":1,"type":"channel","noteNumber":68,"velocity":110,"subtype":"noteOn"},{"deltaTime":94,"channel":1,"type":"channel","noteNumber":68,"velocity":0,"subtype":"noteOff"},{"deltaTime":2,"channel":1,"type":"channel","noteNumber":64,"velocity":110,"subtype":"noteOn"},{"deltaTime":160,"channel":1,"type":"channel","noteNumber":64,"velocity":0,"subtype":"noteOff"},{"deltaTime":32,"channel":1,"type":"channel","noteNumber":64,"velocity":110,"subtype":"noteOn"},{"deltaTime":94,"channel":1,"type":"channel","noteNumber":64,"velocity":0,"subtype":"noteOff"},{"deltaTime":2,"channel":1,"type":"channel","noteNumber":69,"velocity":110,"subtype":"noteOn"},{"deltaTime":94,"channel":1,"type":"channel","noteNumber":69,"velocity":0,"subtype":"noteOff"},{"deltaTime":2,"channel":1,"type":"channel","noteNumber":72,"velocity":110,"subtype":"noteOn"},{"deltaTime":160,"channel":1,"type":"channel","noteNumber":72,"velocity":0,"subtype":"noteOff"},{"deltaTime":32,"channel":1,"type":"channel","noteNumber":71,"velocity":110,"subtype":"noteOn"},{"deltaTime":94,"channel":1,"type":"channel","noteNumber":71,"velocity":0,"subtype":"noteOff"},{"deltaTime":2,"channel":1,"type":"channel","noteNumber":69,"velocity":110,"subtype":"noteOn"},{"deltaTime":94,"channel":1,"type":"channel","noteNumber":69,"velocity":0,"subtype":"noteOff"},{"deltaTime":2,"channel":1,"type":"channel","noteNumber":68,"velocity":110,"subtype":"noteOn"},{"deltaTime":94,"channel":1,"type":"channel","noteNumber":68,"velocity":0,"subtype":"noteOff"},{"deltaTime":2,"channel":1,"type":"channel","noteNumber":64,"velocity":110,"subtype":"noteOn"},{"deltaTime":94,"channel":1,"type":"channel","noteNumber":64,"velocity":0,"subtype":"noteOff"},{"deltaTime":2,"channel":1,"type":"channel","noteNumber":68,"velocity":110,"subtype":"noteOn"},{"deltaTime":94,"channel":1,"type":"channel","noteNumber":68,"velocity":0,"subtype":"noteOff"},{"deltaTime":2,"channel":1,"type":"channel","noteNumber":69,"velocity":110,"subtype":"noteOn"},{"deltaTime":94,"channel":1,"type":"channel","noteNumber":69,"velocity":0,"subtype":"noteOff"},{"deltaTime":2,"channel":1,"type":"channel","noteNumber":71,"velocity":110,"subtype":"noteOn"},{"deltaTime":160,"channel":1,"type":"channel","noteNumber":71,"velocity":0,"subtype":"noteOff"},{"deltaTime":32,"channel":1,"type":"channel","noteNumber":72,"velocity":110,"subtype":"noteOn"},{"deltaTime":160,"channel":1,"type":"channel","noteNumber":72,"velocity":0,"subtype":"noteOff"},{"deltaTime":32,"channel":1,"type":"channel","noteNumber":69,"velocity":110,"subtype":"noteOn"},{"deltaTime":160,"channel":1,"type":"channel","noteNumber":69,"velocity":0,"subtype":"noteOff"},{"deltaTime":32,"channel":1,"type":"channel","noteNumber":64,"velocity":110,"subtype":"noteOn"},{"deltaTime":160,"channel":1,"type":"channel","noteNumber":64,"velocity":0,"subtype":"noteOff"},{"deltaTime":32,"channel":1,"type":"channel","noteNumber":64,"velocity":110,"subtype":"noteOn"},{"deltaTime":336,"channel":1,"type":"channel","noteNumber":64,"velocity":0,"subtype":"noteOff"},{"deltaTime":144,"channel":1,"type":"channel","noteNumber":65,"velocity":110,"subtype":"noteOn"},{"deltaTime":190,"channel":1,"type":"channel","noteNumber":65,"velocity":0,"subtype":"noteOff"},{"deltaTime":2,"channel":1,"type":"channel","noteNumber":69,"velocity":110,"subtype":"noteOn"},{"deltaTime":94,"channel":1,"type":"channel","noteNumber":69,"velocity":0,"subtype":"noteOff"},{"deltaTime":2,"channel":1,"type":"channel","noteNumber":72,"velocity":110,"subtype":"noteOn"},{"deltaTime":94,"channel":1,"type":"channel","noteNumber":72,"velocity":0,"subtype":"noteOff"},{"deltaTime":2,"channel":1,"type":"channel","noteNumber":72,"velocity":110,"subtype":"noteOn"},{"deltaTime":46,"channel":1,"type":"channel","noteNumber":72,"velocity":0,"subtype":"noteOff"},{"deltaTime":2,"channel":1,"type":"channel","noteNumber":72,"velocity":110,"subtype":"noteOn"},{"deltaTime":46,"channel":1,"type":"channel","noteNumber":72,"velocity":0,"subtype":"noteOff"},{"deltaTime":2,"channel":1,"type":"channel","noteNumber":71,"velocity":110,"subtype":"noteOn"},{"deltaTime":94,"channel":1,"type":"channel","noteNumber":71,"velocity":0,"subtype":"noteOff"},{"deltaTime":2,"channel":1,"type":"channel","noteNumber":69,"velocity":110,"subtype":"noteOn"},{"deltaTime":94,"channel":1,"type":"channel","noteNumber":69,"velocity":0,"subtype":"noteOff"},{"deltaTime":2,"channel":1,"type":"channel","noteNumber":67,"velocity":110,"subtype":"noteOn"},{"deltaTime":256,"channel":1,"type":"channel","noteNumber":67,"velocity":0,"subtype":"noteOff"},{"deltaTime":32,"channel":1,"type":"channel","noteNumber":64,"velocity":110,"subtype":"noteOn"},{"deltaTime":94,"channel":1,"type":"channel","noteNumber":64,"velocity":0,"subtype":"noteOff"},{"deltaTime":2,"channel":1,"type":"channel","noteNumber":67,"velocity":110,"subtype":"noteOn"},{"deltaTime":94,"channel":1,"type":"channel","noteNumber":67,"velocity":0,"subtype":"noteOff"},{"deltaTime":2,"channel":1,"type":"channel","noteNumber":69,"velocity":110,"subtype":"noteOn"},{"deltaTime":46,"channel":1,"type":"channel","noteNumber":69,"velocity":0,"subtype":"noteOff"},{"deltaTime":2,"channel":1,"type":"channel","noteNumber":67,"velocity":110,"subtype":"noteOn"},{"deltaTime":46,"channel":1,"type":"channel","noteNumber":67,"velocity":0,"subtype":"noteOff"},{"deltaTime":2,"channel":1,"type":"channel","noteNumber":65,"velocity":110,"subtype":"noteOn"},{"deltaTime":94,"channel":1,"type":"channel","noteNumber":65,"velocity":0,"subtype":"noteOff"},{"deltaTime":2,"channel":1,"type":"channel","noteNumber":64,"velocity":110,"subtype":"noteOn"},{"deltaTime":94,"channel":1,"type":"channel","noteNumber":64,"velocity":0,"subtype":"noteOff"},{"deltaTime":2,"channel":1,"type":"channel","noteNumber":68,"velocity":110,"subtype":"noteOn"},{"deltaTime":94,"channel":1,"type":"channel","noteNumber":68,"velocity":0,"subtype":"noteOff"},{"deltaTime":2,"channel":1,"type":"channel","noteNumber":64,"velocity":110,"subtype":"noteOn"},{"deltaTime":94,"channel":1,"type":"channel","noteNumber":64,"velocity":0,"subtype":"noteOff"},{"deltaTime":2,"channel":1,"type":"channel","noteNumber":68,"velocity":110,"subtype":"noteOn"},{"deltaTime":94,"channel":1,"type":"channel","noteNumber":68,"velocity":0,"subtype":"noteOff"},{"deltaTime":2,"channel":1,"type":"channel","noteNumber":69,"velocity":110,"subtype":"noteOn"},{"deltaTime":94,"channel":1,"type":"channel","noteNumber":69,"velocity":0,"subtype":"noteOff"},{"deltaTime":2,"channel":1,"type":"channel","noteNumber":71,"velocity":110,"subtype":"noteOn"},{"deltaTime":94,"channel":1,"type":"channel","noteNumber":71,"velocity":0,"subtype":"noteOff"},{"deltaTime":2,"channel":1,"type":"channel","noteNumber":68,"velocity":110,"subtype":"noteOn"},{"deltaTime":94,"channel":1,"type":"channel","noteNumber":68,"velocity":0,"subtype":"noteOff"},{"deltaTime":2,"channel":1,"type":"channel","noteNumber":72,"velocity":110,"subtype":"noteOn"},{"deltaTime":94,"channel":1,"type":"channel","noteNumber":72,"velocity":0,"subtype":"noteOff"},{"deltaTime":2,"channel":1,"type":"channel","noteNumber":68,"velocity":110,"subtype":"noteOn"},{"deltaTime":94,"channel":1,"type":"channel","noteNumber":68,"velocity":0,"subtype":"noteOff"},{"deltaTime":2,"channel":1,"type":"channel","noteNumber":69,"velocity":110,"subtype":"noteOn"},{"deltaTime":94,"channel":1,"type":"channel","noteNumber":69,"velocity":0,"subtype":"noteOff"},{"deltaTime":2,"channel":1,"type":"channel","noteNumber":64,"velocity":110,"subtype":"noteOn"},{"deltaTime":94,"channel":1,"type":"channel","noteNumber":64,"velocity":0,"subtype":"noteOff"},{"deltaTime":2,"channel":1,"type":"channel","noteNumber":64,"velocity":110,"subtype":"noteOn"},{"deltaTime":160,"channel":1,"type":"channel","noteNumber":64,"velocity":0,"subtype":"noteOff"},{"deltaTime":32,"channel":1,"type":"channel","noteNumber":64,"velocity":110,"subtype":"noteOn"},{"deltaTime":160,"channel":1,"type":"channel","noteNumber":64,"velocity":0,"subtype":"noteOff"},{"deltaTime":0,"type":"meta","subtype":"endOfTrack"}],[{"deltaTime":0,"type":"meta","subtype":"unknown","data":"\u0000"},{"deltaTime":0,"type":"meta","subtype":"trackName","text":"Staff-8"},{"deltaTime":0,"channel":2,"type":"channel","subtype":"programChange","programNumber":59},{"deltaTime":0,"channel":2,"type":"channel","subtype":"controller","controllerType":7,"value":127},{"deltaTime":0,"channel":2,"type":"channel","subtype":"controller","controllerType":10,"value":64},{"deltaTime":0,"channel":2,"type":"channel","subtype":"programChange","programNumber":59},{"deltaTime":0,"channel":2,"type":"channel","subtype":"controller","controllerType":7,"value":127},{"deltaTime":0,"channel":2,"type":"channel","subtype":"controller","controllerType":10,"value":64},{"deltaTime":61440,"channel":2,"type":"channel","noteNumber":40,"velocity":110,"subtype":"noteOn"},{"deltaTime":94,"channel":2,"type":"channel","noteNumber":40,"velocity":0,"subtype":"noteOff"},{"deltaTime":2,"channel":2,"type":"channel","noteNumber":52,"velocity":110,"subtype":"noteOn"},{"deltaTime":94,"channel":2,"type":"channel","noteNumber":52,"velocity":0,"subtype":"noteOff"},{"deltaTime":2,"channel":2,"type":"channel","noteNumber":40,"velocity":110,"subtype":"noteOn"},{"deltaTime":94,"channel":2,"type":"channel","noteNumber":40,"velocity":0,"subtype":"noteOff"},{"deltaTime":2,"channel":2,"type":"channel","noteNumber":52,"velocity":110,"subtype":"noteOn"},{"deltaTime":94,"channel":2,"type":"channel","noteNumber":52,"velocity":0,"subtype":"noteOff"},{"deltaTime":2,"channel":2,"type":"channel","noteNumber":40,"velocity":110,"subtype":"noteOn"},{"deltaTime":94,"channel":2,"type":"channel","noteNumber":40,"velocity":0,"subtype":"noteOff"},{"deltaTime":2,"channel":2,"type":"channel","noteNumber":52,"velocity":110,"subtype":"noteOn"},{"deltaTime":94,"channel":2,"type":"channel","noteNumber":52,"velocity":0,"subtype":"noteOff"},{"deltaTime":2,"channel":2,"type":"channel","noteNumber":40,"velocity":110,"subtype":"noteOn"},{"deltaTime":94,"channel":2,"type":"channel","noteNumber":40,"velocity":0,"subtype":"noteOff"},{"deltaTime":2,"channel":2,"type":"channel","noteNumber":52,"velocity":110,"subtype":"noteOn"},{"deltaTime":94,"channel":2,"type":"channel","noteNumber":52,"velocity":0,"subtype":"noteOff"},{"deltaTime":2,"channel":2,"type":"channel","noteNumber":45,"velocity":110,"subtype":"noteOn"},{"deltaTime":94,"channel":2,"type":"channel","noteNumber":45,"velocity":0,"subtype":"noteOff"},{"deltaTime":2,"channel":2,"type":"channel","noteNumber":57,"velocity":110,"subtype":"noteOn"},{"deltaTime":94,"channel":2,"type":"channel","noteNumber":57,"velocity":0,"subtype":"noteOff"},{"deltaTime":2,"channel":2,"type":"channel","noteNumber":45,"velocity":110,"subtype":"noteOn"},{"deltaTime":94,"channel":2,"type":"channel","noteNumber":45,"velocity":0,"subtype":"noteOff"},{"deltaTime":2,"channel":2,"type":"channel","noteNumber":57,"velocity":110,"subtype":"noteOn"},{"deltaTime":94,"channel":2,"type":"channel","noteNumber":57,"velocity":0,"subtype":"noteOff"},{"deltaTime":2,"channel":2,"type":"channel","noteNumber":45,"velocity":110,"subtype":"noteOn"},{"deltaTime":94,"channel":2,"type":"channel","noteNumber":45,"velocity":0,"subtype":"noteOff"},{"deltaTime":2,"channel":2,"type":"channel","noteNumber":57,"velocity":110,"subtype":"noteOn"},{"deltaTime":94,"channel":2,"type":"channel","noteNumber":57,"velocity":0,"subtype":"noteOff"},{"deltaTime":2,"channel":2,"type":"channel","noteNumber":45,"velocity":110,"subtype":"noteOn"},{"deltaTime":94,"channel":2,"type":"channel","noteNumber":45,"velocity":0,"subtype":"noteOff"},{"deltaTime":2,"channel":2,"type":"channel","noteNumber":57,"velocity":110,"subtype":"noteOn"},{"deltaTime":94,"channel":2,"type":"channel","noteNumber":57,"velocity":0,"subtype":"noteOff"},{"deltaTime":2,"channel":2,"type":"channel","noteNumber":44,"velocity":110,"subtype":"noteOn"},{"deltaTime":94,"channel":2,"type":"channel","noteNumber":44,"velocity":0,"subtype":"noteOff"},{"deltaTime":2,"channel":2,"type":"channel","noteNumber":56,"velocity":110,"subtype":"noteOn"},{"deltaTime":94,"channel":2,"type":"channel","noteNumber":56,"velocity":0,"subtype":"noteOff"},{"deltaTime":2,"channel":2,"type":"channel","noteNumber":44,"velocity":110,"subtype":"noteOn"},{"deltaTime":94,"channel":2,"type":"channel","noteNumber":44,"velocity":0,"subtype":"noteOff"},{"deltaTime":2,"channel":2,"type":"channel","noteNumber":56,"velocity":110,"subtype":"noteOn"},{"deltaTime":94,"channel":2,"type":"channel","noteNumber":56,"velocity":0,"subtype":"noteOff"},{"deltaTime":2,"channel":2,"type":"channel","noteNumber":40,"velocity":110,"subtype":"noteOn"},{"deltaTime":94,"channel":2,"type":"channel","noteNumber":40,"velocity":0,"subtype":"noteOff"},{"deltaTime":2,"channel":2,"type":"channel","noteNumber":52,"velocity":110,"subtype":"noteOn"},{"deltaTime":94,"channel":2,"type":"channel","noteNumber":52,"velocity":0,"subtype":"noteOff"},{"deltaTime":2,"channel":2,"type":"channel","noteNumber":40,"velocity":110,"subtype":"noteOn"},{"deltaTime":94,"channel":2,"type":"channel","noteNumber":40,"velocity":0,"subtype":"noteOff"},{"deltaTime":2,"channel":2,"type":"channel","noteNumber":52,"velocity":110,"subtype":"noteOn"},{"deltaTime":94,"channel":2,"type":"channel","noteNumber":52,"velocity":0,"subtype":"noteOff"},{"deltaTime":2,"channel":2,"type":"channel","noteNumber":45,"velocity":110,"subtype":"noteOn"},{"deltaTime":94,"channel":2,"type":"channel","noteNumber":45,"velocity":0,"subtype":"noteOff"},{"deltaTime":2,"channel":2,"type":"channel","noteNumber":57,"velocity":110,"subtype":"noteOn"},{"deltaTime":94,"channel":2,"type":"channel","noteNumber":57,"velocity":0,"subtype":"noteOff"},{"deltaTime":2,"channel":2,"type":"channel","noteNumber":45,"velocity":110,"subtype":"noteOn"},{"deltaTime":94,"channel":2,"type":"channel","noteNumber":45,"velocity":0,"subtype":"noteOff"},{"deltaTime":2,"channel":2,"type":"channel","noteNumber":57,"velocity":110,"subtype":"noteOn"},{"deltaTime":94,"channel":2,"type":"channel","noteNumber":57,"velocity":0,"subtype":"noteOff"},{"deltaTime":2,"channel":2,"type":"channel","noteNumber":45,"velocity":110,"subtype":"noteOn"},{"deltaTime":94,"channel":2,"type":"channel","noteNumber":45,"velocity":0,"subtype":"noteOff"},{"deltaTime":2,"channel":2,"type":"channel","noteNumber":57,"velocity":110,"subtype":"noteOn"},{"deltaTime":94,"channel":2,"type":"channel","noteNumber":57,"velocity":0,"subtype":"noteOff"},{"deltaTime":2,"channel":2,"type":"channel","noteNumber":47,"velocity":110,"subtype":"noteOn"},{"deltaTime":94,"channel":2,"type":"channel","noteNumber":47,"velocity":0,"subtype":"noteOff"},{"deltaTime":2,"channel":2,"type":"channel","noteNumber":48,"velocity":110,"subtype":"noteOn"},{"deltaTime":94,"channel":2,"type":"channel","noteNumber":48,"velocity":0,"subtype":"noteOff"},{"deltaTime":2,"channel":2,"type":"channel","noteNumber":50,"velocity":110,"subtype":"noteOn"},{"deltaTime":94,"channel":2,"type":"channel","noteNumber":50,"velocity":0,"subtype":"noteOff"},{"deltaTime":2,"channel":2,"type":"channel","noteNumber":38,"velocity":110,"subtype":"noteOn"},{"deltaTime":94,"channel":2,"type":"channel","noteNumber":38,"velocity":0,"subtype":"noteOff"},{"deltaTime":98,"channel":2,"type":"channel","noteNumber":38,"velocity":110,"subtype":"noteOn"},{"deltaTime":94,"channel":2,"type":"channel","noteNumber":38,"velocity":0,"subtype":"noteOff"},{"deltaTime":98,"channel":2,"type":"channel","noteNumber":38,"velocity":110,"subtype":"noteOn"},{"deltaTime":94,"channel":2,"type":"channel","noteNumber":38,"velocity":0,"subtype":"noteOff"},{"deltaTime":2,"channel":2,"type":"channel","noteNumber":45,"velocity":110,"subtype":"noteOn"},{"deltaTime":94,"channel":2,"type":"channel","noteNumber":45,"velocity":0,"subtype":"noteOff"},{"deltaTime":2,"channel":2,"type":"channel","noteNumber":41,"velocity":110,"subtype":"noteOn"},{"deltaTime":94,"channel":2,"type":"channel","noteNumber":41,"velocity":0,"subtype":"noteOff"},{"deltaTime":2,"channel":2,"type":"channel","noteNumber":36,"velocity":110,"subtype":"noteOn"},{"deltaTime":94,"channel":2,"type":"channel","noteNumber":36,"velocity":0,"subtype":"noteOff"},{"deltaTime":2,"channel":2,"type":"channel","noteNumber":48,"velocity":110,"subtype":"noteOn"},{"deltaTime":94,"channel":2,"type":"channel","noteNumber":48,"velocity":0,"subtype":"noteOff"},{"deltaTime":98,"channel":2,"type":"channel","noteNumber":48,"velocity":110,"subtype":"noteOn"},{"deltaTime":94,"channel":2,"type":"channel","noteNumber":48,"velocity":0,"subtype":"noteOff"},{"deltaTime":2,"channel":2,"type":"channel","noteNumber":36,"velocity":110,"subtype":"noteOn"},{"deltaTime":94,"channel":2,"type":"channel","noteNumber":36,"velocity":0,"subtype":"noteOff"},{"deltaTime":2,"channel":2,"type":"channel","noteNumber":43,"velocity":110,"subtype":"noteOn"},{"deltaTime":94,"channel":2,"type":"channel","noteNumber":43,"velocity":0,"subtype":"noteOff"},{"deltaTime":2,"channel":2,"type":"channel","noteNumber":43,"velocity":110,"subtype":"noteOn"},{"deltaTime":160,"channel":2,"type":"channel","noteNumber":43,"velocity":0,"subtype":"noteOff"},{"deltaTime":32,"channel":2,"type":"channel","noteNumber":47,"velocity":110,"subtype":"noteOn"},{"deltaTime":94,"channel":2,"type":"channel","noteNumber":47,"velocity":0,"subtype":"noteOff"},{"deltaTime":2,"channel":2,"type":"channel","noteNumber":59,"velocity":110,"subtype":"noteOn"},{"deltaTime":94,"channel":2,"type":"channel","noteNumber":59,"velocity":0,"subtype":"noteOff"},{"deltaTime":98,"channel":2,"type":"channel","noteNumber":59,"velocity":110,"subtype":"noteOn"},{"deltaTime":94,"channel":2,"type":"channel","noteNumber":59,"velocity":0,"subtype":"noteOff"},{"deltaTime":98,"channel":2,"type":"channel","noteNumber":52,"velocity":110,"subtype":"noteOn"},{"deltaTime":94,"channel":2,"type":"channel","noteNumber":52,"velocity":0,"subtype":"noteOff"},{"deltaTime":98,"channel":2,"type":"channel","noteNumber":56,"velocity":110,"subtype":"noteOn"},{"deltaTime":94,"channel":2,"type":"channel","noteNumber":56,"velocity":0,"subtype":"noteOff"},{"deltaTime":2,"channel":2,"type":"channel","noteNumber":45,"velocity":110,"subtype":"noteOn"},{"deltaTime":94,"channel":2,"type":"channel","noteNumber":45,"velocity":0,"subtype":"noteOff"},{"deltaTime":2,"channel":2,"type":"channel","noteNumber":52,"velocity":110,"subtype":"noteOn"},{"deltaTime":94,"channel":2,"type":"channel","noteNumber":52,"velocity":0,"subtype":"noteOff"},{"deltaTime":2,"channel":2,"type":"channel","noteNumber":45,"velocity":110,"subtype":"noteOn"},{"deltaTime":94,"channel":2,"type":"channel","noteNumber":45,"velocity":0,"subtype":"noteOff"},{"deltaTime":2,"channel":2,"type":"channel","noteNumber":52,"velocity":110,"subtype":"noteOn"},{"deltaTime":94,"channel":2,"type":"channel","noteNumber":52,"velocity":0,"subtype":"noteOff"},{"deltaTime":2,"channel":2,"type":"channel","noteNumber":45,"velocity":110,"subtype":"noteOn"},{"deltaTime":160,"channel":2,"type":"channel","noteNumber":45,"velocity":0,"subtype":"noteOff"},{"deltaTime":0,"type":"meta","subtype":"endOfTrack"}],[{"deltaTime":0,"type":"meta","subtype":"unknown","data":"\u0000"},{"deltaTime":0,"type":"meta","subtype":"trackName","text":"Tempo Track"},{"deltaTime":0,"channel":0,"type":"channel","subtype":"controller","controllerType":7,"value":127},{"deltaTime":0,"channel":0,"type":"channel","subtype":"controller","controllerType":10,"value":64},{"deltaTime":0,"channel":0,"type":"channel","subtype":"controller","controllerType":7,"value":127},{"deltaTime":0,"channel":0,"type":"channel","subtype":"controller","controllerType":10,"value":64},{"deltaTime":0,"type":"meta","subtype":"endOfTrack"}]]}